<svg xmlns="http://www.w3.org/2000/svg" xmlns:xlink="http://www.w3.org/1999/xlink" style="enable-background:new 0 0 216.43 73.68;" version="1.1" x="0px" y="0px" xml:space="preserve" viewBox="-0.02 0.01 215.69 73.57"><g id="white"><g><g><g><path d="M187.98,15.65c1.34,0,2.15,0.93,2.15,2.54c0,1.4-0.6,2.98-1.74,3.93c-0.7,0.57-1.6,1.03-2.51,1.03      c-1.55,0-2.15-1.22-2.15-2.53c0-2.12,1.12-3.73,2.48-4.43c0.59-0.33,1.25-0.54,1.76-0.54L187.98,15.65z M187.44,16.29      c-0.24,0-0.44,0.05-0.62,0.13c-0.64,0.29-1.73,1.61-1.73,4.11c0,1.21,0.51,1.97,1.37,1.97c0.2,0,0.36-0.03,0.54-0.1      c0.86-0.37,1.78-2.1,1.76-4.17c0-1.32-0.57-1.94-1.3-1.94L187.44,16.29z" fill="#ffffff"/><path d="M192.14,15.94c0.24-1.24,0.65-2.48,1.39-3.29c0.75-0.83,1.68-1.3,2.33-1.3c0.57,0,0.99,0.41,0.98,0.68      c0,0.26-0.24,0.55-0.41,0.68c-0.15,0.1-0.29,0.11-0.41-0.02c-0.34-0.37-0.68-0.57-1.03-0.57c-0.6,0-1.11,0.78-1.6,3.81h1.84      l-0.33,0.5l-1.63,0.16c-0.31,1.79-0.47,2.74-0.85,4.55c-0.57,2.8-1.17,4.03-2.07,4.95c-0.72,0.77-1.4,1.03-1.83,1.03      c-0.47,0-1.03-0.34-1.03-0.7c0-0.21,0.21-0.49,0.46-0.7c0.13-0.1,0.21-0.08,0.31,0.02c0.24,0.24,0.73,0.41,1.03,0.41      c0.28,0,0.52-0.13,0.7-0.33c0.21-0.23,0.59-0.91,1.14-4.07c0.37-2.23,0.6-3.57,0.86-5.17h-1.34l-0.05-0.2l0.49-0.46h1.05V15.94z      " fill="#ffffff"/></g><g><path d="M96.39,9.62c-1.47,0.1-2.03,0.42-2.13,1.44c-0.07,0.66-0.15,1.71-0.15,3.98v1.98      c0,2.88-0.44,4.99-1.83,6.45c-1.15,1.17-2.79,1.69-4.4,1.69c-1.44,0-2.84-0.34-3.91-1.15c-1.47-1.12-2.15-2.96-2.15-5.84v-6.09      c0-2.2-0.22-2.3-2.13-2.47V8.93H86v0.69c-1.91,0.12-2.1,0.27-2.1,2.47v5.55c0,3.96,1.56,6.21,4.6,6.21      c3.52,0,4.62-2.96,4.62-6.99v-1.84c0-2.25-0.07-3.28-0.17-4.03c-0.12-0.95-0.64-1.25-2.37-1.37V8.94h5.82L96.39,9.62L96.39,9.62      z" fill="#ffffff"/><path d="M103.11,24.82v-0.64c1.44-0.15,1.61-0.34,1.61-2.03v-4.06c0-1.69-0.59-2.79-2.22-2.79      c-0.98,0-1.93,0.61-2.66,1.25v5.72c0,1.66,0.15,1.76,1.59,1.91v0.64h-5.31v-0.64c1.66-0.17,1.78-0.29,1.78-1.91v-5.04      c0-1.56-0.15-1.64-1.47-1.88v-0.56c1.17-0.22,2.32-0.51,3.4-1v1.96c0.49-0.37,1.03-0.73,1.64-1.15      c0.68-0.44,1.32-0.73,2.03-0.73c1.96,0,3.15,1.34,3.15,3.69v4.72c0,1.66,0.15,1.76,1.56,1.91v0.64h-5.1V24.82z" fill="#ffffff"/><path d="M109.57,24.82v-0.64c1.54-0.15,1.71-0.29,1.71-1.96v-5.04c0-1.49-0.07-1.61-1.54-1.83v-0.59      c1.25-0.2,2.42-0.51,3.47-0.95v8.41c0,1.66,0.17,1.81,1.74,1.96v0.64H109.57z M112.11,8.91c0.68,0,1.22,0.56,1.22,1.27      c0,0.66-0.54,1.25-1.25,1.25c-0.64,0-1.22-0.59-1.22-1.22c0-0.73,0.59-1.3,1.22-1.3L112.11,8.91z" fill="#ffffff"/><path d="M126.58,14.8c-1.3,0.17-1.49,0.39-2.15,1.83c-0.83,1.83-2.1,4.84-3.47,8.46h-0.68      c-1.08-2.93-2.2-5.7-3.37-8.53c-0.56-1.39-0.73-1.56-2.05-1.76v-0.64h5.01v0.64c-1.32,0.17-1.37,0.34-0.98,1.39      c0.61,1.71,1.61,4.28,2.32,6.01c0.86-2,1.64-4.2,2.18-5.79c0.39-1.17,0.24-1.44-1.15-1.61v-0.64h4.35L126.58,14.8L126.58,14.8z" fill="#ffffff"/><path d="M134.94,22.77c-1.54,1.91-3.23,2.35-3.98,2.35c-3.01,0-4.77-2.44-4.77-5.21c0-1.66,0.61-3.18,1.61-4.25      c1-1.1,2.32-1.78,3.57-1.78h0.02c2.03,0,3.67,1.81,3.67,3.69c0,0.49-0.1,0.68-0.56,0.78c-0.39,0.07-3.47,0.32-6.41,0.42      c0.02,3.32,1.96,4.69,3.67,4.69c1,0,1.91-0.39,2.81-1.22L134.94,22.77z M130.79,14.77c-1.1,0-2.2,1.03-2.57,2.98      c1.37,0,2.74-0.02,4.16-0.07c0.44,0,0.59-0.12,0.59-0.46c0.02-1.27-0.81-2.44-2.15-2.44h-0.03V14.77z" fill="#ffffff"/><path d="M140.15,16.46c0.73-1.22,1.78-2.59,2.96-2.59c0.83,0,1.42,0.66,1.42,1.22c0,0.49-0.32,0.98-0.78,1.2      c-0.29,0.12-0.49,0.1-0.64-0.05c-0.37-0.34-0.66-0.49-1.05-0.49c-0.64,0-1.42,0.71-1.96,2.08v4.45c0,1.61,0.12,1.76,2,1.91v0.64      h-5.62v-0.64c1.52-0.15,1.69-0.29,1.69-1.88v-5.06c0-1.61-0.1-1.71-1.52-1.88v-0.56c1.2-0.2,2.27-0.49,3.45-0.98v2.64h0.05      V16.46z" fill="#ffffff"/><path d="M151.64,17.07c-0.49-1.47-1.32-2.42-2.52-2.42c-0.95,0-1.59,0.71-1.59,1.69c0,1.08,0.98,1.64,2.05,2.1      c1.86,0.76,3.11,1.61,3.11,3.3c0,2.22-2.08,3.37-4.03,3.37c-1.25,0-2.37-0.46-2.79-0.83c-0.17-0.34-0.42-2-0.42-2.88l0.66-0.1      c0.42,1.59,1.52,3.01,2.98,3.01c0.9,0,1.74-0.66,1.74-1.71c0-1.08-0.71-1.64-1.93-2.2c-1.47-0.68-3.06-1.49-3.06-3.35      c0-1.71,1.47-3.18,3.72-3.18c1,0,1.66,0.22,2.15,0.44c0.22,0.54,0.49,1.98,0.54,2.59L151.64,17.07z" fill="#ffffff"/><path d="M154.33,24.82v-0.64c1.54-0.15,1.71-0.29,1.71-1.96v-5.04c0-1.49-0.07-1.61-1.54-1.83v-0.59      c1.25-0.2,2.42-0.51,3.47-0.95v8.41c0,1.66,0.17,1.81,1.74,1.96v0.64H154.33z M156.87,8.91c0.68,0,1.22,0.56,1.22,1.27      c0,0.66-0.54,1.25-1.25,1.25c-0.64,0-1.22-0.59-1.22-1.22c0-0.73,0.59-1.3,1.22-1.3L156.87,8.91z" fill="#ffffff"/><path d="M165.72,24.8c-0.42,0.22-0.78,0.32-1.03,0.32c-1.54,0-2.4-0.95-2.4-2.88v-7.09h-1.69l-0.1-0.27l0.68-0.71      h1.1v-1.76l1.59-1.64l0.34,0.05v3.35h2.76c0.24,0.27,0.17,0.78-0.15,0.98h-2.62v6.26c0,1.96,0.81,2.32,1.44,2.32      c0.61,0,1.17-0.22,1.49-0.39l0.22,0.61L165.72,24.8z" fill="#ffffff"/><path d="M179.38,14.8c-1.3,0.2-1.49,0.39-2.15,1.76c-0.64,1.3-1.39,3.32-3.08,7.36c-1.64,3.89-2.18,5.28-2.52,6.58      c-0.12,0.49-0.44,0.61-0.78,0.61c-0.68,0-1.37-0.59-1.37-1.17c0-0.39,0.2-0.61,0.61-0.88c0.78-0.49,1.25-1.08,1.83-2.18      c0.44-0.86,0.64-1.34,0.76-1.69c0.12-0.37,0.1-0.68-0.05-1.08c-0.98-2.79-2.08-5.75-2.79-7.48c-0.54-1.32-0.76-1.66-2.1-1.83      v-0.64h4.94l0.02,0.64c-1.15,0.17-1.27,0.42-0.93,1.34l2.2,6.11c0.68-1.66,1.76-4.55,2.25-6.06c0.29-0.93,0.15-1.2-1.27-1.39      v-0.64h4.43V14.8z" fill="#ffffff"/><path d="M93.48,44.51v-0.66c2-0.2,2.08-0.34,2.08-2.93l-0.1-9.97h-0.07l-5.96,13.42h-0.51l-5.48-13.08h-0.05      l-0.34,6.97c-0.1,2.03-0.1,3.08-0.07,4.06c0.05,1.17,0.61,1.34,2.25,1.52v0.68h-5.7v-0.68c1.44-0.15,1.91-0.44,2.08-1.47      c0.15-0.86,0.29-1.91,0.46-4.47l0.34-5.09c0.22-3.18,0.1-3.28-2.13-3.5v-0.69h4.01l5.55,12.25l5.67-12.25h4.16v0.68      c-2.15,0.2-2.32,0.24-2.25,2.76l0.24,8.85c0.07,2.59,0.15,2.74,2.27,2.93v0.66L93.48,44.51L93.48,44.51z" fill="#ffffff"/><path d="M108.74,44.81c-0.37,0-0.88-0.22-1.15-0.46c-0.32-0.32-0.46-0.66-0.59-1.1c-0.98,0.66-2.15,1.56-2.88,1.56      c-1.74,0-2.93-1.44-2.93-2.98c0-1.17,0.64-1.93,1.98-2.4c1.47-0.49,3.25-1.15,3.79-1.59v-0.42c0-1.78-0.81-2.76-2.05-2.76      c-0.46,0-0.83,0.17-1.08,0.46c-0.32,0.32-0.51,0.86-0.73,1.59c-0.12,0.39-0.37,0.56-0.71,0.56c-0.44,0-1.05-0.46-1.05-1.03      c0-0.37,0.29-0.64,0.76-0.98c0.68-0.49,2.25-1.39,3.64-1.71c0.73,0,1.47,0.22,2,0.66c0.86,0.73,1.1,1.71,1.1,3.01v4.52      c0,1.1,0.44,1.47,0.86,1.47c0.29,0,0.64-0.15,0.88-0.29l0.24,0.64L108.74,44.81z M106.95,38.67c-0.51,0.27-1.69,0.78-2.2,1.03      c-0.95,0.44-1.49,0.88-1.49,1.78c0,1.27,0.98,1.86,1.74,1.86c0.64,0,1.49-0.42,1.96-0.88v-3.79H106.95z" fill="#ffffff"/><path d="M118.03,36.76c-0.49-1.47-1.32-2.42-2.52-2.42c-0.95,0-1.59,0.71-1.59,1.69c0,1.08,0.98,1.64,2.05,2.1      c1.86,0.76,3.1,1.61,3.1,3.3c0,2.22-2.08,3.37-4.03,3.37c-1.25,0-2.37-0.46-2.79-0.83c-0.17-0.34-0.42-2-0.42-2.88l0.66-0.1      c0.42,1.59,1.52,3.01,2.98,3.01c0.9,0,1.74-0.66,1.74-1.71c0-1.08-0.71-1.64-1.93-2.2c-1.47-0.68-3.06-1.49-3.06-3.35      c0-1.71,1.47-3.18,3.72-3.18c1,0,1.66,0.22,2.15,0.44c0.22,0.54,0.49,1.98,0.54,2.59L118.03,36.76z" fill="#ffffff"/><path d="M126.87,36.76c-0.49-1.47-1.32-2.42-2.52-2.42c-0.95,0-1.59,0.71-1.59,1.69c0,1.08,0.98,1.64,2.05,2.1      c1.86,0.76,3.11,1.61,3.11,3.3c0,2.22-2.08,3.37-4.03,3.37c-1.25,0-2.37-0.46-2.79-0.83c-0.17-0.34-0.42-2-0.42-2.88l0.66-0.1      c0.42,1.59,1.52,3.01,2.98,3.01c0.9,0,1.74-0.66,1.74-1.71c0-1.08-0.71-1.64-1.93-2.2c-1.47-0.68-3.06-1.49-3.06-3.35      c0-1.71,1.47-3.18,3.72-3.18c1,0,1.66,0.22,2.15,0.44c0.22,0.54,0.49,1.98,0.54,2.59L126.87,36.76z" fill="#ffffff"/><path d="M137.02,44.81c-0.37,0-0.88-0.22-1.15-0.46c-0.32-0.32-0.46-0.66-0.59-1.1c-0.98,0.66-2.15,1.56-2.88,1.56      c-1.74,0-2.93-1.44-2.93-2.98c0-1.17,0.64-1.93,1.98-2.4c1.47-0.49,3.25-1.15,3.79-1.59v-0.42c0-1.78-0.81-2.76-2.05-2.76      c-0.46,0-0.83,0.17-1.08,0.46c-0.32,0.32-0.51,0.86-0.73,1.59c-0.12,0.39-0.37,0.56-0.71,0.56c-0.44,0-1.05-0.46-1.05-1.03      c0-0.37,0.29-0.64,0.76-0.98c0.68-0.49,2.25-1.39,3.64-1.71c0.73,0,1.47,0.22,2,0.66c0.86,0.73,1.1,1.71,1.1,3.01v4.52      c0,1.1,0.44,1.47,0.86,1.47c0.29,0,0.64-0.15,0.88-0.29l0.24,0.64L137.02,44.81z M135.23,38.67c-0.51,0.27-1.69,0.78-2.2,1.03      c-0.95,0.44-1.49,0.88-1.49,1.78c0,1.27,0.98,1.86,1.74,1.86c0.64,0,1.49-0.42,1.96-0.88v-3.79H135.23z" fill="#ffffff"/><path d="M148.7,42.31c-1.08,1.42-2.69,2.49-4.13,2.49c-3.08,0-4.91-2.47-4.91-5.09c0-1.88,0.83-3.52,2.47-4.77      c1.27-0.98,2.74-1.39,3.64-1.39h0.02c1,0,1.81,0.32,2.2,0.66c0.32,0.24,0.39,0.46,0.39,0.73c0,0.51-0.54,1.05-0.81,1.05      c-0.15,0-0.27-0.07-0.46-0.27c-0.73-0.68-1.59-1-2.47-1c-1.61,0-3.01,1.34-3.01,3.91c0,3.37,2.3,4.5,3.69,4.5      c1.05,0,1.83-0.29,2.96-1.34L148.7,42.31z" fill="#ffffff"/><path d="M155.94,44.51v-0.64c1.42-0.15,1.61-0.29,1.61-1.88v-4.03c0-2-0.76-3.01-2.4-3.01      c-0.93,0-1.86,0.46-2.54,1.25v5.79c0,1.56,0.12,1.74,1.59,1.88v0.64h-5.21l0.02-0.64c1.47-0.12,1.66-0.27,1.66-1.88V30.33      c0-1.54-0.05-1.64-1.66-1.78v-0.59c1.17-0.17,2.64-0.56,3.59-0.86v8.24c0.88-0.88,2.18-1.78,3.5-1.78      c1.98,0,3.37,1.25,3.37,4.16V42c0,1.61,0.2,1.76,1.61,1.88v0.64h-5.14V44.51z" fill="#ffffff"/><path d="M173.42,43.93c-0.54,0.07-1.22,0.22-1.88,0.39c-0.64,0.17-1.25,0.34-1.71,0.49l-0.15-0.15V42.9      c-0.56,0.44-1.1,0.88-1.81,1.3c-0.71,0.42-1.22,0.61-1.88,0.61c-1.64,0-3.03-1-3.03-3.64v-4.79c0-1.3-0.2-1.44-0.81-1.56      l-0.68-0.15v-0.59c0.51-0.02,1.12-0.07,1.76-0.12c0.66-0.1,1.34-0.2,1.74-0.27c-0.07,0.76-0.07,1.91-0.07,3.52v3.3      c0,2.18,1.05,2.76,2.15,2.76c0.88,0,1.81-0.37,2.64-1.17v-5.72c0-1.3-0.22-1.44-1.03-1.56l-0.88-0.15v-0.59      c0.66-0.02,1.49-0.1,2.2-0.15c0.68-0.07,1.27-0.17,1.64-0.24v8.14c0,1.22,0.2,1.37,1.15,1.44l0.66,0.02L173.42,43.93      L173.42,43.93z" fill="#ffffff"/><path d="M180.92,36.76c-0.49-1.47-1.32-2.42-2.52-2.42c-0.95,0-1.59,0.71-1.59,1.69c0,1.08,0.98,1.64,2.05,2.1      c1.86,0.76,3.1,1.61,3.1,3.3c0,2.22-2.08,3.37-4.03,3.37c-1.25,0-2.37-0.46-2.79-0.83c-0.17-0.34-0.42-2-0.42-2.88l0.66-0.1      c0.42,1.59,1.52,3.01,2.98,3.01c0.9,0,1.74-0.66,1.74-1.71c0-1.08-0.71-1.64-1.93-2.2c-1.47-0.68-3.06-1.49-3.06-3.35      c0-1.71,1.47-3.18,3.72-3.18c1,0,1.66,0.22,2.15,0.44c0.22,0.54,0.49,1.98,0.54,2.59L180.92,36.76z" fill="#ffffff"/><path d="M192.36,42.46c-1.54,1.91-3.23,2.35-3.99,2.35c-3.01,0-4.77-2.44-4.77-5.21c0-1.66,0.61-3.18,1.61-4.25      c1-1.1,2.32-1.78,3.57-1.78h0.02c2.03,0,3.67,1.81,3.67,3.69c0,0.49-0.1,0.68-0.56,0.78c-0.39,0.07-3.47,0.32-6.41,0.42      c0.02,3.32,1.96,4.69,3.67,4.69c1,0,1.91-0.39,2.81-1.22L192.36,42.46z M188.21,34.47c-1.1,0-2.2,1.03-2.57,2.98      c1.37,0,2.74-0.02,4.16-0.07c0.44,0,0.59-0.12,0.59-0.46c0.02-1.27-0.81-2.44-2.15-2.44h-0.03V34.47z" fill="#ffffff"/><path d="M198.47,44.49c-0.42,0.22-0.78,0.32-1.03,0.32c-1.54,0-2.4-0.95-2.4-2.88v-7.09h-1.69l-0.1-0.27l0.68-0.71      h1.1V32.1l1.59-1.64l0.34,0.05v3.35h2.76c0.24,0.27,0.17,0.78-0.15,0.98h-2.62v6.26c0,1.96,0.81,2.32,1.44,2.32      c0.61,0,1.17-0.22,1.49-0.39l0.22,0.61L198.47,44.49z" fill="#ffffff"/><path d="M205.73,44.49c-0.42,0.22-0.78,0.32-1.03,0.32c-1.54,0-2.4-0.95-2.4-2.88v-7.09h-1.69l-0.1-0.27l0.68-0.71      h1.1V32.1l1.59-1.64l0.34,0.05v3.35h2.76c0.24,0.27,0.17,0.78-0.15,0.98h-2.62v6.26c0,1.96,0.81,2.32,1.44,2.32      c0.61,0,1.17-0.22,1.49-0.39l0.22,0.61L205.73,44.49z" fill="#ffffff"/><path d="M214.63,36.76c-0.49-1.47-1.32-2.42-2.52-2.42c-0.95,0-1.59,0.71-1.59,1.69c0,1.08,0.98,1.64,2.05,2.1      c1.86,0.76,3.1,1.61,3.1,3.3c0,2.22-2.08,3.37-4.03,3.37c-1.25,0-2.37-0.46-2.79-0.83c-0.17-0.34-0.42-2-0.42-2.88l0.66-0.1      c0.42,1.59,1.52,3.01,2.98,3.01c0.9,0,1.74-0.66,1.74-1.71c0-1.08-0.71-1.64-1.93-2.2c-1.47-0.68-3.06-1.49-3.06-3.35      c0-1.71,1.47-3.18,3.72-3.18c1,0,1.66,0.22,2.15,0.44c0.22,0.54,0.49,1.98,0.54,2.59L214.63,36.76z" fill="#ffffff"/></g><g><path d="M87.32,61.84v-0.55c1.24-0.16,1.42-0.32,1.16-1.08c-0.26-0.77-0.65-1.83-1.08-3.03h-4.2      c-0.32,0.89-0.61,1.71-0.87,2.52c-0.41,1.26-0.26,1.44,1.24,1.6v0.55h-4.29V61.3c1.26-0.18,1.54-0.29,2.21-2.05l4.08-10.32      l0.61-0.18c1.22,3.37,2.54,7.13,3.8,10.54c0.61,1.69,0.89,1.87,2.17,2.01v0.55L87.32,61.84L87.32,61.84z M85.39,51.31h-0.04      c-0.63,1.67-1.24,3.41-1.85,5.02h3.62L85.39,51.31z" fill="#ffffff"/><path d="M103.78,61.84v-0.51c1.14-0.12,1.36-0.22,1.36-1.6v-3.27c0-1.4-0.49-2.29-1.73-2.29      c-0.71,0-1.44,0.41-2.19,1.03c0.04,0.24,0.06,0.45,0.06,0.83v3.82c0,1.24,0.18,1.36,1.26,1.48v0.51h-4.21v-0.51      c1.22-0.12,1.4-0.22,1.4-1.52v-3.37c0-1.46-0.51-2.27-1.73-2.27c-0.77,0-1.56,0.53-2.15,1.03v4.61c0,1.28,0.18,1.4,1.14,1.52      v0.51h-4.16v-0.51c1.3-0.12,1.48-0.24,1.48-1.52v-4.06c0-1.26-0.06-1.36-1.2-1.54v-0.45c0.87-0.16,1.85-0.41,2.74-0.81v1.6      c0.41-0.28,0.83-0.63,1.44-0.98c0.51-0.32,0.98-0.55,1.6-0.55c0.95,0,1.79,0.61,2.21,1.62c0.57-0.43,1.14-0.81,1.62-1.1      c0.43-0.28,0.93-0.51,1.5-0.51c1.52,0,2.5,1.08,2.5,3.01v3.78c0,1.32,0.14,1.4,1.28,1.52v0.51h-4.22V61.84z" fill="#ffffff"/><path d="M114.37,61.84v-0.51c1.14-0.12,1.3-0.24,1.3-1.52v-3.25c0-1.61-0.61-2.42-1.93-2.42      c-0.75,0-1.5,0.37-2.05,1v4.67c0,1.26,0.1,1.4,1.28,1.52v0.51h-4.2l0.02-0.51c1.18-0.1,1.34-0.22,1.34-1.52v-9.4      c0-1.24-0.04-1.32-1.34-1.44V48.5c0.95-0.14,2.13-0.45,2.9-0.69v6.64c0.71-0.71,1.75-1.44,2.82-1.44c1.6,0,2.72,1,2.72,3.35      v3.45c0,1.3,0.16,1.42,1.3,1.52v0.51H114.37z" fill="#ffffff"/><path d="M126.43,60.19c-1.24,1.54-2.6,1.89-3.21,1.89c-2.42,0-3.84-1.97-3.84-4.2c0-1.34,0.49-2.56,1.3-3.43      c0.81-0.89,1.87-1.44,2.88-1.44h0.02c1.64,0,2.96,1.46,2.96,2.97c0,0.39-0.08,0.55-0.45,0.63c-0.32,0.06-2.8,0.26-5.16,0.34      c0.02,2.68,1.58,3.78,2.96,3.78c0.81,0,1.54-0.32,2.27-0.99L126.43,60.19z M123.08,53.75c-0.89,0-1.77,0.83-2.07,2.4      c1.1,0,2.21-0.02,3.35-0.06c0.35,0,0.47-0.1,0.47-0.37c0.02-1.02-0.65-1.97-1.73-1.97H123.08z" fill="#ffffff"/><path d="M130.62,55.11c0.59-0.99,1.44-2.09,2.38-2.09c0.67,0,1.14,0.53,1.14,0.99c0,0.39-0.26,0.79-0.63,0.96      c-0.24,0.1-0.39,0.08-0.51-0.04c-0.3-0.28-0.53-0.39-0.85-0.39c-0.51,0-1.14,0.57-1.58,1.67v3.58c0,1.3,0.1,1.42,1.61,1.54v0.51      h-4.53v-0.51c1.22-0.12,1.36-0.24,1.36-1.52v-4.08c0-1.3-0.08-1.38-1.22-1.52v-0.45c0.97-0.16,1.83-0.39,2.78-0.79v2.13h0.05      V55.11z" fill="#ffffff"/><path d="M139.78,55.6c-0.39-1.18-1.06-1.95-2.03-1.95c-0.77,0-1.28,0.57-1.28,1.36c0,0.87,0.79,1.32,1.66,1.69      c1.5,0.61,2.5,1.3,2.5,2.66c0,1.79-1.67,2.72-3.25,2.72c-1,0-1.91-0.37-2.25-0.67c-0.14-0.28-0.33-1.62-0.33-2.32l0.53-0.08      c0.34,1.28,1.22,2.42,2.4,2.42c0.73,0,1.4-0.53,1.4-1.38c0-0.87-0.57-1.32-1.56-1.77c-1.18-0.55-2.46-1.2-2.46-2.7      c0-1.38,1.18-2.56,2.99-2.56c0.81,0,1.34,0.18,1.73,0.35c0.18,0.43,0.39,1.6,0.43,2.09L139.78,55.6z" fill="#ffffff"/><path d="M145.45,61.83c-0.33,0.18-0.63,0.26-0.83,0.26c-1.24,0-1.93-0.77-1.93-2.32v-5.71h-1.36l-0.08-0.22      l0.55-0.57h0.89v-1.42l1.28-1.32l0.28,0.04v2.7h2.23c0.2,0.22,0.14,0.63-0.12,0.79h-2.11v5.04c0,1.58,0.65,1.87,1.16,1.87      c0.49,0,0.95-0.18,1.2-0.32l0.18,0.49L145.45,61.83z" fill="#ffffff"/></g></g><g><g><g><g><path d="M36.77,0.01C16.5,0.01,0,16.51,0,36.78s16.5,36.77,36.77,36.77c20.28,0,36.77-16.5,36.77-36.77        S57.05,0.01,36.77,0.01z M36.77,72.48c-19.68,0-35.7-16.01-35.7-35.7s16.01-35.7,35.7-35.7s35.7,16.01,35.7,35.7        S56.46,72.48,36.77,72.48z" fill="#ffffff"/></g></g><g><g><path d="M36.77,2.39c-18.97,0-34.4,15.43-34.4,34.4c0,18.97,15.43,34.4,34.4,34.4s34.4-15.43,34.4-34.4        C71.17,17.82,55.74,2.39,36.77,2.39z M36.77,70.82c-18.77,0-34.04-15.27-34.04-34.04c0-18.77,15.27-34.04,34.04-34.04        s34.04,15.27,34.04,34.04C70.81,55.55,55.54,70.82,36.77,70.82z" fill="#ffffff"/></g></g><path d="M40.14,11.77c-0.1-0.16-0.28-0.28-0.49-0.31c-0.37-0.04-0.69,0.22-0.73,0.59      c-0.04,0.37,0.22,0.69,0.59,0.73c0.2,0.02,0.39-0.05,0.53-0.18c12.09,1.61,21.14,11.91,21.14,24.18      c0,13.46-10.95,24.4-24.4,24.4c-13.46,0-24.4-10.95-24.4-24.4c0-12.13,8.93-22.41,20.86-24.14c0.14,0.13,0.33,0.2,0.53,0.17      c0.36-0.04,0.63-0.38,0.58-0.74c-0.04-0.36-0.38-0.63-0.74-0.58c-0.21,0.03-0.38,0.15-0.48,0.31      C20.77,13.6,11.53,24.23,11.53,36.78c0,13.92,11.33,25.25,25.25,25.25c13.92,0,25.25-11.33,25.25-25.25      C62.02,24.09,52.65,13.43,40.14,11.77z" fill="#ffffff"/><path d="M56.83,18.42c-4.49-4.9-10.56-7.96-17.13-8.67c-0.05-0.14-0.18-0.24-0.33-0.26      c-0.22-0.02-0.42,0.14-0.45,0.36c-0.02,0.22,0.14,0.42,0.36,0.45c0.16,0.02,0.3-0.06,0.38-0.19c6.48,0.7,12.47,3.72,16.89,8.55      c4.54,4.96,7.04,11.39,7.04,18.12c0,14.8-12.04,26.84-26.84,26.84c-14.8,0-26.84-12.04-26.84-26.84      c0-13.67,10.15-25.05,23.66-26.64c0.08,0.13,0.23,0.2,0.38,0.19c0.22-0.03,0.38-0.23,0.36-0.45c-0.03-0.22-0.23-0.38-0.45-0.36      c-0.16,0.02-0.28,0.13-0.33,0.26c-13.7,1.61-23.98,13.15-23.98,27c0,15,12.2,27.2,27.2,27.2c15,0,27.2-12.2,27.2-27.2      C63.97,29.96,61.43,23.44,56.83,18.42z" fill="#ffffff"/><g><g><path d="M32.08,68.35l0.58,0.19l-0.03,0.16l-1.78-0.29l0.03-0.16l0.64,0.01l0.37-2.3l-0.68-0.11l0.03-0.16        l1.26-0.05l0.02,0L32.08,68.35z" fill="#ffffff"/></g><g><path d="M34.53,66.94l-0.21-0.17c-0.27-0.22-0.47-0.5-0.45-0.9c0.03-0.55,0.6-1.02,1.3-0.97        c0.6,0.04,1.01,0.47,0.98,0.93c-0.03,0.49-0.46,0.75-0.88,0.99l0.15,0.12c0.43,0.33,0.71,0.64,0.68,1.1        c-0.04,0.65-0.71,1.02-1.33,0.98c-0.71-0.04-1.24-0.48-1.21-1.06C33.6,67.41,34.07,67.18,34.53,66.94z M34.63,67.03        c-0.37,0.27-0.5,0.54-0.52,0.87c-0.03,0.46,0.24,0.91,0.73,0.94c0.48,0.03,0.71-0.28,0.73-0.59c0.02-0.37-0.31-0.72-0.69-1.03        L34.63,67.03z M34.87,66.49l0.28,0.22c0.31-0.26,0.46-0.52,0.48-0.83c0.03-0.55-0.28-0.82-0.59-0.84        c-0.32-0.02-0.63,0.18-0.66,0.6C34.35,66,34.53,66.23,34.87,66.49z" fill="#ffffff"/></g><g><path d="M37.74,66.86c0.22-0.24,0.55-0.39,0.81-0.4c0.71-0.04,1.19,0.44,1.22,1.13c0.03,0.68-0.49,1.4-1.31,1.44        c-0.73,0.04-1.39-0.44-1.43-1.36c-0.07-1.43,1.37-2.52,2.76-2.99l0.05,0.15C38.98,65.26,38.04,65.98,37.74,66.86z         M37.69,67.05c-0.04,0.16-0.05,0.32-0.05,0.49c0.05,0.93,0.47,1.32,0.92,1.3c0.39-0.02,0.65-0.35,0.62-0.98        c-0.04-0.7-0.42-1.11-0.91-1.09C38.07,66.79,37.84,66.89,37.69,67.05z" fill="#ffffff"/></g><g><path d="M40.71,69.21c-0.02-0.16,0.08-0.31,0.22-0.36c0.11,0.1,0.36,0.34,0.52,0.44        c0.56-0.11,0.82-0.52,0.74-1.03c-0.08-0.53-0.57-0.83-1.26-0.7l-0.04-0.25l0.19-0.08c0.49-0.32,0.71-0.71,0.65-1.06        c-0.06-0.36-0.33-0.53-0.65-0.48c-0.27,0.04-0.42,0.23-0.54,0.47l-0.14-0.05c0.1-0.42,0.39-0.81,0.87-0.88        c0.54-0.08,0.9,0.21,0.97,0.64c0.07,0.47-0.24,0.81-0.56,1.08l-0.16,0.14l0,0.01c0.5-0.02,1.06,0.23,1.15,0.84        c0.12,0.78-0.68,1.48-1.4,1.59C41.03,69.57,40.75,69.45,40.71,69.21z" fill="#ffffff"/></g></g><g><g><g><path d="M48.91,65.26c-0.25,0.17-0.49,0.16-0.61,0.17c-0.14,0.01-0.46,0-0.69-0.06         c-0.02-0.08,0.01-0.19,0.09-0.28c0.15-0.17,0.45-0.09,0.68-0.06c0.17,0.02,0.45,0.01,0.58-0.13         c0.07-0.08,0.13-0.21-0.01-0.34c-0.1-0.1-0.21-0.08-0.26-0.04c-0.03,0.01-0.04,0.01-0.05-0.02         c-0.02-0.02-0.06-0.13,0.03-0.22c0.09-0.1,0.24-0.08,0.33,0.01c0.13,0.12,0.15,0.35,0.15,0.45c0,0.06,0,0.09,0.02,0.15         c0.08,0.26-0.1,0.6-0.28,0.8c-0.2,0.21-0.44,0.37-0.73,0.43c-0.26,0.05-0.42,0-0.54-0.11c-0.1-0.09-0.11-0.19-0.09-0.26         c-0.24-0.04-0.53-0.08-0.74,0.15c-0.22,0.24-0.15,0.46,0.02,0.62c0.27,0.25,0.63,0.15,0.73,0.04c0.02-0.03,0.03,0,0.03,0.01         c-0.01,0.1-0.05,0.18-0.1,0.24c-0.17,0.18-0.5,0.19-0.72-0.01c-0.32-0.3-0.25-0.82-0.01-1.08c0.16-0.17,0.36-0.23,0.68-0.2         c0.2,0.02,0.56,0.12,0.89,0.06c0.3-0.05,0.47-0.17,0.56-0.27l0.05-0.06L48.91,65.26z" fill="#ffffff"/></g></g><g><g><path d="M24.68,65.3l0.06,0.05c0.11,0.08,0.29,0.18,0.6,0.18c0.33,0,0.67-0.15,0.87-0.2         c0.31-0.08,0.52-0.06,0.7,0.09c0.28,0.22,0.42,0.72,0.16,1.07c-0.19,0.23-0.51,0.27-0.71,0.12         c-0.07-0.05-0.11-0.12-0.14-0.22c0-0.02,0.01-0.04,0.03-0.02c0.11,0.09,0.49,0.14,0.72-0.16c0.14-0.18,0.17-0.42-0.08-0.62         c-0.25-0.2-0.53-0.11-0.76-0.04c0.03,0.07,0.04,0.16-0.05,0.27c-0.1,0.12-0.25,0.2-0.51,0.19C25.27,66,25,65.88,24.78,65.7         c-0.21-0.17-0.44-0.48-0.4-0.75c0.01-0.06,0-0.09-0.01-0.16c-0.01-0.1-0.03-0.33,0.08-0.47c0.08-0.1,0.22-0.14,0.33-0.06         c0.1,0.08,0.07,0.19,0.06,0.22c-0.01,0.03-0.02,0.03-0.05,0.03c-0.05-0.02-0.16-0.03-0.25,0.08         c-0.12,0.15-0.04,0.27,0.04,0.34c0.16,0.12,0.43,0.09,0.6,0.04c0.23-0.06,0.51-0.18,0.68-0.04c0.09,0.07,0.13,0.18,0.13,0.26         c-0.22,0.1-0.53,0.15-0.67,0.17c-0.12,0.01-0.36,0.06-0.63-0.08L24.68,65.3z" fill="#ffffff"/></g></g></g><g><g><path d="M7.89,43.86l-2.11,0.41l-0.04,0.48l-0.13,0.03L5.3,43.19l0.13-0.03l0.22,0.47l2-0.39        c0.78-0.15,1.36-0.51,1.21-1.29c-0.15-0.76-0.68-1.01-1.48-0.9l-2.1,0.42l-0.05,0.7L5.1,42.2l-0.27-1.4l0.13-0.03L5.2,41.2        l2.07-0.4c1.1-0.21,1.76,0.35,1.93,1.23C9.42,43.14,8.85,43.67,7.89,43.86z" fill="#ffffff"/></g><g><path d="M8.58,36.04l-3.26,2.68l3-0.09l0.12-0.53l0.14,0l0.03,1.2l-0.14,0l-0.14-0.43l-3.25,0.09        c-0.11,0.1-0.19,0.27-0.22,0.4l-0.03,0.1l-0.13,0l-0.03-1.02l2.81-2.3l-2.6,0.08l-0.12,0.52l-0.14,0l-0.03-1.2l0.14,0L4.86,36        l2.98-0.09l0.73-0.03L8.58,36.04z" fill="#ffffff"/></g><g><path d="M8.45,34.62l-0.06-0.46l-3.4-0.33l-0.17,0.44l-0.14-0.01l0.15-1.53l0.14,0.01l0.08,0.46l3.4,0.33        l0.15-0.44l0.14,0.01L8.6,34.64L8.45,34.62z" fill="#ffffff"/></g><g><path d="M5.25,31.42l-0.18,0.26l-0.13-0.03l0.3-1.4l0.13,0.03l0.02,0.47l3.18-0.45l-2.66-1.68l-0.28,0.57        l-0.14-0.03l0.25-1.18l0.13,0.03l0.08,0.34l3.32,2.17l-0.06,0.27L5.25,31.42z" fill="#ffffff"/></g><g><path d="M8.32,26.57l1.47,0.55c0.11-0.04,0.18-0.1,0.24-0.23l0.36-0.98l-0.71-0.9l0.06-0.15l1,0.69l-1,2.7        L9.62,28.2l0.05-0.47l-3.19-1.18L6.2,26.93l-0.13-0.05l0.87-2.35l0.13-0.41l1,0.37l-0.06,0.15l-0.89,0l-0.48,1.3l1.49,0.55        l0.27-0.74l-0.46-0.37l0.05-0.13l1.21,0.45l-0.06,0.15l-0.55-0.02L8.32,26.57z" fill="#ffffff"/></g><g><path d="M11.05,24.49l0.12-0.45l-3-1.64l-0.32,0.34l-0.12-0.07l0.63-1.19c0.54-1.01,1.13-1.3,1.65-1.01        c0.45,0.24,0.54,0.72,0.43,1.26l0.01,0.01l2.07-0.16l0.29-0.29l0.12,0.07l-0.46,0.85l-1.72,0.12        c-0.25,0.02-0.43,0.03-0.43,0.03l-0.22,0.4l1.37,0.75l0.32-0.34l0.12,0.07l-0.74,1.35L11.05,24.49z M9.93,22.65l0.23-0.42        c0.19-0.46,0.06-0.92-0.34-1.14c-0.5-0.27-1.08-0.02-1.46,0.71L9.93,22.65z" fill="#ffffff"/></g><g><path d="M12.37,20.08l0.09-0.12l0.94,0.25c0.17-0.05,0.4-0.16,0.6-0.43c0.29-0.38,0.23-0.83-0.14-1.1        c-0.25-0.19-0.53-0.23-1.09,0.07l-0.28,0.15c-0.66,0.35-1,0.39-1.42,0.08c-0.51-0.38-0.56-1.13-0.09-1.76        c0.24-0.32,0.58-0.5,0.76-0.57l0.75,0.51l-0.08,0.11l-0.82-0.19c-0.18,0.04-0.34,0.11-0.49,0.3        c-0.27,0.36-0.18,0.75,0.11,0.97c0.31,0.23,0.55,0.19,1.05-0.07l0.28-0.15c0.77-0.41,1.13-0.38,1.48-0.12        c0.61,0.45,0.55,1.35,0.12,1.92c-0.3,0.4-0.65,0.58-0.9,0.7L12.37,20.08z" fill="#ffffff"/></g><g><path d="M15.37,17.96l0.23-0.41l-2.51-2.31l-0.4,0.25l-0.1-0.09l1.04-1.13l0.1,0.09l-0.22,0.42l2.51,2.31        l0.39-0.26l0.1,0.09l-1.04,1.13L15.37,17.96z" fill="#ffffff"/></g><g><path d="M16.76,11.4l0.26-0.28l0.74,0.84l-0.12,0.1l-0.81-0.45l-0.67,0.58l2.26,2.62l0.48-0.27l0.09,0.1        l-1.3,1.12l-0.09-0.1l0.34-0.44l-2.26-2.62l-0.67,0.58l0.33,0.87l-0.12,0.1L14.5,13.3l0.31-0.22L16.76,11.4z" fill="#ffffff"/></g><g><path d="M21,11.09l0.81,1.28l0.45-0.16l0.08,0.12l-1.32,0.84l-0.08-0.12l0.34-0.34l-0.74-1.16l-2.11-1.12        l-0.31,0.09l-0.07-0.11l1.27-0.8l0.07,0.11l-0.34,0.35l1.72,0.97l-0.06-1.99l-0.56,0.18l-0.07-0.11l1.01-0.64l0.07,0.11        l-0.21,0.28L21,11.09z" fill="#ffffff"/></g><g><path d="M28.24,7.48c0.48,1.3-0.15,2.38-1.15,2.75c-1.01,0.37-2.18-0.07-2.62-1.25c-0.44-1.2,0.19-2.29,1.18-2.65        C26.87,5.87,27.91,6.57,28.24,7.48z M27.68,7.9c-0.35-0.95-1.26-1.67-2.03-1.38c-0.83,0.3-0.9,1.24-0.59,2.09        c0.31,0.85,1.17,1.74,2.06,1.41C27.95,9.72,27.99,8.74,27.68,7.9z" fill="#ffffff"/></g><g><path d="M30.44,7.13l0.33,1.63l0.61-0.04l0.03,0.16l-1.65,0.33l-0.03-0.14l0.42-0.19l-0.67-3.34l-0.47-0.04        l-0.03-0.13l2.43-0.49l0.44-0.11l0.21,1.04l-0.16,0.03l-0.47-0.76l-1.35,0.27l0.32,1.57l0.77-0.15l0.09-0.59l0.13-0.03        l0.26,1.28L31.5,7.46l-0.3-0.48L30.44,7.13z" fill="#ffffff"/></g><g><path d="M34.86,8.2l0.46-0.1l0.2-3.39l-0.45-0.16l0-0.14l1.16,0.02l1.14,2.84l1.13-2.73l0.03-0.08l1.12,0.02        l0,0.14L39.2,4.75l0.07,3.42l0.46,0.12l0,0.14L38.07,8.4l0-0.14l0.57-0.1l-0.04-3.28l-1.19,2.89L37.24,8.2l-0.11,0l-0.16-0.45        l-1.21-2.92l-0.17,3.25l0.65,0.14l0,0.14l-1.36-0.02L34.86,8.2z" fill="#ffffff"/></g><g><path d="M40.23,8.38l0.45-0.03l2.04-3.37l0.19,0l0.23,0l0.64,3.99l0.4,0.19l-0.03,0.13l-1.54-0.3l0.03-0.13        l0.48-0.02l-0.18-1.17l-1.43-0.28l-0.58,0.99l0.65,0.26l-0.03,0.13L40.2,8.51L40.23,8.38z M41.69,7.13l1.23,0.24l-0.28-1.83        l-0.01,0L41.69,7.13z" fill="#ffffff"/></g><g><path d="M45.19,8.37l0.14,0.05l0.05,0.97c0.1,0.15,0.28,0.33,0.59,0.44c0.45,0.16,0.86-0.03,1.01-0.46        c0.1-0.3,0.06-0.58-0.39-1.02l-0.23-0.22c-0.53-0.52-0.68-0.84-0.51-1.33c0.21-0.6,0.91-0.87,1.65-0.62        c0.37,0.13,0.65,0.4,0.77,0.55L48,7.59l-0.13-0.05l-0.07-0.84c-0.09-0.16-0.2-0.3-0.43-0.37c-0.42-0.15-0.77,0.05-0.89,0.39        c-0.13,0.37-0.02,0.58,0.38,0.98l0.22,0.22c0.63,0.61,0.7,0.96,0.56,1.37c-0.25,0.71-1.13,0.93-1.8,0.7        c-0.47-0.16-0.75-0.45-0.94-0.65L45.19,8.37z" fill="#ffffff"/></g><g><path d="M48.68,9.66l0.13,0.07l-0.08,0.96c0.08,0.16,0.23,0.37,0.53,0.51c0.43,0.21,0.86,0.08,1.06-0.33        c0.14-0.28,0.13-0.57-0.26-1.07l-0.2-0.25c-0.46-0.58-0.57-0.92-0.33-1.38c0.28-0.57,1.01-0.75,1.71-0.4        c0.35,0.18,0.59,0.48,0.69,0.65l-0.37,0.82l-0.13-0.06l0.04-0.84c-0.07-0.17-0.16-0.32-0.38-0.43        c-0.4-0.2-0.77-0.05-0.93,0.28C50,8.53,50.08,8.76,50.43,9.21l0.19,0.25c0.54,0.68,0.57,1.04,0.38,1.43        c-0.34,0.68-1.24,0.78-1.87,0.46c-0.44-0.22-0.69-0.54-0.85-0.76L48.68,9.66z" fill="#ffffff"/></g><g><path d="M51.02,12l0.42,0.15l3.21-2.29l0.18,0.07l0.22,0.09l-0.98,3.92l0.3,0.33l-0.08,0.11l-1.29-0.88l0.08-0.11        l0.45,0.17l0.29-1.14l-1.2-0.82l-0.93,0.68l0.49,0.5l-0.08,0.11l-1.15-0.78L51.02,12z M52.85,11.43l1.03,0.7l0.47-1.8l0,0        L52.85,11.43z" fill="#ffffff"/></g><g><path d="M55.84,13.31c0.85-0.92,2.25-0.9,3.14-0.07c0.4,0.37,0.58,0.73,0.7,1.07l-0.66,0.76l-0.12-0.11l0.31-0.79        c-0.05-0.29-0.16-0.6-0.48-0.89c-0.58-0.54-1.53-0.4-2.23,0.35c-0.91,0.98-0.83,1.94-0.24,2.49c0.31,0.29,0.64,0.33,0.84,0.34        l0.92-0.34l0.12,0.11l-0.81,0.63c-0.52-0.15-0.94-0.34-1.36-0.73C54.97,15.19,55.2,14.01,55.84,13.31z" fill="#ffffff"/></g><g><path d="M59.5,19.66l0.38,0.31l1.34-1.03l-1.17-1.52l-1.34,1.03l0.21,0.45l-0.11,0.08l-0.96-1.24l0.11-0.08        l0.37,0.29l2.7-2.08l-0.18-0.44l0.11-0.08l0.96,1.24l-0.11,0.08l-0.39-0.31l-1.21,0.93l1.17,1.52l1.21-0.93l-0.2-0.46        l0.11-0.08l0.95,1.23l-0.11,0.08l-0.38-0.28l-2.7,2.08l0.19,0.43l-0.11,0.08l-0.95-1.23L59.5,19.66z" fill="#ffffff"/></g><g><path d="M62.28,21.28l1.9-1.01l-0.1-0.47l0.12-0.06l0.76,1.42l-0.12,0.06l-0.35-0.39l-1.8,0.96        c-0.7,0.37-1.16,0.88-0.78,1.59c0.37,0.69,0.95,0.77,1.68,0.43l1.89-1.01l-0.16-0.69l0.12-0.06l0.67,1.26l-0.12,0.06        l-0.35-0.34l-1.86,0.99c-0.99,0.53-1.79,0.18-2.21-0.61C61.03,22.41,61.42,21.74,62.28,21.28z" fill="#ffffff"/></g><g><path d="M64,25.39l0.05,0.14l-0.72,0.64c-0.06,0.17-0.08,0.43,0.03,0.74c0.16,0.45,0.56,0.65,1,0.49        c0.29-0.11,0.49-0.32,0.55-0.95l0.03-0.32c0.07-0.74,0.23-1.06,0.71-1.23c0.59-0.22,1.25,0.16,1.52,0.89        c0.13,0.37,0.09,0.76,0.05,0.95l-0.84,0.34l-0.05-0.13l0.61-0.58c0.06-0.17,0.1-0.34,0.02-0.57        c-0.15-0.42-0.53-0.57-0.86-0.45c-0.37,0.13-0.46,0.35-0.52,0.92l-0.03,0.31c-0.08,0.87-0.31,1.15-0.72,1.3        c-0.71,0.26-1.43-0.29-1.67-0.96c-0.17-0.47-0.13-0.86-0.09-1.14L64,25.39z" fill="#ffffff"/></g><g><path d="M66.1,29.68l-1.53,0.33c-0.07,0.09-0.1,0.18-0.08,0.32l0.22,1.02l1.08,0.38l0.03,0.16l-1.22-0.04        l-0.61-2.81L64.13,29l0.21,0.42l3.33-0.72l0.03-0.47l0.13-0.03l0.53,2.45l0.11,0.42l-1.04,0.23l-0.03-0.16l0.75-0.48        l-0.29-1.35l-1.55,0.34l0.17,0.77l0.59,0.07l0.03,0.14l-1.26,0.27l-0.03-0.16l0.48-0.28L66.1,29.68z" fill="#ffffff"/></g><g><path d="M68.9,35.55l0.07,0.37l-1.11,0.09l-0.01-0.15l0.84-0.38l-0.06-0.89l-3.46,0.25l-0.07,0.54l-0.14,0.01        l-0.12-1.71l0.14-0.01l0.15,0.54l3.46-0.25l-0.06-0.89l-0.89-0.26l-0.01-0.15l1.11-0.07l-0.01,0.38L68.9,35.55z" fill="#ffffff"/></g><g><path d="M68.71,40.3l0.01,0.38l-1.11-0.07l0.01-0.15l0.89-0.25l0.07-0.89l-3.46-0.26l-0.15,0.53l-0.14-0.01        l0.13-1.71l0.14,0.01l0.07,0.56l3.46,0.26l0.07-0.89l-0.84-0.38l0.01-0.15l1.11,0.09l-0.07,0.37L68.71,40.3z" fill="#ffffff"/></g><g><path d="M65.8,41.49l-0.03,0.14l-0.95,0.17c-0.14,0.12-0.3,0.32-0.36,0.64c-0.1,0.47,0.13,0.85,0.58,0.94        c0.31,0.06,0.58-0.01,0.97-0.52l0.19-0.25c0.45-0.59,0.75-0.78,1.26-0.67c0.62,0.13,0.98,0.79,0.82,1.56        c-0.08,0.39-0.32,0.69-0.45,0.83l-0.89-0.15l0.03-0.14l0.83-0.17c0.14-0.11,0.27-0.24,0.32-0.48c0.09-0.44-0.15-0.76-0.5-0.84        c-0.38-0.08-0.58,0.05-0.93,0.5l-0.19,0.25c-0.53,0.7-0.87,0.81-1.29,0.72c-0.74-0.16-1.06-1-0.91-1.7        c0.1-0.49,0.35-0.8,0.53-1.01L65.8,41.49z" fill="#ffffff"/></g></g></g><g><path d="M33.6,33.86c0.27-0.26,0.45-0.6,0.52-0.96c0.05-0.23,0.03-0.45-0.06-0.66c-0.03-0.06-0.07-0.12-0.13-0.16      c-0.17-0.12-0.4-0.09-0.58-0.02c-0.42,0.17-0.74,0.56-0.91,0.98c-0.12,0.32-0.22,0.85,0.1,1.09      C32.73,34.27,33.19,34.25,33.6,33.86z" fill="#ffffff"/><polygon points="36.77,45.26 36.77,45.26 36.77,45.26     " fill="#ffffff"/><path d="M40.07,51.99l0.64,0.17c0-0.07,0-0.3,0-0.35l-0.64-0.2C40.07,51.72,40.07,51.88,40.07,51.99z" fill="#ffffff"/><path d="M40.07,54l0.64,0.19c0-0.12,0-0.38,0-0.39l-0.64-0.2C40.07,53.72,40.07,53.87,40.07,54z" fill="#ffffff"/><path d="M40.3,49.8c-0.83-0.18-1.09,0.75-1.09,1.02c0,0.13,0,0.19,0,0.33l0.68,0.21c0-0.24,0.04-0.46,0.15-0.56      c0.1-0.09,0.24-0.12,0.36-0.08c0.21,0.06,0.39,0.26,0.44,0.55c0.01,0.09,0.01,0.33,0.01,0.4l0.66,0.21      c0-0.56-0.09-1.16-0.42-1.57C40.88,50.06,40.59,49.86,40.3,49.8z" fill="#ffffff"/><path d="M39.75,34.55c0.51,0.34,1.23,0.39,1.6-0.17c0.22-0.33,0.24-0.74,0.16-1.13c-0.05-0.25-0.15-0.49-0.26-0.7      c-0.31-0.55-0.87-1.11-1.54-1.12c-0.65-0.01-1.03,0.56-1.03,1.16c0,0.14,0.04,0.45,0.11,0.66      C38.95,33.78,39.3,34.25,39.75,34.55z M39.22,32.67c0-0.2,0.06-0.43,0.23-0.55c0.15-0.1,0.34-0.1,0.51-0.04      c0.4,0.18,0.71,0.56,0.87,0.96c0.02,0.06,0.05,0.14,0.07,0.21c0.08,0.31,0.09,0.69-0.17,0.88c-0.08,0.06-0.17,0.09-0.26,0.09      c-0.26-0.01-0.53-0.19-0.7-0.35c-0.18-0.17-0.32-0.39-0.42-0.62C39.27,33.07,39.22,32.87,39.22,32.67z" fill="#ffffff"/><polygon points="34.07,39.39 34.07,39.32 32.15,39.92 32.15,40.17 34.08,39.56     " fill="#ffffff"/><path d="M32.14,41.2l0.83-0.26v1.5l-0.83,0.26c0,0.08,0,0.29,0,0.36l0.83-0.28v1.51c0.09-0.03,0.23-0.07,0.32-0.1      l-0.01-1.51l0.85-0.27c0-0.1,0-0.25,0-0.35l-0.84,0.27v-1.5l0.84-0.27c0-0.1,0-0.26,0-0.35l-1.98,0.63      C32.14,40.88,32.14,41.11,32.14,41.2z" fill="#ffffff"/><path d="M40.24,37.92c-0.11-0.02-1.09-0.16-1.12,1.48c0,0.03-0.03,1.45-0.03,1.75c0,0.41-0.01,0.83-0.01,1.24      c0,0.37,0,0.74-0.01,1.1c0,0.16,0,0.32,0,0.48c0,0.02,0.01,0.04,0.02,0.04c0,0,0,0,0,0c0.03,0.01,0.06,0.02,0.09,0.03      c0.06,0.02,0.12,0.04,0.19,0.06c0.19,0.06,0.38,0.11,0.56,0.17c0.22,0.07,0.43,0.13,0.65,0.2c0.18,0.05,0.86,0.26,0.86,0.26      c0-0.02-0.01-3.77-0.01-3.91c0,0-0.01-0.45-0.01-0.47C41.45,38.91,40.89,38.04,40.24,37.92z M39.3,39.39l0.01-0.07l1.91,0.6      l0,0.25l-1.93-0.61L39.3,39.39z M40.41,42.79v1.51c-0.09-0.03-0.23-0.07-0.32-0.1l0.01-1.51l-0.85-0.27c0-0.1,0-0.25,0-0.35      l0.84,0.27v-1.5l-0.84-0.27c0-0.1,0-0.26,0-0.35l1.98,0.63c0,0.04,0,0.26,0,0.35l-0.83-0.26v1.5l0.83,0.26c0,0.08,0,0.29,0,0.36      L40.41,42.79z" fill="#ffffff"/><path d="M37.63,34.5l0,0.44l0.61,0.2v0.01c0.94,0.28,3.43,1.03,4.41,1.4l0-0.48c0,0-4.77-1.49-4.77-1.49L37.63,34.5      z" fill="#ffffff"/><polygon points="42.66,37.71 38.24,36.31 38.24,36.5 42.66,37.9     " fill="#ffffff"/><path d="M36.32,15.72l-2.86,12.51h3.28v0.35h-3.15c0.66,0.8,3.15,3.82,3.15,3.82v-3.82h3.06      c0,0-2.99,3.73-3.06,3.82c0,0.11,0,0.44,0,0.56l0,0v0h0c0,0,0,0,0,0l0,0c-0.02-0.03-3.46-4.14-3.46-4.14      c-0.07,0.16-3.01,6.42-3.02,6.44l0.01-0.01l-0.19,0.42l-0.39,0.16c-0.01,0.01-0.02,0.01-0.03,0.01      c-0.02,0.01,0.46,0.93,0.46,0.93s0.02,7.55,0.02,9.76l0.4-0.12l0.18-0.06l4.79-1.51l0.17-0.05l1.06-0.32l-0.01,0v-9.9v-0.85      V33.3v-0.19v-0.15v0c0,0,3.26-4.07,3.32-4.15c0.02,0.04,2.59,5.74,2.86,6.35l0.21,0.46c0.23,0.08,0.56,0.2,0.61,0.22l-0.49,1.03      l0.04,9.53l0,0v0.03l-0.62-0.19c0,0,0,0,0,0l-4.6-1.38l-1.31-0.39l0,0.18l-6.77,2.14v0.57c0,0,6.08-1.9,6.78-2.11l-0.01-0.6      c0,0,6.89,2.06,6.91,2.07c0-0.21,0-9.22,0-9.81l0.65-1.25l-0.77-0.32c-0.01-0.02-3.05-6.54-3.29-7.05c0,0-3.03-12.59-3.03-12.59      l-0.34,0v-0.36c0.25-0.05,0.44-0.22,0.44-0.43c0-0.21-0.19-0.38-0.44-0.43l0-0.67c0.13-0.05,0.22-0.16,0.22-0.29      s-0.09-0.25-0.22-0.29v-0.58l1.12,0.6v-1.1l-1.12-0.61v-0.31c0.15-0.05,0.26-0.18,0.26-0.34s-0.11-0.28-0.26-0.34v-0.44V10.1      V9.99l0.28,0.16V9.94l-0.28-0.15V9.24l-0.26-0.01v0.41l-0.11-0.06v0.2l0.11,0.06v0.73c-0.16,0.05-0.27,0.18-0.27,0.34      c0,0.16,0.11,0.29,0.27,0.34v1.99c-0.13,0.05-0.23,0.16-0.23,0.3s0.1,0.25,0.23,0.3l0,0.67c-0.25,0.05-0.43,0.22-0.43,0.43      c0,0.21,0.18,0.38,0.43,0.43v0.36C36.63,15.72,36.32,15.72,36.32,15.72z M32.04,32.56c0.31-0.55,0.87-1.11,1.54-1.12      c0.65-0.01,1.02,0.56,1.03,1.16c0,0.01,0,0.02,0,0.03c-0.01,0.76-0.45,1.52-1.07,1.94c-0.75,0.5-1.31,0.28-1.6-0.17      C31.57,33.84,31.74,33.09,32.04,32.56z M30.72,36.15c0.06-0.03,4.48-1.4,4.74-1.5l0,0.36c-0.47,0.15-4.69,1.48-4.74,1.5V36.15z       M34.28,44.02C34.28,44.03,34.28,44.03,34.28,44.02c-0.03,0.01-0.06,0.02-0.09,0.03c-0.06,0.02-0.12,0.04-0.19,0.06      c-0.19,0.06-0.38,0.11-0.56,0.17c-0.22,0.07-0.43,0.13-0.65,0.2c-0.18,0.05-0.86,0.26-0.86,0.26c0-0.02,0.01-3.77,0.01-3.91      c0,0,0.01-0.45,0.01-0.47c-0.02-1.45,0.54-2.32,1.19-2.44c0.11-0.02,1.09-0.16,1.12,1.48c0,0.03,0.03,1.45,0.03,1.75      c0,0.41,0.01,0.83,0.01,1.24c0,0.37,0,0.74,0.01,1.1c0,0.16,0,0.32,0,0.48C34.31,44,34.29,44.02,34.28,44.02z M30.72,37.82      v-0.19l4.75-1.49l0,0.19L30.72,37.82z M36.99,16.18c0,0.03,2.79,11.75,2.85,12.04h-3.1V16.98v-0.8      C36.83,16.18,36.89,16.18,36.99,16.18z" fill="#ffffff"/><path d="M35.51,50.81l-1.12,0.31c0.08-1.07-0.46-1.74-1.35-1.52c-1.29,0.33-1.45,1.62-1.41,2.29l-1.06,0.3l0,0      l-0.17,0.05l0,0.18c0,0,0,0,0,0l2.1-0.59c0,0.09,0,3.71,0,3.71l0.95-0.23c0-0.2,0.01-3.53,0.01-3.75l2.14-0.6v0l0.18-0.05v-0.17      L35.51,50.81L35.51,50.81z M33.34,53.94l-0.68,0.18c0-0.12,0-0.38,0-0.39l0.68-0.2C33.34,53.66,33.34,53.82,33.34,53.94z       M33.34,51.92l-0.68,0.2c0-0.07,0-0.15,0-0.22c0-0.03,0-0.05,0-0.08l0.68-0.2C33.34,51.71,33.34,51.82,33.34,51.92z       M34.17,51.18l-0.69,0.19c0-0.53-0.21-0.7-0.47-0.65c-0.3,0.06-0.49,0.44-0.49,0.92l-0.64,0.18c-0.11-0.75,0.37-1.8,1.19-1.99      C34.27,49.56,34.16,50.94,34.17,51.18z" fill="#ffffff"/><path d="M40.34,26.34c0.09,0.39,0.4,1.65,0.4,1.65l3.18,6.89l1.16,0.46c0,0-0.88,1.76-0.9,1.81      c0,0.02,0.01,9.57,0,9.69c0.02,0.01,0.16,0.05,0.16,0.05c0,0.47,0,1.03,0,1.51c0.14-0.04,0.28-0.09,0.43-0.13      c0.57-0.18,1.13-0.35,1.7-0.53c0.69-0.21,1.37-0.43,2.06-0.64c0.33-0.1,0.66-0.21,1-0.31c-0.09,0.2-0.18,0.39-0.28,0.58      c-0.13,0.04-0.27,0.08-0.4,0.12c-0.69,0.21-1.37,0.43-2.06,0.64c-0.6,0.19-1.19,0.37-1.79,0.56c-0.29,0.09-0.58,0.18-0.87,0.27      c0,0-0.01,0-0.01,0c-0.1,0.03-0.26,0.08-0.28,0.08v-0.19h0V48.3h0c0-0.05,0-0.09,0-0.14l-0.89-0.25l-0.24-0.07l0,0l-4.59-1.23      l0-0.02l-0.1-0.01l-0.27-0.08l0,0.01l-0.99-0.26c0,0.14,0,12.06,0,12.42c-0.02,0-0.02-0.01-0.03-0.01      c-0.15-0.05-0.48-0.17-0.94-0.36v0l-0.18-0.07v0c-1.2-0.52-3.15-1.5-5.21-3.16v0l-0.18-0.14c-0.37-0.31-0.75-0.63-1.12-0.98      c-0.1-0.09-0.2-0.19-0.3-0.29l0.59,0.19v-0.51l-1.3-0.4c-0.15-0.16-0.31-0.33-0.46-0.5l1.75,0.51v-0.48l0,0l-2.33-0.71      c-0.13-0.16-0.25-0.31-0.38-0.47l2.71,0.82v-0.5l-3.2-0.97c-0.11-0.15-0.22-0.3-0.32-0.46l3.52,1.07v-0.5l-3.94-1.19      c-0.09-0.15-0.19-0.29-0.28-0.44l4.22,1.28v-0.5l-4.58-1.39c-0.08-0.14-0.16-0.29-0.24-0.43l4.82,1.46v-0.49      c-0.03-0.01-5.16-1.58-5.19-1.59c-0.11-0.23-0.2-0.33-0.3-0.56c0.15,0.05,5.31,1.61,5.51,1.67l0-0.21c0,0,0.04-0.01,0.11-0.03      l0,0l6.43-1.83l0,0l0.81-0.24v-0.18l7.08,1.9c0-0.26,0.01-0.51,0.01-0.67c-0.81-0.24-7.08-2.05-7.08-2.05c0,0.13,0,0.81,0,0.81      l-7.31,2.1c0-0.28,0-0.56,0-0.84c0-0.07,0-0.41,0-0.48c0,0,0.11-0.03,0.18-0.06c0-0.91,0-7.61,0-9.63l-0.8-1.56l0.86-0.34      l3.22-6.81c0.01-0.04,0.42-2.12,0.42-2.12l-12.62,0v8.05c0,10.47,4.32,16.7,7.95,20.09c3.93,3.67,7.82,4.84,7.98,4.89l0.1,0.03      l0.1-0.03c0.05-0.01,0.42-0.13,1.01-0.37c0.06-0.02,0.11-0.05,0.18-0.07c1.09-0.46,2.84-1.32,4.76-2.75      c0.06-0.04,0.12-0.09,0.18-0.13c0.61-0.46,1.24-0.99,1.87-1.57c3.63-3.38,7.95-9.61,7.95-20.09v-8.05H40.34z M40.87,55.6      c0,0-0.93-0.21-0.96-0.22c0,0,0-3.59,0-3.82l-1.89-0.6l0-0.18l0.97,0.3c0-0.06,0-0.14,0-0.2c0-0.02,0-0.03,0-0.05      c0-0.3,0.12-1.14,0.94-1.28c0.29-0.05,0.58,0.03,0.83,0.17c0.28,0.16,0.51,0.4,0.68,0.67c0.19,0.3,0.27,0.64,0.29,0.99      c0.01,0.12,0.01,0.27,0.01,0.4c0,0.01,0,0.16,0,0.17l1,0.31l0,0.18l-1.88-0.59C40.87,51.96,40.87,55.6,40.87,55.6z M44.33,53.97      c-0.04,0.04-0.09,0.08-0.13,0.12l-0.37,0.11v-0.36l0.93-0.28C44.62,53.7,44.48,53.83,44.33,53.97z M45.45,52.85l-1.62,0.49      v-0.36l2.07-0.63C45.76,52.52,45.61,52.68,45.45,52.85z M46.64,51.47c-0.05,0.07-0.11,0.14-0.17,0.2l-2.64,0.8v-0.36l3-0.91      C46.77,51.29,46.71,51.38,46.64,51.47z M47.29,50.57l-3.46,1.05v-0.36l3.76-1.14C47.5,50.26,47.4,50.41,47.29,50.57z       M47.98,49.5l-4.15,1.26v-0.36l4.41-1.33C48.16,49.19,48.08,49.34,47.98,49.5z M48.57,48.46l-4.73,1.43v-0.36l4.94-1.5      C48.73,48.13,48.66,48.28,48.57,48.46z" fill="#ffffff"/></g></g></g></g><g id="black"><g><path d="M187.98,15.65c1.34,0,2.15,0.93,2.15,2.54c0,1.4-0.6,2.98-1.74,3.93c-0.7,0.57-1.6,1.03-2.51,1.03    c-1.55,0-2.15-1.22-2.15-2.53c0-2.12,1.12-3.73,2.48-4.43c0.59-0.33,1.25-0.54,1.76-0.54L187.98,15.65z M187.44,16.29    c-0.24,0-0.44,0.05-0.62,0.13c-0.64,0.29-1.73,1.61-1.73,4.11c0,1.21,0.51,1.97,1.37,1.97c0.2,0,0.36-0.03,0.54-0.1    c0.86-0.37,1.78-2.1,1.76-4.17c0-1.32-0.57-1.94-1.3-1.94L187.44,16.29z" fill="#ffffff"/><path d="M192.14,15.94c0.24-1.24,0.65-2.48,1.39-3.29c0.75-0.83,1.68-1.3,2.33-1.3c0.57,0,0.99,0.41,0.98,0.68    c0,0.26-0.24,0.55-0.41,0.68c-0.15,0.1-0.29,0.11-0.41-0.02c-0.34-0.37-0.68-0.57-1.03-0.57c-0.6,0-1.11,0.78-1.6,3.81h1.84    l-0.33,0.5l-1.63,0.16c-0.31,1.79-0.47,2.74-0.85,4.55c-0.57,2.8-1.17,4.03-2.07,4.95c-0.72,0.77-1.4,1.03-1.83,1.03    c-0.47,0-1.03-0.34-1.03-0.7c0-0.21,0.21-0.49,0.46-0.7c0.13-0.1,0.21-0.08,0.31,0.02c0.24,0.24,0.73,0.41,1.03,0.41    c0.28,0,0.52-0.13,0.7-0.33c0.21-0.23,0.59-0.91,1.14-4.07c0.37-2.23,0.6-3.57,0.86-5.17h-1.34l-0.05-0.2l0.49-0.46h1.05V15.94z" fill="#ffffff"/></g><g><g><path d="M96.39,9.62c-1.47,0.1-2.03,0.42-2.13,1.44c-0.07,0.66-0.15,1.71-0.15,3.98v1.98c0,2.88-0.44,4.99-1.83,6.45     c-1.15,1.17-2.79,1.69-4.4,1.69c-1.44,0-2.84-0.34-3.91-1.15c-1.47-1.12-2.15-2.96-2.15-5.84v-6.09c0-2.2-0.22-2.3-2.13-2.47     V8.93H86v0.69c-1.91,0.12-2.1,0.27-2.1,2.47v5.55c0,3.96,1.56,6.21,4.6,6.21c3.52,0,4.62-2.96,4.62-6.99v-1.84     c0-2.25-0.07-3.28-0.17-4.03c-0.12-0.95-0.64-1.25-2.37-1.37V8.94h5.82L96.39,9.62L96.39,9.62z" fill="#ffffff"/><path d="M103.11,24.82v-0.64c1.44-0.15,1.61-0.34,1.61-2.03v-4.06c0-1.69-0.59-2.79-2.22-2.79c-0.98,0-1.93,0.61-2.66,1.25v5.72     c0,1.66,0.15,1.76,1.59,1.91v0.64h-5.31v-0.64c1.66-0.17,1.78-0.29,1.78-1.91v-5.04c0-1.56-0.15-1.64-1.47-1.88v-0.56     c1.17-0.22,2.32-0.51,3.4-1v1.96c0.49-0.37,1.03-0.73,1.64-1.15c0.68-0.44,1.32-0.73,2.03-0.73c1.96,0,3.15,1.34,3.15,3.69v4.72     c0,1.66,0.15,1.76,1.56,1.91v0.64h-5.1V24.82z" fill="#ffffff"/><path d="M109.57,24.82v-0.64c1.54-0.15,1.71-0.29,1.71-1.96v-5.04c0-1.49-0.07-1.61-1.54-1.83v-0.59     c1.25-0.2,2.42-0.51,3.47-0.95v8.41c0,1.66,0.17,1.81,1.74,1.96v0.64H109.57z M112.11,8.91c0.68,0,1.22,0.56,1.22,1.27     c0,0.66-0.54,1.25-1.25,1.25c-0.64,0-1.22-0.59-1.22-1.22c0-0.73,0.59-1.3,1.22-1.3L112.11,8.91z" fill="#ffffff"/><path d="M126.58,14.8c-1.3,0.17-1.49,0.39-2.15,1.83c-0.83,1.83-2.1,4.84-3.47,8.46h-0.68c-1.08-2.93-2.2-5.7-3.37-8.53     c-0.56-1.39-0.73-1.56-2.05-1.76v-0.64h5.01v0.64c-1.32,0.17-1.37,0.34-0.98,1.39c0.61,1.71,1.61,4.28,2.32,6.01     c0.86-2,1.64-4.2,2.18-5.79c0.39-1.17,0.24-1.44-1.15-1.61v-0.64h4.35L126.58,14.8L126.58,14.8z" fill="#ffffff"/><path d="M134.94,22.77c-1.54,1.91-3.23,2.35-3.98,2.35c-3.01,0-4.77-2.44-4.77-5.21c0-1.66,0.61-3.18,1.61-4.25     c1-1.1,2.32-1.78,3.57-1.78h0.02c2.03,0,3.67,1.81,3.67,3.69c0,0.49-0.1,0.68-0.56,0.78c-0.39,0.07-3.47,0.32-6.41,0.42     c0.02,3.32,1.96,4.69,3.67,4.69c1,0,1.91-0.39,2.81-1.22L134.94,22.77z M130.79,14.77c-1.1,0-2.2,1.03-2.57,2.98     c1.37,0,2.74-0.02,4.16-0.07c0.44,0,0.59-0.12,0.59-0.46c0.02-1.27-0.81-2.44-2.15-2.44h-0.03V14.77z" fill="#ffffff"/><path d="M140.15,16.46c0.73-1.22,1.78-2.59,2.96-2.59c0.83,0,1.42,0.66,1.42,1.22c0,0.49-0.32,0.98-0.78,1.2     c-0.29,0.12-0.49,0.1-0.64-0.05c-0.37-0.34-0.66-0.49-1.05-0.49c-0.64,0-1.42,0.71-1.96,2.08v4.45c0,1.61,0.12,1.76,2,1.91v0.64     h-5.62v-0.64c1.52-0.15,1.69-0.29,1.69-1.88v-5.06c0-1.61-0.1-1.71-1.52-1.88v-0.56c1.2-0.2,2.27-0.49,3.45-0.98v2.64h0.05V16.46     z" fill="#ffffff"/><path d="M151.64,17.07c-0.49-1.47-1.32-2.42-2.52-2.42c-0.95,0-1.59,0.71-1.59,1.69c0,1.08,0.98,1.64,2.05,2.1     c1.86,0.76,3.11,1.61,3.11,3.3c0,2.22-2.08,3.37-4.03,3.37c-1.25,0-2.37-0.46-2.79-0.83c-0.17-0.34-0.42-2-0.42-2.88l0.66-0.1     c0.42,1.59,1.52,3.01,2.98,3.01c0.9,0,1.74-0.66,1.74-1.71c0-1.08-0.71-1.64-1.93-2.2c-1.47-0.68-3.06-1.49-3.06-3.35     c0-1.71,1.47-3.18,3.72-3.18c1,0,1.66,0.22,2.15,0.44c0.22,0.54,0.49,1.98,0.54,2.59L151.64,17.07z" fill="#ffffff"/><path d="M154.33,24.82v-0.64c1.54-0.15,1.71-0.29,1.71-1.96v-5.04c0-1.49-0.07-1.61-1.54-1.83v-0.59     c1.25-0.2,2.42-0.51,3.47-0.95v8.41c0,1.66,0.17,1.81,1.74,1.96v0.64H154.33z M156.87,8.91c0.68,0,1.22,0.56,1.22,1.27     c0,0.66-0.54,1.25-1.25,1.25c-0.64,0-1.22-0.59-1.22-1.22c0-0.73,0.59-1.3,1.22-1.3L156.87,8.91z" fill="#ffffff"/><path d="M165.72,24.8c-0.42,0.22-0.78,0.32-1.03,0.32c-1.54,0-2.4-0.95-2.4-2.88v-7.09h-1.69l-0.1-0.27l0.68-0.71h1.1v-1.76     l1.59-1.64l0.34,0.05v3.35h2.76c0.24,0.27,0.17,0.78-0.15,0.98h-2.62v6.26c0,1.96,0.81,2.32,1.44,2.32     c0.61,0,1.17-0.22,1.49-0.39l0.22,0.61L165.72,24.8z" fill="#ffffff"/><path d="M179.38,14.8c-1.3,0.2-1.49,0.39-2.15,1.76c-0.64,1.3-1.39,3.32-3.08,7.36c-1.64,3.89-2.18,5.28-2.52,6.58     c-0.12,0.49-0.44,0.61-0.78,0.61c-0.68,0-1.37-0.59-1.37-1.17c0-0.39,0.2-0.61,0.61-0.88c0.78-0.49,1.25-1.08,1.83-2.18     c0.44-0.86,0.64-1.34,0.76-1.69c0.12-0.37,0.1-0.68-0.05-1.08c-0.98-2.79-2.08-5.75-2.79-7.48c-0.54-1.32-0.76-1.66-2.1-1.83     v-0.64h4.94l0.02,0.64c-1.15,0.17-1.27,0.42-0.93,1.34l2.2,6.11c0.68-1.66,1.76-4.55,2.25-6.06c0.29-0.93,0.15-1.2-1.27-1.39     v-0.64h4.43V14.8z" fill="#ffffff"/><path d="M93.48,44.51v-0.66c2-0.2,2.08-0.34,2.08-2.93l-0.1-9.97h-0.07l-5.96,13.42h-0.51l-5.48-13.08h-0.05l-0.34,6.97     c-0.1,2.03-0.1,3.08-0.07,4.06c0.05,1.17,0.61,1.34,2.25,1.52v0.68h-5.7v-0.68c1.44-0.15,1.91-0.44,2.08-1.47     c0.15-0.86,0.29-1.91,0.46-4.47l0.34-5.09c0.22-3.18,0.1-3.28-2.13-3.5v-0.69h4.01l5.55,12.25l5.67-12.25h4.16v0.68     c-2.15,0.2-2.32,0.24-2.25,2.76l0.24,8.85c0.07,2.59,0.15,2.74,2.27,2.93v0.66L93.48,44.51L93.48,44.51z" fill="#ffffff"/><path d="M108.74,44.81c-0.37,0-0.88-0.22-1.15-0.46c-0.32-0.32-0.46-0.66-0.59-1.1c-0.98,0.66-2.15,1.56-2.88,1.56     c-1.74,0-2.93-1.44-2.93-2.98c0-1.17,0.64-1.93,1.98-2.4c1.47-0.49,3.25-1.15,3.79-1.59v-0.42c0-1.78-0.81-2.76-2.05-2.76     c-0.46,0-0.83,0.17-1.08,0.46c-0.32,0.32-0.51,0.86-0.73,1.59c-0.12,0.39-0.37,0.56-0.71,0.56c-0.44,0-1.05-0.46-1.05-1.03     c0-0.37,0.29-0.64,0.76-0.98c0.68-0.49,2.25-1.39,3.64-1.71c0.73,0,1.47,0.22,2,0.66c0.86,0.73,1.1,1.71,1.1,3.01v4.52     c0,1.1,0.44,1.47,0.86,1.47c0.29,0,0.64-0.15,0.88-0.29l0.24,0.64L108.74,44.81z M106.95,38.67c-0.51,0.27-1.69,0.78-2.2,1.03     c-0.95,0.44-1.49,0.88-1.49,1.78c0,1.27,0.98,1.86,1.74,1.86c0.64,0,1.49-0.42,1.96-0.88v-3.79H106.95z" fill="#ffffff"/><path d="M118.03,36.76c-0.49-1.47-1.32-2.42-2.52-2.42c-0.95,0-1.59,0.71-1.59,1.69c0,1.08,0.98,1.64,2.05,2.1     c1.86,0.76,3.1,1.61,3.1,3.3c0,2.22-2.08,3.37-4.03,3.37c-1.25,0-2.37-0.46-2.79-0.83c-0.17-0.34-0.42-2-0.42-2.88l0.66-0.1     c0.42,1.59,1.52,3.01,2.98,3.01c0.9,0,1.74-0.66,1.74-1.71c0-1.08-0.71-1.64-1.93-2.2c-1.47-0.68-3.06-1.49-3.06-3.35     c0-1.71,1.47-3.18,3.72-3.18c1,0,1.66,0.22,2.15,0.44c0.22,0.54,0.49,1.98,0.54,2.59L118.03,36.76z" fill="#ffffff"/><path d="M126.87,36.76c-0.49-1.47-1.32-2.42-2.52-2.42c-0.95,0-1.59,0.71-1.59,1.69c0,1.08,0.98,1.64,2.05,2.1     c1.86,0.76,3.11,1.61,3.11,3.3c0,2.22-2.08,3.37-4.03,3.37c-1.25,0-2.37-0.46-2.79-0.83c-0.17-0.34-0.42-2-0.42-2.88l0.66-0.1     c0.42,1.59,1.52,3.01,2.98,3.01c0.9,0,1.74-0.66,1.74-1.71c0-1.08-0.71-1.64-1.93-2.2c-1.47-0.68-3.06-1.49-3.06-3.35     c0-1.71,1.47-3.18,3.72-3.18c1,0,1.66,0.22,2.15,0.44c0.22,0.54,0.49,1.98,0.54,2.59L126.87,36.76z" fill="#ffffff"/><path d="M137.02,44.81c-0.37,0-0.88-0.22-1.15-0.46c-0.32-0.32-0.46-0.66-0.59-1.1c-0.98,0.66-2.15,1.56-2.88,1.56     c-1.74,0-2.93-1.44-2.93-2.98c0-1.17,0.64-1.93,1.98-2.4c1.47-0.49,3.25-1.15,3.79-1.59v-0.42c0-1.78-0.81-2.76-2.05-2.76     c-0.46,0-0.83,0.17-1.08,0.46c-0.32,0.32-0.51,0.86-0.73,1.59c-0.12,0.39-0.37,0.56-0.71,0.56c-0.44,0-1.05-0.46-1.05-1.03     c0-0.37,0.29-0.64,0.76-0.98c0.68-0.49,2.25-1.39,3.64-1.71c0.73,0,1.47,0.22,2,0.66c0.86,0.73,1.1,1.71,1.1,3.01v4.52     c0,1.1,0.44,1.47,0.86,1.47c0.29,0,0.64-0.15,0.88-0.29l0.24,0.64L137.02,44.81z M135.23,38.67c-0.51,0.27-1.69,0.78-2.2,1.03     c-0.95,0.44-1.49,0.88-1.49,1.78c0,1.27,0.98,1.86,1.74,1.86c0.64,0,1.49-0.42,1.96-0.88v-3.79H135.23z" fill="#ffffff"/><path d="M148.7,42.31c-1.08,1.42-2.69,2.49-4.13,2.49c-3.08,0-4.91-2.47-4.91-5.09c0-1.88,0.83-3.52,2.47-4.77     c1.27-0.98,2.74-1.39,3.64-1.39h0.02c1,0,1.81,0.32,2.2,0.66c0.32,0.24,0.39,0.46,0.39,0.73c0,0.51-0.54,1.05-0.81,1.05     c-0.15,0-0.27-0.07-0.46-0.27c-0.73-0.68-1.59-1-2.47-1c-1.61,0-3.01,1.34-3.01,3.91c0,3.37,2.3,4.5,3.69,4.5     c1.05,0,1.83-0.29,2.96-1.34L148.7,42.31z" fill="#ffffff"/><path d="M155.94,44.51v-0.64c1.42-0.15,1.61-0.29,1.61-1.88v-4.03c0-2-0.76-3.01-2.4-3.01c-0.93,0-1.86,0.46-2.54,1.25v5.79     c0,1.56,0.12,1.74,1.59,1.88v0.64h-5.21l0.02-0.64c1.47-0.12,1.66-0.27,1.66-1.88V30.33c0-1.54-0.05-1.64-1.66-1.78v-0.59     c1.17-0.17,2.64-0.56,3.59-0.86v8.24c0.88-0.88,2.18-1.78,3.5-1.78c1.98,0,3.37,1.25,3.37,4.16V42c0,1.61,0.2,1.76,1.61,1.88     v0.64h-5.14V44.51z" fill="#ffffff"/><path d="M173.42,43.93c-0.54,0.07-1.22,0.22-1.88,0.39c-0.64,0.17-1.25,0.34-1.71,0.49l-0.15-0.15V42.9     c-0.56,0.44-1.1,0.88-1.81,1.3c-0.71,0.42-1.22,0.61-1.88,0.61c-1.64,0-3.03-1-3.03-3.64v-4.79c0-1.3-0.2-1.44-0.81-1.56     l-0.68-0.15v-0.59c0.51-0.02,1.12-0.07,1.76-0.12c0.66-0.1,1.34-0.2,1.74-0.27c-0.07,0.76-0.07,1.91-0.07,3.52v3.3     c0,2.18,1.05,2.76,2.15,2.76c0.88,0,1.81-0.37,2.64-1.17v-5.72c0-1.3-0.22-1.44-1.03-1.56l-0.88-0.15v-0.59     c0.66-0.02,1.49-0.1,2.2-0.15c0.68-0.07,1.27-0.17,1.64-0.24v8.14c0,1.22,0.2,1.37,1.15,1.44l0.66,0.02L173.42,43.93     L173.42,43.93z" fill="#ffffff"/><path d="M180.92,36.76c-0.49-1.47-1.32-2.42-2.52-2.42c-0.95,0-1.59,0.71-1.59,1.69c0,1.08,0.98,1.64,2.05,2.1     c1.86,0.76,3.1,1.61,3.1,3.3c0,2.22-2.08,3.37-4.03,3.37c-1.25,0-2.37-0.46-2.79-0.83c-0.17-0.34-0.42-2-0.42-2.88l0.66-0.1     c0.42,1.59,1.52,3.01,2.98,3.01c0.9,0,1.74-0.66,1.74-1.71c0-1.08-0.71-1.64-1.93-2.2c-1.47-0.68-3.06-1.49-3.06-3.35     c0-1.71,1.47-3.18,3.72-3.18c1,0,1.66,0.22,2.15,0.44c0.22,0.54,0.49,1.98,0.54,2.59L180.92,36.76z" fill="#ffffff"/><path d="M192.36,42.46c-1.54,1.91-3.23,2.35-3.99,2.35c-3.01,0-4.77-2.44-4.77-5.21c0-1.66,0.61-3.18,1.61-4.25     c1-1.1,2.32-1.78,3.57-1.78h0.02c2.03,0,3.67,1.81,3.67,3.69c0,0.49-0.1,0.68-0.56,0.78c-0.39,0.07-3.47,0.32-6.41,0.42     c0.02,3.32,1.96,4.69,3.67,4.69c1,0,1.91-0.39,2.81-1.22L192.36,42.46z M188.21,34.47c-1.1,0-2.2,1.03-2.57,2.98     c1.37,0,2.74-0.02,4.16-0.07c0.44,0,0.59-0.12,0.59-0.46c0.02-1.27-0.81-2.44-2.15-2.44h-0.03V34.47z" fill="#ffffff"/><path d="M198.47,44.49c-0.42,0.22-0.78,0.32-1.03,0.32c-1.54,0-2.4-0.95-2.4-2.88v-7.09h-1.69l-0.1-0.27l0.68-0.71h1.1V32.1     l1.59-1.64l0.34,0.05v3.35h2.76c0.24,0.27,0.17,0.78-0.15,0.98h-2.62v6.26c0,1.96,0.81,2.32,1.44,2.32     c0.61,0,1.17-0.22,1.49-0.39l0.22,0.61L198.47,44.49z" fill="#ffffff"/><path d="M205.73,44.49c-0.42,0.22-0.78,0.32-1.03,0.32c-1.54,0-2.4-0.95-2.4-2.88v-7.09h-1.69l-0.1-0.27l0.68-0.71h1.1V32.1     l1.59-1.64l0.34,0.05v3.35h2.76c0.24,0.27,0.17,0.78-0.15,0.98h-2.62v6.26c0,1.96,0.81,2.32,1.44,2.32     c0.61,0,1.17-0.22,1.49-0.39l0.22,0.61L205.73,44.49z" fill="#ffffff"/><path d="M214.63,36.76c-0.49-1.47-1.32-2.42-2.52-2.42c-0.95,0-1.59,0.71-1.59,1.69c0,1.08,0.98,1.64,2.05,2.1     c1.86,0.76,3.1,1.61,3.1,3.3c0,2.22-2.08,3.37-4.03,3.37c-1.25,0-2.37-0.46-2.79-0.83c-0.17-0.34-0.42-2-0.42-2.88l0.66-0.1     c0.42,1.59,1.52,3.01,2.98,3.01c0.9,0,1.74-0.66,1.74-1.71c0-1.08-0.71-1.64-1.93-2.2c-1.47-0.68-3.06-1.49-3.06-3.35     c0-1.71,1.47-3.18,3.72-3.18c1,0,1.66,0.22,2.15,0.44c0.22,0.54,0.49,1.98,0.54,2.59L214.63,36.76z" fill="#ffffff"/></g><g><path d="M87.32,61.84v-0.55c1.24-0.16,1.42-0.32,1.16-1.08c-0.26-0.77-0.65-1.83-1.08-3.03h-4.2c-0.32,0.89-0.61,1.71-0.87,2.52     c-0.41,1.26-0.26,1.44,1.24,1.6v0.55h-4.29V61.3c1.26-0.18,1.54-0.29,2.21-2.05l4.08-10.32l0.61-0.18     c1.22,3.37,2.54,7.13,3.8,10.54c0.61,1.69,0.89,1.87,2.17,2.01v0.55L87.32,61.84L87.32,61.84z M85.39,51.31h-0.04     c-0.63,1.67-1.24,3.41-1.85,5.02h3.62L85.39,51.31z" fill="#ffffff"/><path d="M103.78,61.84v-0.51c1.14-0.12,1.36-0.22,1.36-1.6v-3.27c0-1.4-0.49-2.29-1.73-2.29c-0.71,0-1.44,0.41-2.19,1.03     c0.04,0.24,0.06,0.45,0.06,0.83v3.82c0,1.24,0.18,1.36,1.26,1.48v0.51h-4.21v-0.51c1.22-0.12,1.4-0.22,1.4-1.52v-3.37     c0-1.46-0.51-2.27-1.73-2.27c-0.77,0-1.56,0.53-2.15,1.03v4.61c0,1.28,0.18,1.4,1.14,1.52v0.51h-4.16v-0.51     c1.3-0.12,1.48-0.24,1.48-1.52v-4.06c0-1.26-0.06-1.36-1.2-1.54v-0.45c0.87-0.16,1.85-0.41,2.74-0.81v1.6     c0.41-0.28,0.83-0.63,1.44-0.98c0.51-0.32,0.98-0.55,1.6-0.55c0.95,0,1.79,0.61,2.21,1.62c0.57-0.43,1.14-0.81,1.62-1.1     c0.43-0.28,0.93-0.51,1.5-0.51c1.52,0,2.5,1.08,2.5,3.01v3.78c0,1.32,0.14,1.4,1.28,1.52v0.51h-4.22V61.84z" fill="#ffffff"/><path d="M114.37,61.84v-0.51c1.14-0.12,1.3-0.24,1.3-1.52v-3.25c0-1.61-0.61-2.42-1.93-2.42c-0.75,0-1.5,0.37-2.05,1v4.67     c0,1.26,0.1,1.4,1.28,1.52v0.51h-4.2l0.02-0.51c1.18-0.1,1.34-0.22,1.34-1.52v-9.4c0-1.24-0.04-1.32-1.34-1.44V48.5     c0.95-0.14,2.13-0.45,2.9-0.69v6.64c0.71-0.71,1.75-1.44,2.82-1.44c1.6,0,2.72,1,2.72,3.35v3.45c0,1.3,0.16,1.42,1.3,1.52v0.51     H114.37z" fill="#ffffff"/><path d="M126.43,60.19c-1.24,1.54-2.6,1.89-3.21,1.89c-2.42,0-3.84-1.97-3.84-4.2c0-1.34,0.49-2.56,1.3-3.43     c0.81-0.89,1.87-1.44,2.88-1.44h0.02c1.64,0,2.96,1.46,2.96,2.97c0,0.39-0.08,0.55-0.45,0.63c-0.32,0.06-2.8,0.26-5.16,0.34     c0.02,2.68,1.58,3.78,2.96,3.78c0.81,0,1.54-0.32,2.27-0.99L126.43,60.19z M123.08,53.75c-0.89,0-1.77,0.83-2.07,2.4     c1.1,0,2.21-0.02,3.35-0.06c0.35,0,0.47-0.1,0.47-0.37c0.02-1.02-0.65-1.97-1.73-1.97H123.08z" fill="#ffffff"/><path d="M130.62,55.11c0.59-0.99,1.44-2.09,2.38-2.09c0.67,0,1.14,0.53,1.14,0.99c0,0.39-0.26,0.79-0.63,0.96     c-0.24,0.1-0.39,0.08-0.51-0.04c-0.3-0.28-0.53-0.39-0.85-0.39c-0.51,0-1.14,0.57-1.58,1.67v3.58c0,1.3,0.1,1.42,1.61,1.54v0.51     h-4.53v-0.51c1.22-0.12,1.36-0.24,1.36-1.52v-4.08c0-1.3-0.08-1.38-1.22-1.52v-0.45c0.97-0.16,1.83-0.39,2.78-0.79v2.13h0.05     V55.11z" fill="#ffffff"/><path d="M139.78,55.6c-0.39-1.18-1.06-1.95-2.03-1.95c-0.77,0-1.28,0.57-1.28,1.36c0,0.87,0.79,1.32,1.66,1.69     c1.5,0.61,2.5,1.3,2.5,2.66c0,1.79-1.67,2.72-3.25,2.72c-1,0-1.91-0.37-2.25-0.67c-0.14-0.28-0.33-1.62-0.33-2.32l0.53-0.08     c0.34,1.28,1.22,2.42,2.4,2.42c0.73,0,1.4-0.53,1.4-1.38c0-0.87-0.57-1.32-1.56-1.77c-1.18-0.55-2.46-1.2-2.46-2.7     c0-1.38,1.18-2.56,2.99-2.56c0.81,0,1.34,0.18,1.73,0.35c0.18,0.43,0.39,1.6,0.43,2.09L139.78,55.6z" fill="#ffffff"/><path d="M145.45,61.83c-0.33,0.18-0.63,0.26-0.83,0.26c-1.24,0-1.93-0.77-1.93-2.32v-5.71h-1.36l-0.08-0.22l0.55-0.57h0.89v-1.42     l1.28-1.32l0.28,0.04v2.7h2.23c0.2,0.22,0.14,0.63-0.12,0.79h-2.11v5.04c0,1.58,0.65,1.87,1.16,1.87c0.49,0,0.95-0.18,1.2-0.32     l0.18,0.49L145.45,61.83z" fill="#ffffff"/></g><g><g><g><g><path d="M36.75,73.58c-20.28,0-36.77-16.5-36.77-36.77S16.47,0.04,36.75,0.04s36.77,16.5,36.77,36.77S57.03,73.58,36.75,73.58        z M36.75,1.11c-19.68,0-35.7,16.01-35.7,35.7s16.01,35.7,35.7,35.7s35.7-16.01,35.7-35.7S56.43,1.11,36.75,1.11z" fill="#ffffff"/></g></g><g><g><path d="M36.75,71.21c-18.97,0-34.4-15.43-34.4-34.4c0-18.97,15.43-34.4,34.4-34.4s34.4,15.43,34.4,34.4        C71.15,55.78,55.72,71.21,36.75,71.21z M36.75,2.77c-18.77,0-34.04,15.27-34.04,34.04c0,18.77,15.27,34.04,34.04,34.04        s34.04-15.27,34.04-34.04C70.78,18.04,55.52,2.77,36.75,2.77z" fill="#ffffff"/></g></g><path d="M40.12,11.79c-0.1-0.16-0.28-0.28-0.49-0.31c-0.37-0.04-0.69,0.22-0.73,0.59c-0.04,0.37,0.22,0.69,0.59,0.73      c0.2,0.02,0.39-0.05,0.53-0.18c12.09,1.61,21.14,11.91,21.14,24.18c0,13.46-10.95,24.4-24.4,24.4s-24.4-10.95-24.4-24.4      c0-12.13,8.93-22.41,20.86-24.14c0.14,0.13,0.33,0.2,0.53,0.17c0.36-0.04,0.63-0.38,0.58-0.74c-0.04-0.36-0.38-0.63-0.74-0.58      c-0.21,0.03-0.38,0.15-0.48,0.31C20.75,13.62,11.5,24.26,11.5,36.81c0,13.92,11.33,25.25,25.25,25.25S62,50.73,62,36.81      C62,24.11,52.63,13.46,40.12,11.79z" fill="#ffffff"/><path d="M56.81,18.44c-4.49-4.9-10.56-7.96-17.13-8.67c-0.05-0.14-0.18-0.24-0.33-0.26c-0.22-0.02-0.42,0.14-0.45,0.36      c-0.02,0.22,0.14,0.42,0.36,0.45c0.16,0.02,0.3-0.06,0.38-0.19c6.48,0.7,12.47,3.72,16.89,8.55c4.54,4.96,7.04,11.39,7.04,18.12      c0,14.8-12.04,26.84-26.84,26.84S9.91,51.61,9.91,36.81c0-13.67,10.15-25.05,23.66-26.64c0.08,0.13,0.23,0.2,0.38,0.19      c0.22-0.03,0.38-0.23,0.36-0.45c-0.03-0.22-0.23-0.38-0.45-0.36c-0.16,0.02-0.28,0.13-0.33,0.26      c-13.7,1.61-23.98,13.15-23.98,27c0,15,12.2,27.2,27.2,27.2s27.2-12.2,27.2-27.2C63.94,29.99,61.41,23.47,56.81,18.44z" fill="#ffffff"/><g><g><path d="M32.05,68.37l0.58,0.19l-0.03,0.16l-1.78-0.29l0.03-0.16l0.64,0.01l0.37-2.3l-0.68-0.11l0.03-0.16l1.26-0.05l0.02,0        L32.05,68.37z" fill="#ffffff"/></g><g><path d="M34.5,66.96l-0.21-0.17c-0.27-0.22-0.47-0.5-0.45-0.9c0.03-0.55,0.6-1.02,1.3-0.97c0.6,0.04,1.01,0.47,0.98,0.93        c-0.03,0.49-0.46,0.75-0.88,0.99l0.15,0.12c0.43,0.33,0.71,0.64,0.68,1.1c-0.04,0.65-0.71,1.02-1.33,0.98        c-0.71-0.04-1.24-0.48-1.21-1.06C33.57,67.44,34.05,67.21,34.5,66.96z M34.61,67.05c-0.37,0.27-0.5,0.54-0.52,0.87        c-0.03,0.46,0.24,0.91,0.73,0.94c0.48,0.03,0.71-0.28,0.73-0.59c0.02-0.37-0.31-0.72-0.69-1.03L34.61,67.05z M34.84,66.52        l0.28,0.22c0.31-0.26,0.46-0.52,0.48-0.83c0.03-0.55-0.28-0.82-0.59-0.84c-0.32-0.02-0.63,0.18-0.66,0.6        C34.33,66.02,34.51,66.26,34.84,66.52z" fill="#ffffff"/></g><g><path d="M37.71,66.89c0.22-0.24,0.55-0.39,0.81-0.4c0.71-0.04,1.19,0.44,1.22,1.13c0.03,0.68-0.49,1.4-1.31,1.44        c-0.73,0.04-1.39-0.44-1.43-1.36c-0.07-1.43,1.37-2.52,2.76-2.99l0.05,0.15C38.95,65.29,38.02,66,37.71,66.89z M37.66,67.08        c-0.04,0.16-0.05,0.32-0.05,0.49c0.05,0.93,0.47,1.32,0.92,1.3c0.39-0.02,0.65-0.35,0.62-0.98c-0.04-0.7-0.42-1.11-0.91-1.09        C38.05,66.81,37.81,66.92,37.66,67.08z" fill="#ffffff"/></g><g><path d="M40.69,69.24c-0.02-0.16,0.08-0.31,0.22-0.36c0.11,0.1,0.36,0.34,0.52,0.44c0.56-0.11,0.82-0.52,0.74-1.03        c-0.08-0.53-0.57-0.83-1.26-0.7l-0.04-0.25l0.19-0.08c0.49-0.32,0.71-0.71,0.65-1.06c-0.06-0.36-0.33-0.53-0.65-0.48        c-0.27,0.04-0.42,0.23-0.54,0.47l-0.14-0.05c0.1-0.42,0.39-0.81,0.87-0.88c0.54-0.08,0.9,0.21,0.97,0.64        c0.07,0.47-0.24,0.81-0.56,1.08l-0.16,0.14l0,0.01c0.5-0.02,1.06,0.23,1.15,0.84c0.12,0.78-0.68,1.48-1.4,1.59        C41,69.59,40.73,69.47,40.69,69.24z" fill="#ffffff"/></g></g><g><g><g><path d="M48.88,65.28c-0.25,0.17-0.49,0.16-0.61,0.17c-0.14,0.01-0.46,0-0.69-0.06c-0.02-0.08,0.01-0.19,0.09-0.28         c0.15-0.17,0.45-0.09,0.68-0.06c0.17,0.02,0.45,0.01,0.58-0.13c0.07-0.08,0.13-0.21-0.01-0.34c-0.1-0.1-0.21-0.08-0.26-0.04         c-0.03,0.01-0.04,0.01-0.05-0.02c-0.02-0.02-0.06-0.13,0.03-0.22c0.09-0.1,0.24-0.08,0.33,0.01         c0.13,0.12,0.15,0.35,0.15,0.45c0,0.06,0,0.09,0.02,0.15c0.08,0.26-0.1,0.6-0.28,0.8c-0.2,0.21-0.44,0.37-0.73,0.43         c-0.26,0.05-0.42,0-0.54-0.11c-0.1-0.09-0.11-0.19-0.09-0.26c-0.24-0.04-0.53-0.08-0.74,0.15c-0.22,0.24-0.15,0.46,0.02,0.62         c0.27,0.25,0.63,0.15,0.73,0.04c0.02-0.03,0.03,0,0.03,0.01c-0.01,0.1-0.05,0.18-0.1,0.24c-0.17,0.18-0.5,0.19-0.72-0.01         c-0.32-0.3-0.25-0.82-0.01-1.08c0.16-0.17,0.36-0.23,0.68-0.2c0.2,0.02,0.56,0.12,0.89,0.06c0.3-0.05,0.47-0.17,0.56-0.27         l0.05-0.06L48.88,65.28z" fill="#ffffff"/></g></g><g><g><path d="M24.65,65.33l0.06,0.05c0.11,0.08,0.29,0.18,0.6,0.18c0.33,0,0.67-0.15,0.87-0.2c0.31-0.08,0.52-0.06,0.7,0.09         c0.28,0.22,0.42,0.72,0.16,1.07c-0.19,0.23-0.51,0.27-0.71,0.12c-0.07-0.05-0.11-0.12-0.14-0.22c0-0.02,0.01-0.04,0.03-0.02         c0.11,0.09,0.49,0.14,0.72-0.16c0.14-0.18,0.17-0.42-0.08-0.62c-0.25-0.2-0.53-0.11-0.76-0.04c0.03,0.07,0.04,0.16-0.05,0.27         c-0.1,0.12-0.25,0.2-0.51,0.19c-0.3-0.01-0.56-0.13-0.79-0.31c-0.21-0.17-0.44-0.48-0.4-0.75c0.01-0.06,0-0.09-0.01-0.16         c-0.01-0.1-0.03-0.33,0.08-0.47c0.08-0.1,0.22-0.14,0.33-0.06c0.1,0.08,0.07,0.19,0.06,0.22c-0.01,0.03-0.02,0.03-0.05,0.03         c-0.05-0.02-0.16-0.03-0.25,0.08c-0.12,0.15-0.04,0.27,0.04,0.34c0.16,0.12,0.43,0.09,0.6,0.04         c0.23-0.06,0.51-0.18,0.68-0.04c0.09,0.07,0.13,0.18,0.13,0.26c-0.22,0.1-0.53,0.15-0.67,0.17         c-0.12,0.01-0.36,0.06-0.63-0.08L24.65,65.33z" fill="#ffffff"/></g></g></g><g><g><path d="M7.87,43.88l-2.11,0.41l-0.04,0.48L5.58,44.8l-0.31-1.58l0.13-0.03l0.22,0.47l2-0.39c0.78-0.15,1.36-0.51,1.21-1.29        c-0.15-0.76-0.68-1.01-1.48-0.9l-2.1,0.42l-0.05,0.7l-0.13,0.03l-0.27-1.4l0.13-0.03l0.23,0.42l2.07-0.4        c1.1-0.21,1.76,0.35,1.93,1.23C9.39,43.16,8.82,43.69,7.87,43.88z" fill="#ffffff"/></g><g><path d="M8.55,36.07l-3.26,2.68l3-0.09l0.12-0.53l0.14,0l0.03,1.2l-0.14,0L8.3,38.91L5.05,39c-0.11,0.1-0.19,0.27-0.22,0.4        L4.8,39.5l-0.13,0l-0.03-1.02l2.81-2.3l-2.6,0.08l-0.12,0.52l-0.14,0l-0.03-1.2l0.14,0l0.14,0.43l2.98-0.09l0.73-0.03        L8.55,36.07z" fill="#ffffff"/></g><g><path d="M8.43,34.65l-0.06-0.46l-3.4-0.33L4.8,34.3l-0.14-0.01l0.15-1.53l0.14,0.01l0.08,0.46l3.4,0.33l0.15-0.44l0.14,0.01        l-0.15,1.53L8.43,34.65z" fill="#ffffff"/></g><g><path d="M5.23,31.44L5.05,31.7l-0.13-0.03l0.3-1.4l0.13,0.03l0.02,0.47l3.18-0.45l-2.66-1.68L5.6,29.22l-0.14-0.03l0.25-1.18        l0.13,0.03l0.08,0.34l3.32,2.17l-0.06,0.27L5.23,31.44z" fill="#ffffff"/></g><g><path d="M8.29,26.59l1.47,0.55c0.11-0.04,0.18-0.1,0.24-0.23l0.36-0.98l-0.71-0.9l0.06-0.15l1,0.69l-1,2.7l-0.13-0.05        l0.05-0.47l-3.19-1.18l-0.28,0.38l-0.13-0.05l0.87-2.35l0.13-0.41l1,0.37l-0.06,0.15l-0.89,0l-0.48,1.3l1.49,0.55l0.27-0.74        l-0.46-0.37l0.05-0.13l1.21,0.45l-0.06,0.15l-0.55-0.02L8.29,26.59z" fill="#ffffff"/></g><g><path d="M11.02,24.52l0.12-0.45l-3-1.64l-0.32,0.34L7.71,22.7l0.63-1.19c0.54-1.01,1.13-1.3,1.65-1.01        c0.45,0.24,0.54,0.72,0.43,1.26l0.01,0.01l2.07-0.16l0.29-0.29l0.12,0.07l-0.46,0.85l-1.72,0.12        c-0.25,0.02-0.43,0.03-0.43,0.03l-0.22,0.4l1.37,0.75l0.32-0.34l0.12,0.07l-0.74,1.35L11.02,24.52z M9.91,22.67l0.23-0.42        c0.19-0.46,0.06-0.92-0.34-1.14c-0.5-0.27-1.08-0.02-1.46,0.71L9.91,22.67z" fill="#ffffff"/></g><g><path d="M12.34,20.11l0.09-0.12l0.94,0.25c0.17-0.05,0.4-0.16,0.6-0.43c0.29-0.38,0.23-0.83-0.14-1.1        c-0.25-0.19-0.53-0.23-1.09,0.07l-0.28,0.15c-0.66,0.35-1,0.39-1.42,0.08c-0.51-0.38-0.56-1.13-0.09-1.76        c0.24-0.32,0.58-0.5,0.76-0.57l0.75,0.51l-0.08,0.11l-0.82-0.19c-0.18,0.04-0.34,0.11-0.49,0.3        c-0.27,0.36-0.18,0.75,0.11,0.97c0.31,0.23,0.55,0.19,1.05-0.07l0.28-0.15c0.77-0.41,1.13-0.38,1.48-0.12        c0.61,0.45,0.55,1.35,0.12,1.92c-0.3,0.4-0.65,0.58-0.9,0.7L12.34,20.11z" fill="#ffffff"/></g><g><path d="M15.34,17.98l0.23-0.41l-2.51-2.31l-0.4,0.25l-0.1-0.09l1.04-1.13l0.1,0.09l-0.22,0.42L16,17.12l0.39-0.26l0.1,0.09        l-1.04,1.13L15.34,17.98z" fill="#ffffff"/></g><g><path d="M16.74,11.43l0.26-0.28l0.74,0.84l-0.12,0.1l-0.81-0.45l-0.67,0.58l2.26,2.62l0.48-0.27l0.09,0.1l-1.3,1.12l-0.09-0.1        l0.34-0.44l-2.26-2.62l-0.67,0.58l0.33,0.87l-0.12,0.1l-0.72-0.85l0.31-0.22L16.74,11.43z" fill="#ffffff"/></g><g><path d="M20.97,11.11l0.81,1.28l0.45-0.16l0.08,0.12l-1.32,0.84l-0.08-0.12l0.34-0.34l-0.74-1.16l-2.11-1.12l-0.31,0.09        l-0.07-0.11l1.27-0.8l0.07,0.11l-0.34,0.35l1.72,0.97l-0.06-1.99l-0.56,0.18l-0.07-0.11l1.01-0.64l0.07,0.11l-0.21,0.28        L20.97,11.11z" fill="#ffffff"/></g><g><path d="M28.22,7.5c0.48,1.3-0.15,2.38-1.15,2.75c-1.01,0.37-2.18-0.07-2.62-1.25c-0.44-1.2,0.19-2.29,1.18-2.65        C26.85,5.9,27.88,6.59,28.22,7.5z M27.66,7.93c-0.35-0.95-1.26-1.67-2.03-1.38c-0.83,0.3-0.9,1.24-0.59,2.09        c0.31,0.85,1.17,1.74,2.06,1.41C27.92,9.74,27.97,8.77,27.66,7.93z" fill="#ffffff"/></g><g><path d="M30.41,7.16l0.33,1.63l0.61-0.04l0.03,0.16l-1.65,0.33L29.7,9.1l0.42-0.19l-0.67-3.34l-0.47-0.04L28.96,5.4l2.43-0.49        l0.44-0.11l0.21,1.04l-0.16,0.03l-0.47-0.76l-1.35,0.27l0.32,1.57l0.77-0.15l0.09-0.59l0.13-0.03l0.26,1.28l-0.14,0.03        L31.18,7L30.41,7.16z" fill="#ffffff"/></g><g><path d="M34.84,8.23l0.46-0.1l0.2-3.39l-0.45-0.16l0-0.14l1.16,0.02l1.14,2.84l1.13-2.73l0.03-0.08l1.12,0.02l0,0.14        l-0.46,0.11l0.07,3.42l0.46,0.12l0,0.14l-1.65-0.03l0-0.14l0.57-0.1L38.58,4.9l-1.19,2.89l-0.18,0.44l-0.11,0l-0.16-0.45        l-1.21-2.92l-0.17,3.25l0.65,0.14l0,0.14l-1.36-0.02L34.84,8.23z" fill="#ffffff"/></g><g><path d="M40.2,8.4l0.45-0.03L42.7,5l0.19,0l0.23,0l0.64,3.99l0.4,0.19l-0.03,0.13l-1.54-0.3l0.03-0.13l0.48-0.02L42.93,7.7        l-1.43-0.28l-0.58,0.99l0.65,0.26L41.55,8.8l-1.37-0.27L40.2,8.4z M41.66,7.15l1.23,0.24l-0.28-1.83l-0.01,0L41.66,7.15z" fill="#ffffff"/></g><g><path d="M45.17,8.4l0.14,0.05l0.05,0.97c0.1,0.15,0.28,0.33,0.59,0.44c0.45,0.16,0.86-0.03,1.01-0.46        c0.1-0.3,0.06-0.58-0.39-1.02l-0.23-0.22c-0.53-0.52-0.68-0.84-0.51-1.33c0.21-0.6,0.91-0.87,1.65-0.62        c0.37,0.13,0.65,0.4,0.77,0.55l-0.26,0.86l-0.13-0.05l-0.07-0.84c-0.09-0.16-0.2-0.3-0.43-0.37        c-0.42-0.15-0.77,0.05-0.89,0.39c-0.13,0.37-0.02,0.58,0.38,0.98l0.22,0.22c0.63,0.61,0.7,0.96,0.56,1.37        c-0.25,0.71-1.13,0.93-1.8,0.7c-0.47-0.16-0.75-0.45-0.94-0.65L45.17,8.4z" fill="#ffffff"/></g><g><path d="M48.66,9.69l0.13,0.07l-0.08,0.96c0.08,0.16,0.23,0.37,0.53,0.51c0.43,0.21,0.86,0.08,1.06-0.33        c0.14-0.28,0.13-0.57-0.26-1.07l-0.2-0.25C49.38,9,49.28,8.66,49.51,8.2c0.28-0.57,1.01-0.75,1.71-0.4        c0.35,0.18,0.59,0.48,0.69,0.65l-0.37,0.82L51.42,9.2l0.04-0.84c-0.07-0.17-0.16-0.32-0.38-0.43c-0.4-0.2-0.77-0.05-0.93,0.28        c-0.17,0.35-0.09,0.57,0.26,1.02l0.19,0.25c0.54,0.68,0.57,1.04,0.38,1.43c-0.34,0.68-1.24,0.78-1.87,0.46        c-0.44-0.22-0.69-0.54-0.85-0.76L48.66,9.69z" fill="#ffffff"/></g><g><path d="M50.99,12.02l0.42,0.15l3.21-2.29l0.18,0.07l0.22,0.09l-0.98,3.92l0.3,0.33l-0.08,0.11l-1.29-0.88l0.08-0.11        l0.45,0.17l0.29-1.14l-1.2-0.82l-0.93,0.68l0.49,0.5l-0.08,0.11l-1.15-0.78L50.99,12.02z M52.82,11.45l1.03,0.7l0.47-1.8l0,0        L52.82,11.45z" fill="#ffffff"/></g><g><path d="M55.81,13.34c0.85-0.92,2.25-0.9,3.14-0.07c0.4,0.37,0.58,0.73,0.7,1.07l-0.66,0.76l-0.12-0.11l0.31-0.79        c-0.05-0.29-0.16-0.6-0.48-0.89c-0.58-0.54-1.53-0.4-2.23,0.35c-0.91,0.98-0.83,1.94-0.24,2.49c0.31,0.29,0.64,0.33,0.84,0.34        l0.92-0.34l0.12,0.11l-0.81,0.63c-0.52-0.15-0.94-0.34-1.36-0.73C54.94,15.22,55.17,14.03,55.81,13.34z" fill="#ffffff"/></g><g><path d="M59.48,19.68L59.86,20l1.34-1.03l-1.17-1.52l-1.34,1.03l0.21,0.45l-0.11,0.08l-0.96-1.24l0.11-0.08l0.37,0.29        l2.7-2.08l-0.18-0.44l0.11-0.08l0.96,1.24l-0.11,0.08l-0.39-0.31l-1.21,0.93l1.17,1.52l1.21-0.93l-0.2-0.46l0.11-0.08        l0.95,1.23l-0.11,0.08l-0.38-0.28l-2.7,2.08l0.19,0.43L60.32,21l-0.95-1.23L59.48,19.68z" fill="#ffffff"/></g><g><path d="M62.25,21.31l1.9-1.01l-0.1-0.47l0.12-0.06l0.76,1.42l-0.12,0.06l-0.35-0.39l-1.8,0.96c-0.7,0.37-1.16,0.88-0.78,1.59        c0.37,0.69,0.95,0.77,1.68,0.43l1.89-1.01l-0.16-0.69l0.12-0.06l0.67,1.26l-0.12,0.06l-0.35-0.34l-1.86,0.99        c-0.99,0.53-1.79,0.18-2.21-0.61C61,22.44,61.39,21.76,62.25,21.31z" fill="#ffffff"/></g><g><path d="M63.97,25.41l0.05,0.14L63.3,26.2c-0.06,0.17-0.08,0.43,0.03,0.74c0.16,0.45,0.56,0.65,1,0.49        c0.29-0.11,0.49-0.32,0.55-0.95l0.03-0.32c0.07-0.74,0.23-1.06,0.71-1.23c0.59-0.22,1.25,0.16,1.52,0.89        c0.13,0.37,0.09,0.76,0.05,0.95l-0.84,0.34l-0.05-0.13l0.61-0.58c0.06-0.17,0.1-0.34,0.02-0.57        c-0.15-0.42-0.53-0.57-0.86-0.45c-0.37,0.13-0.46,0.35-0.52,0.92l-0.03,0.31c-0.08,0.87-0.31,1.15-0.72,1.3        c-0.71,0.26-1.43-0.29-1.67-0.96c-0.17-0.47-0.13-0.86-0.09-1.14L63.97,25.41z" fill="#ffffff"/></g><g><path d="M66.08,29.7l-1.53,0.33c-0.07,0.09-0.1,0.18-0.08,0.32l0.22,1.02l1.08,0.38l0.03,0.16l-1.22-0.04l-0.61-2.81        l0.13-0.03l0.21,0.42l3.33-0.72l0.03-0.47l0.13-0.03l0.53,2.45l0.11,0.42l-1.04,0.23l-0.03-0.16l0.75-0.48l-0.29-1.35        l-1.55,0.34l0.17,0.77l0.59,0.07l0.03,0.14L65.8,30.9l-0.03-0.16l0.48-0.28L66.08,29.7z" fill="#ffffff"/></g><g><path d="M68.88,35.57l0.07,0.37l-1.11,0.09l-0.01-0.15l0.84-0.38l-0.06-0.89l-3.46,0.25l-0.07,0.54l-0.14,0.01l-0.12-1.71        l0.14-0.01l0.15,0.54l3.46-0.25l-0.06-0.89l-0.89-0.26l-0.01-0.15l1.11-0.07l-0.01,0.38L68.88,35.57z" fill="#ffffff"/></g><g><path d="M68.68,40.32l0.01,0.38l-1.11-0.07l0.01-0.15l0.89-0.25l0.07-0.89l-3.46-0.26l-0.15,0.53l-0.14-0.01l0.13-1.71        l0.14,0.01l0.07,0.56l3.46,0.26l0.07-0.89l-0.84-0.38l0.01-0.15l1.11,0.09l-0.07,0.37L68.68,40.32z" fill="#ffffff"/></g><g><path d="M65.77,41.52l-0.03,0.14l-0.95,0.17c-0.14,0.12-0.3,0.32-0.36,0.64c-0.1,0.47,0.13,0.85,0.58,0.94        c0.31,0.06,0.58-0.01,0.97-0.52l0.19-0.25c0.45-0.59,0.75-0.78,1.26-0.67c0.62,0.13,0.98,0.79,0.82,1.56        c-0.08,0.39-0.32,0.69-0.45,0.83l-0.89-0.15l0.03-0.14l0.83-0.17c0.14-0.11,0.27-0.24,0.32-0.48c0.09-0.44-0.15-0.76-0.5-0.84        c-0.38-0.08-0.58,0.05-0.93,0.5l-0.19,0.25c-0.53,0.7-0.87,0.81-1.29,0.72c-0.74-0.16-1.06-1-0.91-1.7        c0.1-0.49,0.35-0.8,0.53-1.01L65.77,41.52z" fill="#ffffff"/></g></g></g><g><path d="M40.93,34.17c0.32-0.24,0.23-0.78,0.1-1.09c-0.16-0.42-0.48-0.81-0.91-0.98c-0.18-0.07-0.41-0.1-0.58,0.02      c-0.06,0.04-0.1,0.1-0.13,0.16c-0.09,0.2-0.1,0.42-0.06,0.66c0.07,0.36,0.26,0.71,0.52,0.96C40.29,34.28,40.76,34.3,40.93,34.17      z" fill="#ffffff"/><polygon points="36.71,45.28 36.71,45.29 36.71,45.28     " fill="#ffffff"/><path d="M33.41,51.64l-0.64,0.2c0,0.04,0,0.27,0,0.35l0.64-0.17C33.41,51.91,33.41,51.74,33.41,51.64z" fill="#ffffff"/><path d="M32.78,53.82c0,0.01,0,0.26,0,0.39l0.64-0.19c0-0.12,0-0.27,0-0.4L32.78,53.82z" fill="#ffffff"/><path d="M33.18,49.83c-0.29,0.06-0.58,0.25-0.79,0.51c-0.34,0.41-0.42,1.01-0.42,1.57l0.66-0.21c0-0.07-0.01-0.31,0.01-0.4      c0.05-0.28,0.23-0.49,0.44-0.55c0.13-0.04,0.27-0.01,0.36,0.08c0.11,0.1,0.15,0.32,0.15,0.56l0.68-0.21c0-0.13,0-0.19,0-0.33      C34.27,50.57,34.01,49.65,33.18,49.83z" fill="#ffffff"/><path d="M33.73,34.58c0.45-0.3,0.8-0.78,0.97-1.31c0.06-0.21,0.11-0.52,0.11-0.66c0-0.6-0.38-1.17-1.03-1.16      c-0.67,0.01-1.23,0.57-1.54,1.12c-0.12,0.21-0.21,0.45-0.26,0.7c-0.08,0.39-0.06,0.8,0.16,1.13      C32.51,34.97,33.23,34.92,33.73,34.58z M32.59,33.27c0.02-0.08,0.04-0.15,0.07-0.21c0.16-0.4,0.46-0.78,0.87-0.96      c0.17-0.05,0.36-0.06,0.51,0.04c0.17,0.12,0.23,0.35,0.23,0.55c0,0.2-0.05,0.39-0.12,0.58c-0.09,0.23-0.24,0.45-0.42,0.62      c-0.17,0.16-0.44,0.34-0.7,0.35c-0.09,0-0.18-0.03-0.26-0.09C32.5,33.97,32.51,33.58,32.59,33.27z" fill="#ffffff"/><polygon points="41.33,39.94 39.42,39.34 39.41,39.41 39.4,39.58 41.33,40.19     " fill="#ffffff"/><path d="M40.52,42.46v-1.5l0.83,0.26c0-0.09,0-0.31,0-0.35l-1.98-0.63c0,0.1,0,0.26,0,0.35l0.84,0.27v1.5l-0.84-0.27      c0,0.1,0,0.25,0,0.35l0.85,0.27l-0.01,1.51c0.09,0.03,0.23,0.07,0.32,0.1v-1.51l0.83,0.28c0-0.08,0-0.29,0-0.36L40.52,42.46z" fill="#ffffff"/><path d="M34.4,41.18c0-0.3-0.03-1.72-0.03-1.75c-0.03-1.64-1.02-1.5-1.12-1.48c-0.65,0.12-1.21,0.99-1.19,2.44      c0,0.03-0.01,0.47-0.01,0.47c0,0.13-0.01,3.88-0.01,3.91c0,0,0.68-0.21,0.86-0.26c0.22-0.07,0.43-0.13,0.65-0.2      c0.19-0.06,0.38-0.11,0.56-0.17c0.06-0.02,0.12-0.04,0.19-0.06c0.03-0.01,0.06-0.01,0.09-0.03c0,0,0,0,0,0      c0.01,0,0.02-0.03,0.02-0.04c0-0.16,0-0.32,0-0.48c0-0.37,0-0.74-0.01-1.1C34.4,42.01,34.4,41.6,34.4,41.18z M32.26,39.94      l1.91-0.6l0.01,0.07l0.01,0.17l-1.93,0.61L32.26,39.94z M34.23,40.59l-0.84,0.27v1.5l0.84-0.27c0,0.1,0,0.25,0,0.35l-0.85,0.27      l0.01,1.51c-0.09,0.03-0.23,0.07-0.32,0.1v-1.51l-0.83,0.28c0-0.08,0-0.29,0-0.36l0.83-0.26v-1.5l-0.83,0.26      c0-0.09,0-0.31,0-0.35l1.98-0.63C34.23,40.34,34.23,40.5,34.23,40.59z" fill="#ffffff"/><path d="M35.24,35.16l0.61-0.2l0-0.44l-0.25,0.07c0,0-4.77,1.49-4.77,1.49l0,0.48C31.81,36.2,34.29,35.45,35.24,35.16      L35.24,35.16z" fill="#ffffff"/><polygon points="35.24,36.34 30.83,37.73 30.83,37.92 35.24,36.52     " fill="#ffffff"/><path d="M43.5,46.83l-6.77-2.14l0-0.18l-1.31,0.39l-4.6,1.38c0,0,0,0,0,0l-0.62,0.19v-0.03l0,0l0.04-9.53l-0.49-1.03      c0.05-0.02,0.37-0.14,0.61-0.22l0.21-0.46c0.27-0.61,2.84-6.31,2.86-6.35c0.06,0.08,3.32,4.15,3.32,4.15v0v0.15v0.19v0.43v0.85      v9.9l-0.01,0l1.06,0.32l0.17,0.05l4.79,1.51l0.18,0.06l0.4,0.12c0-2.21,0.02-9.76,0.02-9.76s0.48-0.93,0.46-0.93      c-0.01,0-0.02-0.01-0.03-0.01L43.4,35.7l-0.19-0.42l0.01,0.01c-0.01-0.02-2.94-6.28-3.02-6.44c0,0-3.44,4.11-3.46,4.14l0,0h0      l0,0l0,0c0,0,0,0,0,0l0,0v0l0,0c0-0.12,0-0.45,0-0.56c-0.07-0.09-3.06-3.82-3.06-3.82h3.06v3.82c0,0,2.49-3.02,3.15-3.82h-3.15      v-0.35h3.28l-2.86-12.51c0,0-0.31,0-0.31,0v-0.36c0.25-0.05,0.43-0.22,0.43-0.43c0-0.21-0.18-0.38-0.43-0.43v-0.67      c0.13-0.05,0.22-0.16,0.22-0.29c0-0.13-0.09-0.25-0.22-0.29v-0.58l1.12,0.6v-1.1l-1.12-0.61v-0.31      c0.15-0.05,0.26-0.18,0.26-0.34c0-0.15-0.11-0.28-0.26-0.34v-0.44v-0.04v-0.11l0.28,0.16V9.96l-0.28-0.15V9.27L36.6,9.25v0.41      l-0.11-0.06v0.2l0.11,0.06v0.73c-0.16,0.05-0.27,0.18-0.27,0.34c0,0.16,0.11,0.29,0.27,0.34v1.99c-0.13,0.05-0.23,0.16-0.23,0.3      c0,0.14,0.1,0.25,0.23,0.3v0.66c-0.25,0.05-0.44,0.22-0.44,0.43s0.19,0.38,0.44,0.43v0.36l-0.34,0c0,0.01-3.02,12.59-3.03,12.59      c-0.24,0.51-3.28,7.02-3.29,7.05l-0.77,0.32l0.65,1.25c0,0.58,0,9.6,0,9.81c0.01,0,6.91-2.07,6.91-2.07l-0.01,0.6      c0.69,0.21,6.78,2.11,6.78,2.11V46.83z M40.69,44.5c-0.22-0.07-0.43-0.13-0.65-0.2c-0.19-0.06-0.38-0.11-0.56-0.17      c-0.06-0.02-0.12-0.04-0.19-0.06c-0.03-0.01-0.06-0.01-0.09-0.03c0,0,0,0,0,0c-0.01,0-0.02-0.03-0.02-0.04c0-0.16,0-0.32,0-0.48      c0-0.37,0-0.74,0.01-1.1c0-0.41,0.01-0.83,0.01-1.24c0-0.3,0.03-1.72,0.03-1.75c0.03-1.64,1.02-1.5,1.12-1.48      c0.65,0.12,1.21,0.99,1.19,2.44c0,0.03,0.01,0.47,0.01,0.47c0,0.13,0.01,3.88,0.01,3.91C41.55,44.76,40.87,44.56,40.69,44.5z       M38.88,32.62c0.01-0.6,0.38-1.17,1.03-1.16c0.67,0.01,1.23,0.57,1.54,1.12c0.3,0.53,0.46,1.29,0.11,1.83      c-0.29,0.45-0.85,0.67-1.6,0.17c-0.63-0.42-1.06-1.18-1.07-1.94C38.88,32.65,38.88,32.63,38.88,32.62z M38.02,34.67      c0.27,0.11,4.68,1.47,4.74,1.5v0.35c-0.05-0.02-4.28-1.35-4.74-1.5L38.02,34.67z M38.01,36.17l4.75,1.49v0.19l-4.75-1.49      L38.01,36.17z M36.5,16.2c0.1,0,0.16,0,0.25,0V17v11.25h-3.1C33.71,27.95,36.49,16.23,36.5,16.2z" fill="#ffffff"/><path d="M37.86,50.98l2.14,0.6c0,0.22,0.01,3.55,0.01,3.75l0.95,0.23c0,0,0-3.62,0-3.71l2.1,0.59c0,0,0,0,0,0l0-0.18l-0.17-0.05      l0,0l-1.06-0.3c0.04-0.67-0.12-1.96-1.41-2.29c-0.88-0.22-1.42,0.45-1.35,1.52l-1.12-0.31l0,0l-0.28-0.07v0.17L37.86,50.98      L37.86,50.98z M40.83,54.15l-0.68-0.18c0-0.12,0-0.28,0-0.4l0.68,0.2C40.83,53.77,40.83,54.02,40.83,54.15z M40.83,51.92      c0,0.07,0,0.15,0,0.22l-0.68-0.2c0-0.1,0-0.21,0-0.31l0.68,0.2C40.83,51.87,40.83,51.89,40.83,51.92z M40.42,49.86      c0.82,0.19,1.3,1.24,1.19,1.99l-0.64-0.18c0-0.48-0.19-0.86-0.49-0.92c-0.25-0.05-0.47,0.12-0.47,0.65l-0.69-0.19      C39.32,50.96,39.21,49.58,40.42,49.86z" fill="#ffffff"/><path d="M40.16,26.37c0,0,0.41,2.08,0.42,2.12l3.22,6.81l0.86,0.34l-0.8,1.56c0,2.02,0,8.72,0,9.63      c0.08,0.02,0.18,0.06,0.18,0.06c0,0.07,0,0.41,0,0.48c0,0.28,0,0.56,0,0.84l-7.31-2.1c0,0,0-0.69,0-0.81      c0,0-6.27,1.81-7.08,2.05c0,0.16,0,0.4,0.01,0.67l7.08-1.9v0.18l0.81,0.24l0,0l6.43,1.83l0,0c0.07,0.02,0.11,0.03,0.11,0.03      l0,0.21c0.2-0.06,5.36-1.63,5.51-1.67c-0.1,0.23-0.19,0.33-0.3,0.56c-0.03,0.01-5.16,1.58-5.19,1.59v0.49l4.82-1.46      c-0.08,0.15-0.16,0.29-0.24,0.43l-4.58,1.39v0.5l4.22-1.28c-0.09,0.15-0.18,0.3-0.28,0.44l-3.94,1.19v0.5l3.52-1.07      c-0.11,0.15-0.21,0.31-0.32,0.46l-3.2,0.97v0.5l2.71-0.82c-0.12,0.16-0.25,0.32-0.38,0.47l-2.33,0.71l0,0v0.48l1.75-0.51      c-0.15,0.17-0.3,0.33-0.46,0.5l-1.29,0.4v0.51l0.59-0.19c-0.1,0.1-0.2,0.19-0.3,0.29c-0.37,0.35-0.75,0.68-1.12,0.98l-0.18,0.14      v0c-2.06,1.66-4.01,2.65-5.21,3.16v0l-0.18,0.07v0c-0.46,0.19-0.79,0.31-0.94,0.36c0,0-0.01,0.01-0.03,0.01      c0-0.36,0-12.29,0-12.42l-0.99,0.26l0-0.01l-0.27,0.08l-0.1,0.01l0,0.02l-4.59,1.23l0,0l-0.24,0.07l-0.89,0.25      c0,0.05,0,0.09,0,0.14h0v0.57h0v0.19c-0.02-0.01-0.18-0.05-0.28-0.08c0,0-0.01,0-0.01,0c-0.29-0.09-0.58-0.18-0.87-0.27      c-0.6-0.19-1.19-0.37-1.79-0.56c-0.69-0.21-1.37-0.43-2.06-0.64c-0.13-0.04-0.27-0.08-0.4-0.12c-0.1-0.19-0.19-0.39-0.28-0.58      c0.33,0.1,0.66,0.21,1,0.31c0.69,0.21,1.37,0.43,2.06,0.64c0.57,0.18,1.13,0.35,1.7,0.53c0.14,0.04,0.28,0.09,0.43,0.13      c0-0.48,0-1.05,0-1.51c0,0,0.14-0.04,0.16-0.05c-0.01-0.12,0-9.67,0-9.69c-0.03-0.06-0.9-1.81-0.9-1.81l1.16-0.46l3.18-6.89      c0,0,0.31-1.26,0.4-1.65H20.72v8.05c0,10.47,4.32,16.7,7.95,20.09c0.63,0.59,1.25,1.11,1.87,1.57c0.06,0.04,0.12,0.09,0.18,0.13      c1.92,1.43,3.66,2.29,4.76,2.75c0.06,0.03,0.12,0.05,0.18,0.07c0.59,0.24,0.96,0.35,1.01,0.37l0.1,0.03l0.1-0.03      c0.16-0.05,4.04-1.22,7.98-4.89c3.63-3.38,7.95-9.61,7.95-20.09v-8.05L40.16,26.37z M29.65,54.22l-0.37-0.11      c-0.04-0.04-0.09-0.08-0.13-0.12c-0.14-0.14-0.29-0.27-0.43-0.41l0.93,0.28V54.22z M29.65,53.36l-1.62-0.49      c-0.15-0.16-0.3-0.33-0.45-0.5L29.65,53V53.36z M29.65,52.5l-2.64-0.8c-0.06-0.07-0.11-0.14-0.17-0.2      c-0.07-0.09-0.13-0.18-0.2-0.27l3,0.91V52.5z M29.65,51.64l-3.46-1.05c-0.11-0.16-0.21-0.3-0.3-0.45l3.76,1.14V51.64z       M29.65,50.78l-4.15-1.26c-0.09-0.15-0.18-0.3-0.26-0.44l4.41,1.33V50.78z M29.65,49.91l-4.73-1.43      c-0.09-0.18-0.16-0.32-0.21-0.42l4.94,1.5V49.91z M33.58,51.58c0,0.23,0,3.82,0,3.82c-0.04,0.01-0.96,0.22-0.96,0.22      c0,0,0-3.64,0-3.74l-1.88,0.59l0-0.18l1-0.31c0-0.01,0-0.16,0-0.17c0-0.12,0-0.27,0.01-0.4c0.02-0.36,0.11-0.69,0.29-0.99      c0.17-0.27,0.4-0.51,0.68-0.67c0.25-0.14,0.55-0.22,0.83-0.17c0.82,0.14,0.94,0.98,0.94,1.28c0,0.02,0,0.03,0,0.05      c0,0.06,0,0.14,0,0.2l0.97-0.3l0,0.18L33.58,51.58z" fill="#ffffff"/></g></g></g></g></svg>