<svg xmlns="http://www.w3.org/2000/svg" width="612" viewBox="0 0 612 118">
  <style>
    .st0{fill:#003767}.st1{fill:#981b1e}.st2{fill:#083a5c}.st3{fill:#fff}.st4{fill:#f58345}.st5{fill:#009b7a}
  </style>
  <path class="st0" d="M114.4 59c0 29.9-24.2 54.1-54.1 54.1S6.1 88.9 6.1 59c0-29.9 24.3-54.1 54.2-54.1 29.8 0 54.1 24.2 54.1 54.1"/>
  <path d="M59.8 112.9c7.3 0 14.3-1.4 21-4.2 6.4-2.8 12.2-6.6 17.1-11.6 5-5 8.8-10.7 11.6-17.1 2.8-6.7 4.2-13.7 4.2-21s-1.4-14.3-4.2-21c-2.7-6.4-6.6-12.2-11.6-17.1-5-5-10.7-8.8-17.1-11.6-6.6-2.8-13.7-4.2-21-4.2s-14.3 1.4-21 4.2c-6.4 2.7-12.2 6.6-17.1 11.6-5 5-8.8 10.7-11.6 17.1-2.8 6.6-4.2 13.7-4.2 21s1.4 14.3 4.2 21c2.7 6.4 6.6 12.1 11.5 17.1 5 4.9 10.7 8.8 17.1 11.6 6.7 2.8 13.8 4.2 21.1 4.2"/>
  <path class="st1" d="M6.9 59c0-7.1 1.4-14.1 4.2-20.6 2.7-6.3 6.5-12 11.3-16.8 4.9-4.9 10.5-8.7 16.8-11.3 6.5-2.8 13.4-4.2 20.6-4.2 7.1 0 14.1 1.4 20.6 4.2 6.3 2.7 12 6.5 16.8 11.3 4.9 4.9 8.7 10.5 11.3 16.8 2.8 6.5 4.2 13.4 4.2 20.6 0 7.1-1.4 14.1-4.2 20.6-2.7 6.3-6.5 11.9-11.3 16.8-4.9 4.9-10.5 8.7-16.8 11.3-6.5 2.8-13.4 4.2-20.6 4.2-7.1 0-14.1-1.4-20.6-4.2-6.3-2.7-11.9-6.5-16.8-11.3-4.9-4.9-8.7-10.5-11.3-16.8C8.3 73 6.9 66.1 6.9 59"/>
  <path d="M59.8 98.8c10.6 0 20.6-4.1 28.2-11.7 7.5-7.5 11.7-17.5 11.7-28.1S95.6 38.4 88 30.8c-7.5-7.5-17.5-11.7-28.2-11.7-10.6 0-20.6 4.1-28.2 11.7C24.1 38.3 20 48.3 20 59c0 10.6 4.1 20.6 11.7 28.1 7.4 7.5 17.4 11.7 28.1 11.7"/>
  <path class="st2" d="M21 59c0-10.4 4-20.1 11.3-27.4s17.1-11.3 27.4-11.3c10.4 0 20.1 4 27.4 11.3S98.5 48.7 98.5 59c0 10.4-4 20.1-11.4 27.4-7.3 7.3-17.1 11.4-27.4 11.4-10.4 0-20.1-4-27.4-11.4C25.1 79.1 21 69.3 21 59"/>
  <path class="st3" d="M23.6 24.4c.2.1 1.2.9.8 1.1-.3.1-.6-.2-1.3.3-.4.3-1.2 1.2-1.3 1.4-.2.2-.1.4 0 .7.1.3 1 .9 1.3 1.1s.5.3.9-.1c.4-.5.8-1.2.9-1.5s.5-.3.7-.2c.1.1.4.6.8.9-.7.5-1.4 1.2-1.6 1.4-.2.2-.2.4-.1.6.1.3 1 1 1.3 1.2.2.1.5.2.7 0s1.1-1.4 1.5-2.8c.1.1.7 1.2.8 1.4.1.2.2.3-.1.6-.3.3-2.7 3.1-2.7 3.2-.1.1-.2.3-.5 0-.2-.3-.6-.7-1-1.1-.4-.3-.9-.6-1.1-.8l-1.2-.5c-.1-.3-.3-.6-.5-.9-.6-.5-1.6-1.1-2-1.3-.4-.2-1.1-.3-.7-.8 1-1.1 3.3-3.7 3.6-4.1.1-.1.4-.1.8.2M12.9 40.1c.1-.3.3-.5 1 0 .2.1 1.1.4 1.4.5.4.1.2.3-.3.4-.4 0-1.3.4-1.4.8-.1.4.1.7.4.8.5.1 1 .4 1.4.5.3 0 .6 0 1-.1l.8.5c.3.1.9.4 1.4.6.6.2 1.2.1 1.5.2.3 0 .3.3.2.4l-.6 1.8c-.1.1-.2.3-.4.1-.3-.2-.7-.6-1.3-.8-.5-.2-1.2-.3-1.4-.4l-1.2.1c-.2-.3-.4-.5-.7-.7-.4-.1-.9-.3-1.4-.5-.4-.1-.7 0-.8.5-.1.4.4 1.6.8 1.9.3.3.3.3-.1.2-.4-.1-1.2-.3-1.5-.4-.8-.2-.8-.4-.7-.8.1-.2 1.6-5 1.9-5.6m11.5-4.3c-.3-.1-.9-.2-1.4-.5-.4-.3-1-.7-1.2-.9l-.7-1c-.3 0-.6-.1-1-.1-.6-.4-1.7-1.2-1.9-1.3-.2-.1-.3-.8-.4-1.1-.1-.3-2.1 3-1.7 2.9.4-.1.9-.2 1.1-.1.2.2 1.2.8 1.9 1.2 0 0 0 .1.1.1-.1.8-.9 2.3-1.2 2.5h-.2c-.7-.3-1.8-1-2.1-1.1-.2-.1-.4-.7-.5-1s-1.8 3.2-1.4 3.1c.4-.1.9-.3 1.1-.2.2.1 1.3.6 2 1 .2.2.4.5.6.8l1.2.1c.2.1.9.4 1.4.6.5.3.9.8 1.2 1 .3.2.4 0 .4-.1l.8-1.7c0-.1.1-.3-.2-.4-.3-.1-1-.1-1.5-.3s-1-.6-1.3-.7c.1-.6.6-2.2 1-2.6h.2c.2.2.8.5 1.3.7.5.3.8.9 1 1.1.2.3.4.1.5 0l1-1.6c.1-.1.2-.3-.1-.4M10 57.9c.2 0 1.5-.2 1.3.2-.1.3-.6.3-.7 1.1-.1.5 0 2 0 2.3 0 .2.2.4.5.5s1 .1 1.3 0 .6-.1.5-.7c0-.6-.1-1.9-.2-2.2-.1-.3.1-.5.4-.6.2 0 .7.2 1.2.1-.2.9 0 2.3 0 2.5 0 .3.1.5.3.5.3.1 1.4 0 1.7-.1.2-.1 1.1-.4 1.4-.6.2-.1.3 0 .3.5s.2 1.5.2 1.7c0 .1 0 .4-.3.3s-1-.4-1.6-.3c-.5.1-1.1.2-1.3.2l-1.2.5-.9-.3c-.8.1-1.9.3-2.3.4-.4.2-1 .5-1-.1-.1-1.5-.2-5-.3-5.4 0-.3.2-.5.7-.5m5.1 7.9c-.4 0-1-.2-1.3-.6-.3.4-.8 1-1.2 1.1s-1.6.3-2.1.8-.8 2-.3 3.5 1.1 2.2 1.9 2.4c.8.2 1.6.2 2.3 0 .6-.1.8 0 1.3.2.2-.2.7-.7 1.1-.9.4-.1 2.2-.8 2.6-1.5s.3-1.7.1-2.4c-.2-.7-.7-2-1.6-2.4-1-.3-1.9-.2-2.8-.2"/>
  <path class="st1" d="M14.6 68.2c-.7-.3-1.7-.5-2.4-.1s-1.1 1.1-.8 1.9c.2.7.7 1.2 1.3 1.2s1.7 0 2.3-.8c.6.4 1.1.4 1.9 0 .7-.3 1.2-1.2 1-1.9-.1-.6-.6-1.2-1.7-1.2-1 0-1.2.4-1.6.9"/>
  <path class="st3" d="M109.1 66.5c-.2 0-1.5 0-1.3-.4.2-.3.6-.2.8-1 .1-.5.3-2 .3-2.2s-.2-.4-.4-.6c-.3-.1-1-.2-1.3-.2s-.6 0-.6.6-.2 1.9-.1 2.2c.1.3-.2.5-.4.5s-.7-.3-1.2-.3c.3-.8.3-2.2.3-2.5s0-.5-.3-.6-1.4-.2-1.7-.2c-.2 0-1.1.3-1.4.4-.2.1-.3-.1-.2-.6.1-.5 0-1.6 0-1.7 0-.1 0-.4.4-.3.3.1.9.5 1.5.6.5 0 1.1-.1 1.4 0l1.1-.1c.3.2.6.3.9.4.8 0 1.9 0 2.4-.1.4-.1 1.1-.4 1 .2-.1 1.5-.4 4.9-.4 5.4-.1.4-.3.6-.8.5M105 58c.3 0 .9.3 1.2.8.3-.3.9-.8 1.3-.9.4-.1 1.6-.1 2.2-.5.5-.4 1.1-1.9.7-3.4-.3-1.5-.8-2.3-1.6-2.7-.8-.3-1.6-.4-2.2-.3-.6.1-.8-.1-1.2-.4-.2.2-.8.6-1.2.7-.4.1-2.3.5-2.7 1.2-.4.6-.5 1.6-.4 2.4.1.8.4 2.1 1.3 2.5.9.5 1.8.5 2.6.6"/>
  <path class="st1" d="M105.9 55.7c.7.4 1.6.7 2.3.4.7-.3 1.2-.9 1.1-1.8-.1-.7-.5-1.2-1.1-1.3s-1.7-.2-2.4.5c-.5-.4-1.1-.5-1.9-.2-.7.2-1.3 1.1-1.3 1.7.1.6.4 1.2 1.5 1.4s1.3-.2 1.8-.7"/>
  <path class="st3" d="M27.4 97.1c.1-.2.8-1.2 1-.9.2.3-.1.6.4 1.2.3.4 1.3 1.1 1.5 1.2s.5.1.7-.1c.3-.2.8-1.1 1-1.4.1-.3.3-.5-.2-.9-.5-.3-1.2-.7-1.5-.7-.3-.1-.3-.4-.2-.6.1-.2.6-.4.9-.9.6.7 1.3 1.3 1.5 1.5s.4.2.6.1c.3-.2.9-1.1 1.1-1.4.1-.2.2-.5 0-.7s-1.5-1-2.9-1.3c.1-.1 1.1-.7 1.3-.9.2-.2.3-.2.7.1.4.3 3.3 2.4 3.4 2.5.1.1.3.2 0 .5-.3.2-.7.6-1 1.1-.3.4-.5 1-.7 1.2l-.4 1.2c-.3.1-.6.3-.8.5-.4.6-1 1.6-1.2 2.1-.1.4-.3 1.1-.7.7-1.2-.9-3.9-3-4.3-3.3-.5-.1-.5-.4-.2-.8m-2.7-2c.2-1.3 2.9-1.8 3.3-1.9.6-.2.6-.1.8 0 .1-.5.1-.7.5-1.2.4-.4 1.8-1.4 1.6-1.3-.2.1.3-.2.7-.1.3.1.1-.4.1-.5-.6-.5-1.2-1-1.4-1.4-.2-.4-.5-.2-.6.3 0 .3-.2.5-1.3 1.3-.3.2-.5.1-.8-.1s-1.2-1.6-1.1-1.4c-.2-.2-.2-.4.1-.7.3-.4.5-.5.8-.6.3-.2.9-.5 1.2-.5.3 0 .3-.2-.1-.6-.2-.3-.8-.9-.9-1.2-.2-.3-.4-.3-.5 0s-.6.7-1.1 1c-.4.3-.6.5-.9.7-.2.2-1 .1-1 .1-.1.3-.1.7-.3.9-.6.5-2.1 1.5-2.5 1.7-.7.3-1.3.2-.9.7 1 1.2 3.8 4.6 4.3 4.8"/>
  <path class="st1" d="M22.8 91c-.1-.4 1.9-1.5 2.4-1.6.4.2.9 1 1.2 1.6.2.4.2.7-.3.9-.3.1-2 .3-2.5.1-.5-.2-.7-.6-.8-1"/>
  <path class="st3" d="M42.6 100.2c.1-.3.6-2.1.7-2.4.2-.3-.1-.5-.2-.5-.2 0-.6 0-1-.5-.3-.5-2.2-1.5-3.2-1.3s-2.5.9-2.5 2.2c0 1.3.4 1.8.8 2l.3 1.2c.6 0 1.1.1 1.4.3.3.2.8 1.1.4 1.7-.4.6-1.4.7-2.3.1-.9-.5-1.5-1.4-1.4-2.2.1-.4 0-.7-.3-.3-.2.5-1 1.9-1.2 2.1-.1.2.2.2.4.2s.5 0 .8.4 1.5 1.9 3.3 1.9 3.2-.8 3.1-2.3c-.1-1-.7-1.6-1.1-2.1l-.3-1.1c-.5 0-1.7-.3-1.8-.9s-.1-1.6 1-1.7c1.1-.2 1.8.4 2.2 1s.5 1.4.5 1.8c0 .6.2.8.4.4M23.1 79.3c-.1-.2-.4-.3-.5-.2-.2 0-.7.2-1.5.3 1.1.3 2.2 2.2 2.3 2.3.2.4-.1.8-.4 1-.4.3-1 .6-1.2.8l-1.2.2c-.1.3-.3.6-.5.8-.6.4-1.7 1.1-1.9 1.3-.2.2-.8 0-1.1 0-.3 0 2 3.1 2.1 2.7s.1-1 .4-1.1c.2-.1 1.2-.9 1.8-1.3.3-.1.6-.1.9-.2l.6-1c.2-.1.7-.6 1.2-.9s1.1-.4 1.4-.6c.3-.1.2-.3.1-.4 0 0-2.2-2.9-2.5-3.7m76.7 9.4c-.2-.1-1.3-.7-1-.9.3-.2.6.1 1.2-.5.4-.4 1-1.4 1.1-1.6s.1-.5-.1-.7-1.2-.8-1.5-.9-.5-.2-.9.3c-.3.5-.6 1.3-.6 1.6-.1.3-.4.4-.6.3s-.5-.6-.9-.8c.7-.6 1.2-1.4 1.3-1.6.1-.2.2-.4 0-.6s-1.1-.9-1.4-1c-.2-.1-.5-.1-.7.1s-.9 1.6-1 3c-.1-.1-.8-1.1-1-1.2s-.2-.3 0-.7c.3-.4 2.2-3.4 2.2-3.5.1-.1.2-.3.4-.1.2.2.7.6 1.2.9s1 .4 1.2.6l1.2.3c.2.3.4.5.6.8.7.4 1.7.9 2.2 1 .4.1 1.1.2.8.7-.8 1.3-2.7 4.2-2.9 4.6-.1.1-.4.2-.8-.1M91.4 98c-1.3-.3-1.6-3-1.7-3.4-.1-.6 0-.6 0-.8-.5-.1-.7-.1-1.2-.6-.4-.4-1.3-1.8-1.2-1.6.1.2-.2-.3 0-.7.1-.3-.4-.2-.5-.1-.5.6-1 1.1-1.5 1.3-.4.2-.3.5.3.6.3 0 .4.3 1.2 1.4.2.3.1.5-.1.8-.2.2-1.7 1.1-1.5 1-.2.2-.4.1-.7-.1-.4-.3-.4-.6-.6-.8-.2-.3-.4-.9-.4-1.2 0-.2-.2-.3-.6 0-.3.2-.9.7-1.3.9-.3.1-.4.4 0 .5.3.1.6.7 1 1.2.3.4.5.7.6.9.2.2 0 1 0 1 .3.2.7.2.9.4.4.6 1.4 2.2 1.5 2.6.2.7.1 1.3.7.9 1.4-1.1 4.9-3.7 5.1-4.2m4.5-3.9c-.4-.1-.8-.5-.9-.7s-1.3-2.4-1-2.7c.3-.3 2.5 1 2.8 1.1.2.2.2.8.3 1 0 .3 2.7-2.5 2.3-2.5-.4 0-1 .1-1.2-.1s-1.9-.3-2.5-.7c-.2-.3-.5-.7-.5-1.2l-1.2-.1c-.2-.2-.9-1.7-1-2.3-.1-.6-.2-.9-.5-.7-.3.2-1 1.2-1.1 1.3 0 0-.2.4 0 .6s1.1 1.7.7 2c-.3.4-1.8-.8-2-.9s-.4-.1-.5 0-1.1 1.2-1.4 1.4c-.3.2 0 .2.6.3.6.1 1.6.6 2.5.9l.4 1.1c.3.1.6.2.9.4.4.6 1 1.9 1.2 2.1s0 .9-.1 1.2c-.1.5 2.6-1.4 2.2-1.5"/>
  <path class="st1" d="M87.3 99.6c-.4.1-1.4-2-1.5-2.4.2-.4 1-.8 1.6-1.1.4-.2.7-.2.9.3.1.3.2 2 0 2.5-.2.6-.6.7-1 .7"/>
  <path class="st3" d="M81 98.2c-.1-.2-1.2-1.8-1.4-2.1-.1-.3-.4-.3-.5-.2-.1.1-.4.5-1 .4-.6 0-2.6.7-3.1 1.5-.5.9-1 2.5 0 3.3s1.6.9 2 .8l1.1.6c.3-.5.8-.8 1.2-.8.4 0 1.4.2 1.6.8.2.7-.4 1.5-1.4 1.8s-2.1.2-2.5-.4c-.2-.3-.6-.5-.4 0s.7 2 .8 2.3c.1.2.3 0 .4-.1.1-.2.4-.3.8-.3.5 0 2.4.1 3.6-1.2 1.2-1.3 1.5-2.9.3-3.8-.8-.6-1.7-.5-2.3-.6l-1-.5c-.3.3-1.3 1.1-1.9.7-.5-.4-1.2-.9-.6-1.9s1.5-1.1 2.2-1 1.4.5 1.7.8c.4.3.7.3.4-.1m23.5-16.5c-.2.2-.4.5-1-.1-.2-.2-1-.5-1.3-.7s-.1-.4.3-.3c.4 0 1.4-.2 1.5-.6.2-.4 0-.8-.3-.9-.4-.2-.9-.5-1.3-.7h-1l-.7-.6c-.3-.1-.8-.5-1.3-.7-.5-.3-1.2-.3-1.5-.4s-.2-.3-.2-.4l.8-1.7c.1-.1.2-.3.4-.1.2.2.6.7 1.2 1 .5.2 1.1.5 1.3.6l1.2.1c.2.3.4.5.6.8.4.2.9.4 1.3.6.3.2.7 0 .9-.4.2-.4-.2-1.7-.5-2s-.3-.4.1-.2c.3.1 1.2.5 1.4.6.8.3.8.5.6.9 0 .1-2.1 4.7-2.5 5.2M42.4 11.4c0 .6.2 3.5 1.6 4.2 0 0-.3.6-.1.9.9 1.6 1 3.3-1.1 4.4-2.3 1.2-3.6.3-4.5-1.8l-.9-.5c.1-1.5-.4-2.9-2.3-3.6l3-1.7c-.1.4-.1 1.1.1 1.5.2.4.7 1.5.9 1.8.3.6 1 .6 1 .6-.2.6-.2 1.1.1 1.5.2.4.5.8.7 1 .3.2.7.4 1.1.2.5-.4.9-.4.7-1.3-.1-.4-.4-1-.6-1.3-.2-.2-.4-.5-.7-.6.1-.3.1-.7 0-1.3-.2-.6-.7-1.7-.8-2-.2-.3-.5-.6-.9-.7l2.7-1.3zm8.2 2.3c.3.2.6.2.6-.1 0-.2-.1-.9-.2-1.5s-.4-1.7-.5-2c-.1-.3-.3-.7-.7-.9l3-.4c-.1.6-.4 3.3.8 4.3 0 0-.4.6-.4 1 .2 1.4.1 1.6.4 3.4-.6.2-1.2.2-1.7.4-.3-.3-2.9-3.3-3.2-3.5-.3-.3-.6-.1-.5.2l.8 2.9c0 .2.3.4.5.6.2.1.3.4-.2.4-.5.1-1.3.4-1.5.4-.1 0-.4.1-.4-.3s.1-1-.1-1.5c-.1-.5-.4-1.1-.5-1.4l-.8-1c.1-.3.1-.6.2-1-.2-.7-.7-2.1-.8-2.4-.1-.3-.6-.5-.9-.7l2.9-.9 3.2 4zM76 11.6c-.1.2-.3 1.4-.6 1.2-.3-.2-.1-.6-.8-1-.5-.2-1.6-.5-1.8-.6-.2-.1-.5.1-.6.3-.2.2-.4 1.3-.4 1.7 0 .3-.1.6.5.7s1.4.2 1.7.1c.3 0 .5.3.4.5 0 .2-.4.6-.5 1.1-.8-.5-1.7-.7-1.9-.8-.3-.1-.5-.1-.6.1-.2.2-.5 1.3-.5 1.7 0 .2 0 .5.3.6.2.1 1.8.4 3.1.1 0 .2-.8 1.1-.9 1.3-.1.2-.2.3-.6.1-.5-.2-3.9-1.1-4-1.1s-.4-.1-.2-.4c.2-.3.4-.8.5-1.4.1-.5.1-1.1.2-1.3l-.1-1.3c.2-.2.4-.5.6-.8.2-.7.4-1.9.3-2.4 0-.5-.1-1.1.4-1 1.5.4 4.8 1.4 5.2 1.5.3.3.5.6.3 1.1m8 3.8c0 .2.1 1 .1 1.5 0 .6.1.6.2.8-.2.1-.4.2-.6.4-.1.1-1.6.8-2.2.9-.2 2.2-.2 3.1.2 3.8.2.3-.4.2-.4.2-1-.5-1.5-1-1.6-1.8-.1-1-.2-2.4-.3-2.8-.2-.3-.6-.6-.9-.2s-.6.9-.7 1.2c-.1.3 0 1.1 0 1.4.1.2-.2.3-.6.1-.3-.2-1-.5-1.4-.6s-.4-.3-.1-.5.5-.8.7-1.3.3-.7.4-1-.2-1-.2-1c.3-.2.6-.3.8-.6.3-.7 1-2.4 1-2.8.1-.7-.2-1.3.5-1 1.5.5 3.5 1.6 4.1 2 .3.1.9.7 1 1.3m-26 1.5c.1 0 .4-.1.3-.4-.1-.3-.4-.9-.5-1.5v-1.5l.4-1.1c-.2-.3-.3-.5-.5-.8-.1-.8-.1-2.1-.2-2.3 0-.3.4-.7.6-1 .2-.2-3.7.2-3.4.4.3.3.8.6.8.9s.1 1.5.2 2.2l-.3.9.6 1.1c0 .3.2.9.2 1.5s-.2 1.2-.2 1.5c-.2.3 0 .3.1.3l1.9-.2zm32.3 13c.1.1.3.2.5-.1.2-.3.4-.9.8-1.3s.9-.8 1.1-1l1.1-.4.3-.9c.5-.5 1.5-1.4 1.7-1.6s.8-.2 1.1-.2c.3 0-2.5-2.7-2.5-2.3 0 .4 0 1-.2 1.1-.2.2-1 1.1-1.6 1.6-.3.1-.6.3-.9.3l-.4 1.1c-.2.2-.6.7-1 1.1s-1 .6-1.3.8c-.3.2-.1.4-.1.5l1.4 1.3zm15 6.7c-.1.2-.3.6-.5.6s-1.3.3-2 .4c-.3-.1-1.6.2-1.8 0-.2-.2.7-1.2.8-1.4.4-.5 1.2-1.2 1.4-1.4.1-.2.9-.1 1.1-.1s-1.4-2.9-1.5-2.5c-.1.4-.3 1-.4 1.2-.2.1-.8.9-1.3 1.4-.2.1-.7.3-1 .3l-.2 1c-.2.1-.5.6-.8 1-.3.1-.5.6-1 .8-.5.3-1.1.5-1.4.5-.3.1-.2.3-.2.4l1 1.6c.1.1.2.3.4.1.2-.2.6-.7 1.1-1.1.5-.3 1-.4 1.2-.5h1.2l1 .5c.2-.1.9-.3 1.1-.4.6-.1 1.7-.1 1.9-.1.2 0 .7.3 1 .5.4 0-1-2.9-1.1-2.8M65 8.5c.2.3.5.7.4 1-.1.3-.4 1.4-.7 2.1-.2.3-.7 2.9-1.1 2.9s-.5-2.5-.7-2.8c-.1-.8-.1-2.1-.2-2.3 0-.3.4-.7.6-.9.2-.2-3.7-.3-3.4 0 .3.3.8.7.8.9 0 .3.1 1.5.2 2.2l-.3.9.6 1.1c0 .3.2 1 .2 1.5v1.4c-.1.3.2.3.3.4l1.6.1.1-.1 1.4.2c.1 0 .4 0 .4-.3s-.1-.9.1-1.5c.1-.5.7-1.3.8-1.6l.8-1c-.1-.3-.1-.6-.1-.9.2-.7.7-2 .7-2.2.1-.3.7-.6.9-.8.3 0-3.6-.6-3.4-.3"/>
  <path class="st1" d="M80.1 14.1c-.4 0-1 2.2-1 2.7.3.4 1.3.7 2 .5.4-.1.7-.2.8-.6.2-.3.4-1 .1-1.5s-1.4-1.2-1.9-1.1"/>
  <path class="st3" d="M84.2 21.3c-.1.2-.9 2-1.1 2.3s0 .5.1.5c.2 0 .6.1.9.6s1.9 1.9 2.9 1.8c1.1 0 2.6-.4 2.8-1.7.2-1.3-.1-1.8-.4-2.1v-1.2c-.6-.1-1.1-.3-1.3-.6-.2-.3-.6-1.3-.1-1.8s1.5-.4 2.3.3c.8.7 1.2 1.7 1 2.4-.1.4-.1.7.2.3.3-.4 1.3-1.7 1.5-1.9.2-.2-.1-.3-.3-.3-.2 0-.5-.1-.7-.6-.2-.4-1.1-2.1-2.9-2.5-1.8-.3-3.3.2-3.4 1.7-.1.9.4 1.7.7 2.2l.1 1.1c.5.1 1.6.6 1.6 1.2s-.2 1.6-1.3 1.5c-1.1 0-1.7-.7-2-1.3-.3-.6-.3-1.4-.2-1.9-.1-.2-.2-.4-.4 0m17.7 9.1c.1.3.3.5-.5.9-.2.1-.9.7-1.2.9-.3.2-.4 0-.2-.4s.4-1.3.1-1.7c-.3-.3-.7-.4-.9-.1-.3.3-.9.6-1.2.9-.2.3-.3.5-.5.9l-.8.3c-.2.2-.8.5-1.2.8-.5.4-.8.9-1 1.2s-.4.1-.5 0l-1.2-1.4c-.1-.1-.2-.3.1-.4.3-.1.9-.2 1.4-.6.4-.3.9-.8 1.1-1l.6-1.1c.3 0 .6-.1.9-.2.3-.2.8-.6 1.1-.9.3-.2.3-.6 0-.9-.3-.4-1.6-.5-2-.4s-.4.1-.1-.2c.3-.2.9-.9 1.1-1.1.6-.6.8-.5 1.1-.2.3.3 3.5 4.2 3.8 4.7M77 87.1c0 .1-.1.2-.1.2l-.2.1h-.2c-.2-.1-.5-.3-.5-.3-.1 0-.3 0-.4.1-.1 0-.6.3-.7.3-.1.1-.2.3-.1.5.1.1.3.2.6.1s.7-.4.7-.4c.2.2.6.5.9.4.4-.1.6.2.7.4.1.2.4.3.5.3-.1.1-.1.2 0 .6.2.3 0 1.8-1 2.3s-.9.1-1.2.2c-.3.1-.4.4-.5.6-.2.2-.3.1-.4-.1s-.5-1.1-.7-1.3c-.1-.3-.1-.5.1-.5s.4 0 .5.2c.2.1.5.4 1 .1.5-.2.5-.6.3-.8-.1-.2-.5-.3-.7-.2-.2.1-.3.3-.5.4s-.5-.2-.8-.2-.9.2-1.3-1c-.4-1.1.5-2.4 1.1-2.7.5-.3 1.1-.5 1.1-.5.2-.1.7-.1.9 0 .1.1.3.1.4.3.2.1.4.6.5.9m15.5-37.2c.2-.1.4-.3.5-.4.1.1.9.3 1.3.2s2 .1 2.2 1.2c.2 1.1-.1 1.1 0 1.4.1.3.2.5.3.7.1.2-.1.4-.3.4-.2 0-1.2.3-1.4.3-.3.1-.5 0-.5-.2s.1-.4.3-.5c.2-.1.7-.5.6-1s-.3-.7-.6-.7c-.6.1-.8.4-1 .7-.3-.1-.5-.4-.9-.4s-.7.5-.8 1c-.1.5.7.5.9 1 .2.5-1.8.2-2.2-.8-.5-1-.1-2.1.4-2.4.3-.3.9-.5 1.2-.5m4 5.9c-.3.2-1.3.2-1.6.2-.3-.1-.5-.2-.6-.3-.2.1-.4.3-.8.3s-1.4 0-1.5-.1c-.2-.1-.5-.1-.5.3s.1 1.4 0 1.7.2.6.6.4c.4-.2 1.2-.2 1.5-.1.3 0 .7.2.7.3.5-.2.6-.3 1-.4.4-.1 1 0 1.2.1s.7.5.8-.1c.1-.5 0-1.2 0-1.9-.1-.7-.4-.6-.8-.4m.5 4.4c0-.6-.3-.5-.7-.3-.3.2-1.3.5-1.6.5-.3 0-.5-.1-.6-.2-.2.2-.4.4-.8.5s-1.4.2-1.5.2c-.2 0-.5 0-.6.4v.4c0 .4-.1 1.5-.2 1.7-.1.3.1.7.5.7s1.1.3 1.3.5c.3.2.6.5.6.7.4 0 .6-.1.9 0s.9.4 1.1.6.6.8.8.3c.1-.5.2-.9.2-1.6s-.2-.8-.6-.7c-.3 0-1.2-.3-1.5-.5s-.6-.1-.6-.3c-.1 0-.4-.1-.6-.2.3 0 .5-.2.8-.3s.6-.1 1-.2.9-.1 1.1 0 .7.4.8-.2c.2-.7.2-1.3.2-2m-2 7.2c-.4.1-1.3-.1-1.6-.3-.3-.1-.4-.3-.5-.4-.3.1-.5.2-.9.1s-1.3-.4-1.4-.5-.5-.2-.6.1c-.1.4-.3 1.3-.4 1.6-.1.3.1.6.5.5.5-.1 1.2.1 1.5.2s.6.4.6.5c.5 0 .7-.1 1.1-.1s1 .2 1.1.4c.1.2.6.7.8.2.2-.5.3-1.2.4-1.8.1-.6-.2-.6-.6-.5m-.9 3.9c-.1 0-.6-.2-.8-.4-.1-.1-.7-.3-.8-.3-.4-.2-.5.4-.4.6s.4.6.5.8c0 .2-.1.4-.1.3-.3-.1-.5-.2-.6-.3-.3-.2-.4-.4-.4-.5-.3 0-.5.1-.9-.1l-1.4-.7c-.1-.1-.5-.3-.6 0-.2.4-.5 1.3-.7 1.5-.2.3 0 .6.4.6.5 0 1.1.3 1.4.5s.5.5.5.6c.5 0 .7 0 1.1.1.1 0 .3.2.3.4s-.3.2-.3.2h-.8c-.3 0-.6.4-.2.6.3.2 1.5.6 1.5.6.1.2.6.6.9.2.3-.5 1.6-3.4 1.8-4 .3-.6 0-.7-.4-.7M87.3 83c-.1 0-.5-.4-.6-.7 0-.1-.5-.5-.6-.6-.3-.4-.6.2-.6.4s.2.7.1.9c0 .2-.2.3-.3.3-.2-.2-.4-.4-.4-.5-.2-.3-.2-.5-.2-.6-.3-.1-.5-.1-.8-.4s-.9-1-.9-1.2c-.1-.2-.3-.5-.6-.2s-1 .9-1.2 1.1c-.2 0-.2.4.3.6.4.2.9.8 1.1 1s.3.6.2.8c.4.2.6.3.9.5.1.1.2.3.1.4s-.4.1-.4.1c.1.1-.9-.4-.7-.3-.3-.1-.7.1-.5.4s1.1 1.1 1.1 1.2c0 .2.3.8.8.5s2.9-2.4 3.3-2.9c.5-.5.3-.6-.1-.8m-5.1 4.3c-.3-.2-.9-1-1.1-1.2-.1-.3-.1-.5-.1-.7-.2-.1-.5-.2-.7-.5-.3-.3-.8-1.1-.8-1.3 0-.2-.2-.5-.5-.3s-1.1.8-1.4 1c-.3.1-.3.5.1.7s.8.9 1 1.1c.1.3.2.7.1.8.4.3.6.3.9.6.3.3.6.8.6 1s0 .9.5.6c.5-.2 1-.7 1.5-1.1.4-.3.2-.5-.1-.7M88.1 75c.2.2.6.5.8.5.2.1.4.1.7.1 0 .4.2 1.2.5 1.6s.6.5.8.5c.2 0 .7.1.4.8-.3.7-1.8 2.8-2.2 3.2-.3.3-.4.6-.7 0-.3-.5-1-1-1.2-1.2s-.6-.2-1.1-.1c-.1-.4-.1-.8-.4-1s-.7-.5-1-.6-.4-.4-.3-.6.7-1.1.8-1.2c.1-.2.5-.4.8-.1s.6.6.7.8c.1.1.3.3.5 0s.2-.6-.1-.8c-.3-.2-.5-.4-.7-.5-.1-.1-.4-.4-.3-.5.1-.2.6-1 .5-1.3l.2-.2 1.3.6z"/>
  <path class="st2" d="M88.4 78.9c.3.3.7.5.7.5.1.1.2 0 .2-.1.1-.3.2-.6-.4-1.2-.1-.1-.3-.1-.4 0s-.2.4-.3.5c.1.1.2.2.2.3"/>
  <path class="st3" d="M38.8 32.5c.4-.4.4-1.3 0-1.8-.1-.1-.2-.4-.2-.5-.2-.2-.4-.1-.5-.2-.8-.6-1.6-.6-2.2 0-.7.7-2 2.1-2 2.1-.1.1-.4.4-.2.6.2.2.6.1.8.4l.8.8c.1.1.1.5.2.8.3.1.6 0 .8.2l1.2 1.2c.1.1.2.1.3 0l1.1-1c.1-.1.1-.2 0-.3l-1-1c-.1-.1-.1-.2 0-.3l.9-1zm6.4-1.5c-.8.5-2.2-.3-2.6-.5-.3-.2-.5 0-.3.4l.6.7c.1.1 0 .2-.1.3l-1.3.8c-.1.1-.6.3-.7.1-.1-.2.1-.5-.1-.9-.2-.3-.4-.6-.5-.7-.1-.2-.4-.2-.7-.3 0-.3-.1-.9-.2-1-.1-.1-.2-.2-.3-.5-.2-.2-.6-.2-.8-.4 0-.4 0-.9.1-.9l2.7-1.9c.7-.5 1.4-.3 2.2.4.1.1.3.1.5.3.1.1.2.4.2.5-.1.5.1 1.1 0 1.7.2.3 1 .9 1.3.7.3-.2.2-.3.2-.6-.1-.3-.2-.7-.4-.9-.2-.2-.3-.3-.6-.4.2-.3.5-1.1.4-1.6s-.2-.7-.4-.9c-.2-.1-.6-.5.1-.9s3-1.4 3.6-1.5c.4-.1.6-.3.6.3s.2 1.4.3 1.7c.1.3.4.5.8.7-.1.4-.3.7-.2 1.1.2.3.3.8.5 1.1.2.2.1.6-.1.7-.2.1-1.2.5-1.3.6-.2.1-.6.1-.7-.4-.1-.5-.2-.8-.2-1s-.1-.4-.4-.3c-.3.1-.5.4-.3.7.2.4.2.6.3.7s.1.6-.1.6c-.2.1-1 .5-1.2.8h-.3c0 .3-.3.5-.6.7m4.9-8.7c-.3.1-.6.1-.6.4s.3.4.4.6c.1.1.5.8.4 1.2-.1.4-.2.6-.2.8.3.2.5.6.6.9.1.4.3 1.1.3 1.4s.3.6.6.4c.4-.2 2.2-.9 3-.8.1-.2.7-.8.7-.8-.1-.3-.2-.7-.2-1s0-.3-.2-.3c-.1-.1-.4 0-.5.1s-.4.5-.6.6c-.2.1-.8.3-1 .3l-.2-.6 1-.4c.1 0 .2-.1.3-.1s.2-.2.1-.5v-.6c0-.1-.2-.3-.4-.3s-.6.1-.8.2l-.5.1-.1-.8.8-.2c.1-.1.4 0 .4.1.1.1.3.2.4.3.1.1.5.1.5-.1.1-.3.1-.6 0-.7-.1-.2-.3-.9-.3-.9-.1-.1-.4-.3-.8-.2-.2.2-2.8.8-3.1.9m5.5 2.9c0-.1.2-.2.2-.2h.2l.2.1c.1.2.3.5.3.5.1.1.3.1.4.1h.8c.1 0 .3-.2.3-.4s-.1-.3-.4-.3h-.8c-.1-.2-.3-.7-.7-.8-.3-.1-.4-.4-.4-.7 0-.2-.2-.4-.3-.5.1-.1.2-.2.2-.5 0-.4.8-1.6 1.9-1.6 1.1 0 .8.3 1.2.3.3 0 .5-.2.7-.3.2 0 .3.1.3.3v1.5c0 .3-.1.5-.3.4s-.3-.2-.4-.4c-.1-.2-.3-.6-.8-.6s-.7.3-.7.6.3.5.5.5.4-.2.6-.2c.2 0 .4.4.6.5.2.1.9.1.9 1.4s-.6 1.4-1.1 1.9h-2.7c-.2 0-.3-.2-.4-.4-.1-.2-.2-.2-.2-.4l-.1-.8zm15.5-1.7c0 .4-.3 1.3-.4 1.6-.2.3-.3.4-.5.5.1.3.1.5 0 .9s-.5 1.3-.6 1.4-.3.5.1.6 1.3.4 1.6.6c.3.2.6 0 .6-.5s.2-1.2.4-1.4c.1-.3.4-.5.6-.6 0-.5-.1-.7 0-1.1s.3-.9.5-1.1c.2-.1.7-.5.2-.8s-1.1-.5-1.8-.6c-.7-.2-.8.1-.7.5m12.1 9.8c-.3.2-.3.4-.6.7-.3.3-1 .9-1.1 1s-.5.3-.2.6 1.2.8 1.4 1.1c.2.3.5.3.7-.1.2-.4.7-.9.9-1.1.2-.2.6-.3.7-.2.2-.4.2-.7.4-.9.2-.3.7-.7.9-.7.2 0 .9-.1.5-.6-.3-.5-1.5-1.7-2-2.1-.3-.3-.6-.2-.9 0l-2.3 1.1.9-2.3c.2-.5.3-.6-.1-1s-.9-.8-1.5-1.2c-.5-.4-.7-.1-.8.3-.1.4-.7 1.1-.9 1.3-.2.2-.5.3-.6.3 0 .3 0 .5-.3.8s-.9 1-1.1 1.1c-.1.1-.4.3-.1.6.3.2.8.7 1 .9s.6.2.7-.3.7-1.2.9-1.4l-.4 2c0 .3 0 .3.1.6.1.2.5.4.6.5s.4.2.8 0c.7-.1 2.4-1 2.4-1m-9-2.6c.3.2.6.4.8.5.3.1 1.2 0 1.4-.2.2-.2 1-1 1.1-1.2.2-.2.6-.4.7-.4.1-.5.1-.7.2-1 .2-.3.5-.9.7-.9.2-.1.8-.4.4-.7-.4-.4-1-.7-1.6-1s-.7 0-.7.3c-.1.4-1.2 2.4-1.4 2.7-.2.4-.7.9-1 .7-.2-.2-.2-.8-.1-1.1.2-.2.5-1.1.7-1.4s.5-1 .7-1.1.8-.5.3-.8c-.4-.3-1.1-.6-1.7-.8-.6-.2-.7 0-.7.4s-.4 1.3-.6 1.5c-.2.3-.4.4-.5.4 0 .3.1.5-.1.9s-.5.9-.4 1.3c0 .4.1.7.4 1 .6.4 1.2.7 1.4.9m-13.5-8.9c.1.3.1 1.3 0 1.6-.1.3-.2.5-.3.6.1.2.2.4.2.8s-.2 1.4-.2 1.5c-.1.2-.2.5.2.6.4 0 1.4.1 1.7.2s.6-.2.4-.6c-.2-.5-.1-1.2 0-1.5s.3-.6.4-.7c-.1-.5-.3-.6-.3-1s.1-1 .2-1.2c.1-.2.5-.7 0-.8-.5-.2-1.2-.2-1.8-.2-.7.1-.6.3-.5.7m3.7.3c.1.4 0 1-.1 1.3s-.4.7-.5.8c.1.3.2.7.1 1.1s-.1 1.1-.2 1.3c-.1.1-.2.5.2.6s2.5.4 2.8.5 1.2 0 1.5-.4.6-1 .8-1.2c.2-.2.5-.6.7-.7-.1-.5-.2-.7-.2-1 0-.4-.2-.9-.2-1.3s-.9-1-1.4-1.1c-.5-.2-2.3-.5-3-.5-.6 0-.6.2-.5.6"/>
  <path class="st2" d="M37 32.7l.4-.4c.2-.2.1-.6-.1-.8-.4-.3-.7-.4-1-.2l-.3.3 1 1.1zm4.4-3.4l.5-.3c.2-.1.2-.5 0-.8-.3-.4-.6-.5-.9-.3-.1.1-.2.2-.4.3l.8 1.1zm5.8-3.6c-.1-.4-.3-.8-.3-.8-.1-.1-.1-.1-.2 0-.2.2-.5.4-.3 1.2 0 .1.2.3.3.2.1 0 .4-.2.5-.3.1-.1.1-.2 0-.3m19.2-2.4c0 .2-.1.6-.1.8 0 .2-.2.4-.2.5s.1.5 0 .7c0 .3-.1.4-.1.5v.4h.5c.1 0 .4-.3.5-.5s.1-.3.1-.4c.1-.2.2-.4.3-.4v-1.1c0-.3-.1-.4-.2-.6-.1-.1-.4-.3-.6-.3s-.2.1-.2.4"/>
  <path class="st3" d="M27.5 54.3c-.3-.1-.7-.2-1-.2-.2 0-.4 0-.7.2-.2-.3-.6-1-1.1-1.3-.4-.3-.7-.3-.9-.2-.2.1-.7.2-.6-.6s.7-3.3.9-3.8c.2-.4.1-.6.6-.3.5.4 1.3.6 1.5.8.3.1.7 0 1.1-.2.2.3.4.7.8.8s.9.2 1.2.2c.3-.1.6.3.5.5s-.3 1.2-.3 1.5c0 .2-.3.5-.7.3-.4-.2-.8-.4-.9-.5-.2-.1-.4-.2-.4.1-.1.3 0 .6.4.7.4.1.6.2.8.2.2 0 .5.2.4.4s-.2 1.1 0 1.4l-.1.2-1.5-.2zm10 29.1c-.1.1-.2 0-.2 0l-.2-.2-.1-.2c.1-.2.1-.5.1-.5 0-.1-.1-.3-.2-.4-.1-.1-.4-.5-.5-.5-.1-.1-.4-.1-.5.1-.1.1-.1.3.1.6l.6.6c-.1.2-.2.7-.1 1 .2.3 0 .6-.1.8-.2.2-.1.5-.1.5-.1 0-.3-.1-.5.2-.3.3-1.7.6-2.5-.1-.8-.8-.4-.8-.6-1-.2-.2-.5-.2-.7-.3-.2-.1-.2-.2 0-.4s.8-.9 1-1.1.4-.3.5-.1c.1.1.1.4 0 .5-.1.2-.2.6.2.9.4.4.7.2.9.1.2-.2.1-.6 0-.7s-.4-.2-.5-.3c-.1-.1 0-.5-.1-.8s-.5-.8.5-1.6c.9-.8 2.5-.3 2.9.1s.8.9.8.9c.1.1.3.6.3.8-.1.2 0 .3-.1.5-.3 0-.7.4-.9.6m-3.7-3.1c-.2.1-.3.4-.3.5-.1-.1-1 .1-1.3.3-.3.2-1.9.7-2.5-.2-.7-.9-.3-1-.5-1.3s-.4-.4-.6-.5c-.2-.2 0-.4.1-.5.2-.1 1-.7 1.2-.9.2-.2.4-.2.5 0s0 .4-.1.5c-.1.2-.5.7-.1 1.2.3.4.6.5.8.4.5-.4.6-.7.7-1 .3 0 .7.2 1 0s.5-.8.3-1.2c-.1-.4-.8-.2-1.2-.6-.4-.3 1.6-.9 2.4-.2.8.8.9 1.9.6 2.4-.3.5-.8.9-1 1.1m-5.3-2.4c.2-.3 1-.8 1.4-.9.3-.1.5-.1.7 0 .1-.2.2-.5.6-.7l1.4-.7c.2 0 .5-.2.3-.5s-.7-1.2-.8-1.4c-.1-.3-.5-.4-.7 0-.3.4-.9.7-1.2.8-.3.1-.7.1-.8 0-.3.4-.4.6-.7.8-.3.2-.9.5-1.1.5s-.9-.1-.7.5c.2.5.6 1.1.9 1.6s.5.3.7 0m-3.7-8.6c.3-.2 1.2-.5 1.6-.5.3 0 .5.1.6.2.2-.2.3-.4.7-.5.4-.1 1.3-.3 1.5-.2.2 0 .6 0 .5-.4s-.7-2.7-.7-3-.6-.4-.7-.4c-.2 0-.5 0-.6.1 0 0-.4.3 0 .8s.4 1.2.3 1.2c-.3.1-.5.1-.7.1-.3 0-.7-.1-.8-.2-.4.3-.5.4-.9.6-.4.1-1 .2-1.2.2-.2-.1-.8-.3-.8.2s.2 1 .4 1.6c.3.6.5.4.8.2m-1-5.1c.3-.2 1.3-.3 1.6-.3.3 0 .5.2.6.2.2-.2.4-.3.8-.4.4 0 1.4-.1 1.5 0 .2 0 .5.1.5-.3s-.1-1.3-.1-1.7c0-.3-.3-.6-.7-.3-.4.2-1.2.3-1.4.2-.3 0-.7-.2-.7-.3-.5.2-.6.4-1 .4-.4.1-1 .1-1.2 0s-.8-.4-.8.1.1 1.2.2 1.9c.1.8.3.7.7.5m4.8-8.4c.1-.3-.1-.6-.6-.4-.4.2-1.1-.1-1.4-.2-.3-.1-.7-.3-.8-.4-.5.1-.6.3-1 .3s-1-.1-1.1-.2c-.2-.1-.7-.6-.8 0-.1.6.1 1.1 0 1.8-.1.4.5 0 1 .1h1.6v.1L23.6 58c-.5.2-.8.3-.9.8s0 .8.1 1.4c.1.6.3.6.7.4.3-.2 1.3-.2 1.6-.2.3 0 .5.2.6.3.2-.1.4-.3.8-.3s1.4 0 1.5.1c.2 0 .5.1.5-.3v-1.4c.1-.3-.2-.6-.7-.4-.4.2-1.1.2-1.5.2-.1 0-.1-.1-.1-.1l1.5-1c.2-.2.6-.3.6-.6.4-.1.2-.8.3-1.1m9 32.1c.1-.3.8-1.1 1-1.3.3-.2.5-.2.6-.2.1-.3.1-.5.3-.8l1.1-1.1c.1-.1.5-.3.2-.6s-1-.9-1.2-1.1-.6-.2-.7.2c-.2.5-.7 1-.9 1.2s-.6.3-.8.3c-.2.5-.2.7-.4 1s-.7.8-.9.8c-.2.1-.9.2-.5.6.3.4.9.9 1.4 1.3.5.3.7.1.8-.3m-8.9-17.8c-.2-.5-1-.8-1.7-.7h-.5c-.2.1-.2.3-.4.4-.9.6-1.2 1.2-.9 2 .4.9 1.1 2.6 1.1 2.6 0 .1.2.5.5.4s.4-.5.6-.6c.3-.1.9-.3 1-.4.2-.1.5.1.9.1.2-.3.3-.6.5-.6.2-.1 1.6-.6 1.6-.6.1 0 .2-.2.1-.3L31 71c0-.1-.2-.2-.3-.1l-1.4.5c-.1 0-.2 0-.3-.1l-.3-1.2zm14.6 21.5c0-.4.3-.9.6-1.2.2-.3.6-.5.7-.5 0-.3.1-.7.3-1.1s.5-1 .7-1.1c.1-.1.4-.4 0-.6-.3-.2-2.2-1.3-2.5-1.5-.2-.2-1.1-.4-1.5-.2-.4.3-.9.7-1.2.8-.3.2-.7.4-.9.4-.1.5 0 .7-.2 1l-.3 1.3c0 .4.6 1.2 1 1.5s2 1.3 2.6 1.5c.6.4.7.1.7-.3"/>
  <path class="st2" d="M28.2 71.9l-.2-.5c-.1-.2-.5-.3-.7-.2-.5.2-.7.5-.5.8 0 .1.1.3.2.4l1.2-.5zm-2.4-21.1l-.8-.2c-.1 0-.2 0-.2.2 0 .3 0 .6.7 1 .1 0 .4 0 .4-.1s.1-.5.1-.6c0-.2-.1-.3-.2-.3m16 39c.1-.2.3-.6.4-.7.1-.2.3-.3.4-.3.1-.1.1-.4.2-.7.1-.2.2-.4.3-.5s.2-.3.1-.3c-.1-.1-.3-.2-.5-.2-.1 0-.5.1-.7.3-.2.2-.2.3-.3.4s-.3.3-.4.3c-.1.3-.1.3-.2.5s-.1.3-.2.6c-.1.2-.1.5 0 .6s.3.4.5.5c.3-.1.4-.3.4-.5"/>
  <path d="M89.6 33.8c-3.8 3.4-8.6 4.9-14.5 4.4-5.6-.4-11.3-2.5-15.1-4.1h-.4c-3.8 1.6-9.5 3.7-15.2 4.1-5.9.4-10.6-1-14.5-4.4l-.9.4c1.1 17.8 3.9 30.6 8.8 40.2 4.4 8.7 10 14.1 17.4 20.8l2 1.7c.7.6 1.4 1.2 2.2 1.8h.7c.7-.7 1.5-1.3 2.2-1.8s1.4-1.1 2-1.7c7.4-6.7 13-12.2 17.4-20.8 4.9-9.6 7.7-22.4 8.8-40.2l-.9-.4z"/>
  <path class="st3" d="M44.5 39.2c5.7-.4 11.4-2.5 15.3-4.1 3.9 1.6 9.6 3.7 15.3 4.1 5.7.4 10.5-.9 14.3-3.9-.5 6.8-1.2 12.8-2.2 18.2l-55-.2c-1-5.3-1.6-11.3-2.1-17.9 3.9 2.9 8.7 4.3 14.4 3.8"/>
  <path class="st4" d="M80.8 73.9c-4.3 8.5-9.8 13.9-17.2 20.5-.6.6-1.3 1.1-2 1.7l-1.9 1.6c-.6-.6-1.3-1.1-1.9-1.6-.7-.5-1.3-1.1-2-1.7-7.3-6.7-12.8-12-17.2-20.5-2.6-5.4-4.7-11.8-6.1-19.6l54.5.2c-1.4 7.7-3.5 14.1-6.2 19.4"/>
  <path d="M61.3 51.1l9.4.6.1-1.4c.4 0 1.2-.3 1.2-.9 0-.6-.3-1.1-1.3-1.3l-.7-3.6c.7-.3.9-.8.8-1.4-.1-.6-.7-.9-1.1-1l-.1-.5c-.5.1-1.6-.3-2-1.4-1.8 0-2.7-.4-3.1-.8-.4-.4-2.2-.8-2.7-.7s-1.6.4-2.1 1.2c-.6-.6-1.4-1.2-2.4-1.2s-2.3.8-3 1.1c-.5.3-1.6.3-2.1.3l-1 .9-.6.1-.4 1c-.4.4-1.1.8-.5 2l-.4 3.8c-.6.6-1.3 1.5-.4 2.4l-.2 1.5 9.9-.7c.5.4 1.1.4 1.4.4.3-.1 1-.1 1.3-.4"/>
  <path class="st3" d="M68.7 41.9c.2.1.3.1.5.1l.9 6.1.2 1.6v1.2c-.3.2-.6.2-.9.2s-1.2-.1-1.3-.1v-.3l1.5-.1-.9-8.7zm1.2 1.8c.3 0 .5-.3.5-.6s-.4-.5-.7-.5l.2 1.1zm1 5.7c.2 0 .5-.1.5-.3s-.2-.5-.5-.5c-.2 0-.3.2-.3.4-.1.3 0 .4.3.4m-11.5 1.3c0 .2.3.4.6.4s.6-.1.6-.3-.2-.3-.6-.3c-.4 0-.6 0-.6.2m7.8.1c-.6-.1-1.5-.3-2.4-.4-.7-.1-1.3-.3-1.6-.3-.6-.1-1.1.1-1.6.5l5.6.2zm-7.1-1.5s.2.1.3 0c.4-.3 1.2-.7 1.7-.8.8-.2 2.1 0 3.1.5.8.4 2.1.4 2.8.4.1 0 .2-.3.2-.3l-.9-8.4c-1.5 0-2.5-.4-3.1-.9-.3-.2-1.8-.6-2.2-.5-.3.1-1.3.3-1.8 1l-.2.1.1 8.9z"/>
  <path class="st3" d="M60.6 50.3c.3 0 .7.2 1 0s.9-.6 1.8-.5 3.7.8 4.4.8c.8 0 1.1-.3 1.1-.3l-.6-.6c-.5.2-2.3.1-3.2-.3-.9-.4-2.2-.6-2.9-.5-.7.2-1.7.7-1.9 1-.3.4.1.4.3.4m8.6-.7l-.2.2-.5-.3-.9-8.4c.2.3.5.5.8.6l.8 7.9zm-16.7 1.2c.6-.1 1.5-.3 2.4-.4.7-.1 1.3-.3 1.6-.3.6-.1 1.1.1 1.6.5l-5.3.6-1.4.1c-.1 0-1.5.1-1.8.2-.3.1-.4-.1-.5-.3l.1-.7.1-.7.2-1.6.9-6.1c.2 0 .3-.1.5-.1l-.9 9h1.6l.9-.2z"/>
  <path class="st3" d="M59.7 49.3s-.2.2-.3.1c-.4-.3-1.2-.7-1.7-.8-.8-.2-2.1 0-3.1.5-.8.4-2.1.4-2.8.4-.1 0-.2-.3-.2-.3l.9-8.6c1.5 0 2.5-.4 3.1-.9.3-.2 1.8-.6 2.2-.5.3.1 1.3.3 1.8 1l.2.3-.1 8.8z"/>
  <path class="st3" d="M59.2 50.3c-.3 0-.7.2-1 0s-.9-.6-1.8-.5c-.9.1-3.7.8-4.4.8-.8 0-1.1-.3-1.1-.3l.4-.4c.5.2 2.3.1 3.2-.3.9-.4 2.2-.6 2.9-.5.7.2 1.9.7 2 1 .3.3 0 .2-.2.2m-8.7-.7l-.2.7.9-.8.9-8.4c-.2.3-.5.5-.8.6l-.8 7.9z"/>
  <path d="M53.2 41.9c.3 0 .6-.1.9-.2.1 0 .1-.1.1-.1 0-.1-.1-.1-.1-.1-.3.1-.6.1-.9.2 0 0-.1 0 0 .2-.1 0-.1 0 0 0zm1.3-.2c.5-.1.9-.4 1.2-.7v.1c.1 0 .3-.2.7-.3 0-.1 0 0 0 0 .1 0 .1 0 .1-.1s-.1-.1-.1-.1c-.3.1-.6.2-.8.4-.3.3-.7.5-1.1.7-.1-.1-.1 0-.1.1 0-.1 0-.1.1-.1m4.4-1c-.4-.2-.9-.4-1.1-.4-.3-.1-.9.1-1.1.1-.1 0-.1.1-.1.1l.1.1c.5-.1.8-.2 1-.1.2 0 .6.1 1.1.4 0 0 .1 0 .1-.2.1.1.1 0 0 0m-2.1.3c-.5.1-1.1.3-1.3.4 0 0-.1 0 0 0 0 0 0 .1.1.1v.1h.1c.2-.1.7-.3 1.3-.4.1 0 .1-.1.1-.1-.2-.1-.2-.1-.3-.1m-3.6 1.5c.8-.1 1.5-.3 2-.6 0 0 .1-.1 0-.1 0 0-.1-.1-.1 0-.5.3-1.1.5-1.9.5-.1 0-.1 0 0 .2-.2 0-.1 0 0 0m5.7-1.2c-.4-.2-.8-.3-1-.4h-.1s-.1 0-.1.1 0 .1.1.2h.1c.2 0 .6.1.9.3h.1c.1-.1 0-.2 0-.2m-5.8 1.8c.4 0 .8-.1 1.1-.2l.1-.1c0-.1-.1-.1-.1-.1-.3.1-.7.2-1.1.2-.1 0-.1 0 0 .2-.1 0-.1 0 0 0m2.3-1c.1 0 .1 0 0 0zm.1 0c-.1 0-.1 0 0 0m.1.2c0-.1 0 0 0 0m-.2-.2c-.1.1-.3.3-.4.3-.1 0-.2 0-.3.1v.1c0 .1.1.1.1.1.1 0 .2-.1.3-.2.1-.1.3-.2.3-.4m1.9-.4c0-.1-.1-.1 0 0-.7 0-1.4.2-1.7.4h.2v.1c.2-.1.9-.3 1.5-.5m1.6.3c-.2-.1-.4-.2-.6-.2-.1 0-.1 0-.1.1s0 .1.1.1c.2.1.4.1.5.2h.1V42zM53 43.7c.9 0 1.5-.2 2-.5.1-.1.3-.2.5-.3 0 0-.1-.1-.1-.2-.1.1-.3.2-.5.3-.5.3-1.1.4-1.9.5 0 0-.1.1 0 .2m5.8-1.1c-.4-.2-.8-.3-.9-.3h-.1c-.2 0-.6 0-1.2.1-.1 0-.1.1-.1.1s0 .1.1.1c.5-.1.9-.1 1.1-.1h.1c.2 0 .6.1.9.3h.1c.1-.1.1-.2 0-.2m-2.3-.3c.1 0 .1 0 0 0m-3.5 2c.4 0 .8-.1 1.1-.2l.1-.1s-.1-.1-.2-.1c-.3.1-.7.1-1.1.2 0 0-.1 0-.1.1.1.1.1.1.2.1m2.3-1c.1 0 .1 0 0 0 .1 0 0 0 0 0m3.5 0c-.4-.2-.8-.4-.9-.4h-.2c-.4-.1-1.8.2-2.3.5 0 0-.4.2-.5.3 0 0 .1 0 0 0 0 0 0 .1-.1.1h.1c.2-.1.3-.2.5-.3.4-.2 1.7-.5 2.2-.5l.1.1c.1 0 .5.1.9.3.1 0 .1 0 .2-.1.1.1.1 0 0 0m-5.9 1.6c.8-.1 1.5-.2 2-.5.2-.1.3-.2.5-.2v-.1c.1 0 .2-.1.3-.1s.1-.1.1-.1 0-.1-.1-.1l-.1.1.1-.1s-.4.2-.3.3c-.1.1-.3.2-.5.2-.4.3-1.1.4-2 .6 0-.1 0 0 0 0-.1 0-.1 0 0 0"/>
  <path d="M57.6 43.7c.2 0 .2 0 .2-.1s0-.1-.1-.1h-.2c-.4-.1-1 .1-1.6.2-.1 0-.1.1-.1.1 0 .1.1.1.1.1.9-.1 1.4-.2 1.7-.2m-4.7 1.8c.8 0 1.5-.2 2-.5.2-.1.3-.2.5-.3 0 0 .1-.1 0-.2h-.1c-.1.1-.3.2-.5.3-.5.2-1.1.4-1.9.4-.1 0-.2.1-.1.1-.1.2 0 .2.1.2m5.8-.9s0-.1 0 0c-.4-.2-.8-.3-.9-.4h-.2c-.4 0-1 .1-1.5.1-.1 0-.1.1-.1.1s.1.1.2.1c.6-.1 1.1-.2 1.4-.2.1 0 .1 0 .1.1.1 0 .5.1 1 .2 0 .1 0 .1 0 0 .1 0 .1 0 0 0m-2.8.4c-.2 0-.4.1-.6.2l-.1.1-.5.3c-.3.1-.6.2-1 .3 0 0-.1.1-.1.2l.1.1c.4-.1.7-.2 1-.3 0 0 .4-.3.5-.3.2 0 .4-.2.7-.2.1 0 .1-.1.1-.2.1-.2 0-.2-.1-.2.1 0 0 0 0 0m2.8.2c-.3-.2-.6-.3-.9-.4h-.9s-.1.1-.1.2l.1.1c.3-.1.6-.1.7 0 .1 0 .1 0 .1.1l.9.3s.1 0 .1-.1c.1-.1.1-.2 0-.2m-6 1.5c.7 0 1.3-.2 1.7-.3.1 0 .1-.1.1-.1 0-.1 0-.1-.1-.1-.4.2-1 .3-1.6.3-.1 0-.1 0-.1.2-.1 0 0 0 0 0m2.6-.7c-.1 0-.1 0 0 0-.1 0-.1 0 0 0m3.4-.2c-.3-.1-.6-.3-.9-.3h-.1s0-.1-.1-.1c-.6-.1-1.7.1-2.4.4-.1 0 0 0 0 .1v.1h.1c.7-.3 1.7-.5 2.2-.4h.1v.1c.3 0 .7.2.9.3h.2c.1-.1 0-.1 0-.2m-6 1.5c.4 0 .8-.1 1.1-.1.1 0 .1-.1.1-.1l-.1-.1c-.4.1-.7.1-1.1.1-.1 0-.1 0 0 .2-.1 0-.1 0 0 0m1.9-.5c.3 0 .4-.1.6-.2s.5-.2.8-.2l.1-.1c0-.1-.1-.1-.1-.1-.3.1-.5.1-.8.2-.2.1-.4.1-.5.2-.1.1-.1.2-.1.2m.6-.3s0-.1 0 0m3.4 0c-.3-.2-.6-.3-.9-.3H57c-.1 0-.1 0-.1.1s0 .1.1.1c.2 0 .4 0 .5.1h.2l.9.3s.1 0 .1-.1 0-.2-.1-.2m-3.4.8c.5-.2 1.2-.3 1.8-.4.1 0 .1 0 .1-.1s0-.1-.1-.1c-.6 0-1.3.2-1.9.4-.1 0-.1.1-.1.1.1.1.1.1.2.1m3.4-.2c-.3-.2-.6-.3-.9-.3-.1 0-.1 0-.1.1s0 .1.1.1l.9.3c.1 0 .1 0 0-.2m-6 .8c.8 0 1.6-.2 2-.4v-.2c-.1 0-.1-.1-.2 0-.4.2-1.2.3-2 .4-.1 0-.1 0-.1.1.2.1.3.1.3.1m6-.1c-.3-.2-.6-.3-.9-.3-.4-.1-1-.1-1.6 0-.1 0-.1.1-.1.1l.1.1c.6-.1 1.2-.1 1.6 0 .2.1.5.2.8.3h.2c0-.1-.1-.2-.1-.2m-3.3-.2c-.3.1-.5.2-.7.3-.6.2-1.4.3-2 .3l-.1.1.1.1c.3 0 1.4-.1 2.1-.4.2-.1.4-.2.6-.4.2.1.2 0 .2 0-.1.1-.2 0-.2 0m11.1-5.7c-.3 0-.6-.1-.9-.2-.1 0-.1-.1-.1-.1 0-.1.1-.1.1-.1.3.1.6.1.9.2 0 0 .1 0 0 .2.1 0 .1 0 0 0zm-1.2-.2c-.5-.1-.9-.4-1.2-.7v.1c-.1 0-.3-.2-.7-.3 0-.1 0 0 0 0-.1 0-.1 0-.1-.1s.1-.1.1-.1c.3.1.6.2.8.4.3.3.7.5 1.1.7.1-.1.1 0 .1.1 0-.1-.1-.1-.1-.1m-4.5-1c.4-.2.9-.4 1.1-.4.3-.1.9.1 1.1.1.1 0 .1.1.1.1l-.1.1c-.5-.1-.8-.2-1-.1-.2 0-.6.1-1.1.4 0 0-.1 0-.1-.2-.1.1 0 0 0 0m2 .4c0 .1 0 .1 0 0 .6.2 1.2.4 1.4.5h.1v-.2c-.2-.2-.9-.3-1.3-.4-.2 0-.2 0-.2.1m3.8 1.4c-.8-.1-1.5-.3-2-.6 0 0-.1-.1 0-.1 0 0 .1-.1.1 0 .5.3 1.1.5 1.9.5 0 0 .1 0 0 .2.1 0 .1 0 0 0m-5.8-1.2c.4-.2.8-.3 1-.4h.1s.1 0 .1.1 0 .1-.1.2h-.1c-.2 0-.6.1-.9.3h-.1v-.2m5.8 1.8c.1 0 .1 0 0 0-.4 0-.8-.1-1.1-.2l-.1-.1c0-.1.1-.1.1-.1.3.1.7.2 1.1.2.1 0 .1 0 0 .2.2 0 .1 0 0 0m-2.4-.8c0-.1 0 0 0 0m.1-.2c.1.1.2.3.4.3.1 0 .2 0 .3.1 0 0 .1.1 0 .1 0 .1-.1.1-.1.1-.1 0-.2-.1-.3-.2-.1-.1-.3-.2-.3-.4m-1.9-.4c0-.1.1-.1 0 0 .7 0 1.4.2 1.7.4h-.2v.1c-.2-.1-.9-.3-1.5-.5.1.1 0 0 0 0m-1.5.3c.2-.1.4-.2.6-.2.1 0 .1 0 .1.1s0 .1-.1.1c-.2 0-.4.1-.6 0-.1 0-.1 0 0 0zm5.8 1.7c-.9 0-1.5-.2-2-.5-.1-.1-.3-.2-.5-.3 0 0 .1-.1.1-.2.1.1.3.2.5.3.5.3 1.1.4 1.9.5 0 0 .1.1 0 .2m-5.8-1.1c.4-.2.8-.3.9-.3h.1c.2 0 .6 0 1.2.1.1 0 .1.1.1.1s0 .1-.1.1c-.5-.1-.9-.1-1.1-.1h-.1c-.2 0-.6.1-.9.3h-.1c-.1-.1 0-.2 0-.2m5.9 1.7c-.4 0-.8-.1-1.1-.2-.1 0-.1-.1-.1-.1l.1-.1c.3.1.7.1 1.1.2 0 0 .1 0 0 .2.1 0 0 0 0 0m-5.8-1c.4-.2.8-.4.9-.4h.2c.4-.1 1.8.2 2.3.5 0 0 .4.2.5.3 0 0-.1 0 0 0 0 0 0 .1.1.1h-.1c-.2-.1-.3-.2-.5-.3-.4-.2-1.7-.5-2.2-.5l-.1.1c-.1 0-.5.1-.9.3-.1 0-.1 0-.2-.1-.1.1-.1 0 0 0m5.8 1.6c-.8-.1-1.5-.2-2-.5-.2-.1-.3-.2-.5-.2v-.1s-.2-.1-.2 0c-.1 0-.1-.1-.1-.1s0-.1.1-.1l.1.1-.1-.1s.4.2.3.3c.1.1.3.2.5.2.4.3 1.1.4 1.9.5.1 0 .1.1.1.1 0-.1 0-.1-.1-.1"/>
  <path d="M62 43.7c-.2 0-.2 0-.2-.1s0-.1.1-.1h.2c.4-.1 1 .1 1.6.2.1 0 .1.1.1.1 0 .1-.1.1-.1.1-.8-.1-1.4-.2-1.7-.2m4.8 1.8c-.8 0-1.5-.2-2-.5-.2-.1-.3-.2-.5-.3 0 0-.1-.1 0-.2h.1c.1.1.3.2.5.3.5.2 1.1.4 1.9.4.1 0 .2.1.1.1 0 .2-.1.2-.1.2m-5.9-.9s0-.1 0 0c.4-.2.8-.3.9-.4h.2c.4 0 1 .1 1.5.1.1 0 .1.1.1.1s-.1.1-.2.1c-.6-.1-1.1-.2-1.4-.2-.1 0-.1 0-.1.1-.1 0-.5.1-1 .2 0 .1 0 .1 0 0-.1 0 0 0 0 0m2.8.4c.2 0 .4.1.6.2l.1.1.5.3c.2.1.6.2 1 .3 0 0 .1.1.1.2l-.1.1c-.4-.1-.8-.2-1-.3 0 0-.4-.3-.5-.3-.2 0-.4-.2-.7-.2-.1 0-.1-.1-.1-.2 0-.2 0-.2.1-.2m-2.8.2c.3-.2.6-.3.9-.4h.9s.1.1.1.2l-.1.1c-.3-.1-.6-.1-.7 0-.1 0-.1 0-.2.1l-.9.3c-.1 0-.1 0-.1-.1s.1-.2.1-.2m6 1.5c-.7 0-1.3-.2-1.7-.3-.1 0-.1-.1-.1-.1 0-.1 0-.1.1-.1.4.2 1 .3 1.6.3.1 0 .1 0 .1.2.1 0 .1 0 0 0m-5.9-.9c.3-.1.6-.3.9-.3h.1s0-.1.1-.1c.6-.1 1.7.1 2.4.4.1 0 0 0 0 .1v.1h-.1c-.7-.3-1.7-.5-2.2-.4h-.1v.1c-.3 0-.7.2-.9.3H61c-.1-.1-.1-.1 0-.2m5.9 1.5c-.4 0-.8-.1-1.1-.1-.1 0-.1-.1-.1-.1l.1-.1c.4.1.7.1 1.1.1.1 0 .1 0 0 .2.2 0 .1 0 0 0m-1.9-.5c-.3 0-.4-.1-.6-.2s-.5-.2-.8-.2c-.1 0-.1-.1-.1-.1 0-.1.1-.1.1-.1.3.1.5.1.8.2.2.1.4.1.5.2.1.1.2.2.1.2m-.5-.3s0-.1 0 0m-3.5 0c.3-.2.6-.3.9-.3h.7c.1 0 .1 0 .1.1s0 .1-.1.1c-.2 0-.4 0-.5.1h-.2l-.9.3c-.1 0-.1 0-.1-.1s0-.2.1-.2m3.4.8c-.5-.2-1.2-.3-1.8-.4-.1 0-.1 0-.1-.1s0-.1.1-.1c.6 0 1.3.2 1.9.4.1 0 .1.1.1.1 0 .1-.1.1-.2.1.1 0 .1 0 0 0 .1 0 0 0 0 0m-3.4-.2c.3-.2.6-.3.9-.3.1 0 .1 0 .1.1s0 .1-.1.1l-.9.3c-.1 0-.1 0 0-.2-.1.1 0 .1 0 0m6.1.7c0-.1 0-.1 0 0-.9-.1-1.6-.3-2.1-.5h-.2v.2c.5.2 1.2.4 2 .4.3 0 .3 0 .3-.1m-6 0c.3-.2.6-.3.9-.3.4-.1 1-.1 1.6 0 .1 0 .1.1.1.1s0 .1-.1.1c-.6-.1-1.2-.1-1.6 0-.2.1-.5.2-.9.3h-.2c.1-.1.1-.2.2-.2m3.3-.2c.3.1.5.2.7.3.5.2 1.4.3 2 .3l.1.1-.1.1c-.3 0-1.4-.1-2.1-.4-.2-.1-.4-.2-.6-.4-.2.1-.2 0-.2 0 .1.1.2 0 .2 0m7 27.4c-.1.1-.3.4-.1.4v.1c.4 0 1 .2 1 .6h.2c0-.4 0-.7-.2-1-.3-.5-1-.4-1.1-1.1-.1-.8.8-.8 1-1.3.1-.3 0-.8 0-1.2h-.1v-.1c-.1 0-.1 0-.1.1-.2.1-.4.3-.6.3v-.1h-.1c0-.4.4-1.8 1-1.8v-.2c-.1-.1-.6-.7-.3-.7.2-.3.5-.2.8-.2 0-.1.1-.2.1-.3-.3-.1-.7-.3-.8-.7-.1-.3-.1-1.7-.6-1.7.1-.2.2-.6.4-.6v-.2c-.3-.3-.6-.5-1-.8v-.1c-.2-.3-.2-.7-.3-1.1-.2-.4-.5-.9-.7-1.3-.3-.5-1-.7-1.1-1.4v-.1c0-.7.7-.9 1-1.1-.1-.1-.1-.1-.1-.2-.2 0-.2-.1-.2.1-.6.2-1.4.5-2.1.3-.4-.1-1.2-1.1-1.2-1.1.6-1.1 1.2.1 2.2-.2.1 0 .2 0 .2-.1s-.1-.1-.1-.2c-.1-.1-3-1.1-3-1.1 0-.2-.1-.3-.1-.5.5-.2.9-.4 1.5-.4.1-.1.2-.1.3-.2.6.1 1.1.3 1.7.4 0 .1 0 .1.1.1v-.1c.8-.7 1.3.2 2 .4.5.1 1 .1 1.5.3s.7.8 1.1 1.1c.3.1.6.2 1 .2.2.1.4.4.5.4-.1.2-.2.5-.3.7-.2.3-.7.5-.7.9h.2v-.1c.1 0 .3.1.3-.1h.1c.5-.1.8-.4 1.4-.4-.1.5-.2.8-.4 1.3h.1c.2.5.4 1 .4 1.7 0 .4-.1.8-.2 1.2.5.2.9.1 1.2.6.2.3.4 2 .3 2.3s-.2.6-.4.8c0 .3.3.5.4.7.3.4.2 1.1 0 1.5-.1.2-.3.7-.5.7.2.4.5.7.5 1.2.1.5-.2.9-.3 1.4v1c-.1.4-.6 1.3-1.1 1.3.2.4.5.9.4 1.5-.2.6-.8.8-1.2 1.3-.3.4-.6.7-.7 1.1s0 .8-.3 1.2c-.3.4-.8.5-1.1.9-.4.5-.5 1.2-1 1.6-.3.2-.8.2-1 .5-.6.5-.5 1.2-1.3 1.5-.6.3-1.4.3-2 0-.3-.2-.6-.4-1-.4-.5.2-1.1.4-1.6.6v.1h.1v-.1c.6.2 1.2.3 1.8.3.4 0 .9.1 1.3.1.2 0 .3.2.3.4-.5.3-.9.8-1.5.9h-1c-.4-.1-1.3-.7-1.7-.3-.3.4-.3 1-.6 1.4l-.6.9c-.4.5-1 .9-1.2 1.5v.1c-.1.6.6 1 .4 1.5-.2.5-.7.7-.9 1.2-.1.2-.2.9-.3.9v.1h-.3c-.5-.7-.9-1.1-.9-2 .1-.4.1-.7.2-1.1.4-.9 2.8-3.2 1.6-4.2-.9-.7-2-.4-3.1-.4-.5 0-.9-.3-1.4-.3-.8 0-1.8.8-2 1.5-.2.8 1.7 2.2 1.6 3.5-.1.5-1.5 1.6-1.5 2h-.2V93h-.1c0-.6.3-1.2.1-1.9-.2-.8-.8-1.5-1.1-2.4-.1-.6-.1-1.2-.2-1.7 0-.1 0-.1-.1-.2s-.2-.2-.4-.2h-.2c-.6.1-1.1.5-1.7.4-.7-.2-.9-.9-1.4-1.2-.2-.1-.5-.2-.7-.3-.3-.2-.5-.4-.8-.6s-.8-.1-1.1-.4c-.4-.3-.8-.8-.8-1.2 0-.2 0-.7-.2-.7v-.1c-1.3-.1-2.5-.8-2.6-2.2 0-.5.2-.9.2-1.4-.8-.1-1.8-.8-1.8-1.7.2-.2.6-.4.6-.7-.2-.1-.7-.2-1.1-.3h-.3v-.3c.2-.2.4-.4.4-.6-1.3-.8-1.4-1.1-1.4-2.6-.1-.4-.1-.8-.2-1.2 0-.2-.1-.6.1-.6v-.1c.4.1.6.4 1 .5.5.1 1 .3 1.5.4-.1-.3-.3-.4-.5-.5-.6-.2-1.2-.4-1.6-.9-.9-1.3-.3-2.5.1-3.7.2-.6.2-1.2 1.1-1.2.1-.4-.4-1.7-.8-1.7 0-.1-.1-.2.1-.2v-.1c.9-.1 1.6-.6 1.5-1.7-.1-.4-.2-.7-.2-1.1l.5-.5c.2-.4.3-1.1.9-1.1.3 0 .3.3.5.3v-.1c.2-.4.3-.7.5-1.1.2-.3.4-.6.7-.9h.2v.1c.1.3.2.6.3.8h.2c.4-.7 1.1-2.3 2.2-2.3 0 .2-.3 1.3-.1 1.3 0 .1 0 .3.2.3v-.1h.1c.5-.8 1.3-1.2 2.3-1.1.2 0 .4 0 .5.2.2.4-.5 1.6-.7 1.9-.2.2-.7.4-.7.7h.1c.1.1 1.5 1 1.2 1-.2.5-.8.9-.8 1.5 0 .2.1.5.1.7v-.1c-1.2-.1-1 .3-1.7 1-.4.4-1.1.3-1.3.9-.2.5-.2 1-.3 1.5l-.3 1.1c.1.2.1.4.2.6 0 1.1-.8 1.8-1.8 2-.5.1-.6.5-.6.5.5-.2 1.4-.7 1.9-.5.7.3.4 2.2.5 2.9 0 .5.3.7.3 1.3-.1.5-.1.9-.2 1.4l.1.1c.3 0 .9-.1.9.3-.1.4-.5.7-.6 1.2 0 .1-.1.3.1.3h.2c1.2-2 1.5 1.1 1.5 2 .1 0 .2.1.2-.1.3-.2.5-.4.8-.3.6.1.9.9 1.2 1.3.2.3.6.5.9.8.4.5.7 1.3.5 1.9 0 .1-.3.5-.1.5.2.3.5.6.8.6.2-.4.5-.8.9-.9.6-.2 2.8.2 2.8.6.4-.1.8 0 1.3-.1.4-.1.8-.1 1.2-.2.4 0 .6.2 1 .2.3 0 .6-.1.8-.2l.3-.1c.8-.1 1.6-.4 2.1.3.1.1.2.2.2.4.2-.1.6-.4.7-.4-.2-.8-.9-1.7-.1-2.4.2-.2.4-.3.7-.3 1 0 .1 2.2.5 2.2h.2c.5-.5.6-1.6.1-2.2-.2-.3-.8-.4-.8-.8.3-.2.6-.4 1-.5.3 0 1 .2 1.2 0 .3-.2.2-.9.5-1.2l.8-.8v-.1c.2-.8-.1-1.6.8-2.1.1-.1.3-.3.3-.1h.5l.2.3z"/>
  <path class="st1" d="M57.2 84.1c-.7-.1-1.6 0-2-.5-.1-.1-.2-.2 0-.2.1-.1.1-.2.2-.3.5 0 1.9.3 1.9.9l-.1.1zm5.5-.7h1.1c0 .1.1.2-.1.2-.2.2-1.5.6-1.5.2-.1-.1-.1-.1-.1-.2.2-.1.4-.2.6-.2m-2.9.3c1.2.1.7.4.6 1.2 0 .3.1.6.1.8-.2.1-2 .2-2 0h-.1c0-.3-.1-1.7.2-1.8.4-.1.8-.1 1.2-.2m1.7.7c.6 0 1.5.1 1.5.8-.1.3-.1.6-.2.9-.3.1-.6.1-.9 0-.5-.2-.3-.5.1-.5 0-.1.2-.3 0-.3-.2-.3-.4-.6-.5-.9m-6.3 2.3c.1-1.2 1.1-1.4 1.9-2 1.4.6-1.7 1.6-1.7 2.1h-.1l-.1-.1zm8.4-.8c.4.5 0 2.4-.4 2.4-.1.1-.1.1-.2.1v-.2c.1-.5.1-.9.2-1.4.1-.3.2-.6.4-.9m-7.1 5.4h-.2c-.3-.9-1.3-1.7-1.3-2.7.7.4 1.4 1.6 1.5 2.3v.4zm4.5 1.6v-.2c-.2-.6.1-1.5.3-2 .6.5.5 1.4.1 1.9-.1.1 0 .3-.2.3H61z"/>
  <path class="st5" d="M66.6 56.3c0 .1 0 .1 0 0l-.1.2c.4.1 2.4.6 2.4 1h.1v-.1h.1v-.1c-.9-.7-1.1-1-2.5-1m-18.4.5c-.2.3-1 2.3-.6 2.3v.1h.2v-.1c.5-.7.4-1.4.4-2.3zm24.3.9c0 .3.1 1.2.1 1.1.1-.4 0-.8-.1-1.1m-26.7.5c-.2.7-.4 1.3-.3 2.1 0 .2.3.4.3.7h.2v-.2c.4-.8.5-2-.2-2.6m24 .1c.1.2.6.4.6 0h-.6zm4 0c0 .2-.1.8.2.8V59c.1-.1.1-.3.3-.3v-.2h-.1c-.1-.1-.2-.1-.4-.2m-6.3.5c.3.3.7.2 1.2.2v-.2h-1.2zm-16.9.7c-.1.2-.2 1.1 0 1.1v.1h.1v-.1c.2-.1.4-.3.4-.5.1-.1.1-.1 0-.1-.1-.3-.3-.4-.5-.5m22.1 0c-.1.1-.3.4-.1.4v.1h.1v-.1h.1c0-.1.1-.2.1-.3-.1 0-.2-.1-.2-.1m-3.4.5c-.1.3-.2 1.1.3 1.1V61c.3-.5.2-.8-.3-1m-25.1.1c0 .4.9 2.2 1.1 2.2.2 0 .4-.1.5-.1-.2-.8-.8-1.6-1.6-2.1m4.2 1c.4.2.9.4 1.4.4-.1-.6-.7-.5-1.3-.5l-.1.1zm-4.6.1c0 .3 0 .6-.1.9-.1.6-.4 1.7.6 1.7.2-.9.1-1.9-.5-2.6"/>
  <path class="st5" d="M49.7 84.9c.3.3.8.4 1.3.3.3 0 2-1 2-1.1l1.2.3c0-.1.2-.2 0-.2-.7-.6-1.6-.8-2.4-1.3-.5-.3-.7-.8-1.1-1.1-.2-.2-.7-.1-1-.3-.5-.4-.8-.8-1.2-1.2l-.8-.8c-.6-.7-1.1-1.5-1.4-2.3l-.3-.9c-.3-.6-.8-1.1-.9-1.9 0-.4-.1-.8-.1-1.3 0-.2.1-.4.1-.5H45v-.1c-1-.1-.8-3-.7-3.8.1-.3.4-.6.4-.9-.7-.8 1.5-5.1 1.6-5.1.2-.4.6-.8.7-1.2.2-.7.8-1.1 1.5-1.2.1 0 .2 0 .2-.2-.1 0-.5-.2-.4-.4.2-.4.6-.9 1-1.2.8-.6 1.8-.6 1.8-2H51c-.4.2-.7.2-1.1.5-.3.3-.5.7-.7 1.1-.7 1-1.6 1.8-2.3 2.9-.1.1-.2.4-.3.5-1.2 1.7-2 3.3-2.5 5.4-.1.3-.4.7-.4 1 0 .2.1.4.1.5v1.3c-.1.4-.1.7-.2 1.1.6.6.5 2.5.7 3.4.3.7.7 1.5 1 2.2.2.4.6.8.6 1.3-.1 0-.3.1-.4.1v.3c.2.1.4.2.6.2.2.1.4.3.5.5.5.8 1 1.6 1.7 2.3.2.1.4.3.6.4l1.5 1.2c.5.4 1.2.6 1.7 1.1.1.1.2.2.2.3h-.1c-.8.6-1.6.6-2.6.6l.1.2z"/>
  <path class="st5" d="M47.7 61.7c-.2.3-.5.5-.5.8h.2l.1-.1c.2-.1.4-.3.4-.5-.1 0-.1-.1-.2-.2m1.2.3c-.5.3-.9.9-1.5.9v.2h.2c.1.1.1.1.2.1v-.1c.3-.1.5-.2.8-.4.2-.1.4-.5.6-.5v-.3h-.3v.1zm21.8.2c.3.7 1.4.4 1.4.6h.1c-.4-.4-1.1-.4-1.5-.6m4.6.1c-.1.2-.4.8-.2.8.1-.3.2-.4.2-.8m-.5 1.1v.2c.1-.1.2-.1.2-.2h-.2zm-32 .4c0 .1 0 .1 0 0 .1.5.6 1.7 1.1 1.7-.2-.8-.4-1.3-1.1-1.7m29.5.1c-.2 0-.8 0-.8.2h-.1v.1h.1c.2.1 1.3.3 1.3.1.1 0 .2-.1.1-.1-.2-.1-.3-.2-.6-.3m3.5.6c.2 0 .6-.1.6-.3-.1 0-.3-.1-.4-.1-.1.1-.4.4-.4.5l.2-.1zm-28.9-.3c-.1.1-1.5 1.2-1 1.2v-.1c.3-.2 1.2-.7 1-1.1m0 1.1c-.2.3-.5.6-.7 1-.2.3-.2.7-.2.7.2-.2 1.1-1.5 1.1-1.5l-.2-.2m29.2.2c-.2.3-.3.6-.2 1 .1.1.2.1.2.3h.2v-.1c.1-.1.7-.6.4-.6-.1-.3-.3-.4-.6-.6m-33.8.3c-.1.2-.4 1.3 0 1.3v.1h.1v-.1c.1-.2.4-.8.6-.8v-.2c-.2-.1-.4-.2-.7-.3m.9 1.2c-.1.1-.3.4-.5.4 0 .1 0 .1.1.1v.1c.1 0 .2.1.2-.1.1-.1.3-.2.4-.2 0-.1-.1-.2-.1-.3h-.1zm29.3 0c.1.2.5.8.5 1h.2c0-.1.1-.2.1-.3-.3-.3-.6-.5-.8-.7m-30.8.6c0 .5.3.9.8.9-.1-.4-.4-.6-.8-.9m4.7.1c-.3.2-1 .2-1.1.6-.1.1-.1.3.1.3v.1c.2 0 .5-.1.7-.2.3-.1.6-.6.9-.6v-.1h-.1c-.3 0-.4 0-.5-.1M41.7 69c-.4.8.7 1.7 1.3 1.7.1-.9-.7-1.3-1.3-1.7m1.6 0c0 .1-.1.5-.1.5.1-.1.3-.4.3-.5h-.2zm33.4 0l-.1.2c-.2.1-.8.6-.5.6v.1h.1c.1-.1.6-.6.7-.6-.1-.1-.2-.2-.2-.3m-3.9.1v.4h.4c.1-.1.1-.2.2-.2v-.2h-.6zm-26.2.6c-.2.1-.6.2-.6.4v.1c.1.3.3.5.5.6v.1h.2v-.1h.1c.1-.4.1-.8-.2-1.1m25.9.7c.2 0 0 .2.1.3h.2v-.2h-.3v-.1zm-27 .3v.5c.3.1.5.1.7.2-.2-.2-.4-.5-.7-.7"/>
  <path d="M73.9 65.2c.2 0 0-.4 0-.5-.1-.5-.4-1-.7-1.4-.4-.9-.8-2.6-2.2-2.5v-.1c-.2 0 .2-.4.1-.6l-.3-.6c.9.6 1.5 1.8 2.1 2.6.6 0 .6-.9.8-1.2.2-.3.5-.5.8-.7h.1v.2c-.4 0-2.3 3.1-.2 3.5v.2c-.2 0-.1.1-.2.2-.2.8.2 1.7.4 2.4.1.6.2 1.3.2 2 0 .8.1 2.9-.1 3.7v.2c0 .2.3.2.4.2.3 0 .8-.8 1.2-1 0 0 .2-.2.2-.3.1.1.1.2.2.3h-.1c-.2.5-1 1.2-1.5 1.2-.1 0-.2.1-.3.2-.7.9-.8 1.7-1.2 2.6-.5.9-2.2 3-2 4-.8 0-1.6 1.5-2.2 1.9-.5.4-1.4.7-1.7 1.3-.2 0-.1.1 0 .2.3.7 1.3.6 1.9.5 0 0 .1-.1.1 0v.1c0 .3-.7.5-1 .5v.1c-.6 0-1-.7-1.6-.8-.7-.2-2.2.7-3 .8l-.1-.1v-.1c.4-.1.7-.3 1.1-.4 2.6-.7 6-4.1 7.2-6.5.2-.5.3-.9.6-1.4.3-.6.7-1.1.9-1.7.2-.7.5-1.4.6-2.2.1-1.3.2-2.4.2-3.7-.2-1.5-.2-3.1-2.2-3v-.2c.2 0 .2-.1.3-.2.3-.2.6 0 .8.1h.4v.2z" fill="#009b7c"/>
  <path class="st5" d="M41.4 71.8c.2.8 1.1 1.6 2 1.6 0-1.1-1.2-1.4-2-1.6m31.4 0c0 .1-.2.4 0 .4.1.2.5.5.5.7h.2c-.2-.4-.4-.9-.7-1.1m-26.3.5c-.1.1-1.3 1.5-.7 1.5v.1h.2v-.1c.2-.2.8-1.2.8-1.2v-.3h-.3zm25.7 1.9c0-.3 0-.5-.2-.7-.2.1-.4.3-.4.5v.1c.2.1.3.2.6.1zm-25.1-.5c-.1.1-1.1 1.4-.5 1.4v.1h.1v-.1h.1c.1-.4.5-1 .3-1.4m29.4.2s0-.1 0 0c-.3.1-.9.5-.9.8h.2c.2-.4.7-.4.7-.8m-34.8 0c0 .2.1.3.1.5.3 0 1.8.3 1.8-.2 0-.4-1.6-.2-1.9-.3m5.7 1.5c-.4.6-.7 1.1-.4 1.8.1.1.1.3.3.3.1-.4 0-1.9.4-1.9 0-.1 0-.1-.1-.1 0 0-.1 0-.2-.1m28 0c-.1.1-.1.1-.1.2l-.1.1h.1c.1.1.4.3.4.5h.1c0-.1.2-.3 0-.3-.1-.1-.2-.3-.4-.5m-32.4.3c.2.3 1.7 1.1 1.9 1.1 0-.1.1-.2.1-.3-.7-.5-1.1-.8-2-.8m28.2.2c-.1.3-.1.8.5.3 0-.1 0-.1-.1-.1-.1-.1-.3-.2-.4-.2m-22.3.9c-.1.7.1 1.3.1 2h.1c0-.3.1-1.9-.2-2 .1.1 0 .1 0 0m22.5.8h.2c-.1-.3-.2-.5-.4-.6 0 .2.1.4.1.5l.1.1zm-27.8-.5c-.1.1-.4.6-.2.6.1.2.3.5.5.5v-.1h.1c0-.4 0-.7-.4-1m1 .2c0 .1.2.9.2.6h.1c0-.1.2-.3 0-.3-.1 0-.2-.1-.3-.3m30.2.2c-.3.4-.9 1-1.4 1v.2c.6-.2 1.4-.5 1.4-1.2m-24 1.2c-.2.2-.5.5-.5.8.6.2.6-.1 1.1-.1-.2-.2-.3-.5-.6-.7m-4.3.7c-.2-.2-.5-.4-.7-.5v.1c-.2.1-.4.4-.6.4v.2c.3 0 .6-.1.8-.1s.4.1.5.1v-.2zm22.8-.5c0 .2-.1 1.1.2 1.1 0-.4 0-.7-.2-1.1m3.5-.2c0 .3-.5.5.1.5-.1-.1-.1-.4-.1-.5m-.3 1.2v.2c.5.1.8.1 1.2-.1.1-.1.2-.2.4-.2-.1-.1 0-.2-.2-.2l-.1-.1-1.2.3-.1.1zm-5.2-.3c0 .7.7 1 .7 1.7h.1c.1-1.1.1-1.3-.8-1.7m-17 .7c.3.2.6.2 1 .2v-.3h-.1c-.3.1-.5 0-.7 0l-.2.1zm1.9.2c-.1.4.2 1.7.6 1.7v-.1c0-.7-.1-1.2-.6-1.6m13.6.3c-.1.3-.3 1.6.1 1.6.1.1.1.1.2.1-.1-.5 0-1.3-.3-1.7m-20.1 1.1c.5 0 1 0 1.4-.1.2-.1.4-.4.7-.4v-.1l-.1-.1h-1.4c-.2.1-.5.4-.7.4l.1.3zm26 .4c.1-.3 0-.6-.2-.8-.1.2-.3.4-.3.6.1.1.3.1.3.3l.2-.1zm-2.8.8c.3.2.7.1 1.1.1v-.1h-1.1zm-19.1.3c-.9.7-1.3.2-2.2.2 0 .1-.1.2.1.2.6.7 1.3.4 2 0 .1-.1.3-.1.3-.3 0-.1-.1-.1-.2-.1M66 86v-.3l-1.5-.3v.4c.3 0 1.2 0 1.2.3l.3-.1zm-13.1-.2h-.7c-.2.2-.5.3-.5.6.3 0 .6.1 1 0 .1-.1.2-.3.4-.3v-.2l-.2-.1zm1.1.2c-.1.1-.1.1-.1.2h.3v-.1c.2-.1.1-.2 0-.3l-.2.2zm12.9.4c.3-.1.7-.2 1.1-.3-.1-.1 0-.2-.2-.2l-.1-.1c-.2.1-.7.2-.7.4v.2h-.1zM49.5 60.2l.4.4-.1-.7-.3.3z"/>
  <path class="st4" d="M71.3 57.1c-.1.4-.4 1.1-.2 1.5.1.2.3.3.3.5.4-.6.2-1.5-.1-2m-.4 4c-.1.1-.2 0-.2.2 0 .1-.1.2-.1.3h.1v.1c.4.1.7.1 1.1.2 0-.1.2-.3 0-.3-.3-.3-.6-.4-.9-.5m3.9.4c-.1.2-.9 1.6-.4 1.6V63c.3-.4.6-1 .4-1.5M73 66.2c0 .4.5 1.1.8 1.1v-.2h.1c-.1-.7-.3-.8-.9-.9m2.8 1.1c-.1.3-.2.6-.1.9.1.1.2.1.2.3.1 0 .2.1.2-.1.1 0 .3 0 .3-.2.1-.6-.1-.8-.6-.9m-1.9 2.3v.5h.2c0-.2 0-.3-.2-.5m1.9 1.2c0 .1-.1.3.1.3 0-.1 0-.1.1-.1 0-.1-.1-.1-.2-.2m-2.2.6c0 .4.2.5.2.8h.1v-.1c0-.2-.1-.5-.3-.7m2.1 1.9c-.1.2-.5.4-.5.6h.2v-.1c.2 0 .4-.3.3-.5m-2.3 1.3c.1-.3.2-.6.3-.8-.2-.1-.3-.1-.5-.2 0 .2-.4 1.1-.2 1.1 0 0 .2 0 .2.1h.1l.1-.2zm.3 3h.2v-.1c.1-.1 1-1.1.5-1.1l-.1-.1c-.2.3-.6.7-.6 1.1v.2zm-25.8 0c-.1.4-.2.8-.1 1.1.1.1.3.3.3.5h.1v-.1c.1-.1 0-.2.2-.2-.1-.5-.1-1-.5-1.3m21.9.2c-.1.4 0 1.8.5 1.8v-.1c.3-.6.1-1.4-.5-1.7m-24.1 2.3c-.3.2-.7.5-.7.8.3 0 1.8-.4 1.8-.7-.4 0-.7-.1-1.1-.1m25.9.4c-.1.2-.2.5-.4.5.4.1 1.1-.1 1.1-.5h-.7zm-20.3.8c0 .4.2.9.6.9v-.1c-.2-.3-.4-.6-.6-.8m-1.7 1.5v-.2c-.5-.4-.7-.6-1.4-.6-.4.4-.6 1.1.2 1.2.3-.1.7-.1 1.1-.2l.1-.2zm3.1 2.6c.4-.1.9 0 1.3-.2.2-.4-.9-.4-1.1-.5v.1c-.1 0-.3 0-.3.2-.1.1-.1.1-.1.2l.2.2z"/>
  <path d="M59.8 73.7l6.7 4.8-2.6-7.8 6.7-4.8h-8.2L59.8 58l-2.5 7.9h-8.2l6.6 4.8-2.5 7.8 6.6-4.8z"/>
  <path class="st3" d="M63.6 70.6l6-4.4h-7.5l-2.3-7.1-2.3 7.1H50l6.1 4.4-2.3 7.1 6-4.4 6.1 4.4-2.3-7.1z"/>
  <path d="M66 105.1l1.7 1-.8-1.8 1.4-1.4-1.9.3-.9-1.8-.3 2-2 .2 1.8 1-.4 1.9 1.4-1.4z"/>
  <path class="st3" d="M66.7 104.3l1.1-1.1-1.5.2-.7-1.4-.3 1.5-1.5.2 1.3.8-.2 1.5 1.1-1.1 1.4.8-.7-1.4z"/>
  <path d="M52.6 105l-1.8.9.9-1.8-1.4-1.3 2 .3.8-1.8.4 2 1.9.2-1.8.9.4 2-1.4-1.4z"/>
  <path class="st3" d="M51.9 104.1l-1.1-1.1 1.6.3.7-1.4.2 1.5 1.6.2-1.4.8.2 1.5-1.1-1.1-1.4.7.7-1.4z"/>
  <path d="M104.1 45.8l-1.6 1.2.6-1.9-1.6-1.1h2l.6-1.9.6 1.9h1.9l-1.5 1.1.6 1.9-1.6-1.2z"/>
  <path class="st3" d="M103.3 45.1l-1.3-.9h1.6l.5-1.5.5 1.5h1.5l-1.2.9.5 1.5-1.3-1-1.3 1 .5-1.5z"/>
  <path d="M18.9 78l-.4 1.9-.8-1.7-2 .2 1.4-1.3-.8-1.8 1.7 1 1.4-1.4-.3 1.9 1.7 1-1.9.2z"/>
  <path class="st3" d="M17.8 78l-1.6.2 1.2-1.1-.7-1.4 1.4.8 1.1-1.1-.3 1.5 1.4.8-1.6.2-.3 1.5-.6-1.4z"/>
  <path d="M104 69.2l1.5-1.2-.5 1.9 1.7 1.1-2 .1-.5 1.9-.7-1.9-1.9.2 1.5-1.3-.7-1.8 1.6 1z"/>
  <path class="st3" d="M104.9 70l1.3.8-1.6.1-.4 1.5-.6-1.4-1.5.1 1.2-1-.6-1.5 1.3.8 1.3-1-.4 1.6z"/>
  <path d="M32.5 23.2l-.4 1.9-.8-1.9-1.9.2 1.5-1.3-.7-1.8 1.6 1.1 1.6-1.3-.5 1.9 1.6 1.1-2 .1z"/>
  <path class="st3" d="M31.5 23.1l-1.6.1 1.2-1-.6-1.5 1.4.9 1.2-1-.4 1.5 1.3.8-1.6.1-.4 1.5-.5-1.4z"/>
  <path d="M14.9 53.5l-1.3 1.4.3-1.9-1.8-.9 1.9-.3.3-1.9.9 1.7 2-.3-1.4 1.4.9 1.7-1.8-.9z"/>
  <path class="st3" d="M14 52.9l-1.4-.7 1.6-.3.2-1.5.7 1.4 1.6-.3-1.1 1.2.7 1.3-1.4-.7-1.1 1.2.2-1.6z"/>
  <g>
    <path d="M136.8 70.8h-3.1v-2.1h8.5v2.1h-3.1V79h-2.3v-8.2zm8.6-2h2.3v4.1h4.2v-4.1h2.3V79h-2.3v-4.1h-4.2V79h-2.3V68.8zm12.7 0h2.3V79h-2.3V68.8zm6.2 0h4.7c1.1-.1 2.2.3 3 1.1.6.6.9 1.5.9 2.4 0 .7-.2 1.4-.6 2-.4.5-1 .9-1.6 1.2l2.5 3.7h-2.6l-2.2-3.3h-1.8V79h-2.3V68.8zm4.6 4.9c.5 0 .9-.1 1.3-.4.3-.3.5-.7.4-1.1 0-.4-.1-.8-.5-1.1-.4-.3-.8-.4-1.3-.4h-2.2v2.9h2.3zm9.8-2.9h-3.1v-2.1h8.5v2.1H181V79h-2.3v-8.2zm8.6-2h7.7v2h-5.5v2.1h4.8v2h-4.8V77h5.6v2h-7.8V68.8zm11.2 0h7.7v2h-5.5v2.1h4.8v2h-4.8V77h5.6v2h-7.8V68.8zm11.3 0h2.1l4.8 6.3v-6.3h2.2V79H217l-5-6.5V79h-2.2V68.8zm18.9 0h2.3V79h-2.3V68.8zm6.3 0h2.1l4.8 6.3v-6.3h2.2V79h-1.9l-5-6.5V79H235V68.8zm16.7 10.4c-.8 0-1.6-.1-2.3-.4-.8-.3-1.5-.7-2.1-1.2l1.3-1.6c.4.4.9.7 1.4.9.5.2 1.1.3 1.6.3.4 0 .8-.1 1.1-.3.2-.1.4-.4.4-.7 0-.1 0-.3-.1-.4l-.3-.3-.6-.3c-.3-.1-.6-.2-1.1-.3-.5-.1-1-.3-1.4-.4-.4-.1-.7-.3-1.1-.6-.3-.2-.5-.5-.7-.9-.2-.4-.3-.8-.2-1.3 0-.4.1-.9.3-1.3.2-.4.4-.7.7-1 .3-.3.7-.5 1.1-.6.5-.1 1-.2 1.5-.2.7 0 1.4.1 2 .3.6.2 1.2.5 1.7 1l-1.2 1.7c-.4-.3-.9-.5-1.4-.7-.4-.2-.9-.3-1.3-.3-.3 0-.7.1-1 .3-.2.1-.3.4-.3.6 0 .1 0 .3.1.4.1.1.2.3.3.3.2.1.4.2.7.3.3.1.7.2 1.1.3.5.1.9.3 1.4.5.4.1.7.4 1.1.6.3.2.5.5.6.8.2.4.2.8.2 1.2 0 .5-.1.9-.3 1.4-.2.4-.4.7-.8 1-.4.3-.8.5-1.2.6-.2.2-.7.3-1.2.3zm9.5-8.4h-3.1v-2.1h8.5v2.1h-3.1V79h-2.3v-8.2zm8.6-2h2.3V79h-2.3V68.8zm8.7 2h-3.1v-2.1h8.5v2.1h-3.1V79h-2.3v-8.2zm12.8 8.4c-1.2.1-2.4-.3-3.3-1.1-.8-.8-1.2-1.9-1.2-3.4v-5.9h2.3v5.8c-.1.7.2 1.4.6 1.9.4.4 1 .7 1.6.7.6 0 1.2-.2 1.6-.6.4-.5.6-1.2.6-1.9v-5.9h2.3v5.8c0 .7-.1 1.4-.3 2-.2.5-.5 1-.9 1.5-.4.4-.9.7-1.4.9-.6.1-1.3.2-1.9.2zm10.6-8.4h-3.1v-2.1h8.5v2.1h-3.1V79h-2.3v-8.2zm8.7-2h2.3V79h-2.3V68.8zm11.2 10.4c-.8 0-1.5-.1-2.2-.4-.6-.3-1.2-.6-1.7-1.1-.5-.5-.9-1-1.1-1.7-.3-.7-.4-1.4-.4-2.1 0-1.4.6-2.8 1.5-3.8.5-.5 1.1-.9 1.7-1.2.7-.3 1.4-.4 2.2-.4.8 0 1.5.1 2.2.4.6.3 1.2.6 1.7 1.1.5.5.9 1 1.1 1.7.3.7.4 1.4.4 2.1 0 .7-.1 1.4-.4 2.1-.5 1.3-1.6 2.3-2.9 2.8-.6.4-1.3.5-2.1.5zm0-2.1c.4 0 .9-.1 1.3-.3.4-.2.7-.4 1-.7.3-.3.5-.6.6-1 .2-.4.2-.8.2-1.2 0-.4-.1-.9-.2-1.3s-.4-.7-.6-1c-.3-.3-.6-.5-1-.7-.8-.3-1.7-.3-2.5 0-.4.2-.7.4-1 .7-.3.3-.5.6-.6 1-.2.4-.2.8-.2 1.2 0 .4.1.9.2 1.3.3.8.9 1.4 1.6 1.7.4.3.8.3 1.2.3zm8.9-8.3h2.1l4.8 6.3v-6.3h2.2V79h-1.9l-5-6.5V79h-2.2V68.8zm16.7 10.4c-.8 0-1.6-.1-2.3-.4-.8-.3-1.5-.7-2.1-1.2l1.3-1.6c.4.4.9.7 1.4.9.5.2 1.1.3 1.6.3.4 0 .8-.1 1.1-.3.2-.2.4-.4.4-.7 0-.1 0-.3-.1-.4l-.3-.3-.6-.3c-.3-.1-.6-.2-1.1-.3-.5-.1-1-.3-1.4-.4-.4-.1-.7-.3-1.1-.6-.3-.2-.5-.5-.7-.9-.2-.4-.3-.8-.2-1.3 0-.4.1-.9.3-1.3.2-.4.4-.7.7-1 .3-.3.7-.5 1.1-.6.5-.1 1-.2 1.5-.2.7 0 1.4.1 2.1.3.6.2 1.2.5 1.7 1l-1.2 1.7c-.4-.3-.9-.5-1.4-.7-.4-.2-.9-.3-1.3-.3-.3 0-.7.1-1 .3-.2.1-.3.4-.3.6 0 .1 0 .3.1.4.1.1.2.3.3.3.2.1.4.2.7.3.3.1.7.2 1.1.3.5.1.9.3 1.4.5.4.1.7.4 1 .6.3.2.5.5.6.8.2.4.2.8.2 1.2 0 .5-.1.9-.3 1.4-.2.4-.4.7-.8 1-.4.3-.8.5-1.2.6-.1.2-.7.3-1.2.3zm6.8-2.5h2.4V79h-2.4v-2.3zm16.1 2.5c-1.2.1-2.4-.3-3.3-1.1-.8-.8-1.2-1.9-1.2-3.4v-5.9h2.3v5.8c-.1.7.2 1.4.6 1.9.4.4 1 .7 1.6.6.6 0 1.2-.2 1.6-.6.4-.5.6-1.2.6-1.9v-5.9h2.3v5.8c0 .7-.1 1.4-.3 2-.2.5-.5 1-.9 1.5-.4.4-.9.7-1.4.9-.7.2-1.3.3-1.9.3zm8.2-10.4h2.1l4.8 6.3v-6.3h2.2V79h-1.9l-5-6.5V79h-2.2V68.8zm13 0h2.3V77h5.1v2h-7.4V68.8zm10.6 0h2.3V79h-2.3V68.8zm6.3 0h2.4l2.7 4.4 2.7-4.4h2.4V79h-2.2v-6.7l-2.9 4.4h-.1l-2.9-4.4V79h-2.2V68.8zm14.2 0h2.3V79h-2.3V68.8zm8.7 2h-3.1v-2.1h8.5v2.1h-3.1V79h-2.3v-8.2zm8.5-2h7.7v2H442v2.1h4.8v2H442V77h5.6v2h-7.8V68.8zm11.3 0h4c.8 0 1.5.1 2.2.4.6.2 1.2.6 1.7 1.1.5.5.9 1 1.1 1.6.3.6.4 1.3.4 2s-.1 1.4-.4 2c-.3.6-.6 1.2-1.1 1.6-.5.5-1.1.8-1.7 1.1-.7.3-1.5.4-2.2.4h-4V68.8zm4 8.2c.4 0 .9-.1 1.3-.2s.7-.4 1-.6c.3-.3.5-.6.6-1 .2-.4.2-.8.2-1.2 0-.4-.1-.9-.2-1.3s-.4-.7-.6-1c-.3-.3-.6-.5-1-.6-.4-.2-.8-.2-1.3-.2h-1.8V77h1.8zm14.7-8.2h4.2c.6 0 1.1.1 1.7.3.5.2.9.4 1.2.7.3.3.6.7.8 1.1.2.5.3 1 .3 1.4 0 .5-.1 1.1-.3 1.6-.2.4-.5.8-.9 1.1-.4.3-.8.5-1.3.7-.5.2-1.1.2-1.6.2h-1.7V79h-2.3V68.8zm4 5.1c.5 0 1-.1 1.3-.4.3-.3.5-.7.5-1.1 0-.4-.2-.9-.5-1.2-.4-.3-.9-.4-1.3-.4h-1.7v3.1h1.7zm12.2 5.3c-.8 0-1.5-.1-2.2-.4-.6-.3-1.2-.7-1.7-1.1-.5-.5-.9-1-1.1-1.7-.3-.7-.4-1.4-.4-2.1 0-.7.1-1.4.4-2.1.3-.6.7-1.2 1.1-1.7.5-.5 1.1-.9 1.7-1.2.7-.3 1.4-.4 2.2-.4.8 0 1.5.1 2.2.4.6.3 1.2.7 1.7 1.1.5.5.9 1 1.1 1.7.3.7.4 1.4.4 2.1 0 .7-.1 1.4-.4 2.1-.3.6-.7 1.2-1.1 1.7-.5.5-1.1.9-1.7 1.1-.7.4-1.4.5-2.2.5zm0-2.1c.4 0 .9-.1 1.2-.3.4-.2.7-.4 1-.7.3-.3.5-.6.6-1 .2-.4.2-.8.2-1.2 0-.4-.1-.9-.2-1.3s-.4-.7-.6-1c-.3-.3-.6-.5-1-.7-.8-.3-1.7-.3-2.5 0-.4.2-.7.4-1 .7-.3.3-.5.6-.6 1-.2.4-.2.8-.2 1.2 0 .4.1.9.2 1.3s.4.7.6 1c.3.3.6.5 1 .7.5.3.9.3 1.3.3zm12.6 2.1c-.8 0-1.6-.1-2.3-.4-.8-.3-1.5-.7-2.1-1.2l1.3-1.6c.4.4.9.7 1.5.9.5.2 1.1.3 1.6.3.4 0 .8-.1 1.1-.3.2-.1.4-.4.4-.7 0-.1 0-.3-.1-.4l-.3-.3-.6-.3c-.3-.1-.6-.2-1.1-.3-.5-.1-1-.3-1.4-.4-.4-.1-.7-.3-1.1-.6-.3-.2-.5-.5-.7-.9-.2-.4-.3-.8-.2-1.3 0-.4.1-.9.3-1.3.2-.4.4-.7.7-1 .3-.3.7-.5 1.1-.6.5-.1 1-.2 1.5-.2 1.4 0 2.7.4 3.8 1.3l-1.2 1.7c-.4-.3-.9-.5-1.4-.7-.4-.2-.9-.3-1.3-.3s-.7.1-1 .3c-.2.1-.3.4-.3.6 0 .2 0 .3.1.4.1.1.2.3.3.3.2.1.4.2.7.3.3.1.7.2 1.1.3.5.1.9.3 1.4.5.4.1.7.4 1 .6.3.2.5.5.6.8.2.4.2.8.2 1.2 0 .5-.1.9-.3 1.4-.2.4-.4.7-.8 1-.4.3-.8.5-1.2.6-.3.2-.8.3-1.3.3zm10.8 0c-.8 0-1.6-.1-2.3-.4-.8-.3-1.5-.7-2.1-1.2l1.3-1.6c.4.4.9.7 1.4.9.5.2 1.1.3 1.6.3.4 0 .8-.1 1.1-.3.2-.1.4-.4.4-.7 0-.1 0-.3-.1-.4l-.3-.3-.6-.3c-.3-.1-.6-.2-1.1-.3-.5-.1-1-.3-1.4-.4-.4-.1-.7-.3-1.1-.6-.3-.2-.5-.5-.7-.9-.2-.4-.3-.8-.2-1.3 0-.4.1-.9.3-1.3.2-.4.4-.7.7-1 .3-.3.7-.5 1.1-.6.5-.1 1-.2 1.5-.2.7 0 1.4.1 2.1.3.6.2 1.2.5 1.7 1l-1.2 1.7c-.4-.3-.9-.5-1.4-.7-.4-.2-.9-.3-1.3-.3s-.7.1-1 .3c-.2.1-.3.4-.3.6 0 .1 0 .3.1.4.1.1.2.3.3.3.2.1.4.2.7.3.3.1.7.2 1.1.3.5.1.9.3 1.4.5.4.1.7.4 1.1.6.3.2.5.5.6.8.2.4.2.8.2 1.2 0 .5-.1.9-.3 1.4-.2.4-.4.7-.8 1-.4.3-.8.5-1.2.6-.2.2-.8.3-1.3.3zm7.3-10.4h2.3V79h-2.3V68.8zm6.2 0h4.7c1-.1 2 .3 2.7.9.5.5.7 1.1.7 1.7 0 .3 0 .5-.1.8l-.3.6c-.1.2-.3.3-.4.5-.2.1-.3.3-.5.4.5.2 1 .5 1.4.9.4.4.6 1 .5 1.6 0 .4-.1.9-.3 1.2-.2.4-.5.7-.8.9-.4.3-.8.4-1.2.5-.5.1-1 .2-1.6.2h-4.9l.1-10.2zm4.3 4.1c.4 0 .8-.1 1.2-.3.3-.2.5-.5.4-.8 0-.3-.1-.6-.4-.8-.3-.2-.7-.3-1.1-.3h-2.2v2.2h2.1zm.6 4.2c.4 0 .8-.1 1.2-.3.3-.2.5-.5.4-.8 0-.3-.1-.6-.4-.8-.4-.2-.8-.3-1.3-.3h-2.6v2.3l2.7-.1zm7.2-8.3h2.3V79H535V68.8zm6.3 0h2.3V77h5.1v2h-7.4V68.8zm10.6 0h2.2V79h-2.3l.1-10.2zm8.6 2h-3.1v-2.1h8.5v2.1h-3.1V79h-2.3v-8.2zm8.7-2h2.3V79h-2.3V68.8zm6.2 0h7.7v2h-5.5v2.1h4.8v2h-4.8V77h5.6v2h-7.8V68.8zm14.9 10.4c-.8 0-1.6-.1-2.3-.4-.8-.3-1.5-.7-2.1-1.2l1.3-1.6c.4.4.9.7 1.5.9.5.2 1.1.3 1.6.3.4 0 .8-.1 1.1-.3.2-.1.4-.4.4-.7 0-.1 0-.3-.1-.4l-.3-.3-.6-.3c-.3-.1-.6-.2-1.1-.3-.5-.1-1-.3-1.4-.4-.4-.1-.7-.3-1.1-.6-.3-.2-.5-.5-.7-.9-.2-.4-.3-.8-.2-1.3 0-.4.1-.9.3-1.3.2-.4.4-.7.7-1 .3-.3.7-.5 1.1-.6.5-.1 1-.2 1.5-.2.7 0 1.4.1 2.1.3.6.2 1.2.5 1.7 1l-1.2 1.7c-.4-.3-.9-.5-1.4-.7-.4-.2-.9-.3-1.3-.3-.3 0-.7.1-1 .3-.2.1-.3.4-.3.6 0 .1 0 .3.1.4.1.1.2.3.3.3.2.1.4.2.7.3.3.1.7.2 1.1.3.5.1.9.3 1.4.5.4.1.7.4 1.1.6.3.2.5.5.6.8.2.4.2.8.2 1.2 0 .5-.1.9-.3 1.4-.2.4-.4.7-.8 1-.4.3-.8.5-1.2.6-.3.2-.8.3-1.4.3zm6.9-2.5h2.3V79h-2.4l.1-2.3z" fill="#f58229"/>
    <path class="st0" d="M149.4 43h-.6l-.1-.5c-.4-1.4-.6-2-3.1-2h-3.5v11.3c0 2.7.3 3.2 2.6 3.2v.6h-7.3V55c2.2 0 2.6-.5 2.6-3.2V40.4h-3.5c-2.5 0-2.7.6-3.1 2l-.1.5h-.6l.2-3.6h16.3l.2 3.7zm14 5.8v-1.3c0-2.7-.3-3.1-2.1-3.1v-.5h6.1v.5c-1.8 0-2.1.4-2.1 3.1v4.3c0 2.7.3 3.1 2.1 3.1v.5h-6.2v-.5c1.8 0 2.1-.5 2.1-3.1v-2h-6.1v2c0 2.7.3 3.1 2.1 3.1v.5h-6.2v-.5c1.8 0 2.1-.5 2.1-3.1v-4.3c0-2.7-.3-3.1-2.1-3.1v-.5h6.2v.5c-1.8 0-2.1.4-2.1 3.1v1.3h6.2zm18.5 4l.1-.5h.5l-.2 3.2h-10V55c1.8 0 2.1-.5 2.1-3.1v-4.3c0-2.7-.3-3.1-2.1-3.1V44h9.4l.2 3.2h-.6l-.1-.5c-.3-1.2-.6-1.7-3.1-1.7h-1.8v4h.2c2.7 0 2.9-.3 2.9-2.1h.5V52h-.5c0-1.8-.2-2.1-2.9-2.1h-.2v1.6c0 2.7.3 3.1 2.1 3.1h.3c2.5-.1 2.9-.6 3.2-1.8zm25.4-12.9v-.6h6.3v.7c-2.2 0-2.6.4-2.6 3.1v6.4c0 4.2-2.9 6.4-6.5 6.4s-6.4-2.2-6.4-6.4V43c0-2.7-.3-3.1-2.5-3.1v-.6h7.2v.7c-2.2 0-2.5.4-2.5 3.1v6.6c0 3.5 2 5.1 4.7 5.1 2.8 0 4.9-1.6 4.9-5.1V43c-.1-2.6-.4-3.1-2.6-3.1zm10.4 4.5v-.5h3.3l7.1 8.5v-4.8c0-2.7-.3-3.1-2.1-3.1V44h5.2v.5c-1.8 0-2.1.4-2.1 3.1V56h-.5l-7.8-9.4v5.3c0 2.7.3 3.1 2.1 3.1v.5h-5.2V55c1.8 0 2.1-.5 2.1-3.1v-4.3c.1-2.8-.3-3.2-2.1-3.2zm18.5 11.1V55c1.8 0 2.1-.5 2.1-3.1v-4.3c0-2.7-.3-3.1-2.1-3.1V44h6.1v.5c-1.8 0-2.1.4-2.1 3.1v4.3c0 2.7.3 3.1 2.1 3.1v.5h-6.1zm20.8-8.7l-4 9.2h-.3l-4-9.2c-.9-2-1.2-2.4-2.6-2.4v-.5h6v.5c-1.9 0-2.1.5-1.4 2l2.7 6.3 2.7-6.3c.7-1.6.7-2-1.4-2v-.5h5v.5c-1.6 0-1.8.3-2.7 2.4zm16 6l.1-.5h.5l-.2 3.2h-10V55c1.8 0 2.1-.5 2.1-3.1v-4.3c0-2.7-.3-3.1-2.1-3.1V44h9.4l.2 3.2h-.6l-.1-.5c-.3-1.2-.6-1.7-3.1-1.7h-1.8v4h.2c2.7 0 2.9-.3 2.9-2.1h.5V52h-.5c0-1.8-.2-2.1-2.9-2.1h-.2v1.6c0 2.7.3 3.1 2.1 3.1h.3c2.5-.1 2.9-.6 3.2-1.8zm13.8-.4c1.1 1.3 2.3 2.3 3.6 2.5v.5H287l-3.7-5h-.7v1.3c0 2.7.3 3.1 2.1 3.1v.5h-6.1v-.5c1.8 0 2.1-.5 2.1-3.1v-4.3c0-2.7-.3-3.1-2.1-3.1v-.5h5.6c2.8 0 4.3 1.4 4.3 3.3 0 1.6-1.2 3-3.2 3.2l1.5 2.1zm-2.7-7.6h-1.5v4.7h1.5c1.5 0 2.2-1.1 2.2-2.3 0-1.3-.7-2.4-2.2-2.4zm14.3 11.1c-1.1 0-2.1-.4-3-1-.3.3-.4.6-.5 1h-.5v-4.6h.5c.2 2.3 1.7 3.6 3.7 3.6 1.2 0 2.1-.6 2.1-1.8 0-.9-.7-1.7-2.2-2.4l-1.8-.9c-1.3-.7-2.2-1.8-2.2-3.3 0-1.7 1.4-3.1 3.4-3.1.9 0 1.8.3 2.5.8.2-.2.4-.5.4-.8h.5v4.5h-.5c-.2-1.6-.9-3.5-2.8-3.5-1.1 0-1.9.6-1.9 1.6s.7 1.4 2.3 2.3l1.8.9c1.5.8 2.1 2 2.1 3 0 2-1.7 3.7-3.7 3.6-.1.1-.1.1-.2.1zm8.7-.4V55c1.8 0 2.1-.5 2.1-3.1v-4.3c0-2.7-.3-3.1-2.1-3.1V44h6.1v.5c-1.8 0-2.1.4-2.1 3.1v4.3c0 2.7.3 3.1 2.1 3.1v.5h-6.1zm13.6-10.6c-2.5 0-2.7.5-3 1.7l-.1.5h-.6l.2-3.3h12l.2 3.3h-.6l-.1-.5c-.3-1.3-.6-1.7-3.1-1.7h-1.4v6.9c0 2.7.3 3.1 2.1 3.1v.5h-6.2v-.5c1.8 0 2.1-.5 2.1-3.1v-6.9h-1.5zm18.7 6.9c0 2.7.3 3.1 2.1 3.1v.5h-6.2v-.5c1.8 0 2.1-.5 2.1-3.1v-1.1l-2.7-3.9c-1.2-1.8-1.7-2.4-3.2-2.4v-.5h6v.5c-1.7 0-1.8.5-.8 2l2.1 3.1 2.1-3.1c1.1-1.6 1.1-2-.7-2v-.5h5v.5c-1.5 0-2.1.6-3.3 2.4l-2.6 3.9.1 1.1zm20.6 4.1c-2.3 0-3.7-2.2-3.2-4.9s2.7-4.9 5-4.9 3.6 2.2 3.2 4.9-2.7 4.9-5 4.9zm1.6-9c-1.6 0-2.7 1.8-3.1 4.1s0 4.1 1.6 4.1 2.6-1.8 3.1-4.1 0-4.1-1.6-4.1zm7.9.6l.2-.9h1.7l.5-2.6c.6-3.2 2.6-5 4.3-5 1.7 0 2.4 1.2 2.3 2-.1.4-.4.7-.8.7-1.2 0-.2-1.9-1.7-1.9-.9 0-2 1.2-2.5 4.2l-.5 2.6h2.1l-.2.9h-2.1l-1.9 10.9c-.6 3.2-1.9 4.3-3.5 4.3s-2.3-1.1-2.1-1.9c0-.4.4-.8.9-.8 1.2 0 0 1.9 1.5 1.9.8 0 1.3-.9 1.7-3.5l1.9-10.9h-1.8zm32.9-4.5h-.6l-.1-.5c-.4-1.4-.6-2-3.1-2h-3.5v11.3c0 2.7.3 3.2 2.6 3.2v.6h-7.3V55c2.2 0 2.6-.5 2.6-3.2V40.4h-3.5c-2.5 0-2.7.6-3.1 2l-.1.5h-.6l.2-3.6h16.3l.2 3.7zm13.5 9.8l.1-.5h.5l-.2 3.2h-10V55c1.8 0 2.1-.5 2.1-3.1v-4.3c0-2.7-.3-3.1-2.1-3.1V44h9.4l.2 3.2h-.6l-.1-.5c-.3-1.2-.6-1.7-3.1-1.7h-1.8v4h.2c2.7 0 2.9-.3 2.9-2.1h.5V52h-.5c0-1.8-.2-2.1-2.9-2.1h-.2v1.6c0 2.7.3 3.1 2.1 3.1h.3c2.5-.1 2.9-.6 3.2-1.8zm9.1.1c-1.2 1.6-.9 2 .7 2v.6h-5v-.6c1.3 0 2-.6 3.4-2.3l2.2-2.8-2.1-3c-1.3-1.8-1.8-2.4-3.2-2.4v-.5h6v.5c-1.7 0-1.7.5-.7 2l1.3 1.9 1.5-1.9c1.3-1.6.9-2-.7-2v-.5h5v.5c-1.4 0-2 .7-3.4 2.4l-1.9 2.3 2.4 3.5c1.3 1.8 2 2.3 3.2 2.3v.6h-6v-.6c1.7 0 1.8-.5.7-2l-1.6-2.2-1.8 2.2zm15.1 0c-.7 1.6-.7 2 1.5 2v.6h-5.1v-.6c1.6 0 1.9-.3 2.8-2.3l3.9-9.2h.4l4 9.2c.9 2 1.2 2.3 2.6 2.3v.6h-6v-.6c1.9 0 2.1-.5 1.5-2l-.5-1.2h-4.4l-.7 1.2zm2.7-6.4l-1.8 4.1h3.5l-1.7-4.1zm15.5 9.4c-1.1 0-2.1-.4-3-1-.3.3-.4.6-.5 1h-.5v-4.6h.5c.2 2.3 1.7 3.6 3.7 3.6 1.2 0 2.1-.6 2.1-1.8 0-.9-.7-1.7-2.2-2.4l-1.8-.9c-1.3-.7-2.2-1.8-2.2-3.3 0-1.7 1.4-3.1 3.4-3.1.9 0 1.8.3 2.6.8.2-.2.4-.5.4-.8h.5v4.5h-.5c-.2-1.6-.9-3.5-2.8-3.5-1.1 0-1.9.6-1.9 1.6s.7 1.4 2.3 2.3l1.8.9c1.5.8 2.1 2 2.1 3-.2 2.1-1.9 3.8-4 3.7zm18.1 0h-.5V50h.5s.1 4.8 5 4.8c1.9 0 3.4-1.2 3.4-2.9 0-1.2-1.2-2.3-3.1-3.2l-2.6-1.3c-1.6-.8-3-2.4-3-4.4 0-2.2 1.9-4 4.5-4 1.2 0 2.3.4 3.3 1.1.4-.3.7-.8.8-1.2h.5v5.9h-.6c-.2-2.1-1-4.7-4.1-4.7-1.3-.1-2.5.9-2.6 2.3v.1c0 1.4.9 2.1 3.3 3.3l2.6 1.3c2.1 1.1 2.8 2.6 2.8 4.1 0 2.9-2.3 4.8-5.1 4.8-2 0-3.3-1.1-4.2-1.3-.5.3-.8.7-.9 1.2zm21.3-4.1c0 2.7.3 3.1 2.1 3.1v.5h-6.2v-.5c1.8 0 2.1-.5 2.1-3.1v-1.1l-2.7-3.9c-1.2-1.8-1.7-2.4-3.2-2.4v-.5h6v.5c-1.7 0-1.9.5-.8 2l2.1 3.1 2.1-3.1c1.1-1.6 1.1-2-.7-2v-.5h5v.5c-1.5 0-2.1.6-3.3 2.4l-2.6 3.9.1 1.1zm13.5 4.1c-1.1 0-2.1-.4-3-1-.3.3-.4.6-.5 1h-.5v-4.6h.5c.2 2.3 1.7 3.6 3.7 3.6 1.2 0 2.1-.6 2.1-1.8 0-.9-.8-1.7-2.2-2.4l-1.8-.9c-1.3-.7-2.2-1.8-2.2-3.3 0-1.7 1.4-3.1 3.4-3.1.9 0 1.8.3 2.5.8.2-.2.4-.5.4-.8h.5v4.5h-.5c-.2-1.6-.9-3.5-2.8-3.5-1.1 0-1.9.6-1.9 1.6s.7 1.4 2.3 2.3l1.8.9c1.5.8 2.1 2 2.1 3 0 2-1.7 3.7-3.7 3.6-.1.1-.2.1-.2.1zm11.1-11c-2.5 0-2.7.5-3 1.7l-.1.5h-.5l.2-3.3h12l.2 3.3h-.6l-.1-.5c-.3-1.3-.6-1.7-3.1-1.7h-1.4v6.9c0 2.7.3 3.1 2.1 3.1v.5h-6.2v-.5c1.8 0 2.1-.5 2.1-3.1v-6.9h-1.6zm22 7.9l.1-.5h.5l-.2 3.2h-10V55c1.8 0 2.1-.5 2.1-3.1v-4.3c0-2.7-.3-3.1-2.1-3.1V44h9.4l.2 3.2h-.6l-.1-.5c-.3-1.2-.6-1.7-3.1-1.7h-1.8v4h.2c2.7 0 2.9-.3 2.9-2.1h.5V52h-.5c0-1.8-.2-2.1-2.9-2.1h-.2v1.6c0 2.7.3 3.1 2.1 3.1h.3c2.5-.1 2.8-.6 3.2-1.8zm8.6-1c0 2.7.3 3.1 2.1 3.1v.5h-5.2v-.5c1.8 0 2.1-.5 2.1-3.1v-4.3c0-2.7-.3-3.1-2.1-3.1v-.5h4l4 9 4-9h3.8v.5c-1.8 0-2.1.4-2.1 3.1v4.3c0 2.7.3 3.1 2.1 3.1v.5h-6.1v-.5c1.8 0 2.1-.5 2.1-3.1v-5l-4.1 9.1h-.4l-4.2-9.5v5.4z"/>
  </g>
</svg>
