<?xml version="1.0" encoding="utf-8"?>
<!-- Generator: Adobe Illustrator 22.0.1, SVG Export Plug-In . SVG Version: 6.00 Build 0)  -->
<svg version="1.1" id="Layer_1" xmlns="http://www.w3.org/2000/svg" xmlns:xlink="http://www.w3.org/1999/xlink" x="0px" y="0px"
	 width="250.09px" height="250.09px" viewBox="0 0 250.09 250.09" enable-background="new 0 0 250.09 250.09" xml:space="preserve">
<g>
	<path fill="#FFFFFF" d="M1.2,125.05C1.2,56.64,56.64,1.2,125.05,1.2c68.4,0,123.85,55.45,123.85,123.85
		c0,68.4-55.45,123.85-123.85,123.85C56.64,248.9,1.2,193.45,1.2,125.05"/>
	<path fill="none" stroke="#000000" stroke-width="2.2944" d="M1.2,125.05C1.2,56.64,56.64,1.2,125.05,1.2
		c68.4,0,123.85,55.45,123.85,123.85c0,68.4-55.45,123.85-123.85,123.85C56.64,248.9,1.2,193.45,1.2,125.05z"/>
	<path fill="#CC362D" d="M125.05,9.84C61.43,9.84,9.86,61.41,9.86,125.02c0,63.61,51.57,115.18,115.18,115.18
		s115.18-51.57,115.18-115.18C240.23,61.41,188.66,9.84,125.05,9.84z M124.93,215.79c-50.11,0-90.74-40.62-90.74-90.74
		c0-50.11,40.62-90.74,90.74-90.74s90.74,40.62,90.74,90.74C215.67,175.16,175.05,215.79,124.93,215.79z"/>
	<path fill="none" stroke="#000000" stroke-width="1.1472" stroke-miterlimit="3.864" d="M9.86,125.02
		C9.86,61.41,61.43,9.84,125.05,9.84s115.18,51.57,115.18,115.18c0,63.61-51.57,115.18-115.18,115.18S9.86,188.63,9.86,125.02z"/>
	<path fill="#0064B1" d="M37.94,125.05c0-48.05,38.95-87,87-87c48.05,0,87,38.95,87,87s-38.95,87-87,87
		C76.89,212.05,37.94,173.1,37.94,125.05"/>
	<g>
		<path fill-rule="evenodd" clip-rule="evenodd" fill="#F58025" d="M180.41,109.87c-0.83,10.38-1.95,20.43-4.3,29.84
			c-5.5,29.88-30.32,56.58-50.57,67.19c-21.45-10.85-45.88-37.35-51.38-67.23c-2.35-9.41-3.66-19.44-4.53-29.81H180.41z"/>
		<path fill-rule="evenodd" clip-rule="evenodd" fill="#FFFFFF" d="M178.26,65.71c-5.24,4.99-14.08,8.35-25.3,8.35
			c-12.48,0-23.37-4.16-28.02-10.09c-4.65,5.94-15.37,10.09-27.85,10.09c-11.22,0-20.06-3.36-25.3-8.35
			c-3.26,11.35-3.9,27.64-2.48,44.16H180.9C182.24,93.35,181.52,77.05,178.26,65.71z"/>
	</g>
	<path fill="none" stroke="#000000" stroke-width="1.1472" stroke-miterlimit="3.864" d="M125.54,206.91
		c20.25-10.61,45.07-37.32,50.57-67.19c6.05-24.26,7.43-55.63,2.14-74.01c-5.24,4.99-14.08,8.35-25.3,8.35
		c-12.48,0-23.37-4.16-28.02-10.09c-4.65,5.94-15.37,10.09-27.85,10.09c-11.22,0-20.06-3.36-25.3-8.35
		c-5.28,18.37-3.67,49.71,2.38,73.97C79.66,169.56,104.09,196.06,125.54,206.91z M180.41,109.87H69.63H180.41z"/>
	<g>
		<path fill-rule="evenodd" clip-rule="evenodd" d="M123.11,102.23l1.91-2.15l1.67,2.39l-0.96,1.19h-1.67L123.11,102.23z
			 M101.73,88.82h2.49l0.62-4.58h-2.5L101.73,88.82z M100.27,99.92h2.49l0.62-4.58h-2.5L100.27,99.92z M110.22,82.66v2.15l2.15-0.24
			v-2.39L110.22,82.66z M147.7,84.24h-2.5l0.62,4.58h2.49L147.7,84.24z M149.16,95.34h-2.5l0.62,4.58h2.49L149.16,95.34z"/>
		<path fill="none" stroke="#000000" stroke-width="1.1472" stroke-miterlimit="3.864" d="M107.83,81.46l-2.63,0.48l-3.1,21.97
			l21.25-1.43 M128.54,82.84c2.21-1.14,7.48,2.2,11.04,1.53 M121.5,94.3c-2.21-1.14-8.66,2.2-12.22,1.53 M121.5,91.44
			c-2.21-1.14-8.2,2.2-11.76,1.53 M121.5,88.57c-2.21-1.14-7.96,2.4-11.52,1.73 M121.5,85.7c-2.21-1.14-7.7,2.21-11.27,1.53
			 M121.5,82.84c-2.21-1.14-6.75,2.2-10.31,1.53 M127.41,98.17l4.06,0.24l4.3,0.96l4.53,0.72l4.06-0.24l-1.91-19.34l-2.39,0.48
			L136,80.27l-3.82-1.19h-3.82l-3.34,1.43v19.34L127.41,98.17z M122.63,98.17l-4.06,0.24l-4.3,0.96l-4.53,0.72l-4.06-0.24
			l1.91-19.34l2.39,0.48l4.06-0.72l3.82-1.19h3.82l3.34,1.43v19.34L122.63,98.17z M123.11,102.23l1.91-2.15l1.67,2.39l-0.96,1.19
			h-1.67L123.11,102.23z M101.73,88.82h2.49l0.62-4.58h-2.5L101.73,88.82z M100.27,99.92h2.49l0.62-4.58h-2.5L100.27,99.92z
			 M110.22,82.66v2.15l2.15-0.24v-2.39L110.22,82.66z M147.7,84.24h-2.5l0.62,4.58h2.49L147.7,84.24z M128.54,94.3
			c2.21-1.14,8.66,2.2,12.22,1.53 M128.54,91.44c2.21-1.14,8.2,2.2,11.76,1.53 M128.54,88.57c2.21-1.14,7.96,2.4,11.52,1.73
			 M128.54,85.71c2.21-1.14,7.7,2.2,11.27,1.53 M142.21,81.46l2.63,0.48l3.1,21.97l-21.25-1.43 M149.16,95.34h-2.5l0.62,4.58h2.49
			L149.16,95.34z"/>
		<polygon fill-rule="evenodd" clip-rule="evenodd" fill="#FFFFFF" points="124.8,150.56 137.49,158.72 133.41,145.11 
			143.85,134.68 130.01,134.68 125.02,119.26 120.03,134.68 106.2,134.68 116.63,145.11 112.55,158.72 		"/>
		<polygon fill="none" stroke="#000000" stroke-width="1.1472" stroke-miterlimit="3.864" points="124.8,150.56 137.49,158.72 
			133.41,145.11 143.85,134.68 130.01,134.68 125.02,119.26 120.03,134.68 106.2,134.68 116.63,145.11 112.55,158.72 		"/>
		<path fill="#006838" stroke="#006838" stroke-width="2.2944" stroke-miterlimit="3.864" d="M93.03,113.45
			c-0.48,1.67,0.59,1.74,0.48,2.87c-0.11,1.08-0.89,1.54-0.96,2.63c-0.05,0.95,0.45,1.44,0.48,2.39c0.05,2.21-1.61,3.11-2.15,5.25
			c-0.37,1.47-1.72,0.31-0.72,3.82c0.96,3.34-0.61-1.13-1.19-1.67c-1.43-1.32,1.67,1.67,1.43,4.78c-0.08,1.06-0.45,1.6-0.72,2.63
			c-0.19,0.74-1.16,1.56-0.48,1.91c0.41,0.21,0.98-0.42,1.19,0c1.19,2.39,0.52,3.2,0.48,5.25c-0.02,1.12-1.36,2.79-0.24,2.87
			c0.5,0.03,1.02-0.82,1.19-0.48c1.19,2.39,1.69,3.24,2.15,5.49c0.37,1.83-0.63,3.26,0.48,4.77c1.06,1.45,3.16,0.6,4.06,2.15
			c1.67,2.86,0.72,4.3,1.91,4.54c0.53,0.11,0.85-1.14,1.19-0.72c0.96,1.19,1.77,1.57,2.87,2.63c0.66,0.64,1.15,2.43,1.67,1.67
			c0.32-0.46,0-0.87,0-1.43c0-0.48,2.87,2.15,5.97,3.1c1.31,0.4,0.33,3.42,1.67,3.11c0.93-0.22,0.63-1.38,1.19-2.15
			c0.86-1.17,1.42-2.57,2.87-2.39c1.11,0.15,1.4,1.08,2.15,1.91c0.9,1,0.57,2.87,1.91,2.87c3.58,0,1.19,0.24,5.25-0.24
			c1.45-0.17,0.47-2.52,1.67-3.34c0.8-0.55,1.51-1.42,2.39-0.72c1.19,0.96,1.58,1.48,2.63,2.39c0.65,0.57,0.94,1.89,1.67,1.43
			c0.5-0.31,0.23-0.9,0.47-1.43c0.67-1.43,1.46-2.16,2.87-2.87c1.19-0.6,3.19-2.13,3.34-0.72c0.24,2.15,1.43-2.39,4.77-3.58
			c0.56-0.2,0.32,0.71,0.72,0.96c1.26,0.77,0.39-2.35,1.2-3.58c0.83-1.27,1.58-1.81,2.86-2.63c0.95-0.6,1.91-0.33,2.63-1.19
			c0.78-0.93-0.13-1.9,0-3.1c0.22-2.02,0.55-3.18,1.43-5.01c0.48-0.98,1.08-1.36,1.43-2.39c0.46-1.32-0.17-2.2,0-3.58
			c0.18-1.44,0.24-2.15,0.95-3.58c0.21-0.42,1.55-0.12,1.19-0.48c-0.72-0.72-0.24-1.19-1.43-4.3c-0.64-1.67,1.67-4.3,1.2-5.25
			c-1.13-2.27-0.75-0.4-1.2-0.72c-2.52-1.79-2.03-4.55-2.15-7.64c-0.02-0.56,0.03-0.88,0-1.43c-0.07-1.13-0.51-1.73-0.48-2.87
			c0.03-0.86-0.19-1.61,0.48-2.15c0.74-0.6,1.49,0.16,2.39,0.48c1.69,0.59,1.67,1.67,3.58,2.87c0.28,0.18,0.4-0.36,0.72-0.48
			c0.95-0.34,1.48,0.68,2.15,1.43c0.85,0.98,1.15,1.81,1.19,3.1c0.04,1.04-1.04,1.75-0.48,2.63c0.25,0.39,0.61,0.41,0.95,0.72
			c1.47,1.32,0.61,3.11,1.67,4.77c1.67,2.63-2.08,5.98,0,5.49c0.41-0.09,1.09-1.14,0.96-0.48c-0.24,1.19,0.65,2.16,0.72,3.58
			c0.08,1.78,0.24,2.91-0.48,4.53c-0.45,1.04-1.41,1.28-1.67,2.39c-0.31,1.3,0.71,2.01,0.71,3.34c0.01,2.03-0.22,3.38-1.43,5.01
			c-0.79,1.06-2.03,0.97-2.63,2.15c-0.59,1.17,0.04,2.07-0.24,3.34c-0.35,1.63-0.48,2.72-1.91,3.82c-3.1,2.39-6.44,1.89-4.54,2.63
			c0.36,0.14,0.63,0.04,0.96,0.24c1.06,0.66-0.67,1.88-1.43,2.86c-1.23,1.59-2.63,1.67-4.3,2.87c-0.44,0.32,1.8,0.19,1.67,0.72
			c-0.24,0.96-0.69,2.02-1.67,2.87c-1.37,1.19-2.89,0.21-4.53,0.95c-1.1,0.51-1.52,1.18-2.63,1.67c-1.65,0.73-2.73,1.1-4.54,0.95
			c-1.62-0.13-2.38-2.42-3.82-1.67c-0.89,0.46-1.61,1.15-1.43,2.15c0.19,1.07,1.57,0.68,2.63,0.96c1.81,0.47,2.9,0.42,4.77,0.48
			c0.74,0.02,2.31-0.88,1.91,0c-1.19,2.63-2.63,3.1-4.06,4.06c-1.44,0.96,1.43,1.67,2.62,3.58c0.99,1.58-0.95,0.48-4.77,0.24
			c-3.58-0.22-5.62-1.68-8.35-4.06c-1.55-1.35-1.67-1.91-3.34-4.06c-0.63-0.81-1.6,0.22-2.63,0.24c-1.21,0.02-1.96-0.63-3.1-0.24
			c-1.38,0.47-1.37,1.83-2.39,2.87c-2.41,2.44-4.1,3.81-7.4,4.77c-2.42,0.71-4.06,1.67-6.45,0.48c-1.6-0.8,2.98-2.01,2.39-3.58
			c-0.45-1.19-1.84-0.92-2.63-1.91c-0.6-0.75-1.17-1.19-1.19-2.15c-0.05-1.97,2.39,0.71,5.01-0.48c1.61-0.73,4.3,0.34,4.3-1.43
			c0-1.01-0.58-1.61-1.43-2.15c-1.62-1.03-2.62,1.78-4.54,1.91c-1.71,0.12-2.76-0.19-4.3-0.95c-1.25-0.62-1.57-1.62-2.87-2.15
			c-1.31-0.53-2.33,0.16-3.58-0.48c-1.35-0.69-1.91-0.96-2.63-2.87c-0.27-0.7,1.48-0.23,1.67-0.95c0.31-1.21-1.87-0.67-2.87-1.43
			c-1.54-1.18-3.49-2.22-2.87-4.06c0.14-0.39,0.81-0.71,0.48-0.96c-0.95-0.72-3.34-0.97-4.54-2.63c-0.66-0.91-0.92-1.53-1.19-2.63
			c-0.36-1.45,0.33-2.44-0.24-3.82c-0.67-1.65-2.31-1.75-3.11-3.34c-1-2.01-0.8-3.52-0.48-5.73c0.11-0.76,1.09-1.45,0.48-1.91
			c-0.95-0.72-1.45-1.6-1.91-2.87c-0.67-1.84-0.85-3.25,0-5.01c0.29-0.61,0.37-1.11,0.96-1.43c0.41-0.23,1.27,0.23,1.19-0.24
			c-0.24-1.43-1.43-2.15-0.96-5.25c0.44-2.89,2.61-3.55,2.87-6.21c0.13-1.39-0.6-2.23-0.24-3.58c0.48-1.79,1.43-3.34,3.1-3.58
			c0.52-0.07,0.51,0.58,0.96,0.72c1.13,0.35,1.11-1.57,2.15-2.15C90.54,113.44,93.18,112.94,93.03,113.45z"/>
		<path fill="none" stroke="#000000" stroke-width="0.5726" stroke-miterlimit="3.864" d="M130.27,180.3c3.44,0,3.81,2.61,5.52,2.61
			c0.57,0,1.15-0.57,1.15-1.15c0-1.72-2.52-2.09-3.09-2.66l-0.73-0.02 M134.65,178.33h1.15c1.53,0,2.87,1.34,5.16,1.34
			c2.29,0,4.01,0,4.96-1.53c-0.57,2.87-3.44,4.97-5.16,5.73c1.33,1.33,1.91,3.05,3.82,3.63c-1.34,0.38-2.29,0.77-3.25,0.77
			c-5.35,0-12.6-5.54-14.32-8.98 M135.13,170.26c-0.96,0-1.27,0.25-2.23,0.25c0,0.38-0.64,0.89-0.64,0.89 M133.7,168.35
			c-0.96,0-1.27,0.26-2.23,0.26c0,0.38-0.64,0.89-0.64,0.89 M126.69,171.71c1.4-3.57,2.61-5.22,4.71-5.22
			c1.34,0,5.54,7.45,5.54,8.78c0,3.44-5.73,4.77-8.02,4.77c-0.57,0-1.8-0.13-1.99-0.7l0.27-0.06c2.67-1.53,4.03-6.15,7.85-6.15
			c1.34,0,1.89,0.8,1.89,1.94 M118.34,180.3c-3.44,0-3.8,2.61-5.52,2.61c-0.57,0-1.15-0.57-1.15-1.15c0-1.72,2.51-2.09,3.09-2.66
			l0.73-0.02 M113.96,178.33h-1.15c-1.53,0-2.87,1.34-5.16,1.34c-2.29,0-4.01,0-4.96-1.53c0.57,2.87,3.44,4.97,5.16,5.73
			c-1.34,1.33-1.91,3.05-3.82,3.63c1.34,0.38,2.29,0.77,3.25,0.77c5.35,0,12.61-5.54,14.32-8.98 M113.48,170.26
			c0.96,0,1.27,0.25,2.23,0.25c0,0.38,0.64,0.89,0.64,0.89 M114.91,168.35c0.96,0,1.27,0.26,2.23,0.26c0,0.38,0.64,0.89,0.64,0.89
			 M121.92,171.71c-1.4-3.57-2.61-5.22-4.71-5.22c-1.34,0-5.54,7.45-5.54,8.78c0,3.44,5.73,4.77,8.02,4.77c0.57,0,1.8-0.13,1.99-0.7
			l-0.27-0.06c-2.67-1.53-4.03-6.15-7.85-6.15c-1.34,0-1.89,0.8-1.89,1.94 M122.87,171.23c-1.19,0-1.91,1.62-1.91,4.3
			c0,2.86,0.72,4.53,3.58,4.3c3.81-0.32,3.34-1.19,3.1-4.3c0,0,0-4.06-0.95-4.3C125.28,170.88,124.78,171.23,122.87,171.23z
			 M88.43,119.7c0.76-1.91,1.15-2.48,2.68-3.44 M85.57,122.94v-4.77 M85.87,126.59c0.19-2.1,2.95-2.3,4.29-3.07 M84.04,134.02
			c-0.76-2.29-0.38-3.63,0-5.92 M86.52,138.99v-1.34c0-1.91,1.72-3.24,1.72-5.16 M84.04,143.76v-1.72c0-1.91-1.34-2.29-2.29-3.82
			 M87.1,147.2c-0.19-0.57,0-0.96,0-1.53c0-1.53,2.1-2.1,2.1-3.63h0.19 M86.33,154.08c-0.57-3.44-2.1-4.58-3.63-6.88 M91.12,155.71
			c-1.19-1.91-0.39-3.16-0.39-5.07 M94.16,162.48c-1.53-2.68-5.16-2.68-6.11-4.2 M99.32,164.96c-0.95-2.48-1.53-3.63-2.86-4.96
			 M100.27,168.21c-1.72-0.95-3.05-0.95-4.77-0.95h-1.72 M103.14,171.46h-1.34l-3.82,0.95h-0.19 M106.58,171.65
			c-2.48-0.38-3.82-3.82-4.01-5.16 M111.16,174.89c-3.05,0.38-3.63,0-5.16,0 M112.61,172.43c-1.91-0.48-2.59-1.92-3.36-3.07
			 M87.06,116.08l2.39-2.39l3.82-0.72l0.24,3.34c-0.24,1.43-1.25,3.19-1.64,3.57 M83.47,123.52c-0.19-0.38-0.76-1.34-0.76-1.91
			c0-3.44,1.11-4.72,3.4-6.24c0.57,1.34,1.19,1.67,1.67,2.87l0.48,2.63 M85.19,125.24c0.76-4.96,4.58-3.82,7.83-6.11v3.44
			c-1.15,3.44-2.29,4.77-4.2,6.68 M81.57,134.71c-0.19-0.57-1.17-3.01-1.19-3.58c-0.24-5.49,1.94-5.31,2.52-8.18
			c1.72,2.29,3.45,2.45,4.17,6.98 M83.48,135.66c0.76-4.58,3.82-6.21,6.29-6.98c0.19,0.96,1.15,3.25,1.15,4.58
			c0,1.15-1.28,4.6-1.47,4.79 M80.79,144.34c-1.53-1.53-2.1-3.25-2.1-5.54c0-2.68,1.15-3.05,1.15-5.35
			c2.29,1.72,5.31,1.73,6.68,6.49 M84.23,144.72c0.77-4.97,2.83-5.48,6.41-7.39c0,2.29,0.96,2.63,0.96,4.54
			c0,1.53-1.45,5.14-1.64,5.91 M84.04,154.46c-0.38,0-3.9-2.52-3.9-5.19c0-2.48,1.04-4.36,1.42-6.46c2.67,2.68,4.79,1.92,6.22,7.65
			 M87.54,154.52c-0.19-0.57-0.16-1.98-0.06-2.54c1.02-5.81,3.82-3.44,4.39-6.87c1.15,3.44,1.4,3.07,2.35,6.32
			c0,0,0.95,2.86-0.25,4.95 M93.27,159.05c-0.66-3.9-5.01-5.49-9.07-4.3c-0.19,0.96,0.48,2.67,0.48,3.82c0,3.25,2.15,4.06,6.45,5.73
			 M94.73,164.01c-0.76-1.15-1.53-2.29-1.53-3.82c0-1.53,1.15-3.05,0-4.2c4.36,0.21,6.27,1.4,7.46,7.13 M100.43,175.29l-4.3-0.96
			c-1.43-0.71-1.02-1.54-2.54-3.07c0.76-0.38,1.15-0.76,1.91-0.96 M100.66,169.74c-1.53,0.76-1.91,0.95-3.25,0.95
			c-3.25,0-7.45-3.44-8.02-5.92c2.87,0.57,3.82-0.76,6.11-0.76c2.29,0,2.87,1.34,4.77,1.91 M105.62,172.22
			c-2.29-0.38-2.86-1.53-4.77-1.91c0-1.15-0.95-1.91-1.15-3.05l1.69-5.57c1.53,0.76,4.77,3.87,4.77,5.97l-0.16-0.78 M111.89,175.53
			c-1.53,0.76-3.98,2.42-5.51,2.42c-2.87,0-5.73-2.48-6.68-3.82c4.01,0,4.58-2.1,8.4-2.1 M113.64,170.69
			c-1.34-3.63-2.95-4-7.45-5.92v3.82c0,3.25,3.02,4.17,5.7,5.51 M160.18,119.7c-0.76-1.91-1.15-2.48-2.67-3.44 M163.04,122.94v-4.77
			 M162.75,126.59c-0.19-2.1-2.95-2.3-4.29-3.07 M164.57,134.02c0.76-2.29,0.38-3.63,0-5.92 M162.09,138.99v-1.34
			c0-1.91-1.72-3.24-1.72-5.16 M164.57,143.76v-1.72c0-1.91,1.34-2.29,2.29-3.82 M161.52,147.2c0.19-0.57,0-0.96,0-1.53
			c0-1.53-2.1-2.1-2.1-3.63h-0.19 M162.28,154.08c0.57-3.44,2.1-4.58,3.63-6.88 M157.49,155.71c1.19-1.91,0.39-3.16,0.39-5.07
			 M154.45,162.48c1.53-2.68,5.16-2.68,6.11-4.2 M149.29,164.96c0.96-2.48,1.53-3.63,2.87-4.96 M148.34,168.21
			c1.72-0.95,3.06-0.95,4.78-0.95h1.72 M145.47,171.46h1.34l3.82,0.95h0.19 M142.04,171.65c2.48-0.38,3.82-3.82,4.01-5.16
			 M137.45,174.89c3.05,0.38,3.63,0,5.16,0 M136,172.43c1.91-0.48,2.6-1.92,3.36-3.07 M161.55,116.08l-2.39-2.39l-3.82-0.72
			l-0.24,3.34c0.24,1.43,1.25,3.19,1.64,3.57 M165.14,123.52c0.19-0.38,0.76-1.34,0.76-1.91c0-3.44-1.11-4.72-3.4-6.24
			c-0.57,1.34-1.19,1.67-1.67,2.87l-0.48,2.63 M163.42,125.24c-0.76-4.96-4.58-3.82-7.83-6.11v3.44c1.14,3.44,2.29,4.77,4.2,6.68
			 M167.04,134.71c0.19-0.57,1.17-3.01,1.19-3.58c0.24-5.49-1.94-5.31-2.52-8.18c-1.72,2.29-3.45,2.45-4.17,6.98 M165.13,135.66
			c-0.77-4.58-3.82-6.21-6.29-6.98c-0.19,0.96-1.14,3.25-1.14,4.58c0,1.15,1.27,4.6,1.47,4.79 M167.82,144.34
			c1.53-1.53,2.1-3.25,2.1-5.54c0-2.68-1.14-3.05-1.14-5.35c-2.29,1.72-5.31,1.73-6.69,6.49 M164.38,144.72
			c-0.76-4.97-2.83-5.48-6.41-7.39c0,2.29-0.95,2.63-0.95,4.54c0,1.53,1.44,5.14,1.63,5.91 M164.57,154.46c0.38,0,3.9-2.52,3.9-5.19
			c0-2.48-1.04-4.36-1.42-6.46c-2.68,2.68-4.79,1.92-6.22,7.65 M161.08,154.52c0.19-0.57,0.16-1.98,0.06-2.54
			c-1.02-5.81-3.82-3.44-4.39-6.87c-1.14,3.44-1.4,3.07-2.35,6.32c0,0-0.96,2.86,0.25,4.95 M155.34,159.05
			c0.66-3.9,5.01-5.49,9.07-4.3c0.19,0.96-0.48,2.67-0.48,3.82c0,3.25-2.15,4.06-6.45,5.73 M153.88,164.01
			c0.76-1.15,1.53-2.29,1.53-3.82c0-1.53-1.15-3.05,0-4.2c-4.36,0.21-6.27,1.4-7.46,7.13 M148.18,175.29l4.3-0.96
			c1.43-0.71,1.02-1.54,2.54-3.07c-0.77-0.38-1.15-0.76-1.91-0.96 M147.96,169.74c1.53,0.76,1.91,0.95,3.25,0.95
			c3.25,0,7.45-3.44,8.02-5.92c-2.87,0.57-3.82-0.76-6.11-0.76c-2.29,0-2.87,1.34-4.78,1.91 M142.99,172.22
			c2.29-0.38,2.86-1.53,4.77-1.91c0-1.15,0.95-1.91,1.15-3.05l-1.68-5.57c-1.53,0.76-4.78,3.87-4.78,5.97l0.16-0.78 M136.72,175.53
			c1.53,0.76,3.98,2.42,5.51,2.42c2.87,0,5.73-2.48,6.69-3.82c-4.01,0-4.59-2.1-8.4-2.1 M134.97,170.69c1.34-3.63,2.95-4,7.45-5.92
			v3.82c0,3.25-3.02,4.17-5.7,5.51"/>
	</g>
	<polygon fill-rule="evenodd" clip-rule="evenodd" fill="#FFFFFF" points="218.23,169.96 214.47,172.38 215.68,168.35 
		212.59,165.26 216.69,165.26 218.17,160.69 219.64,165.26 223.75,165.26 220.65,168.35 221.86,172.38 	"/>
	<polygon fill-rule="evenodd" clip-rule="evenodd" fill="#FFFFFF" points="30.86,169.96 34.62,172.38 33.41,168.35 36.5,165.26 
		32.4,165.26 30.92,160.69 29.44,165.26 25.34,165.26 28.44,168.35 27.23,172.38 	"/>
	<path fill="#FFFFFF" d="M80.3,179.47l-0.21,0.23c-0.04-0.01-0.11-0.03-0.2-0.05c-0.18-0.04-0.35-0.07-0.52-0.09
		c-0.42,0.39-1.07,1.06-1.95,2.02l-0.71,0.78c-0.38,0.42-0.94,1.04-1.66,1.86c-0.4,0.45-0.64,0.76-0.72,0.91
		c-0.02,0.04-0.03,0.07-0.02,0.1c0,0.05,0.02,0.1,0.06,0.16c0.04,0.06,0.21,0.27,0.51,0.63l-0.35,0.38l-1.68-1.61
		c-0.2-0.18-0.59-0.52-1.17-1.01c-0.42-0.36-0.74-0.65-0.99-0.87c-0.56-0.51-0.98-0.95-1.25-1.33c-0.27-0.38-0.47-0.75-0.58-1.13
		c-0.11-0.38-0.16-0.75-0.14-1.11c0.02-0.37,0.09-0.7,0.22-1.02c0.22-0.53,0.54-1.04,0.98-1.51c0.56-0.6,1.16-1.04,1.82-1.32
		c0.66-0.27,1.33-0.39,2-0.36c0.68,0.04,1.31,0.19,1.89,0.46c0.58,0.27,1.19,0.7,1.83,1.28l1.37,1.33L80.3,179.47z M77.86,178.31
		c-0.25-0.31-0.51-0.59-0.78-0.84c-0.42-0.38-0.83-0.67-1.23-0.88c-0.3-0.15-0.6-0.24-0.89-0.28c-0.29-0.04-0.64-0.01-1.03,0.09
		c-0.39,0.1-0.79,0.28-1.19,0.54c-0.4,0.26-0.79,0.58-1.15,0.98c-0.33,0.36-0.61,0.75-0.82,1.17c-0.22,0.42-0.34,0.86-0.36,1.3
		c-0.03,0.44,0.07,0.87,0.28,1.27c0.21,0.4,0.64,0.9,1.28,1.49c0.24,0.22,0.53,0.44,0.86,0.67c0.45-0.42,1.24-1.25,2.38-2.49l1-1.09
		C77.07,179.28,77.62,178.64,77.86,178.31 M62.35,174c0.48,0.51,0.97,1.07,1.48,1.67c0.45,0.54,0.84,1.02,1.16,1.46l0.44-0.37
		c-0.28-0.37-0.44-0.58-0.48-0.65c-0.03-0.07-0.05-0.12-0.04-0.16c0.01-0.04,0.03-0.08,0.06-0.13c0.09-0.11,0.33-0.35,0.73-0.72
		c0.17-0.18,0.58-0.54,1.24-1.09l2.05-1.73c0.33-0.28,0.71-0.58,1.11-0.89c0.28-0.21,0.45-0.33,0.5-0.35
		c0.03-0.02,0.08-0.02,0.12-0.02c0.04,0.01,0.1,0.04,0.17,0.1c0.05,0.04,0.24,0.24,0.54,0.57l0.44-0.37
		c-0.38-0.39-0.79-0.85-1.23-1.38c-0.51-0.61-0.98-1.19-1.4-1.75l-0.44,0.37c0.26,0.32,0.41,0.52,0.45,0.6
		c0.04,0.08,0.06,0.14,0.06,0.2c0,0.05-0.02,0.1-0.05,0.16c-0.08,0.12-0.28,0.32-0.62,0.6l-0.88,0.79l-1.98,1.67
		c-0.06,0.05-0.5,0.42-1.32,1.08c-0.24,0.2-0.4,0.33-0.49,0.4c-0.17,0.12-0.29,0.19-0.36,0.22c-0.04,0.02-0.08,0.02-0.13,0.01
		c-0.04-0.01-0.1-0.04-0.17-0.09c-0.07-0.05-0.25-0.24-0.54-0.56L62.35,174 M58.99,165.23c-0.37,0.23-0.68,0.41-0.91,0.54
		c-0.24,0.13-0.49,0.24-0.76,0.34l-0.1,0.13c0.05,0.35,0.15,0.72,0.32,1.12c0.17,0.4,0.39,0.79,0.64,1.17
		c0.25,0.36,0.52,0.69,0.84,0.98c0.31,0.29,0.65,0.51,1.03,0.67c0.37,0.15,0.78,0.2,1.23,0.14c0.45-0.06,0.87-0.22,1.27-0.49
		c0.29-0.19,0.52-0.42,0.71-0.68c0.19-0.26,0.3-0.54,0.35-0.85c0.05-0.31,0.02-0.64-0.1-1.01c-0.08-0.24-0.27-0.74-0.56-1.48
		c-0.2-0.52-0.31-0.9-0.34-1.14c-0.02-0.24,0.02-0.46,0.12-0.65c0.1-0.19,0.27-0.36,0.49-0.51c0.26-0.18,0.54-0.28,0.84-0.3
		c0.29-0.02,0.58,0.06,0.88,0.24c0.3,0.19,0.56,0.45,0.79,0.79c0.26,0.39,0.42,0.8,0.47,1.24c0.05,0.44,0.02,0.8-0.11,1.08
		c-0.35,0.3-0.65,0.54-0.92,0.7l0.3,0.44c0.83-0.55,1.49-0.91,1.97-1.06c-0.08-0.54-0.19-1.01-0.34-1.41
		c-0.15-0.4-0.37-0.81-0.67-1.25c-0.4-0.6-0.83-1.06-1.29-1.37c-0.29-0.2-0.62-0.35-1.01-0.45c-0.39-0.11-0.76-0.15-1.11-0.11
		c-0.47,0.04-0.94,0.22-1.39,0.52c-0.26,0.17-0.47,0.36-0.63,0.57c-0.16,0.21-0.28,0.41-0.34,0.61c-0.07,0.2-0.09,0.42-0.08,0.67
		c0.02,0.25,0.08,0.54,0.2,0.88c0.05,0.13,0.16,0.4,0.35,0.81c0.18,0.41,0.32,0.74,0.42,0.98c0.11,0.32,0.17,0.58,0.18,0.77
		c0.01,0.2-0.04,0.38-0.13,0.56c-0.09,0.17-0.26,0.34-0.49,0.5c-0.33,0.22-0.7,0.28-1.13,0.18c-0.42-0.1-0.8-0.39-1.12-0.88
		c-0.23-0.34-0.38-0.69-0.44-1.04c-0.06-0.35-0.05-0.64,0.03-0.86c0.15-0.14,0.43-0.36,0.84-0.64L58.99,165.23 M58.06,151.96
		c0.42,0.3,0.76,0.61,1.02,0.92c0.26,0.31,0.48,0.66,0.68,1.05c0.29,0.6,0.45,1.15,0.46,1.66c0.01,0.38-0.06,0.79-0.22,1.24
		c-0.16,0.45-0.42,0.88-0.8,1.29c-0.38,0.41-0.87,0.77-1.5,1.07c-1.03,0.5-1.97,0.62-2.8,0.35c-0.84-0.26-1.48-0.85-1.92-1.75
		c-0.25-0.5-0.38-0.94-0.4-1.33c-0.03-0.38,0.03-0.77,0.18-1.16c0.24-0.15,0.57-0.33,0.98-0.54l-0.22-0.45
		c-0.37,0.16-0.79,0.32-1.25,0.47c-0.29,0.1-0.54,0.16-0.75,0.18l-0.06,0.06c0.07,0.64,0.17,1.19,0.3,1.64
		c0.13,0.45,0.31,0.94,0.57,1.45c0.74,1.52,1.69,2.5,2.87,2.96c1.18,0.45,2.37,0.39,3.59-0.2c0.71-0.35,1.3-0.81,1.77-1.39
		c0.31-0.38,0.56-0.82,0.73-1.33c0.18-0.51,0.25-1.06,0.22-1.66c-0.05-0.75-0.27-1.54-0.67-2.36c-0.28-0.57-0.56-1.03-0.84-1.37
		c-0.28-0.34-0.67-0.68-1.16-1.04l-0.71,0.02L58.06,151.96z M48.71,148.44c0.26,0.65,0.52,1.34,0.78,2.09
		c0.23,0.66,0.41,1.25,0.56,1.77l0.54-0.19c-0.13-0.44-0.2-0.7-0.21-0.78c-0.01-0.08,0-0.13,0.02-0.17c0.02-0.03,0.05-0.07,0.1-0.1
		c0.12-0.07,0.43-0.21,0.94-0.41c0.22-0.1,0.74-0.29,1.55-0.57l2.54-0.88c0.42-0.14,0.87-0.29,1.36-0.43
		c0.34-0.09,0.54-0.14,0.59-0.15c0.04,0,0.08,0.01,0.12,0.03c0.04,0.02,0.08,0.07,0.13,0.15c0.03,0.06,0.14,0.31,0.3,0.73l0.54-0.19
		c-0.21-0.5-0.43-1.07-0.65-1.72c-0.26-0.75-0.49-1.46-0.68-2.14l-0.54,0.19c0.13,0.4,0.2,0.64,0.21,0.72
		c0.01,0.09,0.01,0.16-0.01,0.21c-0.02,0.05-0.05,0.09-0.1,0.13c-0.11,0.08-0.38,0.2-0.79,0.34l-1.1,0.42l-2.45,0.85
		c-0.08,0.03-0.62,0.21-1.62,0.54c-0.29,0.1-0.49,0.16-0.6,0.19c-0.2,0.06-0.34,0.08-0.42,0.08c-0.04,0-0.09-0.01-0.12-0.03
		c-0.04-0.03-0.08-0.07-0.12-0.14c-0.05-0.07-0.15-0.31-0.3-0.72L48.71,148.44 M48.24,144.84c0-0.11,0-0.18,0.02-0.23
		c0.02-0.04,0.04-0.08,0.07-0.1c0.05-0.04,0.13-0.08,0.26-0.12c0.12-0.04,0.44-0.12,0.94-0.25l1.17-0.3l2.22-0.51
		c0.82-0.19,1.57-0.34,2.25-0.44c0.25-0.04,0.41-0.05,0.47-0.04c0.05,0.01,0.09,0.04,0.11,0.07c0.09,0.1,0.19,0.39,0.31,0.85
		l0.56-0.13c-0.16-0.53-0.31-1.09-0.44-1.69c-0.12-0.54-0.29-1.35-0.5-2.43l-0.56,0.13l0.14,0.85c0.01,0.11,0,0.18-0.02,0.23
		c-0.02,0.04-0.05,0.08-0.09,0.11c-0.09,0.05-0.31,0.13-0.68,0.23c-0.62,0.17-1.22,0.32-1.81,0.45l-2.37,0.54l-1.23,0.27
		c-0.5,0.11-0.89,0.19-1.15,0.23c-0.12-0.27-0.21-0.53-0.27-0.76c-0.11-0.49-0.05-0.9,0.17-1.24c0.23-0.34,0.62-0.58,1.2-0.71
		c0.55-0.13,0.99-0.09,1.34,0.1c0.35,0.2,0.57,0.5,0.66,0.9c0.02,0.07,0.03,0.14,0.03,0.23c0,0.09,0,0.18-0.01,0.27l0.17,0.1
		c0.15-0.15,0.28-0.26,0.39-0.32c0-0.13-0.01-0.26-0.02-0.39c-0.02-0.13-0.04-0.27-0.07-0.4c-0.12-0.53-0.37-1-0.74-1.4
		c-0.37-0.4-0.78-0.67-1.23-0.8c-0.46-0.13-0.92-0.14-1.39-0.03c-0.47,0.11-0.83,0.31-1.07,0.61c-0.25,0.3-0.39,0.62-0.43,0.96
		c-0.04,0.34,0,0.79,0.13,1.33l0.71,2.78l0.37,1.86l0.52-0.12L48.24,144.84z M54.64,134.29c-0.12-0.85-0.2-1.49-0.24-1.91
		c-0.03-0.28-0.07-0.77-0.12-1.48c-0.07-0.93-0.11-1.43-0.12-1.51c-0.05-0.55-0.1-0.95-0.15-1.21c-0.03-0.12-0.06-0.25-0.11-0.37
		c-0.08,0-0.33,0.01-0.73,0.02l-1.31-0.03c-0.02,0-0.09,0-0.21,0l0.05,0.53c0.43,0.04,0.81,0.09,1.15,0.14
		c0.13,0.03,0.22,0.05,0.25,0.09c0.03,0.03,0.07,0.13,0.11,0.31c0.12,0.47,0.21,1.04,0.27,1.68c0.02,0.21,0.04,0.62,0.07,1.21
		c-0.13,0.02-0.49,0.06-1.09,0.13c-0.6,0.07-1.2,0.13-1.81,0.2c-1.15,0.12-1.77,0.18-1.85,0.19c-0.72,0.07-1.31,0.12-1.78,0.15
		c-0.47,0.03-0.74,0.04-0.8,0.03c-0.06-0.02-0.1-0.05-0.14-0.09c-0.07-0.1-0.13-0.4-0.2-0.89l-0.57,0.06c0.1,0.69,0.2,1.43,0.27,2.2
		c0.07,0.69,0.11,1.32,0.13,1.86l0.57-0.06c-0.03-0.56-0.02-0.89,0.03-1c0.02-0.05,0.06-0.09,0.11-0.11
		c0.11-0.05,0.57-0.12,1.37-0.22c0.32-0.04,1.15-0.13,2.5-0.26c0.92-0.09,1.7-0.16,2.36-0.21c0.66-0.05,1.04-0.08,1.15-0.06
		c0.03,0,0.05,0.01,0.07,0.03c0.04,0.03,0.09,0.08,0.15,0.17c0.14,0.2,0.24,0.35,0.3,0.46L54.64,134.29 M45,121.27
		c0.03,0.7,0.04,1.44,0.03,2.23c-0.01,0.7-0.03,1.32-0.07,1.86l0.57,0.01c0.02-0.46,0.04-0.73,0.06-0.8
		c0.02-0.08,0.05-0.13,0.08-0.15c0.03-0.03,0.07-0.05,0.13-0.06c0.14-0.03,0.48-0.05,1.02-0.07c0.25-0.02,0.79-0.03,1.65-0.02
		l2.69,0.03c0.44,0.01,0.91,0.02,1.43,0.05c0.35,0.03,0.55,0.04,0.6,0.06c0.04,0.01,0.07,0.03,0.1,0.06
		c0.03,0.03,0.05,0.1,0.07,0.19c0.01,0.07,0.03,0.33,0.04,0.79l0.57,0.01c-0.03-0.54-0.04-1.15-0.03-1.85
		c0.01-0.79,0.03-1.54,0.08-2.24l-0.57,0c-0.01,0.41-0.03,0.67-0.05,0.75c-0.02,0.09-0.04,0.15-0.08,0.19
		c-0.03,0.04-0.08,0.07-0.14,0.08c-0.13,0.04-0.42,0.06-0.86,0.06l-1.18,0.02l-2.59-0.03c-0.08,0-0.65-0.01-1.7-0.04
		c-0.31-0.01-0.52-0.01-0.63-0.02c-0.21-0.01-0.34-0.04-0.42-0.07c-0.04-0.01-0.08-0.04-0.1-0.07c-0.03-0.03-0.05-0.09-0.07-0.18
		c-0.02-0.08-0.03-0.34-0.04-0.78L45,121.27 M53.98,119.35c0.06-0.71,0.12-1.28,0.18-1.69c0.02-0.11,0.09-0.57,0.23-1.37l-0.55-0.08
		c0,0.06-0.01,0.1-0.01,0.13c-0.02,0.13-0.06,0.33-0.14,0.6c-0.03,0.1-0.06,0.17-0.1,0.21c-0.04,0.04-0.08,0.06-0.14,0.07
		c-0.11,0.02-0.41,0-0.91-0.05c-0.72-0.07-1.4-0.14-2.06-0.24l-3.16-0.45c3.43-2.08,6.01-3.7,7.73-4.85
		c0.1-0.37,0.21-0.73,0.32-1.08l-0.04-0.09c-0.61-0.03-2.33-0.24-5.16-0.63c-0.36-0.05-0.92-0.14-1.68-0.26
		c-0.76-0.13-1.24-0.23-1.44-0.33c-0.04-0.02-0.07-0.05-0.09-0.08c-0.05-0.11-0.04-0.42,0.02-0.95l-0.53-0.08
		c-0.06,0.67-0.12,1.22-0.18,1.64c-0.06,0.44-0.15,0.91-0.26,1.42l0.53,0.08c0.09-0.56,0.18-0.89,0.27-0.98
		c0.06-0.05,0.16-0.08,0.32-0.07c0.41,0.01,1.76,0.17,4.05,0.49l1.48,0.21c-0.69,0.5-1.64,1.13-2.84,1.87
		c-1.67,1.03-3.13,1.9-4.4,2.61l-0.06,0.59l-0.1,0.92c-0.03,0.25-0.11,0.65-0.22,1.18l0.53,0.07c0.09-0.44,0.16-0.71,0.2-0.8
		c0.04-0.09,0.08-0.15,0.13-0.18s0.12-0.05,0.22-0.06c0.1-0.01,0.3,0.01,0.61,0.05l1.86,0.22l2.04,0.29
		c0.56,0.08,1.02,0.15,1.37,0.22c0.61,0.12,1,0.2,1.16,0.25c0.11,0.04,0.19,0.08,0.22,0.11c0.03,0.04,0.05,0.08,0.07,0.13
		c0.01,0.08-0.01,0.37-0.05,0.88L53.98,119.35z M55.77,107.79l-0.51-0.16c0.08-0.34,0.12-0.54,0.12-0.61c0-0.07-0.01-0.13-0.03-0.19
		c-0.03-0.06-0.07-0.12-0.14-0.2c-0.07-0.07-0.34-0.31-0.8-0.71c-0.22-0.19-0.66-0.55-1.31-1.09l-3.45-2.84l-1.22-0.98l0.27-0.87
		l7.27-0.73l0.96-0.12l0.64-0.07c0.09-0.02,0.15-0.04,0.2-0.07c0.04-0.03,0.08-0.06,0.11-0.1c0.03-0.04,0.08-0.16,0.15-0.34
		c0.03-0.06,0.07-0.15,0.12-0.26l0.51,0.16l-0.59,1.69l-0.62,2.17l-0.51-0.16c0.14-0.5,0.2-0.79,0.18-0.86
		c-0.01-0.08-0.06-0.13-0.14-0.15c-0.1-0.03-0.28-0.04-0.55-0.02l-1.51,0.1l-1,3.17l0.65,0.5c0.5,0.38,0.82,0.59,0.96,0.63
		c0.1,0.03,0.18,0.02,0.24-0.03c0.09-0.08,0.21-0.36,0.39-0.84l0.51,0.16l-0.5,1.4L55.77,107.79z M53.28,104.05
		c0.15-0.38,0.29-0.81,0.44-1.3c0.15-0.47,0.27-0.9,0.36-1.28l-3.58,0.32L53.28,104.05z M82.11,57.56c0.1-0.03,0.18-0.05,0.22-0.05
		c0.05,0,0.09,0.01,0.12,0.03c0.05,0.03,0.12,0.1,0.19,0.21c0.08,0.1,0.25,0.38,0.52,0.82l0.64,1.03l1.15,1.96
		c0.43,0.72,0.79,1.39,1.1,2.01c0.11,0.23,0.17,0.37,0.18,0.44c0,0.05-0.01,0.09-0.03,0.13c-0.08,0.12-0.31,0.3-0.72,0.55l0.29,0.49
		c0.46-0.31,0.96-0.62,1.48-0.93c0.48-0.28,1.2-0.68,2.17-1.21l-0.29-0.49l-0.77,0.38c-0.1,0.04-0.18,0.05-0.23,0.05
		c-0.05-0.01-0.09-0.02-0.13-0.05c-0.08-0.07-0.22-0.26-0.42-0.57c-0.35-0.54-0.67-1.07-0.97-1.59l-1.23-2.1l-0.62-1.1
		c-0.26-0.44-0.44-0.79-0.56-1.03c0.22-0.2,0.44-0.36,0.65-0.48c0.43-0.25,0.85-0.32,1.24-0.21c0.39,0.11,0.74,0.42,1.03,0.93
		c0.28,0.48,0.39,0.92,0.3,1.31c-0.08,0.39-0.3,0.69-0.66,0.9c-0.06,0.03-0.13,0.07-0.21,0.1c-0.08,0.03-0.17,0.05-0.27,0.08
		l-0.04,0.19c0.19,0.1,0.33,0.19,0.43,0.27c0.13-0.04,0.25-0.09,0.37-0.14c0.12-0.05,0.24-0.11,0.36-0.18
		c0.47-0.28,0.84-0.65,1.12-1.12c0.27-0.47,0.4-0.94,0.39-1.42c-0.02-0.47-0.15-0.92-0.39-1.33s-0.55-0.7-0.9-0.84
		c-0.36-0.15-0.7-0.19-1.04-0.12c-0.34,0.06-0.75,0.24-1.24,0.52l-2.44,1.51l-1.67,0.92l0.27,0.46L82.11,57.56z M89.18,53.42
		c0.49-0.17,0.79-0.26,0.9-0.25c0.05,0.01,0.09,0.03,0.13,0.06c0.08,0.08,0.23,0.37,0.45,0.86l0.57,1.23l0.95,2.19l0.72,1.74
		c0.12,0.32,0.21,0.56,0.25,0.72c0.02,0.09,0.03,0.15,0.02,0.19c-0.01,0.04-0.03,0.07-0.08,0.1c-0.07,0.06-0.33,0.2-0.76,0.41
		l0.23,0.53c0.5-0.26,1.06-0.52,1.67-0.78c0.68-0.3,1.37-0.57,2.06-0.83l-0.23-0.53c-0.38,0.16-0.62,0.24-0.7,0.26
		c-0.08,0.02-0.15,0.02-0.2,0.01c-0.05-0.01-0.08-0.03-0.11-0.05c-0.06-0.05-0.15-0.19-0.25-0.4c-0.06-0.11-0.27-0.56-0.63-1.37
		c-0.3-0.66-0.58-1.28-0.83-1.87c-0.16-0.37-0.47-1.12-0.94-2.25c-0.21-0.5-0.33-0.82-0.38-0.97c0.17-0.11,0.35-0.21,0.54-0.29
		c0.43-0.19,0.74-0.29,0.93-0.3c0.3-0.02,0.59,0.06,0.87,0.22c0.28,0.17,0.5,0.43,0.65,0.79c0.16,0.36,0.21,0.72,0.17,1.08
		c-0.04,0.36-0.16,0.65-0.35,0.87c-0.19,0.22-0.53,0.42-1.01,0.61l0.02,0.22c0.16,0.03,0.33,0.11,0.54,0.23
		c0.4,0.23,0.91,0.57,1.54,1.01l2.18,1.54c0.13,0.1,0.23,0.2,0.29,0.27c0.3-0.17,0.6-0.32,0.92-0.46c0.27-0.12,0.72-0.29,1.34-0.52
		l-0.23-0.52c-0.19,0.08-0.32,0.12-0.39,0.12c-0.08,0-0.16-0.02-0.26-0.06c-0.1-0.04-0.38-0.19-0.85-0.45
		c-0.03-0.02-0.25-0.16-0.65-0.41l-1.51-0.97c-0.04-0.03-0.08-0.05-0.12-0.08c-0.04-0.03-0.16-0.11-0.37-0.24
		c-0.21-0.13-0.4-0.26-0.57-0.39c0.52-0.5,0.85-1.01,0.98-1.53c0.13-0.52,0.09-1.02-0.12-1.5c-0.17-0.4-0.43-0.7-0.77-0.88
		c-0.34-0.19-0.68-0.26-1.02-0.21c-0.35,0.04-0.83,0.2-1.45,0.47c-0.32,0.14-0.72,0.33-1.2,0.56c-0.29,0.15-0.64,0.31-1.05,0.49
		c-0.48,0.21-0.86,0.37-1.13,0.47c-0.55,0.21-0.87,0.34-0.96,0.38L89.18,53.42 M100.74,57.66l-0.15-0.52
		c0.33-0.12,0.52-0.2,0.58-0.23c0.06-0.04,0.11-0.08,0.14-0.13c0.03-0.05,0.06-0.13,0.09-0.22c0.02-0.1,0.08-0.45,0.16-1.06
		c0.04-0.29,0.1-0.85,0.19-1.69l0.49-4.44l0.15-1.56l0.88-0.25l4.59,5.69l0.62,0.74l0.41,0.5c0.06,0.06,0.12,0.1,0.16,0.13
		c0.04,0.02,0.09,0.03,0.15,0.04c0.05,0,0.18-0.02,0.37-0.06c0.06-0.01,0.16-0.03,0.28-0.05l0.15,0.52l-1.74,0.43l-2.16,0.66
		l-0.14-0.52c0.49-0.16,0.77-0.27,0.82-0.32c0.05-0.05,0.07-0.12,0.05-0.2c-0.03-0.1-0.12-0.26-0.28-0.47l-0.91-1.21l-3.2,0.9
		l-0.06,0.81c-0.04,0.63-0.05,1.01-0.01,1.15c0.03,0.1,0.08,0.16,0.16,0.18c0.11,0.03,0.42-0.02,0.92-0.14l0.15,0.52l-1.44,0.35
		L100.74,57.66z M102.52,53.52c0.39-0.09,0.84-0.2,1.33-0.34c0.47-0.14,0.9-0.27,1.27-0.39l-2.22-2.82L102.52,53.52z M111.04,54.93
		c1.31-0.23,2.02-0.35,2.12-0.37c0.38-0.06,1.08-0.15,2.09-0.28l1.03-0.13c0.5-0.07,0.88-0.15,1.15-0.22l0.07-0.09
		c-0.08-0.54-0.13-1.23-0.16-2.09l-0.51,0.08c0,0.58-0.03,0.97-0.07,1.19c-0.02,0.06-0.04,0.11-0.07,0.13
		c-0.08,0.07-0.31,0.15-0.7,0.23c-0.38,0.09-0.8,0.16-1.26,0.23c-0.47,0.07-0.88,0.11-1.23,0.13c-0.06-0.21-0.1-0.46-0.15-0.76
		l-0.39-2.66c0.27-0.08,0.6-0.14,1.02-0.21c0.46-0.07,0.85-0.1,1.15-0.1c0.14,0,0.23,0.04,0.3,0.12c0.09,0.1,0.16,0.4,0.23,0.89
		l0.51-0.08l-0.24-1.38l-0.17-1.4l-0.51,0.08c0.05,0.38,0.06,0.65,0.03,0.82c-0.01,0.07-0.03,0.12-0.07,0.15
		c-0.04,0.03-0.17,0.07-0.4,0.1c-0.6,0.11-0.95,0.17-1.05,0.18c-0.31,0.05-0.62,0.07-0.91,0.08l-0.2-1.31
		c-0.11-0.74-0.17-1.35-0.18-1.84c0.39-0.09,0.77-0.17,1.15-0.22c0.4-0.06,0.82-0.1,1.24-0.11c0.29-0.01,0.46,0,0.52,0.03
		c0.04,0.02,0.07,0.06,0.1,0.12c0.04,0.11,0.11,0.42,0.19,0.92l0.5-0.07c-0.04-0.55-0.07-0.86-0.07-0.92l-0.01-0.93l-0.06-0.08
		c-0.1-0.01-0.18-0.02-0.22-0.01c-0.47,0.05-0.78,0.09-0.93,0.11l-1.29,0.22c-0.71,0.12-1.35,0.22-1.94,0.31
		c-0.27,0.04-0.55,0.08-0.84,0.13l-1.47,0.23l0.07,0.5c0.49-0.05,0.8-0.05,0.92-0.02c0.04,0.02,0.08,0.04,0.11,0.08
		c0.06,0.1,0.14,0.39,0.22,0.86c0.13,0.71,0.21,1.13,0.22,1.24l0.43,2.87c0.05,0.33,0.11,0.86,0.19,1.6
		c0.04,0.4,0.07,0.69,0.07,0.87c-0.15,0.15-0.34,0.31-0.58,0.46L111.04,54.93 M124.34,46.97c0-0.44,0-0.79,0.02-1.06
		c0.02-0.27,0.05-0.54,0.1-0.82l-0.06-0.15c-0.32-0.14-0.69-0.25-1.13-0.31c-0.43-0.07-0.87-0.09-1.33-0.07
		c-0.44,0.02-0.86,0.08-1.28,0.19c-0.41,0.11-0.78,0.29-1.1,0.52c-0.32,0.24-0.58,0.56-0.76,0.97c-0.19,0.41-0.27,0.86-0.25,1.34
		c0.01,0.34,0.08,0.66,0.2,0.96c0.12,0.29,0.3,0.54,0.54,0.74s0.54,0.35,0.91,0.45c0.25,0.06,0.77,0.16,1.55,0.3
		c0.55,0.1,0.93,0.21,1.15,0.32c0.22,0.11,0.38,0.26,0.49,0.44c0.11,0.19,0.17,0.42,0.18,0.69c0.01,0.32-0.05,0.61-0.18,0.87
		c-0.13,0.26-0.36,0.47-0.67,0.62c-0.31,0.16-0.68,0.24-1.08,0.26c-0.47,0.02-0.9-0.07-1.31-0.25c-0.4-0.19-0.69-0.41-0.86-0.67
		c-0.07-0.45-0.11-0.84-0.11-1.15l-0.54,0.02c0.03,1-0.01,1.74-0.13,2.24c0.5,0.22,0.96,0.37,1.38,0.45
		c0.42,0.08,0.89,0.12,1.42,0.09c0.72-0.03,1.34-0.15,1.84-0.38c0.32-0.14,0.62-0.35,0.92-0.62c0.3-0.27,0.52-0.57,0.68-0.89
		c0.21-0.42,0.31-0.91,0.29-1.46c-0.01-0.32-0.07-0.59-0.16-0.84c-0.09-0.25-0.2-0.45-0.34-0.61c-0.13-0.16-0.31-0.3-0.53-0.42
		c-0.22-0.12-0.5-0.22-0.86-0.29c-0.14-0.03-0.43-0.07-0.87-0.13c-0.45-0.06-0.8-0.11-1.05-0.15c-0.33-0.07-0.58-0.16-0.75-0.26
		c-0.17-0.09-0.31-0.23-0.4-0.4c-0.1-0.17-0.15-0.4-0.17-0.68c-0.01-0.4,0.13-0.74,0.44-1.05c0.31-0.31,0.76-0.47,1.34-0.49
		c0.41-0.02,0.78,0.04,1.12,0.18c0.33,0.13,0.57,0.29,0.71,0.47c0.04,0.21,0.08,0.56,0.1,1.05L124.34,46.97 M128.71,44.83
		c-0.7-0.04-1.32-0.09-1.86-0.15l-0.03,0.57c0.46,0.04,0.72,0.07,0.8,0.09c0.08,0.03,0.12,0.05,0.15,0.08
		c0.03,0.03,0.04,0.08,0.05,0.13c0.02,0.14,0.03,0.48,0.02,1.03c0.01,0.24-0.01,0.79-0.05,1.65l-0.14,2.68
		c-0.03,0.44-0.06,0.91-0.11,1.42c-0.04,0.35-0.07,0.55-0.08,0.6c-0.01,0.04-0.03,0.07-0.07,0.1c-0.03,0.03-0.1,0.05-0.19,0.06
		c-0.07,0.01-0.34,0.01-0.79,0l-0.03,0.57c0.54-0.01,1.16,0.01,1.85,0.04c0.79,0.04,1.54,0.1,2.23,0.17l0.03-0.57
		c-0.41-0.03-0.66-0.06-0.75-0.08c-0.09-0.02-0.15-0.05-0.19-0.09c-0.04-0.03-0.06-0.08-0.08-0.14c-0.04-0.13-0.04-0.42-0.02-0.86
		l0.03-1.18l0.13-2.59c0-0.08,0.04-0.65,0.11-1.7c0.02-0.31,0.03-0.52,0.05-0.63c0.02-0.2,0.05-0.34,0.09-0.41
		c0.02-0.04,0.04-0.08,0.08-0.1c0.03-0.03,0.1-0.05,0.18-0.06c0.08-0.02,0.35-0.02,0.78-0.01l0.03-0.57
		C130.23,44.89,129.49,44.87,128.71,44.83 M131.49,53.86l0.05-0.31c0.04-0.02,0.1-0.04,0.19-0.07c0.17-0.06,0.34-0.13,0.49-0.21
		c0.14-0.56,0.32-1.48,0.53-2.75l0.17-1.04c0.09-0.56,0.21-1.38,0.37-2.47c0.09-0.6,0.12-0.98,0.11-1.16
		c-0.01-0.04-0.02-0.07-0.04-0.1c-0.03-0.04-0.08-0.07-0.14-0.1c-0.07-0.03-0.33-0.11-0.77-0.25l0.09-0.51l2.29,0.43
		c0.27,0.04,0.78,0.11,1.53,0.21c0.54,0.07,0.98,0.13,1.3,0.19c0.75,0.12,1.34,0.27,1.77,0.43c0.44,0.16,0.8,0.38,1.1,0.63
		c0.3,0.26,0.54,0.54,0.73,0.86c0.18,0.31,0.31,0.64,0.37,0.98c0.11,0.57,0.11,1.17,0.01,1.8c-0.13,0.81-0.4,1.51-0.8,2.1
		c-0.4,0.59-0.9,1.05-1.48,1.39c-0.59,0.34-1.2,0.56-1.83,0.65c-0.64,0.09-1.38,0.06-2.24-0.08l-1.87-0.36L131.49,53.86z
		 M134.16,53.5c0.38,0.12,0.75,0.21,1.1,0.27c0.56,0.09,1.06,0.12,1.51,0.07c0.33-0.04,0.63-0.12,0.9-0.25
		c0.27-0.13,0.54-0.34,0.81-0.64c0.27-0.29,0.51-0.66,0.71-1.1c0.2-0.44,0.34-0.92,0.43-1.45c0.08-0.48,0.1-0.96,0.05-1.43
		c-0.05-0.47-0.18-0.9-0.4-1.28c-0.22-0.38-0.53-0.69-0.93-0.91c-0.4-0.22-1.03-0.41-1.89-0.55c-0.32-0.05-0.68-0.08-1.08-0.09
		c-0.15,0.59-0.36,1.72-0.63,3.39L134.51,51C134.3,52.26,134.18,53.09,134.16,53.5 M148.12,48.2c-0.68-0.15-1.4-0.34-2.16-0.55
		c-0.67-0.19-1.27-0.37-1.77-0.56l-0.16,0.55c0.44,0.14,0.69,0.23,0.76,0.27c0.07,0.04,0.11,0.08,0.12,0.11
		c0.02,0.04,0.03,0.08,0.03,0.14c-0.01,0.14-0.08,0.47-0.2,1.01c-0.04,0.24-0.18,0.77-0.41,1.59l-0.73,2.59
		c-0.12,0.42-0.26,0.87-0.42,1.36c-0.12,0.33-0.19,0.52-0.21,0.57c-0.02,0.03-0.05,0.06-0.09,0.08c-0.04,0.02-0.11,0.03-0.2,0.02
		c-0.07-0.01-0.33-0.06-0.77-0.17l-0.16,0.55c0.53,0.11,1.13,0.26,1.8,0.45c0.76,0.21,1.48,0.43,2.14,0.66l0.16-0.55
		c-0.4-0.12-0.63-0.2-0.72-0.24c-0.08-0.04-0.13-0.09-0.16-0.13c-0.03-0.04-0.04-0.09-0.04-0.16c0-0.14,0.05-0.42,0.17-0.85
		l0.28-1.14l0.7-2.5c0.02-0.08,0.18-0.62,0.48-1.64c0.09-0.29,0.15-0.5,0.19-0.6c0.07-0.19,0.13-0.32,0.18-0.38
		c0.03-0.04,0.06-0.07,0.1-0.08c0.04-0.02,0.1-0.03,0.19-0.02c0.09,0,0.34,0.06,0.76,0.16L148.12,48.2 M150.11,49.43
		c0.06,0.09,0.09,0.16,0.09,0.22c0,0.09-0.02,0.23-0.08,0.41c-0.16,0.45-0.34,0.96-0.57,1.52l-0.61,1.52l-0.46,1.15
		c-0.25,0.63-0.39,1.02-0.43,1.17c-0.06,0.24-0.08,0.51-0.05,0.81c0.03,0.3,0.12,0.6,0.28,0.9c0.16,0.3,0.41,0.58,0.74,0.85
		c0.46,0.37,0.99,0.68,1.6,0.92c0.52,0.21,0.99,0.33,1.43,0.38c0.44,0.05,0.84,0.02,1.22-0.09c0.37-0.1,0.69-0.26,0.96-0.47
		c0.27-0.21,0.5-0.49,0.7-0.85c0.21-0.36,0.38-0.72,0.52-1.08l0.56-1.4c0.17-0.41,0.41-0.97,0.72-1.68c0.32-0.71,0.5-1.1,0.57-1.18
		c0.06-0.08,0.13-0.12,0.19-0.14c0.12-0.02,0.37,0.04,0.74,0.19l0.2-0.5l-1.33-0.48c-0.07-0.02-0.13-0.04-0.16-0.06
		c-0.14-0.05-0.55-0.24-1.25-0.56l-0.2,0.5c0.44,0.19,0.71,0.34,0.81,0.46c0.05,0.06,0.08,0.12,0.08,0.2c0,0.12-0.09,0.43-0.28,0.94
		c-0.09,0.23-0.35,0.87-0.77,1.92l-0.49,1.22c-0.34,0.85-0.64,1.39-0.9,1.64c-0.26,0.25-0.59,0.4-1,0.46
		c-0.41,0.06-0.89-0.03-1.45-0.25c-0.49-0.2-0.86-0.43-1.12-0.69c-0.26-0.27-0.42-0.55-0.48-0.84c-0.06-0.29-0.03-0.63,0.08-1.02
		c0.05-0.18,0.22-0.63,0.51-1.36l0.27-0.7l0.55-1.39c0.33-0.84,0.58-1.37,0.73-1.6c0.06-0.09,0.13-0.15,0.2-0.16
		c0.15-0.03,0.43,0.04,0.86,0.21l0.2-0.5l-0.22-0.08l-0.81-0.29l-0.81-0.31l-1.92-0.82l-0.2,0.5L150.11,49.43z M155.52,60.54
		c0.35,0.17,0.81,0.42,1.38,0.76c0.43,0.26,0.84,0.53,1.24,0.8l0.29-0.49c-0.36-0.25-0.57-0.4-0.64-0.48
		c-0.06-0.07-0.1-0.14-0.11-0.19c-0.01-0.06,0-0.13,0.04-0.22c0.03-0.09,0.23-0.45,0.59-1.08c0.36-0.63,0.68-1.17,0.95-1.62
		l1.62-2.7l-0.31,3.84c-0.05,0.58-0.14,1.47-0.26,2.64c-0.07,0.69-0.13,1.23-0.18,1.62l0.37,0.22c0.25-0.18,0.58-0.41,0.99-0.69
		c0.68-0.47,1.21-0.82,1.57-1.06l1.38-0.92l2.84-1.82l-2.4,4.01c-0.46,0.78-0.75,1.22-0.86,1.34c-0.11,0.12-0.21,0.18-0.3,0.18
		c-0.09,0-0.37-0.13-0.84-0.39l-0.3,0.49l1.76,0.99l1.75,1.11l0.3-0.49c-0.4-0.27-0.62-0.43-0.67-0.48
		c-0.05-0.05-0.07-0.1-0.09-0.15c-0.01-0.05-0.01-0.1,0.01-0.16c0.04-0.12,0.19-0.42,0.43-0.9c0.05-0.08,0.21-0.36,0.49-0.82
		l1.15-1.93l0.95-1.53c0.1-0.16,0.24-0.39,0.42-0.69c0.15-0.26,0.3-0.4,0.46-0.43c0.15-0.03,0.42,0.07,0.79,0.3l0.08,0.05l0.3-0.49
		l-1.68-0.94c-0.14-0.08-0.44-0.28-0.9-0.6c-0.3,0.23-0.55,0.42-0.76,0.56c-0.21,0.14-0.77,0.52-1.69,1.13l-1.65,1.09
		c-0.43,0.29-1.05,0.68-1.86,1.19l0.41-4.69l0.11-1.06l0.16-1.39c-0.4-0.2-0.79-0.41-1.17-0.64c-0.29-0.17-0.8-0.5-1.55-0.99
		l-0.29,0.49c0.19,0.13,0.4,0.28,0.62,0.47c0.08,0.07,0.13,0.13,0.14,0.17c0.01,0.05,0.01,0.1,0,0.16
		c-0.03,0.13-0.21,0.49-0.54,1.07c-0.33,0.58-0.72,1.24-1.16,1.98c-0.5,0.83-0.85,1.42-1.06,1.75c-0.44,0.69-0.73,1.14-0.88,1.33
		c-0.07,0.09-0.13,0.14-0.19,0.17c-0.05,0.02-0.1,0.03-0.15,0.01c-0.1-0.02-0.37-0.14-0.81-0.36L155.52,60.54 M195.41,111.06
		c-0.35-0.38-0.61-0.76-0.8-1.11c-0.19-0.35-0.34-0.74-0.45-1.16c-0.16-0.64-0.19-1.22-0.11-1.72c0.07-0.37,0.23-0.76,0.47-1.17
		c0.24-0.41,0.59-0.78,1.05-1.1c0.45-0.32,1.01-0.57,1.69-0.73c1.11-0.28,2.05-0.2,2.81,0.23c0.77,0.43,1.27,1.14,1.51,2.11
		c0.14,0.54,0.17,1,0.12,1.38c-0.05,0.38-0.19,0.75-0.41,1.1c-0.26,0.09-0.62,0.2-1.07,0.32l0.12,0.49c0.4-0.08,0.84-0.15,1.32-0.2
		c0.3-0.03,0.56-0.04,0.77-0.02l0.07-0.05c0.06-0.64,0.08-1.2,0.05-1.67c-0.03-0.47-0.11-0.98-0.25-1.54
		c-0.4-1.63-1.14-2.8-2.19-3.49c-1.05-0.69-2.24-0.87-3.55-0.55c-0.77,0.19-1.44,0.52-2.02,0.98c-0.38,0.31-0.71,0.69-0.99,1.15
		c-0.28,0.46-0.47,0.99-0.56,1.57c-0.11,0.75-0.06,1.56,0.16,2.45c0.15,0.62,0.33,1.12,0.54,1.51c0.21,0.39,0.51,0.81,0.92,1.26
		l0.7,0.13L195.41,111.06z M203.85,116.46c-0.12-0.69-0.24-1.42-0.33-2.2c-0.09-0.69-0.15-1.31-0.18-1.85l-0.57,0.07
		c0.04,0.46,0.06,0.73,0.05,0.8c-0.01,0.08-0.03,0.13-0.05,0.16c-0.03,0.03-0.06,0.06-0.12,0.08c-0.13,0.05-0.47,0.11-1,0.2
		c-0.24,0.06-0.78,0.14-1.63,0.25l-2.67,0.34c-0.43,0.05-0.91,0.1-1.42,0.15c-0.35,0.02-0.55,0.03-0.61,0.02
		c-0.04,0-0.08-0.02-0.11-0.05c-0.04-0.03-0.07-0.09-0.09-0.18c-0.02-0.07-0.07-0.33-0.15-0.78l-0.57,0.07
		c0.1,0.53,0.2,1.14,0.29,1.83c0.1,0.79,0.18,1.53,0.23,2.23l0.57-0.07c-0.04-0.41-0.06-0.66-0.05-0.75
		c0.01-0.09,0.03-0.15,0.05-0.2c0.03-0.04,0.07-0.08,0.13-0.1c0.13-0.06,0.41-0.12,0.85-0.17l1.16-0.18l2.57-0.33
		c0.08-0.01,0.64-0.08,1.69-0.2c0.31-0.03,0.51-0.06,0.63-0.06c0.21-0.01,0.35-0.01,0.42,0.01c0.04,0.01,0.08,0.03,0.11,0.06
		c0.03,0.03,0.06,0.09,0.09,0.16c0.03,0.08,0.08,0.33,0.15,0.77L203.85,116.46 M195.15,124.84c0.74,0.26,1.99,0.76,3.76,1.49
		l2.07,0.86l1.07,0.45c0.89,0.37,1.37,0.61,1.47,0.72c0.05,0.07,0.09,0.31,0.14,0.73l0.57,0l-0.06-1.39l0.05-1.63h-0.57
		c0,0.19-0.02,0.43-0.04,0.71c-0.01,0.12-0.02,0.2-0.03,0.23c-0.02,0.04-0.04,0.07-0.08,0.09c-0.04,0.03-0.09,0.04-0.16,0.04
		c-0.05,0-0.1,0-0.15-0.01c-0.18-0.04-0.52-0.16-1.04-0.35c-0.73-0.27-1.14-0.42-1.22-0.45l-3.55-1.42l3.98-1.64
		c0.05-0.02,0.09-0.03,0.12-0.04c0.03-0.01,0.25-0.1,0.64-0.26c0.68-0.28,1.09-0.43,1.22-0.43c0.07,0,0.12,0.02,0.16,0.05
		c0.04,0.03,0.07,0.1,0.09,0.2c0.04,0.16,0.06,0.43,0.07,0.79l0.57,0l-0.06-2.31c0-0.22,0.02-0.85,0.05-1.88l-0.57,0
		c-0.01,0.4-0.04,0.67-0.11,0.8c-0.05,0.09-0.23,0.21-0.56,0.38c-0.33,0.17-1.34,0.61-3.06,1.33l-2.18,0.92
		c-0.81,0.34-1.67,0.69-2.57,1.06L195.15,124.84z M203.38,136.12c0.05-0.7,0.12-1.44,0.21-2.22c0.09-0.69,0.18-1.31,0.28-1.84
		l-0.57-0.07c-0.07,0.46-0.12,0.72-0.15,0.79c-0.03,0.07-0.06,0.12-0.09,0.14c-0.03,0.02-0.08,0.04-0.14,0.04
		c-0.14,0.01-0.48,0-1.03-0.05c-0.25-0.01-0.79-0.06-1.64-0.16l-2.67-0.33c-0.44-0.05-0.91-0.12-1.41-0.21
		c-0.35-0.06-0.54-0.11-0.59-0.13c-0.04-0.01-0.07-0.04-0.1-0.07c-0.02-0.04-0.04-0.1-0.04-0.2c-0.01-0.07,0.01-0.34,0.05-0.79
		l-0.57-0.07c-0.03,0.54-0.09,1.16-0.17,1.84c-0.09,0.79-0.21,1.52-0.32,2.22l0.57,0.07c0.06-0.41,0.1-0.66,0.13-0.74
		c0.03-0.08,0.06-0.14,0.1-0.18c0.04-0.04,0.09-0.06,0.15-0.07c0.14-0.03,0.42-0.01,0.86,0.04l1.17,0.11l2.57,0.31
		c0.08,0.01,0.65,0.09,1.69,0.23c0.31,0.04,0.52,0.07,0.62,0.09c0.2,0.04,0.34,0.08,0.41,0.11c0.04,0.02,0.07,0.05,0.09,0.09
		c0.02,0.04,0.04,0.1,0.05,0.18c0.01,0.09,0,0.34-0.05,0.78L203.38,136.12 M193.75,138.81c-0.15,0.78-0.3,1.46-0.44,2.05
		c-0.13,0.55-0.31,1.22-0.54,2.02l0.51,0.12c0.14-0.5,0.24-0.79,0.32-0.87c0.07-0.08,0.17-0.13,0.29-0.13c0.2,0,0.74,0.11,1.65,0.32
		l3.76,0.91c1,0.24,1.57,0.38,1.72,0.43l-0.21,0.89c-0.12,0.48-0.23,0.89-0.35,1.22c-0.03,0.11-0.07,0.17-0.09,0.19
		c-0.04,0.02-0.13,0.03-0.29,0.01c-0.31-0.03-0.63-0.07-0.96-0.15l-0.12,0.52c0.88,0.23,1.34,0.34,1.37,0.35
		c0.19,0.06,0.41,0.13,0.65,0.23l0.08-0.05c0.03-0.2,0.06-0.4,0.1-0.59c0.08-0.35,0.24-1.06,0.49-2.1l0.61-2.52
		c0.24-1.02,0.41-1.71,0.51-2.06c0.06-0.22,0.12-0.43,0.19-0.62l-0.05-0.07c-0.22-0.03-0.42-0.05-0.61-0.09
		c-0.11-0.02-0.6-0.13-1.46-0.32l-0.12,0.52c0.36,0.1,0.68,0.21,0.97,0.33c0.12,0.05,0.18,0.09,0.2,0.13
		c0.02,0.03,0.02,0.11-0.01,0.25c-0.05,0.35-0.13,0.74-0.24,1.19l-0.21,0.89c-0.13-0.01-0.7-0.13-1.73-0.38l-3.76-0.91
		c-0.9-0.22-1.44-0.37-1.61-0.46c-0.11-0.06-0.18-0.15-0.2-0.25c-0.03-0.11,0.01-0.41,0.11-0.92L193.75,138.81 M192.22,145.23
		l0.5,0.19c-0.1,0.33-0.15,0.54-0.16,0.61c-0.01,0.07,0,0.13,0.02,0.19c0.02,0.06,0.06,0.13,0.13,0.21
		c0.06,0.08,0.32,0.33,0.75,0.76c0.21,0.2,0.62,0.59,1.24,1.17l3.26,3.06l1.16,1.05l-0.33,0.85l-7.3,0.26l-0.97,0.06l-0.64,0.02
		c-0.09,0.01-0.15,0.03-0.2,0.05c-0.05,0.03-0.09,0.06-0.12,0.1c-0.03,0.04-0.09,0.15-0.18,0.33c-0.03,0.06-0.08,0.14-0.13,0.25
		l-0.5-0.2l0.69-1.65l0.76-2.12l0.5,0.19c-0.17,0.49-0.24,0.78-0.23,0.85c0.01,0.07,0.05,0.13,0.13,0.16
		c0.1,0.04,0.28,0.06,0.54,0.05l1.51-0.01l1.2-3.1l-0.62-0.54c-0.47-0.41-0.78-0.64-0.92-0.69c-0.09-0.04-0.17-0.03-0.24,0.02
		c-0.09,0.07-0.24,0.35-0.44,0.81l-0.5-0.19l0.58-1.36L192.22,145.23z M194.46,149.13c-0.17,0.37-0.34,0.79-0.53,1.27
		c-0.18,0.46-0.33,0.88-0.44,1.25l3.59-0.09L194.46,149.13z M187.55,156.37c-0.35,0.71-0.67,1.33-0.96,1.87
		c-0.27,0.5-0.62,1.1-1.05,1.81l0.46,0.25c0.26-0.44,0.44-0.69,0.53-0.76c0.09-0.06,0.2-0.08,0.31-0.05
		c0.19,0.05,0.69,0.3,1.51,0.74l3.39,1.86c0.9,0.49,1.42,0.78,1.54,0.86l-0.44,0.81c-0.24,0.43-0.45,0.8-0.65,1.09
		c-0.06,0.09-0.11,0.15-0.14,0.16c-0.04,0.01-0.14-0.01-0.28-0.06c-0.29-0.1-0.59-0.24-0.89-0.39l-0.26,0.47
		c0.79,0.44,1.2,0.68,1.23,0.7c0.17,0.1,0.36,0.23,0.57,0.39l0.09-0.03c0.08-0.19,0.17-0.37,0.26-0.54c0.16-0.32,0.5-0.96,1.02-1.91
		l1.25-2.28c0.5-0.92,0.85-1.54,1.03-1.86c0.11-0.2,0.23-0.38,0.34-0.54l-0.03-0.08c-0.21-0.08-0.4-0.16-0.57-0.24
		c-0.1-0.05-0.54-0.28-1.32-0.69l-0.26,0.47c0.32,0.19,0.61,0.38,0.85,0.57c0.1,0.08,0.15,0.14,0.16,0.18
		c0.01,0.03-0.02,0.11-0.07,0.24c-0.14,0.32-0.32,0.68-0.54,1.09l-0.44,0.8c-0.12-0.04-0.64-0.31-1.57-0.82l-3.39-1.86
		c-0.82-0.45-1.29-0.73-1.43-0.86c-0.09-0.09-0.13-0.19-0.13-0.3c0-0.11,0.12-0.39,0.35-0.85L187.55,156.37 M188.46,171.92
		c0.37-0.59,0.79-1.21,1.24-1.85c0.4-0.57,0.77-1.07,1.11-1.49l-0.47-0.33c-0.28,0.37-0.45,0.57-0.51,0.62
		c-0.06,0.05-0.11,0.08-0.15,0.08c-0.04,0.01-0.09,0-0.14-0.02c-0.13-0.06-0.42-0.23-0.88-0.53c-0.21-0.12-0.67-0.43-1.37-0.92
		l-2.2-1.55c-0.36-0.25-0.74-0.54-1.15-0.85c-0.28-0.22-0.43-0.35-0.47-0.39c-0.03-0.03-0.04-0.07-0.05-0.11
		c-0.01-0.04,0.01-0.11,0.05-0.19c0.03-0.07,0.17-0.29,0.42-0.67l-0.47-0.33c-0.28,0.46-0.62,0.98-1.02,1.54
		c-0.46,0.65-0.9,1.25-1.33,1.8l0.47,0.33c0.25-0.33,0.4-0.53,0.47-0.59c0.07-0.06,0.12-0.1,0.17-0.11
		c0.05-0.02,0.11-0.01,0.16,0.01c0.13,0.04,0.38,0.19,0.74,0.44l0.98,0.65l2.12,1.49c0.07,0.05,0.53,0.38,1.38,1
		c0.25,0.18,0.42,0.31,0.5,0.38c0.16,0.13,0.26,0.23,0.31,0.29c0.03,0.03,0.04,0.08,0.05,0.12c0,0.04-0.01,0.1-0.04,0.19
		c-0.03,0.08-0.17,0.3-0.41,0.67L188.46,171.92 M180.84,177.39c0.32,0.3,0.57,0.54,0.75,0.75c0.18,0.2,0.36,0.41,0.53,0.64
		l0.15,0.06c0.33-0.13,0.66-0.33,1-0.6c0.34-0.27,0.67-0.57,0.97-0.92c0.29-0.33,0.54-0.68,0.74-1.06c0.21-0.38,0.33-0.76,0.38-1.16
		c0.05-0.4-0.01-0.8-0.18-1.22c-0.17-0.42-0.44-0.79-0.8-1.11c-0.26-0.23-0.54-0.4-0.83-0.51c-0.3-0.11-0.6-0.15-0.91-0.12
		c-0.31,0.03-0.62,0.15-0.95,0.35c-0.22,0.14-0.64,0.44-1.28,0.92c-0.45,0.33-0.79,0.53-1.02,0.62c-0.23,0.09-0.45,0.1-0.66,0.05
		c-0.21-0.05-0.42-0.17-0.62-0.35c-0.24-0.21-0.41-0.46-0.5-0.73s-0.09-0.58,0.01-0.92c0.11-0.33,0.29-0.66,0.56-0.96
		c0.31-0.35,0.67-0.61,1.08-0.77s0.77-0.22,1.08-0.17c0.38,0.26,0.68,0.5,0.91,0.71l0.35-0.4c-0.75-0.66-1.26-1.21-1.53-1.63
		c-0.5,0.21-0.93,0.44-1.28,0.69c-0.35,0.24-0.7,0.57-1.04,0.96c-0.48,0.54-0.81,1.07-0.99,1.6c-0.12,0.33-0.18,0.69-0.19,1.09
		c-0.01,0.4,0.05,0.77,0.17,1.11c0.16,0.45,0.45,0.85,0.86,1.21c0.24,0.21,0.48,0.36,0.72,0.46c0.24,0.1,0.47,0.16,0.68,0.18
		c0.21,0.01,0.43-0.02,0.67-0.1c0.24-0.08,0.5-0.22,0.8-0.42c0.11-0.08,0.34-0.26,0.69-0.55c0.35-0.28,0.63-0.5,0.83-0.65
		c0.28-0.19,0.51-0.31,0.7-0.37c0.19-0.06,0.38-0.06,0.57-0.01c0.19,0.05,0.39,0.16,0.61,0.35c0.3,0.26,0.45,0.61,0.46,1.05
		c0.01,0.44-0.18,0.87-0.57,1.31c-0.27,0.31-0.57,0.54-0.9,0.69c-0.33,0.15-0.61,0.21-0.84,0.19c-0.18-0.11-0.45-0.33-0.83-0.65
		L180.84,177.39"/>
	<path fill="#FFFFFF" d="M32.59,108.42l-0.8-0.2c0.13-0.57,0.19-0.92,0.2-1.05c0.01-0.13-0.01-0.23-0.03-0.3
		c-0.03-0.07-0.09-0.13-0.16-0.17c-0.17-0.1-0.57-0.24-1.22-0.4l-1.78-0.46l-4.2-1.02l-1.77-0.4c-0.67-0.16-1.09-0.23-1.29-0.21
		c-0.09,0-0.16,0.03-0.22,0.07c-0.06,0.05-0.12,0.13-0.18,0.25c-0.06,0.12-0.16,0.46-0.31,1.03l-0.8-0.2
		c0.28-0.97,0.56-1.99,0.82-3.08c0.24-0.97,0.42-1.84,0.56-2.6l0.8,0.19c-0.14,0.67-0.21,1.07-0.21,1.19c0,0.12,0.02,0.22,0.07,0.28
		c0.05,0.06,0.25,0.15,0.6,0.26c0.6,0.17,1.48,0.4,2.62,0.67l1.03,0.25c0.15-0.43,0.4-1.35,0.74-2.76c0.43-1.77,0.67-2.87,0.73-3.3
		l-1.03-0.25c-0.92-0.22-1.52-0.37-1.78-0.43c-0.8-0.17-1.25-0.26-1.36-0.26c-0.08,0-0.14,0.02-0.19,0.05
		c-0.05,0.03-0.1,0.1-0.15,0.2c-0.05,0.1-0.17,0.49-0.36,1.16l-0.8-0.19c0.23-0.74,0.46-1.6,0.7-2.57c0.26-1.09,0.49-2.12,0.68-3.11
		l0.8,0.2c-0.13,0.57-0.19,0.92-0.2,1.05c-0.01,0.13,0.01,0.23,0.03,0.3c0.03,0.07,0.09,0.13,0.16,0.17c0.17,0.1,0.58,0.24,1.22,0.4
		l1.79,0.46l4.2,1.02l1.76,0.4c0.67,0.16,1.1,0.23,1.29,0.22c0.09-0.01,0.17-0.04,0.23-0.08c0.06-0.04,0.12-0.13,0.17-0.25
		s0.16-0.47,0.31-1.04l0.8,0.2c-0.28,0.97-0.56,1.99-0.82,3.08c-0.24,0.97-0.42,1.84-0.56,2.6l-0.8-0.2
		c0.14-0.67,0.21-1.06,0.21-1.19c0-0.12-0.02-0.22-0.07-0.28c-0.05-0.06-0.25-0.15-0.6-0.26c-0.6-0.17-1.47-0.39-2.62-0.67
		l-1.87-0.45c-0.12,0.3-0.36,1.18-0.72,2.65c-0.34,1.41-0.57,2.36-0.67,2.83c-0.04,0.19-0.07,0.38-0.09,0.57l1.87,0.45
		c0.93,0.23,1.53,0.36,1.79,0.4c0.8,0.15,1.26,0.22,1.38,0.22c0.07,0,0.13-0.02,0.18-0.05c0.05-0.03,0.1-0.09,0.15-0.19
		c0.05-0.1,0.17-0.47,0.35-1.11l0.8,0.2c-0.23,0.74-0.46,1.6-0.7,2.57C33.01,106.4,32.78,107.43,32.59,108.42 M36.86,92.37
		c0.68-1.78,1.05-2.75,1.1-2.88c0.21-0.51,0.6-1.44,1.18-2.79l0.6-1.36c0.28-0.67,0.47-1.2,0.57-1.58l-0.07-0.16
		c-0.73-0.3-1.63-0.74-2.7-1.33l-0.29,0.7c0.71,0.42,1.18,0.74,1.41,0.96c0.07,0.07,0.1,0.12,0.11,0.17
		c0.03,0.15-0.05,0.49-0.22,1.03c-0.17,0.54-0.39,1.11-0.64,1.73c-0.26,0.63-0.5,1.17-0.74,1.61c-0.29-0.09-0.64-0.22-1.04-0.39
		l-3.58-1.47c0.1-0.38,0.27-0.84,0.5-1.4c0.25-0.62,0.49-1.11,0.71-1.48c0.1-0.17,0.22-0.26,0.36-0.28
		c0.19-0.03,0.62,0.09,1.27,0.37l0.28-0.7l-1.88-0.73l-1.86-0.8l-0.28,0.7c0.5,0.22,0.85,0.41,1.04,0.56
		c0.07,0.06,0.12,0.13,0.13,0.2c0.01,0.07-0.04,0.26-0.16,0.56c-0.31,0.82-0.49,1.29-0.54,1.42c-0.17,0.42-0.36,0.81-0.56,1.17
		l-1.74-0.71c-0.98-0.4-1.78-0.78-2.38-1.13c0.17-0.55,0.36-1.07,0.57-1.57c0.22-0.54,0.48-1.07,0.77-1.61
		c0.2-0.36,0.33-0.57,0.41-0.62c0.05-0.03,0.12-0.04,0.21-0.03c0.17,0.02,0.59,0.16,1.26,0.43l0.27-0.66
		c-0.72-0.36-1.12-0.56-1.2-0.6l-1.17-0.68l-0.14,0.02c-0.12,0.1-0.19,0.18-0.22,0.24c-0.28,0.62-0.46,1.03-0.54,1.23l-0.67,1.75
		c-0.37,0.96-0.72,1.83-1.04,2.61c-0.15,0.36-0.3,0.74-0.45,1.13l-0.75,2l0.66,0.27c0.3-0.64,0.52-1.03,0.65-1.15
		c0.05-0.04,0.11-0.07,0.18-0.07c0.17,0,0.58,0.12,1.23,0.37c0.97,0.37,1.53,0.59,1.68,0.65l3.85,1.58c0.44,0.18,1.15,0.5,2.11,0.95
		c0.52,0.24,0.9,0.43,1.12,0.57c0.08,0.29,0.14,0.63,0.16,1.03L36.86,92.37 M37.75,64.19c0.15-0.04,0.26-0.06,0.33-0.04
		c0.13,0.03,0.31,0.12,0.54,0.27c0.56,0.4,1.18,0.86,1.87,1.38l1.86,1.42l1.4,1.08c0.77,0.59,1.26,0.93,1.45,1.04
		c0.31,0.18,0.68,0.31,1.1,0.38c0.42,0.08,0.87,0.06,1.35-0.06c0.47-0.11,0.96-0.35,1.47-0.71c0.69-0.5,1.32-1.12,1.89-1.86
		c0.49-0.64,0.85-1.25,1.08-1.84c0.23-0.59,0.35-1.16,0.35-1.72c0-0.56-0.09-1.06-0.28-1.51c-0.18-0.45-0.49-0.88-0.91-1.3
		c-0.42-0.42-0.85-0.8-1.29-1.13l-1.72-1.31c-0.51-0.38-1.19-0.93-2.04-1.64c-0.85-0.71-1.32-1.12-1.4-1.24
		c-0.08-0.12-0.12-0.22-0.12-0.31c0.02-0.17,0.2-0.49,0.54-0.94l-0.66-0.5l-1.19,1.66c-0.06,0.09-0.11,0.16-0.14,0.21
		c-0.13,0.16-0.54,0.68-1.25,1.53l0.66,0.5c0.42-0.53,0.74-0.84,0.94-0.93c0.1-0.05,0.2-0.06,0.3-0.03
		c0.17,0.04,0.56,0.29,1.19,0.74c0.3,0.2,1.09,0.79,2.38,1.76l1.49,1.13c1.04,0.79,1.68,1.41,1.91,1.87
		c0.24,0.45,0.32,0.98,0.24,1.56c-0.08,0.59-0.39,1.23-0.91,1.92c-0.46,0.6-0.92,1.03-1.39,1.29c-0.47,0.26-0.92,0.38-1.34,0.35
		c-0.43-0.02-0.88-0.19-1.38-0.49c-0.22-0.15-0.78-0.56-1.67-1.23l-0.86-0.64l-1.7-1.29c-1.03-0.78-1.67-1.33-1.91-1.63
		c-0.11-0.12-0.15-0.23-0.14-0.34c0.02-0.21,0.23-0.59,0.64-1.12l-0.66-0.5l-0.2,0.28l-0.73,1.02l-0.74,1.01l-1.87,2.35l0.66,0.5
		L37.75,64.19z M55.86,60.35c0.72-0.74,1.29-1.32,1.73-1.73c0.12-0.11,0.61-0.56,1.48-1.34l-0.54-0.57
		c-0.06,0.06-0.1,0.11-0.13,0.13c-0.13,0.13-0.36,0.31-0.69,0.55c-0.12,0.09-0.22,0.14-0.29,0.14c-0.07,0.01-0.15-0.01-0.21-0.05
		c-0.14-0.08-0.47-0.37-0.97-0.87c-0.74-0.72-1.44-1.42-2.09-2.11l-3.15-3.34c5.71,0.74,10.06,1.24,13.03,1.49
		c0.44-0.31,0.88-0.6,1.31-0.89l0.03-0.14c-0.65-0.59-2.38-2.37-5.18-5.34c-0.36-0.38-0.91-0.98-1.65-1.78
		c-0.74-0.81-1.19-1.35-1.33-1.64c-0.03-0.06-0.03-0.11-0.02-0.17c0.04-0.16,0.33-0.51,0.86-1.04l-0.56-0.6
		c-0.64,0.67-1.18,1.21-1.61,1.61c-0.45,0.43-0.97,0.88-1.55,1.36l0.56,0.6c0.61-0.55,1-0.84,1.18-0.86
		c0.11-0.01,0.25,0.06,0.42,0.21c0.45,0.37,1.81,1.76,4.08,4.16l1.43,1.57c-1.23-0.05-2.85-0.2-4.86-0.45
		c-2.8-0.34-5.23-0.68-7.29-1.01l-0.59,0.61l-0.95,0.94c-0.27,0.26-0.7,0.63-1.3,1.13l0.56,0.6c0.5-0.41,0.81-0.65,0.93-0.72
		c0.12-0.07,0.23-0.09,0.31-0.09c0.09,0.01,0.19,0.05,0.3,0.13c0.11,0.08,0.33,0.28,0.64,0.6l1.86,1.92l2.02,2.14
		c0.56,0.59,1,1.08,1.33,1.47c0.57,0.69,0.92,1.13,1.06,1.33c0.09,0.15,0.15,0.25,0.15,0.32c0,0.07-0.01,0.14-0.04,0.2
		c-0.05,0.09-0.33,0.4-0.82,0.91L55.86,60.35z M65.1,35.58c-0.78,0.63-1.62,1.27-2.53,1.93c-0.81,0.59-1.54,1.09-2.19,1.51
		l0.48,0.67c0.56-0.37,0.88-0.58,0.98-0.62c0.1-0.04,0.18-0.05,0.24-0.04c0.06,0.01,0.12,0.04,0.18,0.1
		c0.15,0.13,0.47,0.51,0.95,1.12c0.23,0.27,0.7,0.9,1.42,1.89l2.27,3.12c0.37,0.51,0.76,1.07,1.18,1.68
		c0.27,0.43,0.42,0.68,0.45,0.75c0.02,0.05,0.03,0.11,0.01,0.17c-0.01,0.06-0.07,0.14-0.16,0.24c-0.07,0.08-0.37,0.32-0.88,0.72
		l0.49,0.67c0.6-0.49,1.29-1.03,2.09-1.61c0.92-0.67,1.8-1.27,2.63-1.83l-0.49-0.67c-0.49,0.34-0.8,0.54-0.91,0.59
		c-0.12,0.05-0.21,0.08-0.29,0.07c-0.08,0-0.15-0.03-0.22-0.09c-0.16-0.12-0.43-0.43-0.8-0.95l-1.02-1.34l-2.19-3.01
		c-0.07-0.09-0.54-0.76-1.42-1.99c-0.26-0.36-0.43-0.61-0.52-0.74c-0.16-0.25-0.25-0.43-0.28-0.54c-0.02-0.06-0.02-0.12-0.01-0.18
		c0.02-0.06,0.07-0.14,0.15-0.23c0.08-0.09,0.37-0.33,0.87-0.72L65.1,35.58 M80.73,41.31c-0.18-1.1-0.42-3.02-0.72-5.76l-0.35-3.21
		l-0.17-1.66c-0.15-1.37-0.18-2.15-0.1-2.34c0.05-0.11,0.32-0.34,0.82-0.68l-0.4-0.72l-1.72,1.03l-2.09,1.08l0.4,0.72
		c0.25-0.13,0.55-0.27,0.92-0.44c0.16-0.08,0.27-0.12,0.31-0.12c0.06,0,0.12,0.01,0.17,0.04c0.05,0.03,0.11,0.09,0.16,0.18
		c0.03,0.06,0.07,0.13,0.09,0.2c0.07,0.25,0.16,0.77,0.27,1.55c0.17,1.11,0.26,1.73,0.27,1.86l0.67,5.49l-4.85-3.88
		c-0.06-0.05-0.1-0.09-0.14-0.12c-0.04-0.03-0.3-0.24-0.78-0.63c-0.83-0.67-1.29-1.08-1.38-1.24c-0.04-0.08-0.06-0.16-0.04-0.24
		c0.02-0.08,0.08-0.16,0.18-0.25c0.18-0.16,0.49-0.37,0.94-0.62l-0.4-0.72l-2.85,1.66c-0.28,0.15-1.07,0.57-2.38,1.23l0.4,0.72
		c0.51-0.27,0.88-0.41,1.09-0.41c0.14,0,0.43,0.15,0.86,0.44c0.44,0.3,1.7,1.27,3.79,2.92l2.67,2.1c0.99,0.79,2.02,1.62,3.11,2.49
		L80.73,41.31z M87.79,37.66c1.77-0.72,2.72-1.1,2.86-1.16c0.52-0.19,1.47-0.54,2.85-1.04l1.4-0.49c0.68-0.26,1.2-0.48,1.55-0.66
		l0.07-0.15c-0.28-0.74-0.57-1.69-0.87-2.88l-0.7,0.27c0.17,0.81,0.26,1.37,0.26,1.69c0,0.09-0.02,0.16-0.05,0.2
		c-0.09,0.12-0.39,0.3-0.91,0.54c-0.51,0.24-1.08,0.48-1.7,0.71c-0.64,0.24-1.2,0.43-1.68,0.56c-0.13-0.28-0.27-0.62-0.43-1.03
		l-1.37-3.62c0.35-0.18,0.8-0.38,1.36-0.59c0.62-0.24,1.15-0.4,1.57-0.48c0.19-0.04,0.34-0.02,0.45,0.07
		c0.15,0.12,0.35,0.51,0.6,1.18l0.7-0.27l-0.75-1.88l-0.68-1.91l-0.7,0.27c0.18,0.52,0.28,0.9,0.3,1.14c0,0.1-0.02,0.17-0.06,0.23
		c-0.04,0.06-0.21,0.15-0.52,0.27c-0.81,0.33-1.27,0.52-1.4,0.57c-0.42,0.16-0.84,0.29-1.24,0.39l-0.67-1.76
		c-0.38-1-0.64-1.83-0.8-2.51c0.51-0.25,1.03-0.46,1.54-0.66c0.54-0.21,1.11-0.38,1.7-0.53c0.4-0.1,0.64-0.15,0.74-0.12
		c0.06,0.02,0.12,0.06,0.17,0.13c0.1,0.14,0.28,0.54,0.55,1.21l0.67-0.25c-0.23-0.77-0.35-1.2-0.38-1.28l-0.3-1.32l-0.1-0.09
		c-0.16-0.02-0.27-0.02-0.32,0.01c-0.64,0.22-1.06,0.36-1.27,0.44l-1.73,0.7c-0.96,0.38-1.83,0.72-2.62,1.02
		c-0.36,0.14-0.74,0.28-1.13,0.44l-1.98,0.81l0.25,0.67c0.68-0.22,1.11-0.32,1.29-0.31c0.07,0.01,0.13,0.03,0.18,0.08
		c0.12,0.12,0.31,0.5,0.57,1.15c0.39,0.97,0.61,1.52,0.67,1.67l1.47,3.89c0.17,0.45,0.42,1.18,0.74,2.19
		c0.18,0.55,0.3,0.95,0.35,1.21c-0.15,0.26-0.37,0.53-0.65,0.82L87.79,37.66 M95.95,21.74c0.74-0.12,1.18-0.15,1.34-0.11
		c0.07,0.02,0.12,0.06,0.17,0.12c0.09,0.14,0.23,0.58,0.41,1.33l0.46,1.9l0.75,3.35l0.56,2.64c0.09,0.48,0.14,0.84,0.15,1.09
		c0.01,0.13,0,0.22-0.02,0.27c-0.02,0.05-0.07,0.09-0.14,0.13c-0.12,0.07-0.51,0.19-1.19,0.37l0.18,0.8
		c0.78-0.22,1.62-0.44,2.54-0.65c1.03-0.23,2.07-0.44,3.1-0.63l-0.18-0.8c-0.58,0.12-0.93,0.18-1.06,0.18
		c-0.13,0-0.22-0.01-0.28-0.03c-0.06-0.03-0.11-0.06-0.15-0.1c-0.07-0.09-0.15-0.3-0.25-0.64c-0.04-0.17-0.21-0.87-0.5-2.1
		c-0.23-1.01-0.45-1.97-0.66-2.87c-0.13-0.57-0.37-1.71-0.72-3.42c-0.15-0.76-0.25-1.26-0.28-1.48c0.27-0.11,0.55-0.2,0.84-0.27
		c0.65-0.15,1.11-0.21,1.39-0.17c0.42,0.06,0.81,0.24,1.16,0.55c0.35,0.31,0.58,0.74,0.71,1.3c0.12,0.55,0.11,1.07-0.04,1.57
		c-0.15,0.5-0.39,0.88-0.72,1.13c-0.33,0.26-0.86,0.45-1.58,0.59l-0.03,0.32c0.21,0.09,0.44,0.25,0.69,0.47
		c0.5,0.44,1.13,1.05,1.89,1.84l2.64,2.75c0.16,0.19,0.27,0.34,0.33,0.47c0.46-0.15,0.94-0.28,1.42-0.39
		c0.41-0.09,1.09-0.22,2.03-0.38l-0.18-0.8c-0.28,0.06-0.48,0.08-0.58,0.06c-0.11-0.02-0.22-0.07-0.35-0.16
		c-0.13-0.09-0.48-0.37-1.07-0.87c-0.04-0.03-0.31-0.29-0.8-0.76l-1.87-1.77c-0.05-0.04-0.09-0.09-0.14-0.15
		c-0.05-0.05-0.2-0.2-0.45-0.43c-0.26-0.24-0.49-0.47-0.7-0.71c0.86-0.56,1.45-1.19,1.76-1.89c0.32-0.7,0.39-1.41,0.23-2.14
		c-0.14-0.62-0.42-1.1-0.85-1.45c-0.43-0.35-0.89-0.55-1.39-0.58c-0.5-0.03-1.22,0.06-2.16,0.27c-0.49,0.11-1.09,0.27-1.83,0.47
		c-0.44,0.13-0.98,0.27-1.61,0.41c-0.74,0.16-1.31,0.29-1.71,0.36c-0.83,0.15-1.31,0.25-1.45,0.28L95.95,21.74 M120.34,20.49
		c-0.03-0.62-0.04-1.13-0.03-1.51s0.04-0.78,0.1-1.19l-0.09-0.21c-0.47-0.18-1.02-0.31-1.65-0.37c-0.62-0.07-1.27-0.07-1.92-0.02
		c-0.63,0.05-1.24,0.17-1.83,0.36c-0.59,0.19-1.11,0.46-1.56,0.82c-0.45,0.36-0.8,0.84-1.04,1.45c-0.24,0.61-0.33,1.25-0.28,1.94
		c0.04,0.49,0.16,0.95,0.36,1.36c0.2,0.41,0.47,0.76,0.82,1.03c0.35,0.27,0.8,0.47,1.34,0.58c0.36,0.08,1.11,0.18,2.25,0.32
		c0.79,0.11,1.35,0.24,1.68,0.38c0.32,0.14,0.57,0.34,0.74,0.61c0.17,0.27,0.27,0.59,0.3,0.98c0.04,0.46-0.03,0.88-0.21,1.26
		c-0.18,0.38-0.49,0.69-0.93,0.94c-0.44,0.24-0.96,0.39-1.54,0.44c-0.67,0.06-1.3-0.04-1.9-0.28c-0.59-0.24-1.02-0.55-1.28-0.91
		c-0.14-0.65-0.21-1.2-0.24-1.65l-0.82,0.07c0.11,1.43,0.11,2.51-0.02,3.22c0.74,0.29,1.41,0.47,2.02,0.57
		c0.61,0.09,1.29,0.1,2.05,0.04c1.04-0.09,1.92-0.31,2.63-0.66c0.45-0.22,0.88-0.54,1.28-0.95c0.41-0.41,0.72-0.85,0.93-1.32
		c0.28-0.62,0.38-1.33,0.32-2.11c-0.04-0.45-0.13-0.85-0.28-1.2c-0.15-0.35-0.32-0.63-0.52-0.86c-0.2-0.22-0.47-0.41-0.79-0.56
		c-0.33-0.15-0.74-0.28-1.25-0.36c-0.2-0.03-0.62-0.07-1.27-0.13c-0.65-0.06-1.15-0.11-1.52-0.15c-0.48-0.09-0.85-0.19-1.1-0.32
		c-0.25-0.13-0.45-0.31-0.61-0.55c-0.15-0.24-0.25-0.56-0.28-0.97c-0.05-0.57,0.14-1.08,0.56-1.54c0.42-0.46,1.05-0.72,1.89-0.79
		c0.58-0.05,1.12,0.01,1.61,0.18c0.49,0.17,0.84,0.38,1.05,0.63c0.08,0.29,0.15,0.79,0.22,1.5L120.34,20.49 M130.86,17.19
		c-1,0.02-2.06,0.02-3.18-0.01c-1-0.03-1.89-0.07-2.66-0.14L125,17.87c0.67,0.04,1.05,0.08,1.16,0.11c0.1,0.03,0.18,0.07,0.21,0.11
		c0.04,0.04,0.07,0.11,0.09,0.19c0.04,0.2,0.06,0.69,0.07,1.47c0.01,0.35,0.01,1.14-0.03,2.36l-0.09,3.86
		c-0.01,0.63-0.04,1.31-0.09,2.05c-0.04,0.5-0.08,0.79-0.1,0.86c-0.01,0.06-0.04,0.1-0.09,0.15c-0.05,0.04-0.14,0.07-0.27,0.09
		c-0.1,0.02-0.48,0.03-1.14,0.04l-0.02,0.82c0.77-0.03,1.65-0.03,2.64-0.01c1.13,0.03,2.2,0.08,3.2,0.15l0.02-0.82
		c-0.6-0.03-0.96-0.06-1.08-0.09c-0.12-0.03-0.22-0.07-0.27-0.12c-0.06-0.05-0.09-0.11-0.12-0.2c-0.06-0.19-0.08-0.61-0.06-1.24
		l0-1.69l0.09-3.72c0-0.12,0.03-0.93,0.08-2.44c0.01-0.44,0.03-0.74,0.04-0.91c0.03-0.3,0.06-0.5,0.11-0.6
		c0.02-0.06,0.05-0.11,0.11-0.15c0.05-0.04,0.14-0.07,0.26-0.09c0.12-0.03,0.5-0.04,1.13-0.04L130.86,17.19 M135.02,30.49
		c1.13,0.1,2.12,0.22,2.98,0.33c0.8,0.11,1.79,0.27,2.95,0.48l0.1-0.74c-0.72-0.12-1.14-0.23-1.27-0.33
		c-0.13-0.09-0.2-0.22-0.22-0.39c-0.04-0.28,0.04-1.08,0.22-2.4l0.75-5.5c0.2-1.46,0.32-2.3,0.37-2.51l1.29,0.18
		c0.69,0.09,1.28,0.2,1.77,0.32c0.15,0.03,0.25,0.07,0.28,0.1c0.03,0.05,0.06,0.19,0.06,0.41c0,0.45-0.02,0.91-0.07,1.4l0.82,0.11
		c0.19-1.29,0.3-1.96,0.31-2.01c0.05-0.28,0.13-0.6,0.24-0.97l-0.08-0.11c-0.29-0.02-0.58-0.04-0.86-0.07
		c-0.52-0.06-1.55-0.19-3.09-0.4l-3.7-0.51c-1.49-0.2-2.5-0.35-3.03-0.44c-0.32-0.05-0.62-0.11-0.91-0.17l-0.09,0.08
		c0,0.32-0.01,0.61-0.03,0.89c-0.02,0.16-0.1,0.87-0.24,2.13l0.81,0.11c0.09-0.54,0.2-1.01,0.33-1.43c0.06-0.18,0.1-0.28,0.15-0.31
		c0.03-0.03,0.15-0.03,0.35-0.03c0.5,0.02,1.07,0.08,1.72,0.17l1.29,0.18c0,0.18-0.1,1.02-0.31,2.52l-0.75,5.49
		c-0.16,1.33-0.29,2.11-0.39,2.37c-0.07,0.16-0.18,0.27-0.33,0.33c-0.15,0.05-0.59,0.04-1.34-0.03L135.02,30.49 M153.59,27.25
		c-0.06-0.34-0.25-1.27-0.57-2.79c-0.2-0.96-0.42-1.82-0.67-2.58c-0.17-0.52-0.32-0.87-0.44-1.08c-0.12-0.2-0.34-0.46-0.64-0.76
		c-0.37-0.01-0.72-0.02-1.06-0.04l-2-0.16l-0.19,0.66c0.45,0.13,0.71,0.22,0.78,0.28c0.11,0.1,0.26,0.35,0.47,0.76
		c0.32,0.62,0.62,1.4,0.91,2.35c0.36,1.17,0.68,2.35,0.96,3.53c0.11,0.49,0.14,0.8,0.1,0.94l-0.48,1.69
		c-0.13,0.47-0.31,1.05-0.52,1.71c-0.1,0.29-0.18,0.46-0.24,0.51c-0.06,0.05-0.15,0.07-0.28,0.06c-0.13,0-0.53-0.09-1.21-0.26
		l-0.23,0.79c0.91,0.21,1.81,0.44,2.69,0.68c0.9,0.26,1.9,0.56,3.01,0.92l0.22-0.79c-0.64-0.19-1.01-0.32-1.12-0.39
		c-0.11-0.07-0.18-0.15-0.21-0.23c-0.03-0.09-0.02-0.31,0.04-0.66c0.06-0.35,0.18-0.91,0.37-1.67l0.43-1.5
		c0.09-0.31,0.16-0.53,0.22-0.66c0.09-0.18,0.24-0.38,0.45-0.59c0.31-0.32,1.06-1.01,2.27-2.08c1.21-1.07,2.32-1.98,3.32-2.74
		l0.11-0.4l-1.46-0.41c-0.13,0.15-0.44,0.46-0.92,0.93c-1.39,1.39-2.23,2.21-2.51,2.48L153.59,27.25 M171.28,34.71
		c-0.76,1.25-1.16,2.43-1.19,3.57c-0.03,1.13,0.25,2.17,0.84,3.12c0.58,0.95,1.47,1.78,2.65,2.5c1.09,0.67,2.17,1.09,3.24,1.25
		c0.78,0.12,1.56,0.08,2.34-0.11c0.78-0.19,1.5-0.53,2.13-1c0.86-0.64,1.59-1.45,2.2-2.44c0.36-0.58,0.62-1.15,0.8-1.71
		c0.18-0.56,0.28-1.11,0.29-1.65c0.02-0.55-0.08-1.15-0.29-1.8c-0.21-0.66-0.54-1.27-0.99-1.82c-0.61-0.74-1.4-1.41-2.35-1.99
		c-0.96-0.59-1.93-0.99-2.92-1.21c-0.77-0.17-1.58-0.17-2.43,0c-0.85,0.17-1.63,0.52-2.36,1.06C172.53,33,171.87,33.75,171.28,34.71
		 M173.99,35.72c0.52-0.85,1.12-1.56,1.8-2.11c0.68-0.56,1.39-0.85,2.15-0.88c0.76-0.03,1.52,0.19,2.29,0.66
		c0.67,0.41,1.15,0.86,1.41,1.33c0.27,0.48,0.42,1.02,0.46,1.63c0.04,0.61-0.05,1.27-0.26,1.98c-0.21,0.71-0.54,1.43-0.99,2.17
		c-0.66,1.07-1.37,1.9-2.12,2.47c-0.76,0.57-1.5,0.85-2.21,0.85c-0.72,0-1.41-0.21-2.07-0.62c-0.71-0.44-1.24-0.98-1.56-1.64
		c-0.32-0.65-0.41-1.49-0.26-2.49C172.78,38.07,173.23,36.95,173.99,35.72 M190.59,50.44c1.03-1.24,1.88-2.26,2.54-3.06l-0.63-0.53
		c-0.36,0.41-0.6,0.66-0.74,0.74c-0.1,0.07-0.19,0.08-0.27,0.05c-0.21-0.08-0.62-0.37-1.23-0.88c-0.21-0.18-0.61-0.53-1.18-1.06
		l0.81-0.98c1.01-1.22,1.74-2.04,2.18-2.46c0.14,0.1,0.4,0.3,0.78,0.59c0.38,0.29,0.61,0.47,0.69,0.54
		c0.42,0.35,0.76,0.68,1.03,0.99c0.27,0.31,0.42,0.53,0.46,0.66c0.02,0.04,0.02,0.08,0.01,0.12c-0.02,0.06-0.11,0.19-0.27,0.4
		c-0.3,0.41-0.5,0.67-0.59,0.78l0.58,0.48c0.26-0.31,0.59-0.66,0.98-1.05c0.39-0.39,0.72-0.7,0.99-0.93l0.02-0.15
		c-0.39-0.4-0.82-0.8-1.3-1.2l-3.49-2.75l-2.48-2.15l-0.53,0.64c0.45,0.42,0.71,0.68,0.8,0.79c0.09,0.11,0.14,0.19,0.15,0.24
		c0.01,0.05,0,0.11-0.03,0.17c-0.08,0.19-0.27,0.46-0.56,0.83c-1.02,1.27-1.56,1.93-1.61,2l-2.42,2.92
		c-0.21,0.25-0.55,0.66-1.04,1.22c-0.48,0.56-0.77,0.89-0.88,0.99c-0.18,0.17-0.32,0.26-0.41,0.28c-0.06,0.01-0.12,0.01-0.18-0.02
		c-0.11-0.04-0.46-0.29-1.03-0.75l-0.53,0.64c0.9,0.68,1.55,1.19,1.95,1.53l2.74,2.36l0.46-0.55c-0.61-0.59-0.95-0.93-1.01-1.03
		c-0.06-0.1-0.08-0.19-0.07-0.27c0.02-0.12,0.2-0.41,0.55-0.89c0.35-0.48,0.99-1.28,1.93-2.41l0.66-0.8
		c0.27,0.22,0.46,0.37,0.57,0.46c0.75,0.62,1.28,1.11,1.58,1.46c0.11,0.14,0.16,0.26,0.14,0.35c-0.03,0.18-0.29,0.56-0.77,1.17
		L190.59,50.44 M198.74,65.75c0.71,0.88,1.32,1.67,1.83,2.37c0.48,0.65,1.05,1.47,1.72,2.45l0.61-0.45
		c-0.41-0.6-0.63-0.98-0.65-1.14c-0.02-0.16,0.02-0.3,0.12-0.43c0.18-0.22,0.8-0.72,1.87-1.51l4.47-3.29
		c1.19-0.87,1.88-1.37,2.06-1.48l0.77,1.05c0.42,0.56,0.75,1.06,1.01,1.49c0.08,0.14,0.12,0.23,0.12,0.27
		c-0.01,0.06-0.09,0.17-0.26,0.33c-0.32,0.32-0.67,0.62-1.05,0.92l0.49,0.66c1.06-0.76,1.61-1.15,1.66-1.17
		c0.24-0.16,0.52-0.33,0.86-0.5l0.02-0.13c-0.19-0.22-0.37-0.44-0.55-0.66c-0.32-0.41-0.94-1.24-1.86-2.49l-2.21-3.01
		c-0.89-1.21-1.49-2.04-1.8-2.47c-0.19-0.27-0.35-0.53-0.51-0.77l-0.12-0.01c-0.23,0.22-0.45,0.42-0.65,0.6
		c-0.13,0.1-0.69,0.54-1.7,1.31l0.49,0.66c0.44-0.31,0.86-0.57,1.26-0.76c0.16-0.08,0.28-0.12,0.33-0.11
		c0.04,0.01,0.13,0.09,0.26,0.23c0.33,0.37,0.69,0.82,1.08,1.35l0.77,1.05c-0.13,0.13-0.81,0.64-2.02,1.53l-4.47,3.29
		c-1.06,0.81-1.72,1.27-1.97,1.37c-0.17,0.06-0.32,0.06-0.47-0.01c-0.14-0.07-0.45-0.4-0.91-0.98L198.74,65.75 M204.96,74.56
		c0.96,1.65,1.48,2.54,1.55,2.67c0.27,0.49,0.74,1.38,1.42,2.67l0.68,1.32c0.35,0.64,0.64,1.12,0.87,1.44l0.16,0.05
		c0.69-0.38,1.59-0.8,2.73-1.26l-0.36-0.66c-0.78,0.28-1.32,0.45-1.63,0.49c-0.09,0.01-0.16,0-0.2-0.03
		c-0.13-0.08-0.35-0.35-0.66-0.82c-0.31-0.47-0.62-1-0.94-1.58c-0.33-0.6-0.59-1.13-0.79-1.59c0.26-0.17,0.58-0.36,0.96-0.57
		l3.39-1.86c0.23,0.32,0.49,0.74,0.77,1.26c0.32,0.58,0.55,1.08,0.7,1.48c0.07,0.18,0.06,0.34-0.01,0.46
		c-0.1,0.17-0.46,0.42-1.09,0.75l0.36,0.66l1.75-1l1.8-0.94l-0.36-0.66c-0.49,0.25-0.85,0.4-1.09,0.45
		c-0.09,0.02-0.17,0.01-0.23-0.02c-0.06-0.03-0.17-0.19-0.34-0.48c-0.44-0.75-0.69-1.19-0.76-1.31c-0.22-0.4-0.4-0.79-0.56-1.17
		l1.65-0.9c0.93-0.51,1.73-0.89,2.38-1.14c0.31,0.48,0.6,0.95,0.86,1.43c0.28,0.51,0.53,1.05,0.77,1.61
		c0.16,0.38,0.23,0.62,0.22,0.71c-0.01,0.06-0.04,0.12-0.11,0.19c-0.12,0.12-0.5,0.35-1.12,0.71l0.34,0.63
		c0.73-0.33,1.13-0.52,1.22-0.56l1.26-0.48l0.07-0.12c0-0.16-0.02-0.27-0.05-0.32c-0.3-0.6-0.5-1-0.61-1.2l-0.94-1.62
		c-0.51-0.9-0.97-1.71-1.37-2.45c-0.19-0.34-0.39-0.69-0.6-1.06l-1.08-1.84l-0.63,0.34c0.31,0.64,0.47,1.05,0.48,1.23
		c0,0.07-0.02,0.13-0.06,0.19c-0.1,0.13-0.45,0.38-1.06,0.73c-0.9,0.52-1.43,0.82-1.56,0.9l-3.65,2c-0.42,0.23-1.11,0.58-2.07,1.04
		c-0.52,0.26-0.9,0.43-1.15,0.52c-0.27-0.11-0.57-0.29-0.9-0.53L204.96,74.56 M210.29,84.37c0.13,0.2,0.32,0.63,0.57,1.29
		c0.13,0.34,0.26,0.74,0.4,1.23l0.68-0.26c0.73,0.14,1.34,0.26,1.82,0.37c0.49,0.11,0.94,0.21,1.34,0.3
		c0.41,0.09,1.02,0.24,1.83,0.45l-2.59,3.03c-0.54,0.64-0.89,1.1-1.06,1.37c0.24,0.49,0.44,0.94,0.6,1.35
		c0.06,0.14,0.29,0.81,0.69,1.99l0.77-0.3l-0.08-0.2c-0.03-0.08-0.06-0.22-0.09-0.41c-0.02-0.08-0.02-0.15,0-0.23
		c0.01-0.07,0.05-0.16,0.11-0.26c0.11-0.18,0.33-0.5,0.66-0.95c0.06-0.08,0.24-0.32,0.56-0.72l1.43-1.81
		c0.08-0.1,0.32-0.4,0.73-0.88c0.58-0.7,0.91-1.1,0.99-1.19l0.41,0.1l1.7,0.46c1.5,0.41,2.54,0.72,3.11,0.94
		c0.31,0.12,0.5,0.21,0.57,0.28c0.12,0.12,0.26,0.39,0.43,0.81l0.77-0.3c-0.27-0.57-0.45-0.96-0.53-1.18
		c-0.09-0.24-0.22-0.64-0.38-1.19l-0.69,0.27l-2.59-0.62l-2.04-0.49l1.41-1.65c0.37-0.43,0.57-0.67,0.62-0.73
		c0.41-0.52,0.7-0.89,0.86-1.13c0.16-0.24,0.28-0.44,0.35-0.61c0.07-0.17,0.13-0.36,0.17-0.58c-0.18-0.26-0.38-0.55-0.59-0.89
		l-1.35-2.06l-0.63,0.35c0.15,0.33,0.24,0.53,0.28,0.62c0.05,0.13,0.07,0.25,0.06,0.36c-0.02,0.16-0.12,0.43-0.32,0.79
		c-0.28,0.54-0.68,1.12-1.18,1.75l-1.5,1.89l-0.89,1.09l-2.03-0.56c-0.22-0.08-0.71-0.22-1.47-0.43c-0.96-0.28-1.65-0.49-2.05-0.63
		c-0.3-0.1-0.48-0.19-0.56-0.24c-0.04-0.03-0.09-0.07-0.13-0.13c-0.06-0.08-0.19-0.33-0.39-0.77L210.29,84.37 M215.5,98.61
		l0.39,2.09l0.8-0.18c-0.13-0.72-0.18-1.16-0.12-1.32c0.04-0.11,0.13-0.18,0.27-0.21c0.2-0.04,0.75-0.01,1.64,0.11l1.16,0.16
		l1.03,4.67l-1.8,1.21c-0.31,0.21-0.54,0.34-0.69,0.37c-0.12,0.03-0.22,0-0.29-0.08c-0.07-0.08-0.21-0.49-0.39-1.21l-0.81,0.18
		l0.77,3.15l0.48,2.52l0.81-0.18c-0.02-0.18-0.03-0.32-0.04-0.41c-0.04-0.29-0.06-0.47-0.05-0.54c0.01-0.07,0.03-0.14,0.07-0.21
		c0.04-0.07,0.1-0.14,0.2-0.22l0.74-0.54l1.11-0.83l8.47-6.09l-0.29-1.29l-2.21-0.35l-6.29-1.08c-1.19-0.2-1.99-0.34-2.4-0.42
		c-0.87-0.17-1.37-0.27-1.5-0.32c-0.14-0.04-0.24-0.09-0.32-0.15c-0.07-0.05-0.13-0.12-0.18-0.21c-0.05-0.09-0.15-0.37-0.29-0.85
		l-0.8,0.18L215.5,98.61z M225.8,100.31l-4.19,2.93c-0.14-0.54-0.29-1.16-0.45-1.85c-0.16-0.72-0.29-1.36-0.39-1.93L225.8,100.31z
		 M228.22,119.71c0.63-0.03,1.13-0.03,1.52-0.02c0.38,0.01,0.78,0.05,1.18,0.11l0.22-0.09c0.19-0.47,0.32-1.02,0.38-1.64
		c0.07-0.62,0.08-1.27,0.04-1.92c-0.05-0.63-0.16-1.24-0.34-1.84c-0.18-0.59-0.45-1.11-0.8-1.57c-0.36-0.45-0.84-0.81-1.43-1.06
		c-0.6-0.25-1.25-0.35-1.94-0.3c-0.49,0.04-0.94,0.15-1.36,0.34c-0.42,0.19-0.76,0.46-1.04,0.81c-0.28,0.35-0.48,0.79-0.6,1.34
		c-0.08,0.36-0.19,1.11-0.34,2.25c-0.12,0.79-0.25,1.35-0.4,1.67c-0.14,0.32-0.35,0.56-0.61,0.73c-0.27,0.16-0.59,0.26-0.98,0.29
		c-0.46,0.03-0.88-0.04-1.26-0.22c-0.38-0.18-0.69-0.49-0.93-0.94c-0.24-0.44-0.38-0.96-0.42-1.55c-0.05-0.67,0.05-1.3,0.3-1.89
		c0.25-0.59,0.56-1.01,0.92-1.28c0.66-0.13,1.21-0.2,1.66-0.22l-0.06-0.82c-1.44,0.1-2.51,0.08-3.23-0.05
		c-0.29,0.74-0.49,1.41-0.59,2.01c-0.1,0.61-0.12,1.29-0.06,2.05c0.08,1.04,0.29,1.92,0.64,2.64c0.22,0.45,0.53,0.88,0.93,1.3
		c0.4,0.41,0.84,0.72,1.3,0.94c0.62,0.28,1.33,0.4,2.11,0.34c0.45-0.03,0.85-0.12,1.2-0.26c0.35-0.15,0.64-0.32,0.86-0.52
		c0.22-0.2,0.41-0.46,0.57-0.78c0.16-0.32,0.28-0.74,0.38-1.25c0.03-0.19,0.08-0.62,0.14-1.26c0.06-0.65,0.12-1.15,0.16-1.52
		c0.09-0.48,0.2-0.84,0.33-1.09c0.13-0.25,0.32-0.45,0.56-0.6c0.24-0.15,0.57-0.24,0.98-0.28c0.57-0.04,1.08,0.15,1.53,0.58
		c0.45,0.43,0.71,1.06,0.78,1.89c0.04,0.58-0.03,1.12-0.2,1.6c-0.17,0.48-0.39,0.83-0.65,1.04c-0.29,0.07-0.79,0.14-1.5,0.2
		L228.22,119.71 M42.9,196.88l1.37,1.63l0.61-0.55c-0.47-0.56-0.73-0.92-0.76-1.09c-0.02-0.11,0.03-0.22,0.13-0.32
		c0.15-0.14,0.65-0.38,1.48-0.71l1.09-0.43l3.2,3.55l-0.97,1.94c-0.16,0.34-0.3,0.56-0.42,0.66c-0.09,0.08-0.19,0.11-0.29,0.07
		c-0.1-0.04-0.42-0.32-0.94-0.86l-0.61,0.55l2.22,2.36l1.66,1.96l0.61-0.55c-0.11-0.14-0.18-0.26-0.24-0.33
		c-0.18-0.23-0.28-0.38-0.31-0.45c-0.03-0.07-0.04-0.14-0.04-0.21s0.02-0.17,0.06-0.29l0.38-0.84l0.55-1.27l4.37-9.48l-0.89-0.98
		l-2.1,0.79l-6.01,2.16c-1.14,0.41-1.9,0.68-2.29,0.82c-0.84,0.28-1.32,0.43-1.46,0.47c-0.14,0.03-0.26,0.04-0.34,0.03
		c-0.09-0.01-0.17-0.04-0.26-0.1c-0.09-0.05-0.31-0.25-0.67-0.6l-0.61,0.55L42.9,196.88z M52.7,193.27l-2.2,4.62
		c-0.39-0.4-0.83-0.87-1.3-1.39c-0.49-0.55-0.92-1.04-1.29-1.49L52.7,193.27z M54.51,208.95c0.9,0.69,1.68,1.31,2.34,1.87
		c0.62,0.52,1.37,1.18,2.25,1.97l0.48-0.58c-0.54-0.49-0.84-0.8-0.9-0.95c-0.06-0.15-0.05-0.3,0.02-0.45
		c0.12-0.25,0.61-0.89,1.46-1.92l3.56-4.25c0.95-1.13,1.5-1.77,1.65-1.93l1,0.84c0.54,0.45,0.98,0.85,1.33,1.21
		c0.11,0.11,0.17,0.19,0.18,0.24c0.01,0.06-0.05,0.19-0.17,0.38c-0.23,0.38-0.5,0.76-0.8,1.14l0.63,0.53
		c0.85-0.99,1.3-1.5,1.33-1.53c0.19-0.21,0.43-0.44,0.72-0.69l-0.01-0.13c-0.24-0.17-0.47-0.34-0.69-0.51
		c-0.41-0.33-1.21-0.99-2.4-1.98l-2.86-2.4c-1.16-0.97-1.93-1.63-2.33-1.98c-0.25-0.21-0.47-0.43-0.68-0.63l-0.12,0.02
		c-0.17,0.27-0.33,0.52-0.49,0.74c-0.1,0.13-0.55,0.68-1.34,1.68l0.63,0.53c0.36-0.41,0.71-0.75,1.05-1.04
		c0.14-0.12,0.24-0.18,0.29-0.18c0.04,0,0.15,0.05,0.31,0.17c0.41,0.28,0.86,0.64,1.37,1.06l1,0.83c-0.1,0.15-0.63,0.81-1.6,1.97
		l-3.56,4.26c-0.84,1.04-1.37,1.63-1.59,1.8c-0.15,0.1-0.3,0.13-0.46,0.1c-0.16-0.03-0.53-0.28-1.12-0.74L54.51,208.95
		 M76.59,223.97l1.91,0.94l0.34-0.75c-0.66-0.32-1.04-0.56-1.13-0.7c-0.07-0.09-0.07-0.21-0.01-0.34c0.09-0.19,0.44-0.6,1.07-1.25
		l0.82-0.84l4.36,1.97l-0.11,2.16c-0.02,0.38-0.05,0.64-0.12,0.77c-0.05,0.11-0.13,0.17-0.24,0.18c-0.11,0.01-0.51-0.13-1.2-0.41
		l-0.34,0.75l2.99,1.27l2.31,1.12l0.34-0.75c-0.15-0.09-0.27-0.16-0.35-0.21c-0.26-0.14-0.41-0.23-0.47-0.28
		c-0.05-0.05-0.1-0.11-0.13-0.18c-0.03-0.07-0.05-0.17-0.06-0.29l0.01-0.92l0-1.39l0.18-10.44l-1.21-0.54l-1.6,1.57l-4.63,4.4
		c-0.88,0.83-1.46,1.39-1.77,1.67c-0.65,0.59-1.04,0.93-1.15,1.02c-0.12,0.09-0.22,0.14-0.3,0.17c-0.09,0.03-0.18,0.03-0.28,0.02
		c-0.1-0.01-0.38-0.11-0.85-0.28l-0.34,0.75L76.59,223.97z M84.12,216.72l-0.15,5.11c-0.52-0.21-1.1-0.46-1.75-0.75
		c-0.67-0.3-1.26-0.58-1.78-0.85L84.12,216.72z M94.21,218.37c0.71,0.24,1.12,0.41,1.24,0.52c0.05,0.05,0.08,0.11,0.09,0.19
		c0.02,0.16-0.07,0.62-0.25,1.37l-0.47,1.9l-0.89,3.32l-0.73,2.6c-0.15,0.46-0.27,0.81-0.37,1.03c-0.05,0.12-0.1,0.2-0.14,0.23
		c-0.04,0.03-0.1,0.05-0.18,0.05c-0.14,0.01-0.55-0.06-1.23-0.22l-0.21,0.8c0.79,0.16,1.64,0.36,2.55,0.61
		c1.02,0.27,2.04,0.57,3.04,0.89l0.21-0.8c-0.57-0.17-0.91-0.27-1.02-0.33c-0.11-0.05-0.19-0.11-0.23-0.16
		c-0.04-0.05-0.07-0.1-0.08-0.16c-0.02-0.11,0-0.34,0.08-0.68c0.04-0.17,0.22-0.87,0.54-2.1c0.26-1,0.51-1.95,0.75-2.85
		c0.15-0.56,0.47-1.69,0.95-3.36c0.22-0.75,0.36-1.23,0.44-1.44c0.29,0.03,0.58,0.08,0.87,0.15c0.64,0.18,1.08,0.34,1.31,0.5
		c0.35,0.25,0.61,0.59,0.77,1.02c0.16,0.44,0.17,0.93,0.03,1.48c-0.15,0.54-0.4,1-0.77,1.38c-0.37,0.37-0.76,0.59-1.16,0.67
		c-0.41,0.07-0.97,0-1.68-0.21l-0.18,0.27c0.14,0.18,0.27,0.42,0.4,0.74c0.24,0.62,0.51,1.45,0.82,2.51l1.07,3.66
		c0.06,0.24,0.08,0.43,0.08,0.57c0.48,0.08,0.96,0.18,1.44,0.31c0.41,0.11,1.07,0.31,1.97,0.6l0.21-0.8
		c-0.28-0.08-0.46-0.15-0.54-0.22c-0.08-0.07-0.16-0.17-0.24-0.3c-0.07-0.14-0.25-0.56-0.54-1.27c-0.02-0.05-0.14-0.4-0.36-1.04
		l-0.83-2.43c-0.02-0.06-0.04-0.12-0.06-0.19c-0.02-0.07-0.08-0.27-0.2-0.59c-0.12-0.33-0.21-0.65-0.29-0.95
		c1.02-0.1,1.84-0.38,2.44-0.86c0.6-0.47,1-1.07,1.2-1.79c0.16-0.61,0.14-1.17-0.08-1.68c-0.21-0.51-0.53-0.89-0.96-1.15
		c-0.43-0.26-1.11-0.51-2.04-0.76c-0.48-0.13-1.1-0.27-1.84-0.43c-0.45-0.09-0.99-0.21-1.62-0.38c-0.73-0.2-1.29-0.35-1.69-0.47
		c-0.81-0.25-1.28-0.39-1.41-0.43L94.21,218.37 M107.47,234.03c1.22,0.09,2.13,0.17,2.73,0.25c0.39,0.04,1.09,0.14,2.1,0.27
		c1.32,0.18,2.03,0.27,2.14,0.29c0.78,0.09,1.36,0.14,1.73,0.16c0.18,0,0.36-0.01,0.54-0.04c0.02-0.12,0.09-0.46,0.21-1.04
		l0.45-1.82c0-0.03,0.02-0.13,0.06-0.3l-0.82-0.09c-0.18,0.58-0.36,1.09-0.53,1.53c-0.08,0.18-0.14,0.28-0.19,0.32
		c-0.05,0.04-0.21,0.06-0.46,0.07c-0.7,0.04-1.51,0.01-2.42-0.1c-0.3-0.03-0.87-0.13-1.69-0.27c0.01-0.18,0.07-0.7,0.16-1.56
		c0.09-0.86,0.19-1.72,0.28-2.6c0.19-1.66,0.28-2.54,0.3-2.65c0.12-1.03,0.22-1.87,0.32-2.54c0.09-0.67,0.16-1.04,0.2-1.12
		c0.04-0.08,0.1-0.13,0.17-0.16c0.17-0.06,0.61-0.07,1.32-0.02l0.09-0.82c-1-0.07-2.05-0.16-3.16-0.29
		c-0.99-0.11-1.87-0.24-2.64-0.38l-0.09,0.82c0.8,0.12,1.26,0.24,1.39,0.34c0.06,0.05,0.1,0.11,0.12,0.18
		c0.04,0.17,0,0.83-0.12,1.98c-0.04,0.45-0.18,1.64-0.4,3.58c-0.15,1.31-0.29,2.44-0.41,3.38c-0.12,0.94-0.21,1.48-0.25,1.63
		c-0.01,0.03-0.03,0.07-0.06,0.1c-0.04,0.04-0.14,0.09-0.27,0.15c-0.31,0.14-0.56,0.23-0.73,0.28L107.47,234.03 M126.82,222.31
		c-1,0.04-2.06,0.06-3.18,0.06c-1,0-1.89-0.03-2.66-0.08l0,0.82c0.67,0.03,1.05,0.05,1.16,0.08c0.11,0.03,0.18,0.06,0.22,0.11
		c0.04,0.04,0.07,0.1,0.09,0.19c0.04,0.19,0.08,0.68,0.11,1.47c0.02,0.35,0.03,1.14,0.03,2.36l-0.01,3.86
		c0,0.62-0.02,1.31-0.04,2.05c-0.03,0.5-0.06,0.79-0.08,0.87c-0.01,0.05-0.04,0.1-0.09,0.14c-0.05,0.05-0.14,0.08-0.27,0.1
		c-0.1,0.02-0.48,0.04-1.14,0.06l0,0.83c0.77-0.04,1.65-0.07,2.64-0.06c1.13,0,2.2,0.03,3.2,0.08v-0.82
		c-0.6-0.02-0.96-0.03-1.09-0.06c-0.13-0.03-0.22-0.07-0.27-0.11c-0.06-0.05-0.1-0.11-0.12-0.2c-0.06-0.19-0.09-0.6-0.09-1.24
		l-0.03-1.68l0.01-3.72c0-0.12,0.01-0.93,0.03-2.45c0.01-0.44,0.01-0.74,0.02-0.9c0.02-0.3,0.05-0.5,0.1-0.6
		c0.02-0.06,0.05-0.11,0.1-0.15s0.14-0.07,0.25-0.1c0.12-0.03,0.49-0.05,1.13-0.07L126.82,222.31 M130.79,235.26
		c1.01-0.18,1.82-0.31,2.41-0.39c0.16-0.02,0.82-0.1,1.98-0.23l-0.1-0.78c-0.09,0.02-0.15,0.03-0.18,0.04
		c-0.18,0.02-0.48,0.04-0.88,0.04c-0.15,0-0.26-0.02-0.32-0.05c-0.07-0.04-0.11-0.09-0.15-0.16c-0.07-0.15-0.16-0.57-0.28-1.27
		c-0.18-1.02-0.34-2-0.46-2.94l-0.6-4.55c4.2,3.94,7.43,6.89,9.7,8.83c0.54,0.01,1.06,0.02,1.58,0.04l0.1-0.1
		c-0.18-0.85-0.54-3.31-1.08-7.36c-0.07-0.51-0.17-1.32-0.3-2.41c-0.13-1.09-0.17-1.8-0.12-2.11c0.01-0.06,0.04-0.11,0.08-0.15
		c0.13-0.11,0.56-0.22,1.31-0.34l-0.11-0.82c-0.91,0.17-1.66,0.29-2.25,0.37c-0.61,0.09-1.3,0.15-2.05,0.2l0.11,0.82
		c0.81-0.09,1.3-0.1,1.45,0c0.09,0.05,0.17,0.19,0.22,0.41c0.15,0.57,0.44,2.49,0.87,5.76l0.24,2.11c-0.96-0.76-2.19-1.83-3.68-3.21
		c-2.07-1.91-3.85-3.6-5.32-5.08l-0.84,0.15l-1.32,0.21c-0.36,0.05-0.94,0.1-1.72,0.16l0.11,0.82c0.65-0.04,1.04-0.05,1.18-0.04
		c0.14,0.02,0.24,0.06,0.3,0.11c0.07,0.06,0.12,0.15,0.17,0.28c0.05,0.13,0.11,0.42,0.17,0.86l0.39,2.64l0.38,2.92
		c0.11,0.81,0.18,1.46,0.22,1.97c0.07,0.9,0.09,1.46,0.08,1.69c-0.01,0.17-0.03,0.29-0.07,0.35c-0.04,0.06-0.09,0.11-0.15,0.14
		c-0.1,0.04-0.5,0.13-1.2,0.26L130.79,235.26z M158.68,219.73c-0.3-1.34-0.47-2.28-0.5-2.84l-0.13-0.14
		c-0.55-0.06-1.28-0.04-2.2,0.05c-0.92,0.09-1.87,0.3-2.87,0.62c-0.81,0.26-1.53,0.57-2.16,0.92c-0.63,0.36-1.21,0.79-1.72,1.31
		c-0.51,0.52-0.93,1.11-1.25,1.78c-0.32,0.67-0.51,1.39-0.56,2.16c-0.05,0.78,0.07,1.62,0.37,2.54c0.35,1.09,0.88,2.02,1.58,2.77
		c0.44,0.49,1,0.9,1.66,1.24c0.66,0.34,1.4,0.55,2.21,0.64c1.15,0.12,2.39-0.03,3.7-0.45c0.81-0.26,1.59-0.6,2.35-1.03
		c0.76-0.43,1.62-1.01,2.57-1.76c-0.17-0.46-0.33-0.91-0.47-1.36c-0.09-0.29-0.24-0.78-0.43-1.46c-0.07-0.26-0.09-0.44-0.06-0.51
		c0.07-0.16,0.27-0.33,0.59-0.51l-0.19-0.58l-2.63,0.92l-2.66,0.78l0.23,0.72c0.93-0.24,1.5-0.37,1.73-0.37
		c0.13-0.01,0.23,0.01,0.29,0.07c0.08,0.09,0.21,0.42,0.39,0.98c0.03,0.09,0.11,0.37,0.25,0.81c0.14,0.45,0.23,0.76,0.27,0.92
		c-0.31,0.28-0.63,0.53-0.98,0.74c-0.34,0.21-0.72,0.38-1.11,0.5c-1.36,0.44-2.67,0.29-3.94-0.44c-1.27-0.73-2.18-1.96-2.74-3.71
		c-0.51-1.6-0.47-3,0.11-4.19c0.59-1.2,1.62-2.03,3.09-2.51c0.63-0.2,1.21-0.31,1.76-0.32c0.55-0.02,1.05,0.05,1.52,0.18
		c0.21,0.06,0.41,0.15,0.62,0.28c0.1,0.17,0.2,0.38,0.3,0.63c0.14,0.36,0.25,0.64,0.31,0.83L158.68,219.73 M169.18,225.08
		c0.98-0.56,1.86-1.03,2.63-1.43c0.72-0.37,1.62-0.81,2.7-1.3l-0.34-0.67c-0.66,0.31-1.07,0.46-1.23,0.46
		c-0.16,0-0.29-0.07-0.41-0.19c-0.19-0.21-0.59-0.91-1.2-2.09l-2.53-4.94c-0.67-1.31-1.05-2.07-1.13-2.27l1.16-0.59
		c0.62-0.32,1.16-0.57,1.63-0.75c0.14-0.06,0.24-0.09,0.29-0.08c0.06,0.02,0.15,0.12,0.29,0.31c0.26,0.36,0.51,0.76,0.74,1.18
		l0.73-0.38c-0.58-1.17-0.88-1.78-0.89-1.83c-0.12-0.26-0.24-0.57-0.36-0.93l-0.13-0.04c-0.25,0.15-0.49,0.3-0.74,0.44
		c-0.46,0.25-1.38,0.73-2.76,1.44l-3.32,1.7c-1.34,0.69-2.25,1.15-2.73,1.38c-0.3,0.14-0.58,0.26-0.85,0.38l-0.03,0.12
		c0.18,0.26,0.34,0.51,0.49,0.74c0.08,0.14,0.42,0.77,1.02,1.88l0.73-0.38c-0.24-0.49-0.42-0.94-0.55-1.37
		c-0.05-0.17-0.07-0.29-0.05-0.34c0.01-0.04,0.1-0.11,0.27-0.22c0.42-0.27,0.92-0.55,1.51-0.85l1.16-0.59
		c0.1,0.15,0.5,0.9,1.19,2.24l2.53,4.94c0.63,1.18,0.97,1.9,1.03,2.16c0.03,0.18,0.01,0.33-0.09,0.46
		c-0.09,0.13-0.46,0.38-1.12,0.74L169.18,225.08 M176.96,213.79c0.87,1.17,1.82,1.99,2.86,2.44c1.04,0.45,2.1,0.59,3.2,0.4
		c1.1-0.19,2.21-0.69,3.32-1.51c1.03-0.76,1.82-1.6,2.38-2.53c0.4-0.68,0.66-1.42,0.78-2.22c0.12-0.8,0.08-1.58-0.12-2.35
		c-0.27-1.04-0.75-2.02-1.43-2.95c-0.41-0.55-0.84-1.01-1.28-1.39c-0.45-0.37-0.92-0.67-1.42-0.89c-0.5-0.22-1.09-0.36-1.78-0.41
		c-0.69-0.06-1.38,0.02-2.06,0.23c-0.92,0.29-1.83,0.77-2.73,1.43c-0.91,0.67-1.64,1.42-2.22,2.25c-0.45,0.65-0.75,1.4-0.91,2.25
		c-0.16,0.85-0.13,1.71,0.09,2.59C175.84,211.99,176.29,212.88,176.96,213.79 M178.91,211.66c-0.59-0.8-1.02-1.62-1.28-2.46
		c-0.26-0.84-0.26-1.61-0.01-2.33c0.26-0.72,0.75-1.34,1.47-1.87c0.63-0.47,1.22-0.74,1.77-0.81c0.54-0.07,1.1-0.01,1.68,0.19
		c0.58,0.2,1.16,0.52,1.74,0.99c0.57,0.46,1.12,1.04,1.63,1.74c0.75,1.01,1.25,1.98,1.49,2.89c0.24,0.92,0.23,1.71-0.04,2.37
		c-0.28,0.66-0.73,1.22-1.35,1.69c-0.68,0.5-1.38,0.78-2.11,0.83c-0.73,0.06-1.53-0.18-2.4-0.7
		C180.63,213.66,179.76,212.82,178.91,211.66 M195.32,207.58c0.67-0.78,1.21-1.39,1.63-1.82c0.11-0.12,0.58-0.59,1.4-1.43
		l-0.57-0.54c-0.06,0.07-0.1,0.11-0.12,0.14c-0.13,0.13-0.35,0.33-0.66,0.59c-0.11,0.09-0.21,0.15-0.28,0.16
		c-0.07,0.01-0.14,0-0.21-0.03c-0.15-0.07-0.49-0.34-1.02-0.81c-0.78-0.67-1.52-1.34-2.21-1.99l-3.34-3.15
		c5.75,0.41,10.12,0.66,13.1,0.74c0.42-0.33,0.84-0.65,1.26-0.96l0.02-0.14c-0.68-0.55-2.51-2.23-5.48-5.04
		c-0.38-0.36-0.96-0.92-1.75-1.68c-0.79-0.76-1.26-1.28-1.42-1.56c-0.03-0.06-0.04-0.11-0.03-0.17c0.03-0.16,0.3-0.53,0.8-1.08
		l-0.6-0.57c-0.6,0.71-1.11,1.28-1.51,1.7c-0.43,0.45-0.92,0.93-1.47,1.45l0.6,0.56c0.57-0.58,0.95-0.89,1.13-0.92
		c0.11-0.02,0.25,0.04,0.43,0.18c0.48,0.35,1.91,1.65,4.31,3.92l1.52,1.49c-1.23,0.02-2.86-0.04-4.88-0.17
		c-2.81-0.17-5.26-0.37-7.33-0.59l-0.56,0.64l-0.9,1c-0.25,0.27-0.66,0.67-1.24,1.21l0.6,0.56c0.48-0.44,0.77-0.7,0.89-0.77
		c0.12-0.08,0.22-0.11,0.31-0.11c0.09,0,0.19,0.04,0.31,0.11c0.12,0.07,0.34,0.26,0.67,0.56l1.97,1.81l2.14,2.02
		c0.59,0.56,1.06,1.02,1.41,1.39c0.61,0.65,0.99,1.07,1.13,1.26c0.1,0.14,0.16,0.24,0.17,0.32c0.01,0.07,0,0.14-0.03,0.2
		c-0.05,0.1-0.3,0.42-0.77,0.96L195.32,207.58z M31.49,112.57c-0.09,0.73-0.17,1.15-0.26,1.29c-0.09,0.13-0.21,0.21-0.38,0.24
		c-0.28,0.05-1.08,0.02-2.41-0.09l-5.53-0.46c-1.47-0.12-2.31-0.2-2.53-0.24c0.09-1.03,0.15-2.07,0.33-3.08
		c0.03-0.15,0.05-0.25,0.09-0.28c0.05-0.04,0.18-0.07,0.41-0.09c0.45-0.03,0.91-0.03,1.4,0l0.07-0.82c-1.3-0.13-1.97-0.2-2.02-0.21
		c-0.28-0.04-0.61-0.1-0.98-0.19l-0.1,0.09c0,0.29-0.01,0.58-0.02,0.86c-0.03,0.52-0.11,1.56-0.24,3.11l-0.31,3.72
		c-0.13,1.5-0.22,2.52-0.27,3.04c-0.04,0.33-0.08,0.63-0.13,0.92l0.09,0.09c0.32-0.02,0.61-0.03,0.89-0.02
		c0.16,0.01,0.87,0.05,2.14,0.13l0.07-0.82c-0.54-0.06-1.02-0.14-1.45-0.26c-0.18-0.04-0.28-0.09-0.32-0.14
		c-0.03-0.03-0.04-0.15-0.04-0.35c-0.01-1.01,0.1-2.02,0.19-3.02c0.18-0.01,1.02,0.05,2.53,0.17l5.53,0.46
		c1.33,0.09,2.12,0.18,2.38,0.27c0.17,0.06,0.28,0.17,0.35,0.31c0.06,0.15,0.07,0.59,0.04,1.34l0.75,0.06
		c0.05-1.13,0.1-2.12,0.18-2.99c0.07-0.81,0.17-1.8,0.32-2.98L31.49,112.57z"/>
</g>
</svg>
